<?xml version="1.0" encoding="UTF-8"?><svg id="_레이어_2" xmlns="http://www.w3.org/2000/svg" viewBox="0 0 50.93 43.71"><defs><style>.cls-1{fill:#fff;}.cls-2{fill:#5681bb;}.cls-3{fill:#545861;}</style></defs><g id="_레이어_1-2"><path class="cls-3" d="m35.51,43.71H.91c-.5,0-.91-.41-.91-.91V.91C0,.41.41,0,.91,0h26.41c.24,0,.47.1.64.27l8.2,8.2c.17.17.27.4.27.64v9.8c0,.5-.41.91-.91.91s-.91-.41-.91-.91v-9.42l-7.66-7.66H1.82v40.07h32.78v-15.26c0-.5.41-.91.91-.91s.91.41.91.91v16.17c0,.5-.41.91-.91.91Z"/><path class="cls-3" d="m35.51,10.02h-8.2c-.5,0-.91-.41-.91-.91V.91c0-.37.22-.7.56-.84.34-.14.73-.06.99.2l8.2,8.2c.26.26.34.65.2.99-.14.34-.47.56-.84.56Zm-7.28-1.82h5.09l-5.09-5.09v5.09Z"/><path class="cls-3" d="m35.51,10.02c-.23,0-.47-.09-.64-.27L26.67,1.55c-.36-.36-.36-.93,0-1.29.36-.36.93-.36,1.29,0l8.2,8.2c.36.36.36.93,0,1.29-.18.18-.41.27-.64.27Z"/><path class="cls-3" d="m23.06,32.78h-13.96c-.5,0-.91-.41-.91-.91s.41-.91.91-.91h13.96c.5,0,.91.41.91.91s-.41.91-.91.91Z"/><path class="cls-3" d="m27.32,27.32H9.11c-.5,0-.91-.41-.91-.91s.41-.91.91-.91h18.21c.5,0,.91.41.91.91s-.41.91-.91.91Z"/><path class="cls-3" d="m27.32,21.85H9.11c-.5,0-.91-.41-.91-.91s.41-.91.91-.91h18.21c.5,0,.91.41.91.91s-.41.91-.91.91Z"/><path class="cls-3" d="m20.94,38.25h-11.84c-.5,0-.91-.41-.91-.91s.41-.91.91-.91h11.84c.5,0,.91.41.91.91s-.41.91-.91.91Z"/><path class="cls-3" d="m12.75,15.48c-.36,0-.7-.22-.85-.57l-2.8-6.99-2.8,6.99c-.19.47-.72.69-1.18.51-.47-.19-.69-.72-.51-1.18l3.64-9.11c.14-.35.47-.57.85-.57s.71.23.85.57l3.64,9.11c.19.47-.04,1-.51,1.18-.11.04-.22.07-.34.07Z"/><path class="cls-3" d="m11.66,12.75h-5.1c-.5,0-.91-.41-.91-.91s.41-.91.91-.91h5.1c.5,0,.91.41.91.91s-.41.91-.91.91Z"/><path class="cls-3" d="m16.39,10.93c-.5,0-.91-.41-.91-.91v-3.64c0-.5.41-.91.91-.91s.91.41.91.91v3.64c0,.5-.41.91-.91.91Z"/><path class="cls-3" d="m18.21,9.11h-3.64c-.5,0-.91-.41-.91-.91s.41-.91.91-.91h3.64c.5,0,.91.41.91.91s-.41.91-.91.91Z"/><polygon class="cls-1" points="19.9 28.34 19.3 37.26 25.82 33.82 49.45 12.3 49.36 6.49 44.53 5.97 19.9 28.34"/><polygon class="cls-2" points="20.46 29.1 25.82 33.82 44.6 16.94 40.8 9.34 20.46 29.1"/><path class="cls-3" d="m18,39.19c-.35,0-.69-.14-.95-.39-.36-.36-.49-.89-.32-1.38l2.85-8.55c.07-.2.18-.38.32-.52L41.75,6.49c2.03-2.03,5.57-2.03,7.6,0,1.02,1.02,1.57,2.37,1.57,3.8s-.56,2.79-1.57,3.8l-21.86,21.86c-.15.15-.33.26-.52.32l-8.55,2.85c-.14.05-.28.07-.43.07Zm4.03-9.17l-1.9,5.7,5.7-1.9,21.63-21.63c.51-.51.79-1.18.79-1.9s-.28-1.39-.79-1.9c-1.02-1.02-2.79-1.02-3.8,0l-21.63,21.63Z"/><path class="cls-3" d="m45.56,17.33c-.34,0-.69-.13-.95-.39l-5.7-5.7c-.52-.52-.52-1.38,0-1.9.52-.52,1.38-.52,1.9,0l5.7,5.7c.52.52.52,1.38,0,1.9-.26.26-.61.39-.95.39Z"/><path class="cls-3" d="m26.55,36.34c-.34,0-.69-.13-.95-.39l-5.7-5.7c-.52-.52-.52-1.38,0-1.9.52-.52,1.38-.52,1.9,0l5.7,5.7c.52.52.52,1.38,0,1.9-.26.26-.61.39-.95.39Z"/></g></svg>