<?xml version="1.0" encoding="UTF-8"?><svg id="_레이어_2" xmlns="http://www.w3.org/2000/svg" viewBox="0 0 35.5 45.87"><defs><style>.cls-1{fill:#fff;}.cls-2{fill:#84868c;}.cls-3{fill:#98b5d6;}.cls-4{fill:#545861;}</style></defs><g id="_레이어_1-2"><path class="cls-4" d="m31.36.25c-.02,1.76-.3,6.78-2.93,7.56l4.05,6.69s6.75-6.85-.68-14.43c-.16-.16-.43-.05-.44.18Z"/><path class="cls-4" d="m4.14.25c.02,1.76.3,6.78,2.93,7.56l-4.05,6.69S-3.72,7.66,3.71.08c.16-.16.43-.05.44.18Z"/><path class="cls-2" d="m27.79,29.63c7.25,4.94,2.54,5.99-.58,8.84-3.7,3.37-.74,6.21-.74,6.21,0,0-1.32-1.51.59-3.87,1.9-2.36,8.81-2.83,8.16-8.28-.32-2.7-4.24-6.2-4.24-6.2l-3.18,3.3Z"/><path class="cls-2" d="m26.64,45.8c0-1.65.35-2.59.87-3.69.02-.04-.01-.08-.05-.07-.49.14-2.34.35-3.45.16-.05,0-.08.04-.05.08.41.64,1.23,2.33,2.58,3.58.04.04.11,0,.11-.05Z"/><circle class="cls-1" cx="17.75" cy="20.73" r="16.75"/><path class="cls-2" d="m17.75,38.48C7.96,38.48,0,30.52,0,20.73S7.96,2.98,17.75,2.98s17.75,7.96,17.75,17.75-7.96,17.75-17.75,17.75Zm0-33.5C9.07,4.98,2,12.05,2,20.73s7.07,15.75,15.75,15.75,15.75-7.07,15.75-15.75-7.07-15.75-15.75-15.75Z"/><path class="cls-2" d="m28.74,14.61c-1.62.5-5.02,1.26-7.4,2.61-.2.11-.21.34-.03.48,1.78,1.46,3.55,2.59,6.76,4.23.14.07.28-.1.18-.22l-2.5-3c-.25-.29-.22-.73.05-1l3.04-2.96c.07-.07,0-.18-.09-.15Z"/><path class="cls-2" d="m6.76,14.61c1.62.5,5.02,1.26,7.4,2.61.2.11.21.34.03.48-1.78,1.46-3.55,2.59-6.76,4.23-.14.07-.28-.1-.18-.22l2.5-3c.25-.29.22-.73-.05-1l-3.04-2.96c-.07-.07,0-.18.09-.15Z"/><path class="cls-2" d="m26.64,10.32c1.02-.46,1.37.35.77.74-1.47.95-3.21,1.63-4.72,2.06-1.1.32-1.68-.87-.04-1.37,1.66-.5,2.6-.81,3.99-1.43Z"/><path class="cls-2" d="m8.86,10.32c-1.02-.46-1.37.35-.77.74,1.47.95,3.21,1.63,4.72,2.06,1.1.32,1.68-.87.04-1.37-1.66-.5-2.6-.81-3.99-1.43Z"/><path class="cls-4" d="m26.55,29.79c-.62.61-1.35,1.03-2.04,1.03,0,0-2.4-.44-6.77-.44s-6.77.44-6.77.44c-.69,0-1.42-.37-2.04-.95-1.08-1.01-1.83-2.64-1.46-3.99,1.12-4.11,19.17-3.82,20.52-.09.43,1.19-.34,2.91-1.44,4Z"/><path class="cls-3" d="m22.4,29.43c-2.78-.57-7.16-.45-9.3-.02-.17.03-.27-.26-.19-.46.81-1.88,3.38-3.31,4.83-1.48,1.37-1.81,4.01-.38,4.83,1.5.09.2-.02.5-.18.46Z"/></g></svg>