<?xml version="1.0" encoding="UTF-8"?><svg id="_레이어_2" xmlns="http://www.w3.org/2000/svg" viewBox="0 0 35.5 35.5"><defs><style>.cls-1{fill:#fff;}.cls-2{fill:#84868c;}</style></defs><g id="_레이어_1-2"><circle class="cls-1" cx="17.75" cy="17.75" r="16.75"/><path class="cls-2" d="m17.75,35.5C7.96,35.5,0,27.54,0,17.75S7.96,0,17.75,0s17.75,7.96,17.75,17.75-7.96,17.75-17.75,17.75Zm0-33.5C9.07,2,2,9.07,2,17.75s7.07,15.75,15.75,15.75,15.75-7.07,15.75-15.75S26.43,2,17.75,2Z"/><ellipse class="cls-2" cx="17.75" cy="23.96" rx="7.13" ry=".89"/><path class="cls-2" d="m27.01,9.17c.6.22.83-.57.35-.99-1.08-.96-2.65-1.29-3.71-1.03-1.03.25-.82,1.45,0,1.4,1.34-.09,2.35.25,3.36.62Z"/><path class="cls-2" d="m8.49,9.17c-.6.22-.83-.57-.35-.99,1.08-.96,2.65-1.29,3.71-1.03,1.03.25.82,1.45,0,1.4-1.34-.09-2.35.25-3.36.62Z"/><ellipse class="cls-2" cx="24.63" cy="13.7" rx="2.33" ry="3.22"/><path class="cls-2" d="m13.19,13.7c0,1.78-1.04,3.22-2.33,3.22s-2.33-1.44-2.33-3.22,1.04-3.22,2.33-3.22,2.33,1.44,2.33,3.22Z"/></g></svg>