<?xml version="1.0" encoding="UTF-8"?><svg id="_레이어_2" xmlns="http://www.w3.org/2000/svg" viewBox="0 0 35.5 35.5"><defs><style>.cls-1{fill:#fff;}.cls-2{fill:#84868c;}.cls-3{fill:#98b5d6;}.cls-4{fill:#545861;}</style></defs><g id="_레이어_1-2"><circle class="cls-1" cx="17.75" cy="17.75" r="16.75"/><path class="cls-2" d="m17.75,35.5C7.96,35.5,0,27.54,0,17.75S7.96,0,17.75,0s17.75,7.96,17.75,17.75-7.96,17.75-17.75,17.75Zm0-33.5C9.07,2,2,9.07,2,17.75s7.07,15.75,15.75,15.75,15.75-7.07,15.75-15.75S26.43,2,17.75,2Z"/><path class="cls-4" d="m24.99,21.08c0,2.31-1.07,4.36-2.75,5.69,0,0-.01.01-.02.02-1.23.96-2.78,1.54-4.47,1.54s-3.23-.58-4.47-1.54t0,0c-1.68-1.33-2.76-3.39-2.76-5.7h14.47Z"/><path class="cls-3" d="m21.49,25.75c-1.03.81-2.33,1.29-3.74,1.29s-2.71-.48-3.74-1.29c.42-1.51,2.56-2.37,3.74-.95,1.11-1.41,3.32-.56,3.74.95Z"/><path class="cls-4" d="m14.76,12.47s-.03.04-.04.05l-2.9,4.21c-.08.12-.24.15-.36.07l-4.33-2.72s-.03-.02-.05-.03c-.59-.39-.95-.89-1.12-1.45-.04-.11-.07-.23-.08-.34-.38-2.37,2.71-3.68,4.3-1.89l.2.22.09-.28c.47-1.44,1.99-1.97,3.19-1.59.7.22,1.29.76,1.51,1.62.17.67.08,1.42-.39,2.12Z"/><path class="cls-4" d="m20.74,12.53s.03.04.04.05l2.9,4.21c.08.12.24.15.36.07l4.33-2.72s.03-.02.05-.03c.59-.39.95-.89,1.12-1.45.04-.11.07-.23.08-.34.38-2.37-2.71-3.68-4.3-1.89l-.2.22-.09-.28c-.47-1.44-1.99-1.97-3.19-1.59-.7.22-1.29.76-1.51,1.62-.17.67-.08,1.42.39,2.12Z"/></g></svg>