<?xml version="1.0" encoding="UTF-8"?><svg id="_레이어_2" xmlns="http://www.w3.org/2000/svg" viewBox="0 0 35.5 35.5"><defs><style>.cls-1{fill:#fff;}.cls-2{fill:#84868c;}</style></defs><g id="_레이어_1-2"><circle class="cls-1" cx="17.75" cy="17.75" r="16.75"/><path class="cls-2" d="m17.75,35.5C7.96,35.5,0,27.54,0,17.75S7.96,0,17.75,0s17.75,7.96,17.75,17.75-7.96,17.75-17.75,17.75Zm0-33.5C9.07,2,2,9.07,2,17.75s7.07,15.75,15.75,15.75,15.75-7.07,15.75-15.75S26.43,2,17.75,2Z"/><path class="cls-2" d="m25.49,21.62c.1-.15.33-.06.31.12-.31,1.86-1.42,3.5-3.02,4.61-1.38.97-3.13,1.54-5.02,1.54s-3.65-.58-5.02-1.54c-1.6-1.11-2.72-2.75-3.03-4.62-.03-.18.21-.27.31-.12.58.87,1.36,1.63,2.3,2.23,1.5.97,3.39,1.54,5.45,1.54s3.94-.58,5.44-1.54c.94-.61,1.72-1.36,2.3-2.23Z"/><ellipse class="cls-2" cx="24.63" cy="13.7" rx="2.33" ry="3.22"/><path class="cls-2" d="m13.19,13.7c0,1.78-1.04,3.22-2.33,3.22s-2.33-1.44-2.33-3.22,1.04-3.22,2.33-3.22,2.33,1.44,2.33,3.22Z"/></g></svg>