<?xml version="1.0" encoding="UTF-8"?><svg id="_레이어_2" xmlns="http://www.w3.org/2000/svg" viewBox="0 0 35.5 35.5"><defs><style>.cls-1{fill:#fff;}.cls-2{fill:#84868c;}</style></defs><g id="_레이어_1-2"><circle class="cls-1" cx="17.75" cy="17.75" r="16.75"/><path class="cls-2" d="m17.75,35.5C7.96,35.5,0,27.54,0,17.75S7.96,0,17.75,0s17.75,7.96,17.75,17.75-7.96,17.75-17.75,17.75Zm0-33.5c-8.68,0-15.75,7.07-15.75,15.75s7.07,15.75,15.75,15.75,15.75-7.07,15.75-15.75S26.43,2,17.75,2Z"/><path class="cls-2" d="m11.91,23.49s.02-.01.03-.02c1.59-1.11,3.6-1.77,5.77-1.77s4.14.71,5.76,1.77c2.81,1.84,1.92,3.12,1.03,2.66-.01,0-.01,0-.02,0-1.87-1.01-4.22-1.94-6.77-1.94s-4.88,1.01-6.77,1.94c-.01,0-.03.01-.03.02-.84.45-1.56-.72,1.01-2.65Z"/><path class="cls-2" d="m26.96,13.59c0,1.78-1.04,3.22-2.33,3.22s-2.33-1.44-2.33-3.22,1.04-3.22,2.33-3.22,2.33,1.44,2.33,3.22Z"/><ellipse class="cls-2" cx="10.87" cy="13.59" rx="2.33" ry="3.22"/><path class="cls-2" d="m26.02,6.89c.97-.34.73-.62-.17-.69-2.23-.18-5.94,2.19-5.83,3.5.04.49.68,1.23,1.8-.25,1.04-1.37,2.76-2.06,4.2-2.56Z"/><path class="cls-2" d="m9.48,6.89c-.97-.34-.73-.62.17-.69,2.23-.18,5.94,2.19,5.83,3.5-.04.49-.68,1.23-1.8-.25-1.04-1.37-2.76-2.06-4.2-2.56Z"/></g></svg>