<svg id="eLhBC1zRiYa1" xmlns="http://www.w3.org/2000/svg" xmlns:xlink="http://www.w3.org/1999/xlink" viewBox="0 0 117.62 115" shape-rendering="geometricPrecision" text-rendering="geometricPrecision">
<style><![CDATA[
#eLhBC1zRiYa5_to {animation: eLhBC1zRiYa5_to__to 900ms linear 1 normal forwards}@keyframes eLhBC1zRiYa5_to__to { 0% {transform: translate(63.711044px,43.210358px)} 66.666667% {transform: translate(80.539578px,44.624089px)} 100% {transform: translate(80.539578px,44.624089px)}} #eLhBC1zRiYa5_tr {animation: eLhBC1zRiYa5_tr__tr 900ms linear 1 normal forwards}@keyframes eLhBC1zRiYa5_tr__tr { 0% {transform: rotate(0deg)} 66.666667% {transform: rotate(-59.943098deg)} 100% {transform: rotate(-59.943098deg)}} #eLhBC1zRiYa6_to {animation: eLhBC1zRiYa6_to__to 900ms linear 1 normal forwards}@keyframes eLhBC1zRiYa6_to__to { 0% {transform: translate(74.124557px,27.384277px)} 66.666667% {transform: translate(77.170893px,28.163976px)} 100% {transform: translate(77.170893px,28.163976px)}} #eLhBC1zRiYa6_tr {animation: eLhBC1zRiYa6_tr__tr 900ms linear 1 normal forwards}@keyframes eLhBC1zRiYa6_tr__tr { 0% {transform: rotate(0deg)} 66.666667% {transform: rotate(-22.127986deg)} 100% {transform: rotate(-22.127986deg)}} #eLhBC1zRiYa9_to {animation: eLhBC1zRiYa9_to__to 900ms linear 1 normal forwards}@keyframes eLhBC1zRiYa9_to__to { 0% {transform: translate(31.60036px,49.908821px)} 66.666667% {transform: translate(90.257344px,80.915317px)} 100% {transform: translate(90.257344px,80.915317px)}} #eLhBC1zRiYa9_tr {animation: eLhBC1zRiYa9_tr__tr 900ms linear 1 normal forwards}@keyframes eLhBC1zRiYa9_tr__tr { 0% {transform: rotate(0deg)} 66.666667% {transform: rotate(-95.776665deg)} 100% {transform: rotate(-95.776665deg)}} #eLhBC1zRiYa10_to {animation: eLhBC1zRiYa10_to__to 900ms linear 1 normal forwards}@keyframes eLhBC1zRiYa10_to__to { 0% {transform: translate(73.742399px,45.69243px)} 66.666667% {transform: translate(95.312654px,44.650167px)} 100% {transform: translate(95.312654px,44.650167px)}} #eLhBC1zRiYa10_tr {animation: eLhBC1zRiYa10_tr__tr 900ms linear 1 normal forwards}@keyframes eLhBC1zRiYa10_tr__tr { 0% {transform: rotate(0deg)} 66.666667% {transform: rotate(-36.194532deg)} 100% {transform: rotate(-36.194532deg)}} #eLhBC1zRiYa11_to {animation: eLhBC1zRiYa11_to__to 900ms linear 1 normal forwards}@keyframes eLhBC1zRiYa11_to__to { 0% {transform: translate(87.717842px,31.924999px)} 66.666667% {transform: translate(94.953738px,27.323338px)} 100% {transform: translate(94.953738px,27.323338px)}} #eLhBC1zRiYa11_tr {animation: eLhBC1zRiYa11_tr__tr 900ms linear 1 normal forwards}@keyframes eLhBC1zRiYa11_tr__tr { 0% {transform: rotate(0deg)} 66.666667% {transform: rotate(-62.341831deg)} 100% {transform: rotate(-62.341831deg)}} #eLhBC1zRiYa12_to {animation: eLhBC1zRiYa12_to__to 900ms linear 1 normal forwards}@keyframes eLhBC1zRiYa12_to__to { 0% {transform: translate(99.886119px,108.471558px)} 66.666667% {transform: translate(99.886119px,108.471558px)} 100% {transform: translate(122.097577px,108.471558px)}}
]]></style>
<g transform="translate(-.002428-.015214)"><path d="M76.23,46.4c0,0,.700001,18.917694.05,20.227694s-.55516,7.283318-.43516,16.463318-1.66,13.09.48,13.69.59,1.78-3.21,4.04-7.01,3.01-4.4,4.48s6.141182-.428381,8.70494-1.018381s2.913817-.961619,3.203818-1.431619.942684-3.278405,0-4.447124s0-1.962876,0-1.962876s1.14.24,1.849999-.36s2.820001-21.07,2.97-25.19s2.072155-12.563173,3.147119-12.563173s4.090962,7.333173,4.560962,12.563173.245665,24.01,3.366187,25.55c.56634.279493,1.692111.093325,1.983813.59c1.315575,2.239991-1.296077,7.800068,3.116919,8.27c4.518362.481152,4.194108,1.250602,9.047749.83c3.8-.91-5.308954-4.980881-6.77-5.843978s-1.161377-2.666022,0-3.616022-2.38-19.6-2.61-23.41-1.08617-16.621262-1.596771-23.814705-1.343229-6.422176-2.923229-6.542176-15.476346-.114131-20.526346,3.505869l-.01-.01Z" transform="translate(-.332251-.461944)" fill="#090805"/><path d="M77.22,18.11c0,0,11.36-1.6,14.12-.62s6.77.71,7.31,5.93-.36,13.59.49,15.01s2.5,7.35-5.26,9.58-17.06.31-17.6-1.74-.49-1.25.49-4.77-1.78-19.43.45-23.39Z" fill="#0e0404"/><g id="eLhBC1zRiYa5_to" transform="translate(63.711044,43.210358)"><g id="eLhBC1zRiYa5_tr" transform="rotate(0)"><path d="M67.67,32.84c0,0-3.68,4.35-5.76,12.66-2.5,4.16-3.66,4.1-5.46,6s-2.68,3.39.94,3.39s4.1-2.08,5.05-3.45s8.18-10.09,9.82-16.39-4.6-2.22-4.6-2.22l.01.01Z" transform="translate(-63.711044,-43.210358)" fill="#ac9690"/></g></g><g id="eLhBC1zRiYa6_to" transform="translate(74.124557,27.384277)"><g id="eLhBC1zRiYa6_tr" transform="rotate(0)"><path d="M78.11,18.11c0,0-5.61.71-7.8,7.08s-3.65,6.1-2,7.98s4.41,3.97,5.21,3.39s4.14-4.37,4.59-5.52s5.48-7.44,0-12.92v-.01Z" transform="translate(-74.124557,-27.384277)" fill="#0e0404"/></g></g><path d="M79.37,12.36c0,0,.48,7.25,4.87,7.25s4.28-4.34,5.35-7.87-8.44-5.5-10.22,0" fill="#a8948c"/><path d="M83.77,0c0,0-4.46.89-5.17,4.99s-2.02,6.95,0,7.54s3.21-3.98,5.64-3.39s3.09,3.2,5.11,3.44s2.79-1.54,1.72-2.61s2.97-9.45-7.31-9.98l.01.01Z"/><g id="eLhBC1zRiYa9_to" transform="translate(31.60036,49.908821)"><g id="eLhBC1zRiYa9_tr" transform="rotate(0)"><path d="M62.74,51.09l-57.15.83v-7.13c0,0-5.34,2.14-5.59,6.06s4.63,4.51,5.23,4.04.48-1.19.48-1.19l57.5-1.29-.48-1.32h.01Z" transform="translate(-31.60036,-49.908821)" fill="#080706"/></g></g><g id="eLhBC1zRiYa10_to" transform="translate(73.742399,45.69243)"><g id="eLhBC1zRiYa10_tr" transform="rotate(0)"><path d="M82.05,35.29c0,0-11.82,11.23-13.3,12.42-1.06.85-1.96,1.24-1.75,2.22-.02,0-.04,0-.04,0s-3.5-1.79-5.16.7c-1.66,2.5-.18,4.03,2.58,5.16s4.67-1.09,4.9-3.24c0-.05,0-.09,0-.13c1.02.05,1.82-1.31,2.61-2.14c1.13-1.19,11.88-6.71,13.72-10.69s.29-3.68-3.57-4.28l.01-.02Z" transform="translate(-73.742399,-45.69243)" fill="#ac9690"/></g></g><g id="eLhBC1zRiYa11_to" transform="translate(87.717842,31.924999)"><g id="eLhBC1zRiYa11_tr" transform="rotate(0)"><path d="M90.01,23.82c0,0-10.34,10.75-9.45,11.7s3.8,4.51,5.82,4.51s7.07-6.31,8.55-8.5" transform="translate(-87.717842,-31.924999)" fill="#080706"/></g></g></g><g id="eLhBC1zRiYa12_to" transform="translate(99.886119,108.471558)"><ellipse rx="2.198972" ry="2.198972" transform="translate(0,0)" stroke-width="0"/></g></svg>
