<?xml version="1.0" encoding="UTF-8"?><svg id="_레이어_2" xmlns="http://www.w3.org/2000/svg" xmlns:xlink="http://www.w3.org/1999/xlink" viewBox="0 0 100.64 152.61"><defs><style>.cls-1{fill:#040000;opacity:.1;}.cls-2{fill:url(#linear-gradient);}</style><linearGradient id="linear-gradient" x1="50.32" y1="0" x2="50.32" y2="152.61" gradientUnits="userSpaceOnUse"><stop offset="0" stop-color="#f8b62d"/><stop offset=".16" stop-color="#f7b329"/><stop offset=".3" stop-color="#f6ab1d"/><stop offset=".45" stop-color="#f49f0a"/><stop offset=".51" stop-color="#f39800"/><stop offset=".83" stop-color="#ea5514"/><stop offset=".85" stop-color="#e94a13"/><stop offset=".95" stop-color="#e61412"/><stop offset="1" stop-color="#e60012"/></linearGradient></defs><g id="Layer_1"><path class="cls-2" d="m87.68,123.39c-.72-8.63-17.63-13.67-8.27-21.23,9.35-7.55,12.95-29.5,12.95-29.5,0,0-7.81,13.21-14.18,6.83-6.37-6.37-3.8-11.87-3.8-11.87C87.68,36.33,54.23,0,54.23,0c19.79,36.69,3.96,87.78-6.63,76.27-10.58-11.51,5.19-42.09,5.19-42.09,0,0-19.59,16.71-17.27,26.98,2.88,12.77-3.52,19.35-6.83,17.63-7.08-3.67,1.98-12.95-2.16-19.79s-3.15-16.19-3.15-16.19c0,0-11.24,26.62-10.12,41.24,1.13,14.62,12.18,27.11,2.47,30.91-9.71,3.8-15.11-21.43-15.11-21.43-5.4,32.74,25.9,51.8,25.9,51.8,2.11,1.17,4.17,2.2,6.19,3.12,0,0-7.71-9.15-6.37-20.21,0,0,1.67,8.09,6.37,6.21,4.7-1.89.11-10.25-1.24-14.84-1.35-4.59,1.62-12.95,5.13-16.46,0,0-3.78,9.71,0,14.3,3.78,4.59,5.67,8.35,5.67,8.35,0,0,1.62-13.48,6.21-19.41,4.59-5.94,7.02-10.52,7.02-14.57,0,0,2.43,8.63-4.05,18.62-6.48,9.98,0,17.81,0,17.81,0,0,13.76,4.05,12.68-11.33,0,0,8.09,18.08,2.43,22.66,0,0,8.63-1.08,7.55-7.82,0,0,3.9,14.72-3.44,20.85,11-3.04,17.03-9.07,17.03-9.07,10.43-4.68,12.95-28.58,12.95-28.58-2.16,8.12-12.95,8.43-12.95,8.43Z"/><path class="cls-1" d="m.06,103.11c1.24,26.85,26.46,42.23,26.46,42.23,2.11,1.17,4.17,2.2,6.19,3.12,0,0-2.54-3.03-4.45-7.69h0C8.55,130.36.8,105.59.06,103.11Z"/><path class="cls-1" d="m75.03,142.73c-.32,3.68-1.46,7.45-4.37,9.88,11-3.04,17.03-9.07,17.03-9.07,10.43-4.68,12.95-28.58,12.95-28.58,0,0-3.36,20.93-25.6,27.77Z"/></g></svg>