<?xml version="1.0" encoding="UTF-8"?><svg id="_레이어_2" xmlns="http://www.w3.org/2000/svg" viewBox="0 0 62.16 97.06"><defs><style>.cls-1{fill:#97d172;}.cls-2{fill:#494949;}</style></defs><g id="_레이어_2-2"><path class="cls-1" d="m61.83,89.87c2.83,5.03-13.43,7.19-30.76,7.19S-1.8,95.32.17,90.29c.53-1.36,12.97-5.88,30.3-5.88s30.3,3.56,31.37,5.46Z"/><path class="cls-2" d="m36.79,90.55c0,.94-3.93,2.23-9,2.23s-9.36-1.29-9.36-2.23,4.11-1.69,9.18-1.69,9.18.76,9.18,1.69Z"/><rect x="26.9" y="3.85" width=".89" height="88.22"/><circle cx="27.6" cy="2.23" r="2.23"/><path d="m26.9,8.31s9.62-4.1,17.11,5.17c0,0,4.99,4.46,9.62,2.5,0,0,.18,6.77-12.12,6.24-10.87-2.14-10.16.53-13.9,3.92l-.71-17.82Z"/></g></svg>