<?xml version="1.0" encoding="UTF-8"?><svg id="_레이어_2" xmlns="http://www.w3.org/2000/svg" viewBox="0 0 482 173.92"><defs><style>.cls-1{fill:#002461;}</style></defs><g id="_레이어_1-2"><path class="cls-1" d="m168.01,88.09c-3.87-14.52-18.92-27.93-30.44-34.66-1.44-.85-2.79-1.55-4.07-2.16h0c-7.59-3.57-14.17-5.69-19.91-6.67-3.2-.54-7.83-1.05-10.74.17-4.62,1.92-2.93,8.12-1.8,12.19.57,2.07,1.12,3.6,2.76,6.37,1.64,2.78,5.85,6.1,13.27,9.25-1.53.86-5.13,1.91-7.63,2.56,2.84,4.3,6.16,8.25,9.88,11.5,7.57,6.62,10.4,6.8,10.4,6.8,0,0,.95-4.45.54-8.92-.18-1.96-1.06-3.52-2.11-4.39-3.46-2.87-5.98-5.86-8.42-9.6-4.87-7.47-10.78-20.03-.48-21.52,10.86,8.72,17.2,24.08,17.47,35.34.52,21.44-12.78,40.21-25.35,49.41-39.27,28.76-77.43,13.46-77.43,13.46,0,0,12.76,18.31,36.2,24.4,26.88,6.98,62.83-1.58,71.32-31.49,2.15,3.86.52,14.28.52,14.28,0,0,15.65-11.77,23.15-28.84,4.89-11.15,6.6-23.58,2.9-37.49"/><path class="cls-1" d="m36.8,53.23c-.8,6.7-1.21,15.28,1.34,26.6.73-6.29,3.32-13.8,7.25-19.83,8.88-13.67,25.08-23.21,40.96-25.24,20.85-2.66,42.17,2.31,59.2,14.62,11.66,8.43,20.09,20.86,20.09,20.86,0,0,2.16-12.51-3.76-25.79-8.11-18.16-25.41-33.32-43.33-34.02-5.67-.22-12.26,1.15-15.32,1.79.13-2.92,11.73-8.17,11.73-8.17,0,0-29.71-11.58-53.2,4.45-8.63,5.89-21.04,17.73-24.69,42.95-.1.57-.2,1.15-.27,1.78"/><path class="cls-1" d="m95.39,123.88c6.82-11.43,7.01-24.34,3.07-37.31-2.79-8.5-7.64-10.16-16.93-13.77,1.85-1.12,5.87-2.4,8.45-3.15-7.33-8.32-18.26-14.38-28.59-12.68-4.02.66-7.83,1.84-10.86,6.96,6.19-.98,15.45,2.06,20.38,6.01,18.7,14.98,17.32,42.08-.19,54.8-4.72,3.43-12.6,6.49-18.46,6.65-8.63.25-15.82-1.07-21.84-3.37,1.02.18,13.38,2.19,26.56-1.91-6.4-4.87-11.46-11.93-13.55-15.01-6.13-9.09-26.53-43.12-3.11-88.97-8.11,1.84-15.95,5.28-23.05,13.55-9.33,10.88-11.84,24.11-11.08,32.82.81,9.3,4.15,15.77,4.82,17.33-4.17-.82-9.89-10.16-9.89-10.16,0,0-1.04,6.79-1.04,9.83,0,0-3.51,44.71,40.34,57.18,20.53,5.83,44.4-1.1,54.98-18.81"/><path class="cls-1" d="m288.01,37.75h-27.09c-19.18,25.41-35.28,42.08-41.25,46.45,4.89,2.25,16.42,19.34,29.51,51.95h27.4c-12.97-32.6-24.58-49.96-28.36-53.21,4.95-4.11,19.78-19.78,39.79-45.18"/><path class="cls-1" d="m194.28,37.75c2.71,4.52,8.28,5.42,7.36,12.66l-12.3,85.74h22.71l14.12-98.4h-31.89Z"/><path class="cls-1" d="m351.47,66.42c-.97,6.77-3.32,9.31-7.7,9.31h-26.83l2.68-18.64h26.84c4.35,0,5.96,2.56,5.01,9.34m-4.12,39.52c-1.08,7.63-3.96,10.87-8.77,10.87h-27.54l3.25-22.57h26.98c5.07,0,7.24,3.65,6.08,11.7m29.27-44.6c2.21-15.39-1.55-23.59-21.18-23.59h-64.95c2.74,4.52,8.31,5.43,7.39,12.66l-12.34,85.74h56.19c15.97,0,26.96-6.78,29.8-26.53,2.19-15.37-1.37-25.26-10.51-25.26,8.46,0,13.63-9.33,15.6-23.01"/><path class="cls-1" d="m456.48,86.39c3.86-26.82.62-29.95-19.28-29.95s-24.02,3.13-27.87,29.95c-3.93,27.25-.82,31.2,19.08,31.2s24.15-3.95,28.07-31.2m24.31-.29c-5.81,40.52-23.86,52.24-55.34,52.24s-46.18-11.72-40.36-52.24c5.75-39.98,23.49-50.53,55.11-50.53s46.33,10.55,40.6,50.53"/></g></svg>