<?xml version="1.0" encoding="UTF-8"?><svg id="_레이어_2" xmlns="http://www.w3.org/2000/svg" viewBox="0 0 68.61 100.9"><defs><style>.cls-1{fill:#002461;}</style></defs><g id="Layer_1"><path class="cls-1" d="m67.81,35.55c-1.56-5.86-7.63-11.27-12.29-13.99-.58-.34-1.13-.63-1.64-.87h0c-3.06-1.44-5.72-2.3-8.04-2.69-1.29-.22-3.16-.42-4.33.07-1.86.78-1.18,3.28-.73,4.92.23.84.45,1.45,1.11,2.57.66,1.12,2.36,2.46,5.35,3.73-.62.35-2.07.77-3.08,1.03,1.15,1.73,2.49,3.33,3.99,4.64,3.05,2.67,4.2,2.75,4.2,2.75,0,0,.38-1.8.22-3.6-.07-.79-.43-1.42-.85-1.77-1.4-1.16-2.42-2.36-3.4-3.87-1.97-3.02-4.35-8.08-.2-8.69,4.38,3.52,6.94,9.72,7.05,14.26.21,8.65-5.16,16.23-10.23,19.94-15.85,11.61-31.25,5.43-31.25,5.43,0,0,5.15,7.39,14.61,9.85,10.85,2.82,25.36-.64,28.78-12.71.87,1.56.21,5.76.21,5.76,0,0,6.31-4.75,9.34-11.64,1.97-4.5,2.66-9.52,1.17-15.13"/><path class="cls-1" d="m14.85,21.48c-.32,2.7-.49,6.17.54,10.73.3-2.54,1.34-5.57,2.93-8,3.58-5.52,10.12-9.37,16.53-10.19,8.41-1.07,17.02.93,23.89,5.9,4.7,3.4,8.11,8.42,8.11,8.42,0,0,.87-5.05-1.52-10.41-3.27-7.33-10.26-13.45-17.49-13.73-2.29-.09-4.95.46-6.18.72.05-1.18,4.74-3.3,4.74-3.3,0,0-11.99-4.67-21.47,1.8-3.48,2.38-8.49,7.15-9.96,17.33-.04.23-.08.46-.11.72"/><path class="cls-1" d="m38.5,49.99c2.75-4.61,2.83-9.82,1.24-15.06-1.13-3.43-3.08-4.1-6.83-5.56.75-.45,2.37-.97,3.41-1.27-2.96-3.36-7.37-5.8-11.54-5.12-1.62.27-3.16.74-4.38,2.81,2.5-.4,6.24.83,8.22,2.42,7.55,6.05,6.99,16.98-.08,22.12-1.9,1.38-5.08,2.62-7.45,2.68-3.48.1-6.38-.43-8.82-1.36.41.07,5.4.88,10.72-.77-2.58-1.97-4.63-4.81-5.47-6.06-2.47-3.67-10.71-17.4-1.25-35.9-3.27.74-6.44,2.13-9.3,5.47-3.76,4.39-4.78,9.73-4.47,13.24.33,3.75,1.67,6.36,1.94,6.99-1.68-.33-3.99-4.1-3.99-4.1,0,0-.42,2.74-.42,3.97,0,0-1.42,18.05,16.28,23.08,8.28,2.35,17.92-.44,22.19-7.59"/><path class="cls-1" d="m23.15,77.33h-6.35c-4.49,5.95-8.27,9.86-9.67,10.89,1.15.53,3.85,4.53,6.92,12.17h6.42c-3.04-7.64-5.76-11.71-6.65-12.47,1.16-.96,4.64-4.63,9.33-10.59"/><path class="cls-1" d="m1.19,77.33c.64,1.06,1.94,1.27,1.72,2.97L.03,100.39h5.32l3.31-23.06H1.19Z"/><path class="cls-1" d="m38.03,84.05c-.23,1.59-.78,2.18-1.8,2.18h-6.29l.63-4.37h6.29c1.02,0,1.4.6,1.17,2.19m-.97,9.26c-.25,1.79-.93,2.55-2.05,2.55h-6.45l.76-5.29h6.32c1.19,0,1.7.86,1.42,2.74m6.86-10.45c.52-3.61-.36-5.53-4.96-5.53h-15.22c.64,1.06,1.95,1.27,1.73,2.97l-2.89,20.09h13.17c3.74,0,6.32-1.59,6.98-6.22.51-3.6-.32-5.92-2.46-5.92,1.98,0,3.2-2.19,3.66-5.39"/><path class="cls-1" d="m62.63,88.73c.91-6.29.15-7.02-4.52-7.02s-5.63.73-6.53,7.02c-.92,6.38-.19,7.31,4.47,7.31s5.66-.93,6.58-7.31m5.7-.07c-1.36,9.49-5.59,12.24-12.97,12.24s-10.82-2.75-9.46-12.24c1.35-9.37,5.51-11.84,12.92-11.84s10.86,2.47,9.51,11.84"/></g></svg>