<?xml version="1.0" encoding="UTF-8"?><svg id="_레이어_2" xmlns="http://www.w3.org/2000/svg" viewBox="0 0 132.95 162.26"><defs><style>.cls-1{fill:#ec242c;}.cls-2{fill:#001a47;}</style></defs><path class="cls-2" d="m19.52,144.7h-6.39s-5.11,5.66-6.06,6.72v-6.72H.14c-.22,0-.16.18,0,.32.5.44,1.27,1.26,1.27,2.21v13.15c0,.84.58,1.49,1.47,1.49h4.2v-6.71c.95,1.06,6.06,6.71,6.06,6.71h6.39s-7.16-8.17-7.54-8.59c.37-.42,7.54-8.59,7.54-8.59m52.67,8.43c0,5.97,4.15,9.09,8.26,9.09,2.48,0,5.13-.79,6.93-2.05l.14-.1v-7.76h-5.44v3.17h2.05v2.14c-.92.61-2.04.95-3.25.95-2.48,0-4.99-1.86-4.99-5.4,0-3.31,1.86-5.55,4.65-5.55,2.46,0,4.49,1.25,5.25,1.79l.27.2,1.49-3.49-.26-.15c-.13-.08-3.35-1.89-6.54-1.89-4.25,0-8.57,3.11-8.57,9.05m-41.69,5.28v-13.74h-5.09c-.22,0-.16.18,0,.32.5.44,1.27,1.26,1.27,2.21v13.48c0,.72.38,1.16,1.14,1.16h10.62v-3.44h-7.95m14.42-.13v-3.37h6.43v-3.75h-6.43v-3.18h7.23v-3.44h-12.31c-.21,0-.15.18,0,.32.5.44,1.27,1.26,1.27,2.21v13.48c0,.82.32,1.16,1.15,1.16h10.37v-3.44h-7.7m56.27-13.75v9.67c0,2.66-.48,4.32-3.28,4.32s-3.63-1.39-3.63-4.23v-9.76h-5.05c-.22,0-.16.18,0,.32.5.44,1.27,1.26,1.27,2.21v7.8c0,4.91,2.15,7.39,7.39,7.39s7.08-2.29,7.08-7.39v-10.34h-3.78m-40.09,10.08c.23-.75,1.85-5.88,1.97-6.26h.55c.12.38,1.74,5.51,1.98,6.26h-4.49Zm4.88-10.05h-6.56c-.21,0-.15.18,0,.32.5.43.67,1.4.36,2.35l-4.98,14.5h4.05s.99-3.14,1.12-3.53h6.74c.13.39,1.12,3.53,1.12,3.53h4.05l-5.9-17.18m46.16,13.71v-3.37h6.43v-3.75h-6.43v-3.18h7.22v-3.44h-12.31c-.21,0-.16.18,0,.32.5.44,1.27,1.26,1.27,2.21v13.48c0,.82.32,1.16,1.15,1.16h10.37v-3.44h-7.7"/><path class="cls-1" d="m3.55,67.67c.46.32,17.77,12.62,18.19,12.91.41.29.9.61,1.26-.22,4.52-10.46,9.86-19.49,14.99-27.14,5.13-7.65,14.75-19.13,25.61-27.33.75-.57.75-.38.75-1.5s.34-22.66.34-23.54c0-.67-.39-1.2-.97-.57-8,8.71-11.55,13.79-16.91,22.57-5.36,8.78-11.41,20.63-11.66,21.11-.25.48-.5.69-1.51,1.24s-6.67,3.55-13.8,8.45c-7.12,4.9-15.18,11.83-15.85,12.36-.66.53-1.42.95-.43,1.65"/><path class="cls-2" d="m129.05,17.54c-13.86-.18-30.71,1.94-48.16,10.24-5.47,2.6-10.99,5.81-16.5,9.75,4.18-2.18,10.09-5.14,14.23-6.61,7.05-2.51,14.9-3.71,16.45-3.89,1.55-.18.5.49-.26.95-.76.47-10.37,7.22-16.74,13.06-6.37,5.84-11.54,10.68-19.83,21.49-.45.58-.86,1.08-.32,2.47,6.8,17.7,12.9,27.59,20.27,37.53.81,1.09.42,1.13-.33.73-.76-.4-1.05-.53-6.4-3.77-5.36-3.24-17.92-11.56-25.55-19.32-.99-1.01-1.31-1.05-2.4-.06-4.55,4.14-11.64,10.99-16.59,18.05-.88,1.25-.85.24-.81-.61.04-.85.2-4.22.52-7.18.48-4.34,1.12-7.61,1.55-9.52-1.65,3.61-3.14,7.41-4.38,11.39-1.41,4.51-3.82,13.45-3.82,26.01,0,4.19,0,6.58.23,7.53.16.66.6.49,1.21-.56.55-.96,2.96-5.09,6.47-10.05,4.37-6.17,10.4-13.7,15.67-18.12.61-.51,1.06-1.15,2.06-.11,1.14,1.19,6.37,5.89,21.34,15.3,14.98,9.41,33.19,16.71,47.1,20.41,3.76,1,2.67-.6,1.62-1.59-9.55-9-22.66-27-28.64-36.85-9.7-15.95-12.68-25.21-13.08-26.18-.4-.96-.2-1.55.41-2.36.67-.89,5.71-7.64,13.91-15.76,8.2-8.11,21.73-18.9,31.34-25.01,6.05-3.85,7.55-5.13,9.31-6.19.87-.52,1.16-.61,1.16-.89,0-.33-.49-.31-1.03-.31"/><path class="cls-2" d="m132.95,161.35h-3.31c-.9,0-1.37-.35-1.37-1.03v-13.18h-1.72l-.72-3.32h7.11v17.52Z"/></svg>