<?xml version="1.0" encoding="UTF-8"?><svg id="_레이어_2" xmlns="http://www.w3.org/2000/svg" viewBox="0 0 366.01 522.18"><defs><style>.cls-1{stroke-width:1.5px;}.cls-1,.cls-2{fill:none;stroke:#b69d64;stroke-linecap:round;stroke-linejoin:round;}.cls-3{fill:#b69d64;}.cls-2{stroke-width:.75px;}</style></defs><g id="OBJECTS"><line class="cls-1" x1="328.41" y1="11.79" x2="37.32" y2="11.79"/><line class="cls-2" x1="328.41" y1="8.76" x2="37.32" y2="8.76"/><line class="cls-1" x1="328.41" y1="510.4" x2="37.32" y2="510.4"/><line class="cls-2" x1="328.41" y1="513.42" x2="37.32" y2="513.42"/><line class="cls-1" x1="11.32" y1="477.39" x2="11.32" y2="43.92"/><line class="cls-2" x1="8.44" y1="477.39" x2="8.44" y2="43.92"/><line class="cls-1" x1="354.69" y1="477.39" x2="354.69" y2="43.92"/><line class="cls-2" x1="357.57" y1="477.39" x2="357.57" y2="43.92"/><path class="cls-3" d="m24.63,11.47c.56-.14,1.02-.48,1.32-.97.3-.49.38-1.06.25-1.62-.27-1.11-1.48-1.84-2.59-1.57-.29.07-.55.2-.78.37h0c-1.89,1.41-2.75,3.81-2.18,6.1.38,1.52,1.32,2.8,2.66,3.61,1.34.81,2.91,1.05,4.43.67,1.41-.35,2.63-1.2,3.44-2.39h0c1.3-1.87,1.73-4.18,1.17-6.41-.51-2.06-1.78-3.79-3.6-4.89-1.81-1.1-3.94-1.42-6-.91l-.16.04c-.07.02-.13.03-.2.05-4.85,1.2-7.94,5.9-7.34,11.18.13,1.17.36,2.26.67,3.32-2.81-2.2-5.39-3.54-8.28-4.31-.38-.11-.76-.24-1.15-.37-3.34-1.19-5.26-4.38-4.57-7.6l.16-.68c.34-1.12,1.05-2.07,2.05-2.72,1.11-.72,2.43-.96,3.72-.68,1.43.31,2.62,1.2,3.31,2.48l.14.28c.27.62.34,1.31.19,1.98-.38,1.77-2.13,2.9-3.9,2.52-.52-.11-.99-.35-1.39-.68.52-.15.96-.48,1.24-.94.3-.49.38-1.06.25-1.62-.27-1.11-1.48-1.84-2.59-1.57-.56.14-1.02.48-1.32.97-.28.46-.37,1-.26,1.53h-.01c.37,1.93,1.84,3.44,3.75,3.85,2.62.56,5.21-1.11,5.77-3.73.25-1.17.06-2.4-.53-3.44h0c-.91-1.63-2.46-2.77-4.31-3.17C4.47-.61.99,1.64.24,5.15l-.03.14c-.01.05-.02.1-.03.15-.02.09-.04.18-.05.27l-.02.12h0c-.63,3.86,1.69,7.62,5.65,9.02.42.15.83.28,1.26.41,2.79.74,5.25,2.04,7.98,4.22,4.42,3.53,5.65,9.36,2.93,13.86-.07.12-.15.24-.23.36l-.39.61h0c-2.42,3.33-7.04,4.3-10.62,2.14-2.03-1.23-3.38-3.24-3.76-5.56l-.07-.48h0c-.09-1.13.18-2.26.77-3.24,1.56-2.58,4.93-3.41,7.51-1.85,1.22.74,2.07,1.9,2.44,3.22-.3-.06-.61-.07-.92,0-.56.14-1.02.48-1.32.97-.3.49-.38,1.06-.25,1.62.14.56.48,1.02.97,1.32.49.3,1.06.38,1.62.25.56-.14,1.02-.48,1.32-.97.14-.23.22-.47.27-.72h0s0-.03,0-.05c0-.05,0-.1.01-.14.32-2.74-.97-5.41-3.34-6.84-3.32-2.01-7.66-.94-9.67,2.38-.9,1.49-1.22,3.25-.89,4.96h0c.49,2.71,2.09,5.05,4.48,6.49,4.53,2.74,10.43,1.28,13.17-3.25l.1-.17c.05-.07.09-.15.14-.22,2.45-4.06,2.13-9.03-.54-12.93h0c-1.17-2.09-1.84-4.21-2.12-6.66-.5-4.49,2.09-8.47,6.16-9.47.11-.03.22-.05.33-.07l.55-.12c1.48-.24,2.98.05,4.28.84,1.45.88,2.48,2.27,2.88,3.92.45,1.83.08,3.72-1.01,5.23l-.23.3h0c-.58.67-1.35,1.15-2.22,1.36-2.22.55-4.64-.91-5.19-3.14-.23-.93-.13-1.89.24-2.73.16.22.36.4.6.54.49.3,1.06.38,1.62.25Z"/><path class="cls-3" d="m24.69,510.72c.56.14,1.02.48,1.32.97.3.49.38,1.06.25,1.62-.27,1.11-1.48,1.84-2.59,1.57-.29-.07-.55-.2-.78-.37h0c-1.89-1.41-2.75-3.81-2.18-6.1.38-1.52,1.32-2.8,2.66-3.61,1.34-.81,2.91-1.05,4.43-.67,1.41.35,2.63,1.2,3.44,2.39h0c1.3,1.87,1.73,4.18,1.17,6.41-.51,2.06-1.78,3.79-3.6,4.89-1.81,1.1-3.94,1.42-6,.91l-.16-.04c-.07-.02-.13-.03-.2-.05-4.85-1.2-7.94-5.9-7.35-11.18.13-1.17.36-2.26.67-3.32-2.81,2.2-5.39,3.54-8.28,4.31-.38.11-.76.24-1.15.37-3.34,1.19-5.26,4.38-4.57,7.6l.16.68c.34,1.12,1.05,2.07,2.05,2.72,1.11.72,2.43.96,3.72.68,1.43-.31,2.62-1.2,3.31-2.48l.14-.28c.27-.62.34-1.31.19-1.98-.38-1.77-2.13-2.9-3.9-2.52-.52.11-.99.35-1.39.68.52.15.96.48,1.24.94.3.49.38,1.06.25,1.62-.27,1.11-1.48,1.84-2.59,1.57-.56-.14-1.02-.48-1.32-.97-.28-.46-.37-1-.26-1.53h-.01c.37-1.93,1.84-3.44,3.75-3.85,2.62-.56,5.21,1.11,5.77,3.73.25,1.18.06,2.4-.53,3.44h0c-.91,1.63-2.46,2.77-4.31,3.17-3.51.75-6.99-1.49-7.74-5l-.03-.14c-.01-.05-.02-.1-.03-.15-.02-.09-.04-.18-.05-.27l-.02-.12h0c-.63-3.86,1.69-7.62,5.65-9.02.42-.15.83-.28,1.26-.41,2.79-.74,5.25-2.04,7.98-4.22,4.42-3.53,5.65-9.36,2.93-13.86-.07-.12-.15-.24-.23-.36l-.39-.61h0c-2.42-3.33-7.04-4.3-10.62-2.14-2.03,1.23-3.38,3.24-3.76,5.56l-.07.48h0c-.09,1.13.18,2.26.77,3.24,1.56,2.58,4.93,3.41,7.51,1.85,1.22-.74,2.07-1.9,2.44-3.22-.3.06-.61.07-.92,0-.56-.14-1.02-.48-1.32-.97-.3-.49-.38-1.06-.25-1.62.14-.56.48-1.02.97-1.32.49-.3,1.06-.38,1.62-.25.56.14,1.02.48,1.32.97.14.23.22.47.27.72h0s0,.03,0,.05c0,.05,0,.1.01.14.32,2.74-.97,5.41-3.34,6.84-3.32,2.01-7.66.94-9.67-2.38-.9-1.49-1.22-3.25-.89-4.96h0c.49-2.71,2.09-5.05,4.48-6.49,4.53-2.74,10.43-1.28,13.17,3.25l.1.17c.05.07.09.15.14.22,2.45,4.06,2.13,9.03-.54,12.93h0c-1.17,2.09-1.84,4.21-2.12,6.66-.5,4.49,2.09,8.47,6.16,9.47.11.03.22.05.33.07l.55.12c1.48.24,2.99-.05,4.28-.84,1.45-.88,2.48-2.27,2.88-3.92.45-1.83.08-3.72-1.01-5.23l-.23-.3h0c-.58-.67-1.35-1.15-2.22-1.36-2.22-.55-4.64.91-5.19,3.14-.23.93-.13,1.89.24,2.73.16-.22.36-.4.6-.54.49-.3,1.06-.38,1.62-.25Z"/><path class="cls-3" d="m341.39,11.47c-.56-.14-1.02-.48-1.32-.97-.3-.49-.38-1.06-.25-1.62.27-1.11,1.48-1.84,2.59-1.57.29.07.55.2.78.37h0c1.89,1.41,2.75,3.81,2.18,6.1-.38,1.52-1.32,2.8-2.66,3.61-1.34.81-2.91,1.05-4.43.67-1.41-.35-2.63-1.2-3.44-2.39h0c-1.3-1.87-1.73-4.18-1.17-6.41.51-2.06,1.78-3.79,3.6-4.89,1.81-1.1,3.94-1.42,6-.91l.16.04c.07.02.13.03.2.05,4.85,1.2,7.94,5.9,7.34,11.18-.13,1.17-.36,2.26-.67,3.32,2.81-2.2,5.39-3.54,8.28-4.31.38-.11.76-.24,1.15-.37,3.34-1.19,5.26-4.38,4.57-7.6l-.16-.68c-.34-1.12-1.05-2.07-2.05-2.72-1.11-.72-2.43-.96-3.72-.68-1.43.31-2.62,1.2-3.31,2.48l-.14.28c-.27.62-.34,1.31-.19,1.98.38,1.77,2.13,2.9,3.9,2.52.52-.11,1-.35,1.39-.68-.52-.15-.96-.48-1.24-.94-.3-.49-.38-1.06-.25-1.62.27-1.11,1.48-1.84,2.59-1.57.56.14,1.02.48,1.32.97.28.46.37,1,.26,1.53h.01c-.37,1.93-1.84,3.44-3.75,3.85-2.62.56-5.21-1.11-5.77-3.73-.25-1.17-.06-2.4.53-3.44h0c.91-1.63,2.46-2.77,4.31-3.17,3.51-.75,6.99,1.49,7.74,5l.03.14c.01.05.02.1.03.15.02.09.04.18.05.27l.02.12h0c.63,3.86-1.69,7.62-5.65,9.02-.42.15-.83.28-1.26.41-2.79.74-5.25,2.04-7.98,4.22-4.42,3.53-5.65,9.36-2.93,13.86.07.12.15.24.23.36l.39.61h0c2.42,3.33,7.04,4.3,10.62,2.14,2.03-1.23,3.38-3.24,3.76-5.56l.07-.48h0c.09-1.13-.18-2.26-.77-3.24-1.56-2.58-4.93-3.41-7.51-1.85-1.22.74-2.07,1.9-2.44,3.22.3-.06.61-.07.92,0,.56.14,1.02.48,1.32.97.3.49.38,1.06.25,1.62-.14.56-.48,1.02-.97,1.32-.49.3-1.06.38-1.62.25-.56-.14-1.02-.48-1.32-.97-.14-.23-.22-.47-.27-.72h0s0-.03,0-.05c0-.05,0-.1-.01-.14-.32-2.74.97-5.41,3.34-6.84,3.32-2.01,7.66-.94,9.67,2.38.9,1.49,1.22,3.25.89,4.96h0c-.49,2.71-2.09,5.05-4.48,6.49-4.53,2.74-10.43,1.28-13.17-3.25l-.1-.17c-.05-.07-.09-.15-.14-.22-2.45-4.06-2.13-9.03.54-12.93h0c1.17-2.09,1.84-4.21,2.12-6.66.5-4.49-2.09-8.47-6.16-9.47-.11-.03-.22-.05-.33-.07l-.55-.12c-1.48-.24-2.99.05-4.28.84-1.45.88-2.48,2.27-2.88,3.92-.45,1.83-.08,3.72,1.01,5.23l.23.3h0c.58.67,1.35,1.15,2.22,1.36,2.22.55,4.64-.91,5.19-3.14.23-.93.13-1.89-.24-2.73-.16.22-.36.4-.6.54-.49.3-1.06.38-1.62.25Z"/><path class="cls-3" d="m341.32,510.72c-.56.14-1.02.48-1.32.97-.3.49-.38,1.06-.25,1.62.27,1.11,1.48,1.84,2.59,1.57.29-.07.55-.2.78-.37h0c1.89-1.41,2.75-3.81,2.18-6.1-.37-1.52-1.32-2.8-2.66-3.61-1.34-.81-2.92-1.05-4.43-.67-1.41.35-2.63,1.2-3.44,2.39h0c-1.3,1.87-1.73,4.18-1.17,6.41.51,2.06,1.78,3.79,3.6,4.89,1.81,1.1,3.94,1.42,6,.91l.16-.04c.07-.02.13-.03.2-.05,4.85-1.2,7.94-5.9,7.34-11.18-.13-1.17-.36-2.26-.67-3.32,2.81,2.2,5.39,3.54,8.28,4.31.38.11.76.24,1.15.37,3.34,1.19,5.26,4.38,4.57,7.6l-.16.68c-.34,1.12-1.05,2.07-2.05,2.72-1.11.72-2.43.96-3.72.68-1.43-.31-2.62-1.2-3.31-2.48l-.14-.28c-.27-.62-.34-1.31-.19-1.98.38-1.77,2.13-2.9,3.9-2.52.52.11,1,.35,1.39.68-.52.15-.96.48-1.24.94-.3.49-.38,1.06-.25,1.62.27,1.11,1.48,1.84,2.59,1.57.56-.14,1.02-.48,1.32-.97.28-.46.37-1,.26-1.53h.01c-.37-1.93-1.84-3.44-3.75-3.85-2.62-.56-5.21,1.11-5.77,3.73-.25,1.18-.06,2.4.53,3.44h0c.91,1.63,2.46,2.77,4.31,3.17,3.51.75,6.99-1.49,7.74-5l.03-.14c.01-.05.02-.1.03-.15.02-.09.04-.18.05-.27l.02-.12h0c.63-3.86-1.69-7.62-5.65-9.02-.42-.15-.83-.28-1.26-.41-2.79-.74-5.25-2.04-7.98-4.22-4.42-3.53-5.65-9.36-2.93-13.86.07-.12.15-.24.23-.36l.39-.61h0c2.42-3.33,7.04-4.3,10.62-2.14,2.03,1.23,3.38,3.24,3.76,5.56l.07.48h0c.09,1.13-.18,2.26-.77,3.24-1.56,2.58-4.93,3.41-7.51,1.85-1.22-.74-2.07-1.9-2.44-3.22.3.06.61.07.92,0,.56-.14,1.02-.48,1.32-.97.3-.49.38-1.06.25-1.62-.14-.56-.48-1.02-.97-1.32-.49-.3-1.06-.38-1.62-.25-.56.14-1.02.48-1.32.97-.14.23-.22.47-.27.72h0s0,.03,0,.05c0,.05,0,.1-.01.14-.32,2.74.97,5.41,3.34,6.84,3.32,2.01,7.66.94,9.67-2.38.9-1.49,1.22-3.25.89-4.96h0c-.49-2.71-2.09-5.05-4.48-6.49-4.53-2.74-10.43-1.28-13.17,3.25l-.1.17c-.05.07-.09.15-.14.22-2.45,4.06-2.13,9.03.54,12.93h0c1.17,2.09,1.84,4.21,2.12,6.66.5,4.49-2.09,8.47-6.16,9.47-.11.03-.22.05-.33.07l-.55.12c-1.48.24-2.98-.05-4.28-.84-1.45-.88-2.48-2.27-2.88-3.92-.45-1.83-.08-3.72,1.01-5.23l.23-.3h0c.58-.67,1.35-1.15,2.22-1.36,2.22-.55,4.64.91,5.19,3.14.23.93.13,1.89-.24,2.73-.16-.22-.36-.4-.6-.54-.49-.3-1.06-.38-1.62-.25Z"/></g></svg>