<?xml version="1.0" encoding="UTF-8"?><svg id="_레이어_2" xmlns="http://www.w3.org/2000/svg" viewBox="0 0 240 240"><defs><style>.cls-1{fill:#fff;}.cls-2{fill:#ed7100;}</style></defs><g id="_-2"><rect class="cls-2" width="240" height="240"/></g><g id="_0"><path class="cls-1" d="m120,60.71c3.14,2.3,6.04,4.29,7.73,5.36,14.68,9.35,32.22,14.25,47.99,18.44-.25,37.48-15.26,70.25-43.5,94.86-3.09,2.69-8.06,6.41-12.22,9.38-4.18-2.98-9.16-6.71-12.22-9.38-28.24-24.61-43.26-57.38-43.5-94.86,15.77-4.19,33.31-9.09,47.99-18.44,1.69-1.08,4.6-3.06,7.73-5.36m0-3.74c-3.55,2.67-7.26,5.24-9.34,6.57-14.54,9.26-31.45,13.91-49.38,18.66-.37,39.36,15.01,73.71,44.53,99.43,3.42,2.98,9.35,7.39,14.19,10.79,4.82-3.39,10.75-7.79,14.19-10.79,29.52-25.73,44.89-60.08,44.53-99.43-17.92-4.75-34.84-9.4-49.38-18.66-2.09-1.33-5.79-3.9-9.34-6.57h0Z"/><path class="cls-1" d="m204.45,166.04c-.89-4.51-6.17-6.57-9.93-3.93l-26.27,18.48-7.64-10.85c19.16-24.46,29.51-55.14,28.77-89.56l-.13-6.27-6.05-1.6c-8.53-2.26-16.4-4.55-23.68-7.08l18.39-25.08c.74-.99.52-2.4-.5-3.12l-2.33-1.64c-1.01-.71-2.42-.45-3.1.58l-18.7,26.96c-10.66-4.15-19.96-9.02-28.02-15.42l-1.09-.86-4.17-3.31-4.17,3.31-1.09.86c-8.07,6.4-17.36,11.28-28.03,15.42l-18.7-26.96c-.69-1.03-2.09-1.3-3.1-.58l-2.33,1.64c-1.01.71-1.24,2.12-.5,3.12l18.4,25.08c-7.28,2.53-15.15,4.83-23.68,7.08l-6.06,1.6-.13,6.27c-.74,34.42,9.62,65.09,28.77,89.56l-7.64,10.85-26.27-18.48c-3.76-2.65-9.04-.58-9.93,3.93-1.19,6.01-1.19,13.71,4.46,18.67,7.41,6.5,18.75,7.84,24.67,8.07,1.65.07,3.21-.72,4.17-2.07l.84-1.19,4.88-6.94,7.06-10.04c9.4,11.37,20.77,21.33,33.85,29.6l.36.23,4.17,2.64,4.17-2.64.36-.23c13.08-8.27,24.44-18.22,33.85-29.59l7.06,10.04,4.88,6.94.84,1.19c.95,1.35,2.51,2.14,4.17,2.07,5.92-.23,17.26-1.58,24.67-8.07,5.65-4.95,5.64-12.66,4.46-18.67Zm-68.7,17.39c-3.65,3.18-10.3,8.12-15.76,11.9-5.45-3.78-12.11-8.72-15.76-11.9-28.43-24.77-46.25-59.08-45.31-103.06,19.36-5.13,36.12-9.7,50.45-18.83,2.22-1.41,6.57-4.43,10.62-7.55,4.05,3.12,8.4,6.14,10.62,7.55,14.32,9.13,31.08,13.7,50.45,18.83.94,43.98-16.89,78.29-45.31,103.06Z"/><path class="cls-1" d="m71.32,87.11c-1.7,6.21,2.91,15.52,9.02,19.88l10.22,7.29c.38-2.66,1.11-5.22,2.15-7.61l-21.4-19.56Z"/><path class="cls-1" d="m90.28,117.94l-13.66-8.41c-1.3,4.74,1.45,10.24,5.48,12.01l9.01,3.96c-.55-2.25-.84-4.6-.84-7.02,0-.18.01-.36.01-.54Z"/><path class="cls-1" d="m83.68,125.59c-1.05,3.83.77,7.45,3.68,8.03l8.07,1.59c-1.41-2.06-2.56-4.3-3.42-6.68l-8.34-2.94Z"/><path class="cls-1" d="m159.65,106.99c6.11-4.36,10.72-13.67,9.02-19.88l-21.4,19.56c1.04,2.39,1.77,4.94,2.15,7.61l10.22-7.29Z"/><path class="cls-1" d="m149.72,117.94c0,.18.01.36.01.54,0,2.42-.3,4.77-.84,7.02l9.01-3.96c4.03-1.77,6.78-7.27,5.48-12.01l-13.66,8.41Z"/><path class="cls-1" d="m152.64,133.62c2.91-.57,4.73-4.2,3.68-8.03l-8.34,2.94c-.86,2.38-2.01,4.62-3.42,6.68l8.07-1.59Z"/><circle class="cls-1" cx="120" cy="118.48" r="24.98"/><path class="cls-1" d="m120.32,149.21h0c-.11,0-.22,0-.32,0-.11,0-.22,0-.32,0h0c-.11,0-.21.01-.32.01-2.71,0-5.36-.23-7.94-.65v1.17c0,.39.31.73.72.79.01,0,.02,0,.04,0,1.71.25,3.09,1.43,3.48,2.99l3.36,22.3h1.97l3.36-22.3c.39-1.56,1.77-2.74,3.48-2.99.01,0,.02,0,.04,0,.42-.06.72-.4.72-.79v-1.17c-2.58.42-5.23.65-7.94.65-.11,0-.21,0-.32,0Z"/></g></svg>