<?xml version="1.0" encoding="UTF-8"?><svg id="_레이어_2" xmlns="http://www.w3.org/2000/svg" viewBox="0 0 300.84 277.7"><defs><style>.cls-1{fill:#fff;}.cls-2{fill:#042;}.cls-3{fill:#ed7100;}</style></defs><g id="_0"><rect class="cls-3" width="300.84" height="277.7"/><path class="cls-1" d="m49.63,184.95h15.6v3.21h-15.6v10.33h-3.78v-16.23c0-2.62.59-4.56,1.84-5.8,1.25-1.25,3.09-1.87,5.58-1.87h13.73v3.25h-13.42c-1.53,0-2.62.44-3.25,1.25-.5.69-.72,1.81-.72,3.37v2.5Z"/><path class="cls-1" d="m74.09,176.9c0,.69-.25,1.25-.72,1.65-.5.44-1.09.62-1.78.62s-1.25-.19-1.68-.62c-.5-.41-.72-.97-.72-1.65s.22-1.25.72-1.69c.44-.41,1-.62,1.68-.62s1.28.22,1.78.62c.47.44.72,1,.72,1.69Zm-4.37,21.59v-17.97h3.81v17.97h-3.81Z"/><path class="cls-1" d="m84.04,180.52h3.68c2.31,0,4.15.69,5.49,2.03,1.31,1.37,2,3.25,2,5.65v10.3h-3.74v-10.11c0-1.5-.31-2.59-.87-3.28-.75-.87-1.78-1.34-3.15-1.34h-3.18c-1.34,0-2.37.47-3.12,1.34-.56.69-.81,1.78-.81,3.28v10.11h-3.75v-10.3c0-2.4.66-4.27,2-5.65,1.31-1.34,3.15-2.03,5.46-2.03Z"/><path class="cls-1" d="m103.38,198.5c-1.75,0-3.15-.47-4.15-1.47-1.06-.97-1.56-2.22-1.56-3.78v-1.28c0-1.56.5-2.81,1.56-3.81,1-1,2.4-1.5,4.15-1.5h9.77v-.09c0-1.9-1.06-2.87-3.15-2.87h-10.86v-3.18h10.8c2.25,0,3.96.59,5.15,1.72,1.19,1.12,1.81,2.71,1.81,4.81v6.33c0,1.62-.56,2.9-1.65,3.84-1,.87-2.4,1.28-4.21,1.28h-7.65Zm6.83-8.64h-5.93c-1.93,0-2.87.81-2.87,2.43v.59c0,1.62.94,2.4,2.87,2.4h5.93c1.93,0,2.93-.78,2.93-2.4v-.59c0-1.62-1-2.43-2.93-2.43Z"/><path class="cls-1" d="m127.22,180.52h3.68c2.31,0,4.15.69,5.49,2.03,1.31,1.37,2,3.25,2,5.65v10.3h-3.74v-10.11c0-1.5-.31-2.59-.87-3.28-.75-.87-1.78-1.34-3.15-1.34h-3.18c-1.34,0-2.37.47-3.12,1.34-.56.69-.81,1.78-.81,3.28v10.11h-3.75v-10.3c0-2.4.66-4.27,2-5.65,1.31-1.34,3.15-2.03,5.46-2.03Z"/><path class="cls-1" d="m160.2,198.5h-11.95c-2.25,0-3.99-.66-5.24-1.93-1.28-1.25-1.9-3.03-1.9-5.37v-3.31c0-2.34.62-4.15,1.9-5.4,1.25-1.25,3-1.9,5.24-1.97h11.95v3.25h-11.64c-1.34,0-2.34.44-2.96,1.25-.5.69-.72,1.72-.72,3.06v2.93c0,1.34.22,2.34.72,3.03.62.81,1.62,1.22,2.96,1.22h11.64v3.25Z"/><path class="cls-1" d="m182.16,185.83v1.25c0,1.56-.53,2.81-1.59,3.78-1.03,1-2.4,1.47-4.15,1.47h-9.74v.12c0,1.9,1.03,2.84,3.15,2.84h11.48v3.21h-11.45c-2.25,0-3.96-.56-5.15-1.69-1.19-1.09-1.78-2.68-1.78-4.77v-6.21c0-1.56.5-2.81,1.56-3.81,1-1,2.4-1.5,4.18-1.5h7.71c1.75,0,3.15.5,4.18,1.5,1.06,1,1.59,2.25,1.59,3.81Zm-12.61,3.31h5.96c1.93,0,2.9-.78,2.9-2.4v-.59c0-1.62-.97-2.43-2.9-2.43h-5.96c-1.94,0-2.87.81-2.87,2.43v.59c0,1.62.94,2.4,2.87,2.4Z"/><path class="cls-1" d="m189.88,189.6v-6.05c0-2.65.84-4.84,2.53-6.55,1.53-1.59,3.75-2.4,6.68-2.4h12.79v3.25h-12.64c-1.78,0-3.18.59-4.24,1.75-.94,1.06-1.37,2.43-1.34,4.12v5.71c-.03,1.69.41,3.03,1.34,4.09,1.06,1.19,2.47,1.75,4.24,1.75h12.64v3.25h-12.79c-2.93,0-5.15-.78-6.68-2.37-1.68-1.72-2.53-3.9-2.53-6.52Z"/><path class="cls-1" d="m222.11,198.5c-2.31,0-4.15-.66-5.46-2.03-1.34-1.31-2-3.18-2-5.59v-10.36h3.75v10.14c0,1.5.25,2.59.81,3.28.75.87,1.78,1.31,3.12,1.31h3.18c1.37,0,2.4-.44,3.15-1.31.56-.69.87-1.78.87-3.28v-10.14h3.74v10.36c0,2.4-.69,4.27-2,5.59-1.34,1.37-3.18,2.03-5.49,2.03h-3.68Z"/><path class="cls-1" d="m235.93,187.85c0-2.34.62-4.15,1.9-5.4,1.25-1.25,3-1.9,5.24-1.93h4.9c2.22.03,3.96.69,5.24,1.93,1.28,1.25,1.93,3.06,1.93,5.4v3.34c0,2.34-.66,4.12-1.93,5.37-1.28,1.28-3.03,1.93-5.21,1.93h-8.33v6.18h-3.74v-16.82Zm3.74.22v7.18h8.05c1.31,0,2.28-.41,2.93-1.22.5-.69.75-1.69.75-3.03v-2.93c0-1.34-.25-2.37-.75-3.06-.66-.81-1.62-1.25-2.93-1.25h-4.4c-1.31,0-2.28.44-2.9,1.25-.5.69-.75,1.72-.75,3.06Z"/><path class="cls-1" d="m118.97,221.09h5.14c1.9,0,2.85-.7,2.85-2.12v-1.52c0-1.42-.95-2.15-2.85-2.15h-10.19v-2.6h10.31c1.87,0,3.27.42,4.22,1.25,1,.87,1.5,2,1.5,3.37v1.77c0,1.37-.5,2.5-1.5,3.35-.95.82-2.35,1.22-4.19,1.22h-5.14c-1.9,0-2.82.72-2.82,2.15v3.42h13.78v2.6h-16.78v-6.12c0-1.37.47-2.5,1.47-3.37.92-.82,2.32-1.25,4.19-1.25Z"/><path class="cls-1" d="m143.21,231.82h-4.87c-2,0-3.5-.5-4.49-1.5-1-.95-1.47-2.5-1.47-4.59v-6.89c0-2.1.47-3.64,1.47-4.64,1-1,2.5-1.5,4.49-1.5h4.87c2,0,3.52.5,4.52,1.5s1.5,2.55,1.5,4.64v6.89c0,2.1-.5,3.65-1.5,4.59-1,1-2.52,1.5-4.52,1.5Zm-.17-2.6c1.2,0,2.07-.32,2.6-.97.4-.55.6-1.42.6-2.67v-6.59c0-1.25-.2-2.15-.6-2.7-.52-.65-1.4-1-2.6-1h-4.52c-1.2,0-2.07.35-2.57,1-.4.55-.57,1.45-.57,2.7v6.59c0,1.25.17,2.12.57,2.67.5.65,1.37.97,2.57.97h4.52Z"/><path class="cls-1" d="m157.41,221.09h5.14c1.9,0,2.85-.7,2.85-2.12v-1.52c0-1.42-.95-2.15-2.85-2.15h-10.18v-2.6h10.31c1.87,0,3.27.42,4.22,1.25,1,.87,1.5,2,1.5,3.37v1.77c0,1.37-.5,2.5-1.5,3.35-.95.82-2.35,1.22-4.19,1.22h-5.14c-1.9,0-2.82.72-2.82,2.15v3.42h13.78v2.6h-16.78v-6.12c0-1.37.47-2.5,1.47-3.37.92-.82,2.32-1.25,4.19-1.25Z"/><path class="cls-1" d="m173.66,212.7v9.34c0,1.7.95,2.52,2.85,2.52h6.49v-11.86h3.02v11.86h2.75v2.6h-2.75v4.67h-3.02v-4.67h-6.69c-1.87,0-3.27-.4-4.19-1.22-.97-.85-1.45-1.97-1.45-3.34v-9.89h3Z"/><polygon class="cls-2" points="165.51 64.33 165.46 64.4 132.82 114.9 134.04 115.69 166.74 65.12 165.51 64.33"/><polygon class="cls-2" points="134.12 114.39 132.79 114.37 132.74 114.45 122.75 128.79 125.52 130.59 134.54 115.51 134.12 114.39"/><polygon class="cls-2" points="168.67 59.08 168.63 59.14 165.91 63.35 167.4 64.3 170.16 60.04 168.67 59.08"/><path class="cls-2" d="m177.76,55.24c-.96-.44-4.76-1.3-6.44-.94-1.37.29-1.86,2.05-2.29,3.6l-.36,1.21.08.03,1.34.87.07.05s1.32-1.31,1.39-1.37c.29.09,4.82,1.62,7.06,1.64.65.02,1.05-.29,1.19-.87.3-1.28-.87-3.69-2.04-4.22"/><polygon class="cls-2" points="135.26 64.33 135.3 64.4 167.94 114.9 166.7 115.69 134.01 65.12 135.26 64.33"/><polygon class="cls-2" points="166.63 114.39 167.98 114.37 168.02 114.45 178.01 128.79 175.23 130.59 166.22 115.51 166.63 114.39"/><polygon class="cls-2" points="132.09 59.08 132.13 59.14 134.84 63.35 133.36 64.3 130.6 60.04 132.09 59.08"/><path class="cls-2" d="m122.99,55.24c.96-.44,4.77-1.3,6.45-.94,1.37.29,1.85,2.05,2.28,3.6l.35,1.21-.07.03-1.34.87-.06.05s-1.32-1.31-1.39-1.37c-.28.09-4.83,1.62-7.07,1.64-.64.02-1.04-.29-1.17-.87-.29-1.28.87-3.69,2.03-4.22"/><path class="cls-3" d="m136.44,66.75l-9.21,9.26.53.86s2.78,4.56,2.53,10.95c0,.05-.2,4.75-1.92,7.43-.11.17-2.93,4.51-1.8,9.59l-.02-.06c.04.22.99,5.58,7.35,8.09h.03s.04.03.04.03c.08.04,8.79,2.96,11.69,5.25,1.15.92,3.19,2.75,3.71,3.66l1.1,1.89,1.09-1.89c.54-.91,2.56-2.74,3.71-3.68,2.9-2.27,11.61-5.19,11.71-5.23l.03-.02h.03c6.34-2.52,7.29-7.88,7.34-8.1v.06c1.13-5.08-1.69-9.42-1.82-9.6-1.71-2.67-1.92-7.37-1.92-7.41-.26-6.4,2.51-10.92,2.53-10.96l.54-.86-.71-.72-9.18-9.21-.84.46c-6.24,3.46-12.24,3.67-12.51,3.68-.29,0-6.28-.22-12.52-3.68l-.83-.46-.68.67Z"/><path class="cls-2" d="m150.48,124.54l-1.48-2.52c-.47-.83-2.43-2.61-3.61-3.55-2.48-1.96-9.4-4.43-11.46-5.14l-.22-.09c-6.29-2.48-7.46-7.78-7.57-8.38h0c-1.1-5.04,1.56-9.36,1.87-9.84,1.65-2.57,1.86-7.17,1.86-7.21.24-6.18-2.36-10.54-2.48-10.73l-.7-1.14,10.36-10.39,1.11.61c6.18,3.43,12.08,3.62,12.32,3.63.23,0,6.13-.21,12.29-3.63l1.12-.61,10.36,10.4-.72,1.14c-.46.79-2.7,4.99-2.46,10.72,0,.05.22,4.66,1.85,7.2.02.03,3.08,4.54,1.87,9.92h0c-.19.89-1.49,5.91-7.58,8.33-.45.16-8.9,3.03-11.67,5.2-1.2.99-3.13,2.75-3.61,3.57l-1.45,2.52Zm-16.32-12.02c2.14.74,9.18,3.25,11.77,5.29,1.18.94,3.26,2.8,3.81,3.79l.74,1.26.72-1.26c.63-1.08,2.96-3.11,3.81-3.8,2.83-2.22,10.92-4.99,11.83-5.3,5.95-2.35,7.03-7.24,7.13-7.79h0c1.08-4.92-1.72-9.18-1.75-9.22-1.82-2.83-1.99-7.61-1.99-7.66-.24-5.94,2.09-10.33,2.57-11.15l.39-.61-9.44-9.47-.56.31c-6.34,3.52-12.44,3.72-12.69,3.73-.28,0-6.37-.2-12.74-3.73l-.56-.31-.46.45-8.97,9.02.35.57c.12.2,2.85,4.77,2.6,11.19,0,.03-.18,4.83-1.99,7.64-.29.45-2.8,4.54-1.74,9.27h0c.16.77,1.33,5.46,7.08,7.72l-.13.41.23-.36Z"/><path class="cls-2" d="m150.48,121.17c.84-1.45,4.01-4.03,4.01-4.03,3.12-2.46,12.09-5.45,12.09-5.45,5.75-2.27,6.56-7.13,6.56-7.13,1.03-4.6-1.62-8.63-1.62-8.63-1.95-3.01-2.14-8.07-2.14-8.07-.28-6.91,2.73-11.67,2.73-11.67l-8.51-8.55c-6.74,3.74-13.12,3.85-13.12,3.85,0,0-6.39-.12-13.14-3.85l-8.5,8.55s2.99,4.76,2.71,11.67c0,0-.16,5.06-2.11,8.07,0,0-2.66,4.03-1.62,8.63,0,0,.79,4.86,6.56,7.13,0,0,8.98,2.99,12.08,5.45,0,0,3.18,2.58,4.02,4.03"/><path class="cls-2" d="m150.21,59.97c-.13,0-.17.1-.17.1-.86,1.44-1.8.94-1.8.94-.15-.48.39-.81.39-.81-.59.4-.95.06-.95.06.05-.95.78-.79.78-.79-.31-.14-.34-.28-.34-.28.22-.55.93-.39.93-.39,0,0,.46.16.91.58"/><path class="cls-2" d="m150.42,59.99c.12,0,.17.1.17.1.87,1.43,1.8.93,1.8.93.15-.46-.38-.79-.38-.79.58.4.95.06.95.06-.07-.97-.79-.8-.79-.8.3-.13.35-.28.35-.28-.23-.55-.93-.38-.93-.38,0,0-.47.16-.91.57"/><path class="cls-2" d="m141.99,60.39s.08.1.32.15c-.03.05-.24.05-.35.21-.06.07-.09.15-.09.28,0,.07,0,.17.04.26,0,0,.35.18.7-.19h0c0,.06-.12.22-.12.42,0,.08,0,.17.06.25.01-.01.29.06.58-.11.27-.15.45-.45.56-.88,0-.03.03-.11.11-.13-.04,0-.34-.37-.34-.37-.46-.25-.87-.3-.87-.3-.01,0-.55,0-.59.41"/><path class="cls-2" d="m144.56,59.61s-.31.19-.55.57c0,.03-.04.48-.04.48.09-.04.15.03.15.03,1.03.94,1.61.46,1.65.44-.03-.34-.51-.51-.51-.51.55.15.73-.15.74-.15-.11-.22-.24-.37-.41-.44-.2-.08-.4-.01-.4-.01.17-.17.16-.29.16-.29-.29-.34-.79-.12-.79-.12"/><path class="cls-2" d="m142.86,59.82s.55.17.75.21l.26-.06c.15-.1.52-.46.52-.46.35-.37-.17-1.06-.17-1.06-.33.07-.55.5-.55.5-.03-.62-.56-.81-.56-.81,0,0-.35.36.03.92,0,0-.45-.3-.8-.24,0,0-.02.8.53.99"/><path class="cls-2" d="m140.1,62.21c-.05.02-.03.09-.03.09.18.96-.45.78-.45.78-.25-.24-.14-.51-.14-.51-.11.3-.41.14-.41.14-.35-.58.06-.56.06-.56-.2-.04-.27-.15-.27-.15-.13-.33.28-.33.28-.33,0,0,.27.04.65.24"/><path class="cls-2" d="m140.44,62.12c.05-.02.11.04.11.04.97.73,1.19.32,1.19.32-.12-.3-.47-.43-.47-.43.4.16.45-.09.45-.09-.4-.55-.67-.37-.67-.37.1-.11.05-.21.05-.21-.32-.31-.58-.11-.58-.11,0,0-.14.17-.18.46"/><path class="cls-2" d="m161.5,55.18s-1.03-.87-2.25-.65c0,0-.81.07-1.41-.13-.24-.31-.45-.46-.45-.46-2.42-1.59-5.21-.02-5.21-.02-.17.03-.27.02-.34,0-.35.47-.89.78-1.51.78s-1.17-.32-1.53-.78c-.06.03-.17.04-.33,0,0,0-2.8-1.57-5.21.02,0,0-.22.15-.47.46-.58.21-1.4.13-1.4.13-1.22-.23-2.26.65-2.26.65-1.66,1.51-1.21,3.62-.51,5.13h.03s.08-.02.12-.02c-.02-.08-.04-.14-.04-.2,0-.11.02-.17.03-.18l.09-.24.25.08s.26.11.48.38c.05-.06.08-.12.16-.15l.1-.02c-.39-.65-.6-1.23-.66-1.76,0,0,0,.02,0,.02-.38-2.35,1.96-2.64,1.96-2.64.59-.04.97-.15,1.2-.29-.21.7-.25,1.71.26,3.09v-.05c0-.26.11-.48.2-.59l.12-.13.16.07s.38.15.58.52c.12-.08.23-.18.38-.2l.14-.03s-.06-.13-.08-.18c-.57-1.95,1-2.8,1-2.8.55-.32,1.35-.18,1.35-.18,1.59.31,2.24.03,2.5-.23-.11.52-.17,1.3.14,2.32h.01c.22,0,.4.09.58.2.08-.53.46-.8.48-.82l.14-.1.14.1s.39.3.47.82c.17-.11.36-.2.58-.2h.02c.3-1,.25-1.79.14-2.32.26.26.9.52,2.49.23,0,0,.81-.14,1.36.18,0,0,1.57.84,1.01,2.79-.03.08-.07.17-.1.24.05-.01.1-.03.16-.01.16.02.27.12.37.2.21-.37.57-.51.58-.52.1-.03.22,0,.29.06.1.1.21.32.21.59,0,.02,0,.05,0,.05h0c.51-1.37.47-2.4.26-3.1.24.14.61.26,1.2.29,0,0,2.34.28,1.96,2.64,0,0,.01-.01.01-.02-.07.54-.29,1.12-.68,1.77.05,0,.07,0,.13,0,.06.02.1.09.15.15.22-.27.47-.37.49-.38.07-.02.13-.02.19,0,.06.03.12.08.14.15,0,.02.02.08.02.2,0,.04-.02.1-.03.18.03,0,.08,0,.11,0,.01,0,.03.01.04.02.69-1.51,1.15-3.63-.52-5.14"/><path class="cls-2" d="m140.17,61.59c.06-.08.19-.36.19-.36.12-.3-.42-.83-.42-.83-.18.05-.19.4-.19.4-.2-.48-.62-.64-.62-.64,0,0-.1.3.3.71,0,0-.39-.22-.57-.18,0,0,.22.63.62.79,0,0,.41.12.55.16"/><path class="cls-2" d="m156.8,60.59c.09.02.11.09.11.09.3,1.24,1.16,1,1.16,1,.24-.34-.09-.66-.09-.66.37.39.73.17.73.17.21-.73-.4-.72-.4-.72.27-.05.35-.17.35-.17-.03-.45-.64-.44-.64-.44,0,0-.41.06-.87.31"/><path class="cls-2" d="m156.8,60.59c-.1-.03-.15.04-.15.04-1.07.97-1.67.44-1.67.44.01-.38.51-.54.51-.54-.56.19-.76-.13-.76-.13.29-.71.83-.47.83-.47-.21-.14-.21-.28-.21-.28.32-.37.83-.15.83-.15,0,0,.33.21.58.6"/><path class="cls-2" d="m156.86,59.94c-.14-.12-.51-.47-.51-.47-.36-.37.18-1.06.18-1.06.32.06.54.51.54.51.02-.62.57-.84.57-.84,0,0,.35.39-.03.95,0,0,.46-.31.79-.24,0,0,.02.79-.52.99,0,0-.55.17-.76.21"/><path class="cls-2" d="m160.4,62.12c.06.01.03.08.03.08-.16.96.46.79.46.79.26-.27.14-.53.14-.53.11.31.41.15.41.15.35-.57-.04-.57-.04-.57.17-.03.26-.11.26-.11.1-.36-.27-.36-.27-.36,0,0-.29.04-.65.24"/><path class="cls-2" d="m160.4,62.12c-.06-.02-.12.04-.12.04-.96.73-1.18.32-1.18.32.12-.3.47-.43.47-.43-.41.16-.44-.09-.44-.09.39-.56.66-.37.66-.37-.09-.11-.04-.21-.04-.21.32-.31.59-.11.59-.11,0,0,.14.15.18.46"/><path class="cls-2" d="m159.01,62.29c-2.23,1.59-2.23-1.63-2.23-1.63-1.3,3.33-2.96.4-2.96.4-2.31,2.28-3.45-.92-3.5-1.11-.07.19-1.2,3.39-3.51,1.11,0,0-1.67,2.93-2.97-.4,0,0,0,3.22-2.22,1.63,0,0-.36,2.14-1.87.44,0,0,1.51,2.88,2.06.13,0,0,1.8,1.64,2.2-.95,0,0,1.41,2.35,2.83-.37,0,0,1.84,3.04,3.48-1.17,1.63,4.21,3.46,1.17,3.46,1.17,1.43,2.72,2.84.37,2.84.37.42,2.59,2.2.95,2.2.95.55,2.75,2.05-.13,2.05-.13-1.51,1.7-1.87-.44-1.87-.44"/><path class="cls-2" d="m152.12,52.13c0,1.01-.81,1.83-1.82,1.83s-1.82-.82-1.82-1.83.81-1.8,1.82-1.8,1.82.81,1.82,1.8"/><path class="cls-2" d="m160.66,61.42c-.06-.09-.19-.37-.19-.37-.13-.29.41-.83.41-.83.19.07.21.41.21.41.19-.49.61-.66.61-.66,0,0,.1.32-.29.73,0,0,.38-.23.56-.17,0,0-.22.62-.61.77,0,0-.4.14-.54.16"/><path class="cls-2" d="m159.45,64.69c-3.36-1.94-9.07-1.85-9.13-1.85-.07,0-5.78-.08-9.14,1.85v.02c0,.07,0,.16.07.25.07.09.17.14.33.15l.1-.03.03.03c.17.23.47,1.17.5,1.97v.22c.35-.28,1.26-.85,3.19-1.25,1.38-.27,3.04-.41,4.92-.42,1.87,0,3.53.15,4.9.42,1.93.39,2.83.96,3.19,1.23v-.23c.04-.79.34-1.71.52-1.95h.07s.06,0,.06,0c.15,0,.26-.06.32-.15.07-.07.09-.18.09-.25,0,0,0,0,0-.02"/><path class="cls-2" d="m151.06,46.9c0-1.13.55-1.84.55-1.84h-2.45s.54.7.54,1.84c0,0-1.34-.09-1.82-.65v2.37s.66-.8,1.84-.8c0,0,.11,1.2-.45,2.13.32-.23.7-.37,1.11-.37s.79.14,1.09.35c-.54-.93-.43-2.11-.43-2.11,1.16,0,1.83.8,1.83.8v-2.37c-.49.56-1.81.65-1.81.65"/><path class="cls-2" d="m150.49,59.14c.22-.09.81-.45.81-.45.57-.36.22-1.33.22-1.33-.43,0-.85.48-.85.48.22-.77-.35-1.15-.35-1.15,0,0-.57.38-.35,1.15,0,0-.42-.48-.85-.48,0,0-.35.97.24,1.33,0,0,.58.36.79.45"/><path class="cls-2" d="m150.43,58.79c.32,0,.57.26.57.57s-.25.58-.57.58-.58-.26-.58-.58.26-.57.58-.57"/><path class="cls-2" d="m143.68,59.88c.21-.06.44.08.52.3.07.19-.05.4-.26.45-.21.03-.44-.1-.51-.31-.07-.19.04-.41.24-.45"/><path class="cls-2" d="m139.96,61.58c.14-.04.36.08.5.27.13.19.11.38-.04.42-.16.05-.37-.07-.49-.27-.13-.18-.12-.38.03-.41"/><path class="cls-2" d="m157.14,59.88c-.2-.06-.43.08-.51.3-.07.19.05.4.25.45.21.03.44-.1.52-.31.06-.19-.05-.41-.26-.45"/><path class="cls-2" d="m160.9,61.55c-.16-.03-.37.09-.5.27-.12.19-.1.38.04.43.16.04.37-.08.49-.28.13-.19.12-.38-.03-.42"/><path class="cls-2" d="m179.16,81.6l-.05-.02-.06-.05c-.63-.44-.73-.92-.69-1.24.08-.86,1.12-1.55,1.68-1.86-.38-.49-.91-1.05-1.13-1.19l-.28-.1c-.48-.14-1.25-.37-1.52-1.37l-.04-.14.11-.1c1.22-1.24,1.53-2.57.85-3.93-.65-1.32-1.91-.69-1.91-.69h0s0,0,0,0c1.01.82.21,2.11.21,2.11.66-1.72-1.18-1.83-1.35-1.78-.17.04-.35.12-.5.21-.35.24-.56.58-.57.59,0,0,0,.03-.02.04,1.89,1.05.9,2.73.9,2.73.64-1.52-1.07-1.79-1.07-1.79-.73,0-1.31.58-1.31,1.31,0,.33.11.62.31.84.01.02.01.05.02.05.02.02.1.07.17.14.02.03.04.04.08.05.12.1.25.2.25.2.92.68,1.63,1.27,1.68,1.77,0,.08.02.18.02.27,0,.43-.12.88-.64,1.13-.12.05-.21.21-.21.35,0,.01,0,.03,0,.05.03.17.22.2.4.21.8.09,3.01,1.14,4.22,3.41.19-.1.13-.48.59-.63v.04l.18-.55c-.1-.02-.21-.05-.33-.07"/><path class="cls-2" d="m182.13,74.61l1.8-.05c.54-.01,1.64.18,2.15.35.28.09.65.16,1.18.54.02-.59-1.08-.96-1.08-.96-.47-.17-2.07-.43-2.35-.45,0,0-2.31-.45-2.69-2.54-.5-1.1-.96-1.12-2.29-1.26.6,1.06.58.98.73,3.13.3.95,1.77,1.24,2.55,1.24"/><path class="cls-2" d="m190.94,104.55c-.24-3.83-1.79-5.56-2.59-6.18-1.86.85-5.81,3.01-6.86,3.92l-.65.54c-1.06.87-2.16,1.79-2.16,2.75,0,.76.62,1.49,1.17,2.11.26.33.52.63.69.91.46.88.92,2.59.87,3.9-.07,1.5-1,3.17-2.16,3.17-.53,0-1.43-.71-2.19-1.07-1.22-.59-2.12-.3-2.43-.15-.91.39-.83,1.52.01,1.93,0-.35.31-.87,1.6-.38.14.05.29.12.45.21.06.03.12.05.17.09,0,0-.04-.02-.1-.04.05.02.09.04.14.08,0,0-2.09-.75-1.9.88.08.3.27.7.78.8,0,0,.1-1.43,1.99-.14,0,0-1.64-.45-1.92.69-.04.2-.03.5.08.77.08.17.23.41.53.48.31.07.57-.07.65-.15l.14-.13.03-.04h.08c.79-.05,1.5.29,1.84.83.65.25,2.73.73,4.37-1.89l.14-.24.22.18c.26.23.98.35,1.08.24.12-.12.32-.39-.29-1.82-.33-.77-.5-1.88.61-2.67.17-.14.52-.29.98-.47.58-.25,1.58-.66,1.72-.94.21-.49.62-1.36-.35-2.57-1.26-1.6-1.62-2.89-1.01-3.65.44-.57,1.72-1.81,4.26-1.94"/><path class="cls-2" d="m185.78,84.68h.03c-.25-.27-.33-.56-.36-.79,0-.05-.01-.1-.01-.14,0-.18.04-.34.09-.52-1.04.55-2.31.9-3.34.21l-.03-.02-.03-.04c-.42-.42-.52-.84-.52-1.19,0-.09,0-.17.02-.24.04-.17.09-.33.17-.5-.83.24-1.76.37-2.63.13l-.07-.02-.05-.05c-.63-.43-.73-.92-.69-1.24.05-.51.43-.96.85-1.3-.37-.03-.72.07-.94.45-.29.47-.18,1.11,0,1.58.15.5.28.5.57.58l-.43.71c.32.52.71,1.19.68,1.42l-.27.5c-.16.33-.38.63-1.39.81-1.12.22-2.63.32-3.02.32-.29,0-.57-.12-.75-.33-.15-.16-.21-.37-.19-.57l.04-.16c0-.06,0-.11.02-.15.07-.24.29-1.06-.06-1.55-1.1-1.45-2.21-.16-2.28-.07h.05s-.01-.01-.01-.01c0,0,1.49-.19,1.33,1.95,0,0-.76-2.35-2.23-1.47-.13.12-.51.53-.42.99.27-.12,1.33-.24,1.66,1.03,0,0-.94-.81-1.72-.35-.33.22-.55.44-.66.87-.11.82.42,1.47.42,1.47,0,0,.45-1.89,2.61-.16,0,0-3.4-.45-2.37,1.88.28.4.68.81,1.32,1.05l4.25-1.93-.12,1.24c-.05.27-.1.58.02.7.07.07.27.17.87.06,1.19-.22,2.43-.15,3.52-.11l1.77.05c.37-.07.69-.18,1.03-.3,3.31-1.43,3.29-4.65,3.29-4.79"/><path class="cls-2" d="m204.11,106.03l-1.85-.2c-1.11-.13-2.36-.26-2.64-.22l-.27.02v-.26c0-.57-.06-3.18-.63-3.84l-.17-.24s3.66-1.15,3.96-3.96c.49-2.47-.36-6.06-2.33-10.9-1.01-2.42-1.6-5.71-.69-7.51.63-1.28,1.35-1.72,1.87-1.86,1.34-.34,2.93.91,1.7,3.01-.64.73-1.27,1.59-1.47,2.63.65-.68,1.31-1.31,1.78-1.52,0,0,.59-.14.3.37-.32.39-.3.32-.3.32-.66.75-1.7,1.93-1.7,4.11,0,.2.05.43.07.65.45-.81,1.1-1.82,1.84-2.21l.69-.37-.37.7c-.48.92-.97,2.87-.87,4.02.03.49.19.63.25.65.11,0,.4-.18.66-.8.58-1.25,2.07-4.87,2.07-6.54,0-1.99-.53-4.48-2.15-5.31-1.36-.52-2.77-.45-4.09.94-1.6,1.9-1.71,3.27-1.49,6.4.37,1.78,1.11,4.02,1.73,5.82.55,1.64,1,2.95,1.05,3.59.17,2-.13,3.42-.87,4.2-.44.47-1.01.7-1.72.69-1.16-.02-2.28-.64-3.16-1.67-1.06-1.28-1.54-3.09-1.35-4.89-.5-.42-2.51-2.26-2.84-5.06-.86,1.09-2.45,2.71-4.67,2.9l-1.29.1,1-.82s1.3-1.11.92-3.1l.81-.15c.03.32.07.61.07.9,0,.86-.25,1.53-.53,2.03,2.28-.78,3.67-3.25,3.69-3.29l.75.24c-.21,2.85,1.77,4.88,2.45,5.49,0-.02,0-.02.03-.03.05.06.11.12.15.17.33.25.75.56,1,.76-.11-1.17-.16-3.28-.16-5.65,0-4.24.18-9.39.49-11.7.04-.21.04-.42.04-.64,0-.85-.17-1.72-.63-2.07l-.23-.18.21-.18c.39-.42.62-1.07.62-1.52,0-.16-.03-.29-.08-.36-.25-.36-.74-.41-1.21-.1-.66.43-2.21.26-2.78.03-1.17-.48-1.85-.35-2.2-.15-.4.19-.65.57-.77,1.1l-.05.2h3.55l-2.14,1.39-1.42-1.39-.55-.06c-.77-.09-2.6-.29-3.28.5-.18.22-.3.51-.3.89,0,.17.04.39.1.59.2,0,.71-.04.71-.03,4.17.05,4.27,1.14,4.27,1.14v.11c0,.43-.21.85-.62,1.22-.88.79-2.45,1.25-3.9,1.15,0,.18.05.32.09.43.66.28,3.36.97,4.98.22.06-.02.11-.05.17-.09,1.09-.76,1.06-2.12,1.06-2.14h.82s.03,1.79-1.43,2.79c-1.8,1.3-5.82.31-6.72.07-1.32.4-2.91,1.12-3.59,1.45-.02.01-.04.03-.04.03-.14.09-.29.17-.44.27h0c-.48.31-.9.71-.95,1.02v.03c0,.15.11.29.31.44,1.37.36,3.04-.39,3.82-.84.25-.16.44-.27.52-.3l.39.69s-.22.14-.51.31c-.52.33-1.18.88-1.26,1.42-.02.04-.02.07-.02.11,0,.2.1.39.29.59,1.21.78,3.42-.77,4.18-1.44l.54.6h-.02c-.44.39-1.13,1.23-1.13,1.79v.06c.02.13.07.31.34.48,1.19.5,3.63-1.3,4.38-1.95l.55.61c-.33.27-3.08,2.61-4.95,2.16-.15,1.19-.88,4.35-4.78,5.46.37.98.99,2.19,1.53,2.53.18.13,4.76,3.08,5.86,4.59l.21.27h-.01l.2.25c.99,1.2,1.95,2.36,2.16,6.31v.08c0,.05,0,.09,0,.13h0v.03c0,2.36.26,3.75.78,4.12.81.54,1.5,1.01,4.35,1.01,1.17,0,2.01.96,2.01,2.33,0,1.19-.1,4.09-.9,5.24l-.1.15-.61-.18c-.71-.22-2.03-.78-2.94-.82-.51,0-2.39-.13-2.73,1.72,0,0-.22,1.05.96,1.49.02-.24.12-2.16,2.81-1.34,0,0-1.8-.3-1.92,1.4-.04,1.46,1.13,1.74,1.13,1.74.24.08.53.11.87.11-.42-.81-.37-2.58,2.44-1.55,0,0-1.64-.05-1.53,1.58,0,.06.39,1.7,2.24,1.22,1.15-.25,1.76-.66,2.05-.92.01-.02.02-.02.04-.04.84-.68,1.31-2.26,1.4-3.09l.04-.2s.85-.06,1.22-.1c-.42-1.03-.99-3.03-.99-4.35v-.3c.11-1.43,1.34-4.87,2.33-6.61.11-.18.19-.44.19-.67,0-.13-.03-.25-.08-.35-.11-.22-.35-.35-.72-.37"/><path class="cls-2" d="m121.68,81.6l.06-.02.07-.05c.61-.44.72-.92.69-1.24-.08-.86-1.14-1.55-1.69-1.86.38-.49.9-1.05,1.12-1.19l.29-.1c.47-.14,1.23-.37,1.51-1.37l.04-.14-.1-.1c-1.24-1.24-1.53-2.57-.87-3.93.64-1.32,1.92-.69,1.92-.69h0c-1.03.82-.24,2.11-.24,2.11-.65-1.72,1.19-1.83,1.36-1.78.17.04.34.12.51.21.33.24.56.58.56.59.01,0,.01.03.03.04-1.91,1.05-.89,2.73-.89,2.73-.66-1.52,1.07-1.79,1.07-1.79.72,0,1.31.58,1.31,1.31,0,.33-.13.62-.33.84,0,.02-.02.05-.02.05-.02.02-.09.07-.17.14-.02.03-.05.04-.08.05-.12.1-.24.2-.24.2-.92.68-1.64,1.27-1.68,1.77,0,.08,0,.18,0,.27,0,.43.11.88.62,1.13.12.05.22.21.22.35,0,.01,0,.03-.02.05-.03.17-.22.2-.38.21-.82.09-3.02,1.14-4.24,3.41-.19-.1-.13-.48-.59-.63v.04l-.18-.55c.11-.02.22-.05.33-.07"/><path class="cls-2" d="m118.72,74.61l-1.79-.05c-.54-.01-1.65.18-2.16.35-.28.09-.66.16-1.17.54-.03-.59,1.08-.96,1.08-.96.46-.17,2.07-.43,2.33-.45,0,0,2.32-.45,2.69-2.54.51-1.1.98-1.12,2.29-1.26-.59,1.06-.57.98-.71,3.13-.29.95-1.77,1.24-2.57,1.24"/><path class="cls-2" d="m109.91,104.55c.24-3.83,1.78-5.56,2.59-6.18,1.86.85,5.82,3.01,6.88,3.92l.62.54c1.07.87,2.16,1.79,2.16,2.75,0,.76-.62,1.49-1.14,2.11-.27.33-.54.63-.68.91-.48.88-.94,2.59-.89,3.9.06,1.5,1,3.17,2.17,3.17.52,0,1.42-.71,2.19-1.07,1.2-.59,2.11-.3,2.41-.15.93.39.85,1.52,0,1.93,0-.35-.31-.87-1.59-.38-.14.05-.29.12-.46.21-.06.03-.11.05-.18.09,0,0,.04-.02.1-.04-.04.02-.08.04-.13.08,0,0,2.08-.75,1.9.88-.07.3-.27.7-.77.8,0,0-.11-1.43-2-.14,0,0,1.65-.45,1.92.69.05.2.04.5-.08.77-.09.17-.23.41-.53.48-.32.07-.57-.07-.65-.15l-.13-.13-.03-.04h-.09c-.78-.05-1.5.29-1.81.83-.68.25-2.76.73-4.4-1.89l-.14-.24-.21.18c-.29.23-.99.35-1.1.24-.11-.12-.3-.39.28-1.82.34-.77.5-1.88-.59-2.67-.18-.14-.54-.29-1-.47-.58-.25-1.58-.66-1.71-.94-.22-.49-.61-1.36.35-2.57,1.25-1.6,1.61-2.89,1.01-3.65-.45-.57-1.73-1.81-4.27-1.94"/><path class="cls-2" d="m115.06,84.68h-.03c.25-.27.34-.56.36-.79,0-.05,0-.1,0-.14,0-.18-.04-.34-.09-.52,1.04.55,2.33.9,3.35.21l.03-.02.03-.04c.42-.42.52-.84.52-1.19,0-.09,0-.17-.02-.24-.03-.17-.08-.33-.16-.5.83.24,1.76.37,2.62.13l.06-.02.08-.05c.62-.43.72-.92.69-1.24-.05-.51-.44-.96-.86-1.3.37-.03.72.07.95.45.27.47.16,1.11,0,1.58-.17.5-.29.5-.57.58l.42.71c-.33.52-.71,1.19-.68,1.42l.27.5c.17.33.4.63,1.39.81,1.12.22,2.63.32,3.02.32.3,0,.6-.12.77-.33.14-.16.2-.37.18-.57l-.02-.16c-.02-.06-.02-.11-.03-.15-.06-.24-.27-1.06.06-1.55,1.12-1.45,2.21-.16,2.28-.07h-.05s0-.01,0-.01c0,0-1.48-.19-1.33,1.95,0,0,.77-2.35,2.24-1.47.12.12.5.53.41.99-.27-.12-1.33-.24-1.65,1.03,0,0,.94-.81,1.71-.35.34.22.54.44.67.87.11.82-.43,1.47-.43,1.47,0,0-.44-1.89-2.61-.16,0,0,3.39-.45,2.37,1.88-.27.4-.68.81-1.32,1.05l-4.24-1.93.13,1.24c.05.27.11.58-.02.7-.06.07-.27.17-.87.06-1.2-.22-2.45-.15-3.53-.11l-1.76.05c-.36-.07-.7-.18-1.04-.3-3.29-1.43-3.29-4.65-3.29-4.79"/><path class="cls-2" d="m96.73,106.03l1.86-.2c1.1-.13,2.35-.26,2.64-.22l.27.02v-.26c0-.57.05-3.18.62-3.84l.17-.24s-3.66-1.15-3.96-3.96c-.49-2.47.36-6.06,2.35-10.9,1-2.42,1.58-5.71.68-7.51-.63-1.28-1.37-1.72-1.85-1.86-1.36-.34-2.95.91-1.72,3.01.66.73,1.3,1.59,1.47,2.63-.64-.68-1.3-1.31-1.78-1.52,0,0-.57-.14-.28.37.32.39.28.32.28.32.67.75,1.71,1.93,1.71,4.11,0,.2-.04.43-.05.65-.47-.81-1.11-1.82-1.85-2.21l-.69-.37.36.7c.49.92.98,2.87.87,4.02-.03.49-.18.63-.24.65-.12,0-.39-.18-.68-.8-.57-1.25-2.06-4.87-2.06-6.54,0-1.99.55-4.48,2.17-5.31,1.34-.52,2.76-.45,4.09.94,1.59,1.9,1.7,3.27,1.48,6.4-.36,1.78-1.12,4.02-1.73,5.82-.57,1.64-1,2.95-1.06,3.59-.15,2,.14,3.42.87,4.2.44.47,1.02.7,1.73.69,1.17-.02,2.29-.64,3.14-1.67,1.06-1.28,1.55-3.09,1.36-4.89.51-.42,2.51-2.26,2.83-5.06.85,1.09,2.45,2.71,4.67,2.9l1.3.1-.99-.82c-.07-.05-1.31-1.11-.93-3.1l-.8-.15c-.05.32-.09.61-.09.9,0,.86.27,1.53.55,2.03-2.3-.78-3.69-3.25-3.71-3.29l-.76.24c.22,2.85-1.76,4.88-2.44,5.49-.02-.02-.02-.02-.03-.03-.05.06-.1.12-.16.17-.33.25-.73.56-.99.76.1-1.17.17-3.28.17-5.65,0-4.24-.17-9.39-.49-11.7-.02-.21-.05-.42-.05-.64,0-.85.19-1.72.63-2.07l.23-.18-.19-.18c-.41-.42-.64-1.07-.64-1.52,0-.16.03-.29.08-.36.24-.36.73-.41,1.22-.1.66.43,2.19.26,2.78.03,1.17-.48,1.85-.35,2.21-.15.37.19.63.57.77,1.1l.03.2h-3.55l2.15,1.39,1.4-1.39.57-.06c.77-.09,2.58-.29,3.27.5.19.22.29.51.29.89,0,.17-.05.39-.1.59-.2,0-.71-.04-.71-.03-4.16.05-4.27,1.14-4.27,1.14v.11c0,.43.22.85.63,1.22.87.79,2.44,1.25,3.9,1.15,0,.18-.04.32-.1.43-.67.28-3.35.97-4.97.22-.07-.02-.13-.05-.17-.09-1.09-.76-1.08-2.12-1.08-2.14h-.82s-.03,1.79,1.42,2.79c1.81,1.3,5.82.31,6.72.07,1.34.4,2.92,1.12,3.6,1.45.03.01.03.03.03.03.15.09.3.17.44.27.02,0,.02,0,.03,0,.46.31.9.72.92,1.02v.03c0,.15-.11.29-.3.44-1.38.36-3.03-.39-3.81-.84-.26-.16-.46-.27-.52-.3l-.4.69s.21.14.51.31c.51.33,1.16.88,1.24,1.42.01.04.01.07.01.11,0,.2-.1.39-.27.59-1.22.78-3.43-.77-4.17-1.44h-.01l-.54.6h0c.45.39,1.14,1.23,1.14,1.79,0,.02,0,.04,0,.06,0,.13-.07.31-.35.48-1.17.5-3.61-1.3-4.37-1.95l-.53.61c.32.27,3.05,2.61,4.95,2.16.12,1.19.85,4.35,4.77,5.46-.39.98-1,2.19-1.54,2.53-.19.13-4.76,3.08-5.87,4.59l-.19.27-.2.25c-1.01,1.2-1.94,2.36-2.14,6.31h-.01v.08c0,.05,0,.09,0,.13h0v.03c0,2.36-.28,3.75-.81,4.12-.79.54-1.49,1.01-4.33,1.01-1.18,0-1.99.96-1.99,2.33,0,1.19.07,4.09.89,5.24l.1.15.59-.18c.71-.22,2.04-.78,2.93-.82.51,0,2.41-.13,2.74,1.72,0,0,.2,1.05-.95,1.49-.04-.24-.11-2.16-2.81-1.34,0,0,1.8-.3,1.91,1.4h0c.07,1.46-1.14,1.74-1.14,1.74-.24.08-.51.11-.85.11.41-.81.37-2.58-2.45-1.55,0,0,1.65-.05,1.52,1.58,0,.06-.39,1.7-2.25,1.22-1.13-.25-1.75-.66-2.03-.92-.02-.02-.03-.02-.05-.04-.84-.68-1.3-2.26-1.41-3.09l-.04-.2s-.85-.06-1.23-.1c.43-1.03,1.01-3.03,1.01-4.35,0-.11-.02-.2-.02-.3-.11-1.43-1.32-4.87-2.32-6.61-.11-.18-.19-.44-.19-.67,0-.13.02-.25.07-.35.11-.22.37-.35.73-.37"/><path class="cls-3" d="m146.53,94.17c-.38-3.48,3.26-6.26,8.13-6.23,4.88.04,9.14,2.89,9.51,6.36.39,3.48-3.25,6.26-8.12,6.23-4.87-.04-9.14-2.89-9.52-6.36m18.55,1.08c-.43-4.3-5.34-7.83-10.95-7.88-5.61-.05-9.8,3.41-9.36,7.71.44,4.31,5.35,7.84,10.95,7.88,5.61.04,9.8-3.41,9.36-7.72"/><path class="cls-3" d="m156.61,103.05c-2.75,2.88-7.19,3.13-9.9.53-2.71-2.59-2.66-7.03.1-9.92,2.76-2.88,7.19-3.12,9.9-.53,2.71,2.59,2.66,7.03-.1,9.92m-10.23-9.48c-3.21,3.36-3.27,8.51-.12,11.53,3.14,3.01,8.3,2.74,11.51-.62,3.21-3.35,3.27-8.51.12-11.52-3.15-3.02-8.29-2.73-11.51.62"/><path class="cls-3" d="m146.68,82.78c5.74-2.16,11.42.02,12.68,4.86,1.26,4.84-2.37,10.51-8.12,12.66-5.74,2.16-11.43-.02-12.69-4.86-1.27-4.83,2.36-10.5,8.12-12.66m-5.34,1.84c-5.97,4.72-7.47,11.56-3.39,15.28,4.09,3.71,12.24,2.9,18.2-1.82,5.96-4.72,7.48-11.56,3.39-15.27-4.09-3.72-12.24-2.9-18.2,1.81"/><polygon class="cls-1" points="101.31 141.11 101.31 164.94 97.57 164.94 97.57 152.37 83.45 152.37 83.45 164.94 79.72 164.94 79.72 141.11 83.45 141.11 83.45 149.11 97.57 149.11 97.57 141.11 101.31 141.11"/><path class="cls-1" d="m110.28,164.94c-1.74,0-3.14-.47-4.14-1.46-1.06-.96-1.55-2.21-1.55-3.77v-1.27c0-1.56.5-2.8,1.55-3.8,1-1,2.4-1.49,4.14-1.49h9.74v-.09c0-1.9-1.06-2.86-3.14-2.86h-10.83v-3.17h10.76c2.24,0,3.95.59,5.14,1.71,1.18,1.12,1.81,2.7,1.81,4.79v6.31c0,1.62-.56,2.9-1.65,3.83-.99.87-2.4,1.28-4.2,1.28h-7.62Zm6.81-8.62h-5.91c-1.93,0-2.86.81-2.86,2.43v.59c0,1.62.93,2.4,2.86,2.4h5.91c1.93,0,2.93-.78,2.93-2.4v-.59c0-1.62-.99-2.43-2.93-2.43"/><path class="cls-1" d="m134.69,147.02h3.67c2.3,0,4.14.69,5.48,2.03,1.3,1.36,1.99,3.23,1.99,5.63v10.26h-3.73v-10.08c0-1.5-.31-2.59-.87-3.27-.75-.87-1.77-1.34-3.14-1.34h-3.17c-1.34,0-2.36.47-3.11,1.34-.56.68-.81,1.77-.81,3.27v10.08h-3.73v-10.26c0-2.4.65-4.27,1.99-5.63,1.31-1.34,3.14-2.03,5.45-2.03"/><path class="cls-1" d="m163.04,162.55c-1.34,1.61-2.99,2.39-4.95,2.39h-2.3c-2.09,0-3.73-.65-4.95-1.96-1.19-1.22-1.74-2.96-1.74-5.2v-10.77h3.7v10.8c0,1.31.28,2.27.84,2.87.62.68,1.46,1.03,2.52,1.03h1.62c1.06,0,1.9-.34,2.55-1.03.56-.59.87-1.56.87-2.87v-10.8h3.67v10.8c0,1.31.28,2.27.84,2.87.62.68,1.46,1.03,2.52,1.03h1.62c1.06,0,1.9-.34,2.55-1.03.56-.59.87-1.56.87-2.87v-10.8h3.7v10.77c0,2.24-.62,3.98-1.8,5.2-1.24,1.31-2.9,1.96-4.98,1.96h-2.27c-1.93,0-3.58-.78-4.88-2.39"/><path class="cls-1" d="m187.95,150.26c-1.34,0-2.37.46-3.11,1.34-.56.68-.81,1.77-.81,3.27v10.08h-3.74v-23.9h3.74v7.07c1.06-.72,2.3-1.09,3.7-1.09h3.67c2.3,0,4.14.68,5.47,2.02,1.31,1.37,1.99,3.23,1.99,5.63v10.27h-3.73v-10.08c0-1.5-.31-2.59-.87-3.27-.74-.87-1.77-1.34-3.14-1.34h-3.17Z"/><path class="cls-1" d="m207.66,164.94c-1.74,0-3.15-.47-4.14-1.46-1.06-.96-1.56-2.21-1.56-3.77v-1.27c0-1.56.5-2.8,1.56-3.8.99-1,2.4-1.49,4.14-1.49h9.74v-.09c0-1.9-1.06-2.86-3.14-2.86h-10.83v-3.17h10.77c2.24,0,3.95.59,5.13,1.71,1.18,1.12,1.8,2.7,1.8,4.79v6.31c0,1.62-.56,2.9-1.65,3.83-.99.87-2.4,1.28-4.2,1.28h-7.62Zm6.81-8.62h-5.91c-1.93,0-2.86.81-2.86,2.43v.59c0,1.62.93,2.4,2.86,2.4h5.91c1.93,0,2.92-.78,2.92-2.4v-.59c0-1.62-.99-2.43-2.92-2.43"/></g></svg>