<?xml version="1.0" encoding="UTF-8"?><svg id="_레이어_2" xmlns="http://www.w3.org/2000/svg" viewBox="0 0 240 240"><defs><style>.cls-1{fill:#fff;}.cls-2{fill:#042;}</style></defs><g id="_-2"><rect class="cls-2" width="240" height="240"/></g><g id="_0"><path class="cls-1" d="m189.7,58.73c-5.51,2.91-11.2,5.48-17.02,7.68-8.42,3.18-17.18,5.59-26.13,7.17-.61.64-1.24,1.3-1.88,1.93l-5.93,5.93-10.14,10.14-1.09,1.09-7.49,7.49-4.42-4.42-3.07-3.07-1.09-1.09-10.14-10.14-5.93-5.93c-.64-.63-1.27-1.3-1.91-1.93-8.97-1.62-17.74-4.03-26.16-7.23-5.85-2.19-11.52-4.79-17.02-7.7-8.52-4.56-16.65-9.96-24.25-16.15.04.11.07.22.11.33,6.39,18.68,21.18,33.49,39.84,39.95.14.05.28.1.42.15,6.27,2.14,12.65,3.92,19.19,5.29l4.47,4.45,8.47,8.47h0l2.75,2.75,3.07,3.1,4.42,4.39,6.88,6.88h0l4.34,4.34,4.34-4.34,6.88-6.88,1.75-1.75,5.74-5.72,2.78-2.78,8.44-8.45,4.45-4.47c6.51-1.35,12.92-3.13,19.17-5.27.11-.04.22-.08.33-.11,18.7-6.42,33.53-21.24,39.94-39.94l.1-.29c-7.6,6.19-15.72,11.57-24.25,16.12Z"/><path class="cls-1" d="m108.8,73.95l1.64,1.67.24.24,9.35,9.32,9.56-9.56,1.67-1.64,5.93-5.96c1.43-1.43,2.81-2.89,4.16-4.37-6.22.98-12.5,1.51-18.8,1.62-.42,0-.87.03-1.3.03h-2.2c-.53,0-1.03-.03-1.56-.03-6.3-.11-12.57-.66-18.8-1.64,1.32,1.51,2.73,2.97,4.16,4.39l5.96,5.93Z"/><path class="cls-1" d="m167.76,112.34l.93-.93,5.93-5.93c5.51-5.51,10.56-11.33,15.17-17.42-8.74,3.8-17.81,6.86-27.1,9.18-1.97.49-3.78,1.48-5.22,2.92h0l-11.22,11.23-5.85,5.85-1.64,1.64-11.23,11.22-1.61,1.62-5.88,5.88-2.62-2.62-4.87-4.87-11.23-11.22-1.64-1.64-5.85-5.85-11.22-11.23-.03-.03c-1.44-1.44-3.25-2.43-5.22-2.92-9.31-2.31-18.38-5.38-27.13-9.2,4.61,6.11,9.69,11.94,15.19,17.45l5.96,5.93.93.93,10.3,10.3,7.49,7.49-7.49,7.49h0c-4.14-4.14-10.85-4.14-14.98,0l-3.76,3.76,7.49,7.49,11.22,11.23,18.74-18.74h0l4.87,4.87h0s-.03.03-.03.03l2.62,2.62-7.47,7.46h0l-11.25,11.25,11.23,11.23,18.74,18.71,18.72-18.72h0s11.22-11.22,11.22-11.22l-11.22-11.23-7.49-7.49v-.03l5.88-5.88,1.61-1.59,7.49,7.49,11.22,11.23,11.25-11.25,7.47-7.47-3.75-3.75c-4.13-4.13-10.83-4.14-14.97-.01h0s-7.46-7.49-7.46-7.49l7.46-7.46,10.3-10.3Zm-47.73,62.72l-7.49-7.52h0s7.46-7.47,7.46-7.47h.03l7.46,7.49-7.46,7.49Z"/></g></svg>