<svg id="euzfhVktyDL1" xmlns="http://www.w3.org/2000/svg" xmlns:xlink="http://www.w3.org/1999/xlink" viewBox="0 0 300 300" shape-rendering="geometricPrecision" text-rendering="geometricPrecision" project-id="d44bc7a3bf78442182a3ec015b987b38" export-id="9a22b3b51a9b4263bda37ac8ba0d1b1a" cached="false"><rect width="170.105868" height="170.105868" rx="0" ry="0" transform="translate(64.947066 64.947066)" fill="none" stroke="#3a3a3a"/><g transform="translate(-4.844787 0)"><line x1="0" y1="-85.227884" x2="0" y2="85.227884" transform="translate(97.137987 149.82505)" fill="none" stroke="#3a3a3a"/><line x1="0" y1="-85.227884" x2="0" y2="85.227884" transform="translate(226.978287 149.825051)" fill="none" stroke="#3a3a3a"/><line x1="0" y1="-85.227884" x2="0" y2="85.227884" transform="translate(212.551587 149.825051)" fill="none" stroke="#3a3a3a"/><line x1="0" y1="-85.227884" x2="0" y2="85.227884" transform="translate(198.124887 149.82505)" fill="none" stroke="#3a3a3a"/><line x1="0" y1="-85.227884" x2="0" y2="85.227884" transform="translate(183.698187 149.82505)" fill="none" stroke="#3a3a3a"/><line x1="0" y1="-85.227884" x2="0" y2="85.227884" transform="translate(169.271487 149.82505)" fill="none" stroke="#3a3a3a"/><line x1="0" y1="-85.227884" x2="0" y2="85.227884" transform="translate(154.844787 149.82505)" fill="none" stroke="#3a3a3a"/><line x1="0" y1="-85.227884" x2="0" y2="85.227884" transform="translate(140.418087 149.82505)" fill="none" stroke="#3a3a3a"/><line x1="0" y1="-85.227884" x2="0" y2="85.227884" transform="translate(125.991387 149.82505)" fill="none" stroke="#3a3a3a"/><line x1="0" y1="-85.227884" x2="0" y2="85.227884" transform="translate(111.564687 149.82505)" fill="none" stroke="#3a3a3a"/><line x1="0" y1="-85.227884" x2="0" y2="85.227884" transform="translate(82.711287 149.82505)" fill="none" stroke="#3a3a3a"/></g><g transform="translate(0 2.684814)"><line x1="-85.052934" y1="0" x2="85.052934" y2="0" transform="translate(150.000001 218.190383)" fill="none" stroke="#3a3a3a"/><line x1="-85.052934" y1="0" x2="85.052934" y2="0" transform="translate(150.000001 202.440338)" fill="none" stroke="#3a3a3a"/><line x1="-85.052934" y1="0" x2="85.052934" y2="0" transform="translate(150.000001 186.690293)" fill="none" stroke="#3a3a3a"/><line x1="-85.052934" y1="0" x2="85.052934" y2="0" transform="translate(150.000001 170.940248)" fill="none" stroke="#3a3a3a"/><line x1="-85.052934" y1="0" x2="85.052934" y2="0" transform="translate(150.000001 155.190203)" fill="none" stroke="#3a3a3a"/><line x1="-85.052934" y1="0" x2="85.052934" y2="0" transform="translate(150.000001 139.440158)" fill="none" stroke="#3a3a3a"/><line x1="-85.052934" y1="0" x2="85.052934" y2="0" transform="translate(150.000001 123.690113)" fill="none" stroke="#3a3a3a"/><line x1="-85.052934" y1="0" x2="85.052934" y2="0" transform="translate(150.000001 107.940068)" fill="none" stroke="#3a3a3a"/><line x1="-85.052934" y1="0" x2="85.052934" y2="0" transform="translate(150 92.190023)" fill="none" stroke="#3a3a3a"/><line x1="-85.052934" y1="0" x2="85.052934" y2="0" transform="translate(150 76.439978)" fill="none" stroke="#3a3a3a"/></g></svg>
