<?xml version="1.0" encoding="UTF-8"?>
<svg id="_레이어_1" data-name="레이어 1" xmlns="http://www.w3.org/2000/svg" viewBox="0 0 40 40">
  <defs>
    <style>
      .cls-1 {
        fill: none;
        opacity: .75;
      }

      .cls-1, .cls-2 {
        stroke-width: 0px;
      }

      .cls-2 {
        fill: #fff;
      }
    </style>
  </defs>
  <rect class="cls-1" width="40" height="40"/>
  <g>
    <path class="cls-2" d="m20,2c-10.28,0-13.49,10.61-11.14,16.32,2.35,5.71,11.14,19.68,11.14,19.68,0,0,8.79-13.98,11.14-19.68,2.35-5.71-.86-16.32-11.14-16.32Zm0,21.29c-5.19,0-9.4-4.21-9.4-9.4s4.21-9.4,9.4-9.4,9.4,4.21,9.4,9.4-4.21,9.4-9.4,9.4Z"/>
    <g>
      <path class="cls-2" d="m22.7,7.63c-.67-.63-1.75-.54-2.47.16-.41.39-.62.86-.62,1.39,0,.41.15.77.48,1.09.32.26.66.4,1.03.4.52,0,1-.18,1.42-.55.41-.4.62-.87.62-1.4,0-.42-.16-.79-.47-1.08Z"/>
      <path class="cls-2" d="m16.39,14.56s1.2-1.39,2.58-2.44c1.96-1.49,3.97-.8,2.9,2.61l-1.19,3.17s-.72,1.51,2.65-1.02c0,0-2.06,3.02-4.63,3.37-3.5.47.42-6.31.42-6.31,0,0,.84-1.26-.42-.84-.41.14-1.36.52-2.31,1.47Z"/>
    </g>
  </g>
</svg>