<?xml version="1.0" encoding="UTF-8"?>
<svg id="_레이어_1" data-name="레이어 1" xmlns="http://www.w3.org/2000/svg" viewBox="0 0 40 40">
  <defs>
    <style>
      .cls-1 {
        fill: #1e1450;
        stroke-width: 0px;
      }
    </style>
  </defs>
  <path class="cls-1" d="m19.13,4.12c-.02-.35-.31-.62-.65-.62h-.44c-.27,0-.49.22-.49.49v9.74c0,.27-.2.5-.46.52-.28.01-.52-.21-.52-.49V3.99c0-.27-.22-.49-.49-.49h-.57c-.27,0-.49.22-.49.49v9.74c0,.27-.2.5-.46.52-.28.01-.52-.21-.52-.49V3.99c0-.27-.22-.49-.49-.49h-.44c-.35,0-.64.27-.65.62l-.08,1.5c-.08,1.59-.17,3.17-.25,4.76-.05.87-.09,1.73-.14,2.6-.02.42-.06.83.03,1.24.16.79.64,1.41,1.3,1.85.9.65,1.39,1.7,1.39,2.8,0,.73-.03,1.46-.05,2.19-.05,2-.03,4.01-.25,6.01-.14,1.24-.34,2.47-.61,3.69-.14.63-.24,1.19-.29,1.83-.03.47-.08.94-.1,1.4-.04.9.4,1.76,1.2,2.21,1.61.89,3.71-.34,3.57-2.21-.05-.77-.08-1.54-.17-2.3-.06-.58-.25-1.15-.36-1.73-.17-.85-.3-1.71-.41-2.57-.19-1.55-.22-3.1-.25-4.66-.02-1.09-.06-2.19-.09-3.28-.04-1.33.25-2.57,1.39-3.39.3-.3.63-.48.87-.85.26-.39.42-.85.46-1.31.04-.43-.02-.87-.04-1.3-.15-2.83-.3-5.65-.45-8.48Z"/>
  <path class="cls-1" d="m28,33.24c-.02-.44-.04-.88-.12-1.32-.31-1.75-.52-3.47-.67-5.24-.17-2.03-.23-4.08-.19-6.12.07-3.15.14-6.3.21-9.45.04-1.75.14-6.34.15-6.88,0-.21.11-.73-.19-.73-.44,0-.65.31-.85.59-.17.25-.83,1.49-.95,1.84-.42,1.2-.71,1.87-1.07,3.08-.88,2.93-.99,6.01-.76,9.07.02.28.03,1.4.2,1.49,1.03.49,1.47,1.12,1.46,2.05,0,.43-.34,3.87-.46,5.16-.09.95-.19,1.9-.34,2.84-.15.96-.43,1.91-.52,2.88-.08.79-.26,1.66-.04,2.44.21.72.79,1.29,1.51,1.48.61.17,1.28.06,1.81-.28.56-.36.79-.95.85-1.61.04-.42-.03-.86-.04-1.29Z"/>
</svg>