<?xml version="1.0" encoding="UTF-8"?>
<svg id="_레이어_1" data-name="레이어 1" xmlns="http://www.w3.org/2000/svg" viewBox="0 0 40 40">
  <defs>
    <style>
      .cls-1 {
        fill: #1e1450;
        stroke-width: 0px;
      }
    </style>
  </defs>
  <path class="cls-1" d="m35.85,17.85l.65-.2v-5.92H3.5v5.92l.65.2c.94.29,1.57,1.16,1.57,2.15s-.63,1.86-1.57,2.15l-.65.2v5.92h33v-5.92l-.65-.2c-.94-.29-1.57-1.16-1.57-2.15s.63-1.86,1.57-2.15ZM5.33,26.38v-2.69c1.36-.69,2.23-2.1,2.23-3.69s-.87-3-2.23-3.69v-2.69h20.17v12.77H5.33Z"/>
  <path class="cls-1" d="m27.17,15.76c0,.78-.63,1.41-1.41,1.41s-1.41-.63-1.41-1.41.63-1.41,1.41-1.41,1.41.63,1.41,1.41Z"/>
  <circle class="cls-1" cx="25.75" cy="20" r="1.41"/>
  <path class="cls-1" d="m27.17,24.24c0,.78-.63,1.41-1.41,1.41s-1.41-.63-1.41-1.41.63-1.41,1.41-1.41,1.41.63,1.41,1.41Z"/>
</svg>