<?xml version="1.0" encoding="UTF-8"?>
<svg id="_레이어_1" data-name="레이어 1" xmlns="http://www.w3.org/2000/svg" viewBox="0 0 40 40">
  <defs>
    <style>
      .cls-1 {
        fill: #1e1450;
        fill-rule: evenodd;
        stroke-width: 0px;
      }
    </style>
  </defs>
  <path class="cls-1" d="m4.55,21.51v-8.48c0-1.02,1.35-3.27,2.9-3.27h6.8c1.55,0,2.9,2.25,2.9,3.27v8.48c0,.65-.53,1.19-1.19,1.19h0c-.65,0-1.19-.53-1.19-1.19v-7.56c-.08,0-.16.01-.24.01h-.34l-2.02,21.27c-.27.94-.31.96-1.33,1.26-1.02-.3-1.06-.32-1.33-1.26l-2.02-21.27h-.34c-.08,0-.16,0-.24-.01v7.56c0,.65-.53,1.19-1.19,1.19h0c-.65,0-1.19-.53-1.19-1.19h0Z"/>
  <path class="cls-1" d="m20.75,20.22l2.56-9c.23-.79,1.74-1.44,2.54-1.44h2.22s2.22,0,2.22,0c.8,0,2.32.65,2.54,1.44l2.56,9c.15.54-.12,1.27-.68,1.27h0c-.53.16-1.1-.14-1.27-.68l-2.22-7.35c-.13.04-.28.06-.42.07l3.48,12.36h-3.39l-1.59,9.5c-.1.61-.5,1.12-1.12,1.12h0s-.09,0-.14,0c-.04,0-.09,0-.14,0h0c-.61,0-1.01-.51-1.12-1.12l-1.59-9.5h-3.39l3.48-12.36c-.14,0-.29-.03-.42-.07l-2.22,7.35c-.16.53-.73.84-1.27.68h0c-.56,0-.83-.73-.68-1.27h0Z"/>
  <path class="cls-1" d="m10.84,3.5c1.46,0,2.64,1.18,2.64,2.64s-1.18,2.64-2.64,2.64-2.64-1.18-2.64-2.64,1.18-2.64,2.64-2.64h0Z"/>
  <path class="cls-1" d="m28.08,3.5c1.46,0,2.64,1.18,2.64,2.64s-1.18,2.64-2.64,2.64-2.64-1.18-2.64-2.64,1.18-2.64,2.64-2.64h0Z"/>
</svg>