<?xml version="1.0" encoding="UTF-8"?>
<svg id="_레이어_1" data-name="레이어 1" xmlns="http://www.w3.org/2000/svg" viewBox="0 0 40 40">
  <defs>
    <style>
      .cls-1 {
        fill: #1e1450;
      }

      .cls-1, .cls-2 {
        stroke-width: 0px;
      }

      .cls-2 {
        fill: #fff;
      }
    </style>
  </defs>
  <rect class="cls-1" width="40" height="40"/>
  <path class="cls-2" d="m29.99,8.39h0s-.3-.23-.41-.49c-.12-.28-1.02-1.15-1.69-1.5-.32-.23-.82-.59-.85-.62-.04-.04-.44-.32-.54-.39-.02-.05-.12-.2-.34-.21-.08-.05-.16-.12-.16-.15,0-.1-.12-.21-.25-.29.02-.03.06-.06.11-.1h.01s0-.02,0-.02c0,0,.05-.15-.13-.32-.07-.07-.14-.1-.2-.09-.06,0-.09.04-.1.06l-.27.24c-.08-.08-.2-.16-.3-.09l-.13.08s-.03.03-.04.06c0,0-.01,0-.02,0-.05,0-.13.02-.21.09-.03.02-.07.06-.09.11,0,0-.02,0-.03,0-.06-.01-.12.01-.19.06,0,0-.1.07-.13.17-.05-.01-.12-.02-.17,0-.03.02-.06.04-.07.08l-.03.12c-.14,0-.41,0-.49-.04-.02,0-.06-.02-.1-.04-.21-.08-.6-.24-.89-.24-.22,0-.61,0-.86.03,0-.03-.01-.06-.02-.09.02-.03.02-.1-.08-.29.02-.06.03-.16-.08-.25,0-.06-.02-.19-.21-.32-.02-.04-.08-.14-.16-.17-.01-.03-.04-.07-.08-.08-.02,0-.04,0-.05,0-.04-.06-.14-.19-.27-.26-.05-.05-.45-.39-.76-.4-.04-.01-.26-.07-.48,0-.09,0-.26.01-.33.08-.07,0-.14.03-.17.08-.09,0-.3.03-.35.17-.07.04-.31.16-.36.29-.01.03-.01.05,0,.08-.06.07-.22.27-.15.45,0,.05.02.27.23.35,0,0,.09.03.09.19v.51s0,.13.04.25c.03.1.09.23.11.27,0,.06-.03.26.05.37.06.09.13.38.15.49,0,0,.03.17.07.26l-.06.11c-.1.02-.51.13-.82.51-.03.03-.8.73-.72,1.56,0,.01,0,.25.16.6.08.26.19.69.19.77,0,.1.06.46.07.57l-5.62,4.77h-.08l-.33.29s-.07.1-.27.1c-.02,0-.04,0-.07,0-.28,0-.96-.02-1.14.58-.17.56.16,1.02.53,1.26.26.17.7.24.95.08.2-.13.29-.52.29-1.22,0,0-.04-.27-.04-.38s0-.17.1-.24l.23-.19.05-.09,5.51-4.7c.04.14.13.46.34.87,0,0,.2.55.31.82l.39.89s.27.86.31.98c.03.09.21,1.12.27,1.52l.23.91-.07.07.04.71.05.03-.05.07s-.16.21-.24.48c-.1.36-.19.81-.04,1.47,0,0,.04.19.15.35,0,.05-.02.18.04.3,0,.04,0,.11.08.18,0,.06-.01.12-.02.14-.02.02-.06.06.06.47,0,.09.05,1.07.2,1.53.15.46.31,1.08.31,1.08,0,.02.04.43.23.81-.02.05-.03.15.09.34.01.03.08.13.29.11.04.08.18.31.31.42h.01s.21.09.28.48c.02.13.04.24.05.34.03.24.06.42.15.53.05.14.11.3.11.33,0,.06.13.31.24.46,0,0,.15.23.19.34v.02c.13.36.43,1.24.74,1.66,0,.19.04,2.16,0,2.63-.04.5-.11,1.08-.36,1.6-.02,0-.03-.02-.06-.02-.06,0-.12.05-.17.15,0,0-.15.25-.39.43-.02,0-.04-.01-.07,0-.05,0-.09.05-.13.12-.02.03-.07.09-.11.13-.02-.01-.05-.02-.08-.02-.05,0-.09.03-.12.09-.03.06-.09.13-.11.13-.08,0-.13.06-.15.09l-.08.05s-.07-.04-.12-.03c-.05,0-.09.04-.11.09-.1.05-.79.38-1.18.42-.42.04-.53.08-.62.37-.02.02-.05.04-.06.09-.02.08.01.19.1.31h.02s.52.29.91.37c0,0,.35.05.85.05.38,0,.84-.03,1.31-.13,0,0,.7-.12,1.08-.08.38.04,1.29-.04,1.42-.08.08-.03.21-.09.23-.2.01-.08-.02-.16-.12-.25,0-.07-.02-.16-.11-.21l.03-.1c.08-.07.51-.44.66-.66.01-.02.24-.37.16-.66-.07-.23.31-.71.42-.81.08-.08.14-.14.27-.14.04,0,.18,0,.43-.29.11-.18.28-.43.31-.46.05-.05.21-.3.09-.6-.05-.12-.12-.19-.19-.21-.03,0-.06,0-.08.01-.03-.02-.08-.05-.12-.05,0,0-.02,0-.03,0-.02-.03-.06-.06-.1-.06-.01,0-.03,0-.04,0-.02-.01-.06-.04-.1-.07-.14-.1-.31-.24-.47-.21-.05-.04-.21-.15-.37-.19-.07-.11-.46-.77-.53-1.32.03-.11.3-1.1.04-1.92-.05-.25-.15-.77-.15-.89,0-.16-.08-.83-.16-1-.08-.16-.02-.49,0-.6.04-.19.16-.77.38-1.27.01-.02.24-.45.24-.87,0,0,.08-.58.19-.85,0-.01.07-.28.08-.41.07-.04.23-.18.23-.61,0,0,0-.02,0-.03,0-.07-.02-.23.04-.45.02-.02.04-.07.04-.18h0s-.03-.12.04-.25c.06-.12.06-.16.05-.26,0-.04,0-.09,0-.16,0-.23.08-1.08.08-1.09,0,0,0-.71-.04-1.11-.02-.05-.05-.21.02-.26.07-.05.07-.11.06-.13-.01-.05-.06-.09-.11-.1-.02,0-.04,0-.06.01,0-.02,0-.04.01-.09.04-.2-.07-.63-.23-.88v-.08c-.07-.14-.23-.52-.23-.64,0-.11-.05-.21-.13-.25-.02-.01-.05-.02-.08-.02.04-.11.07-.29-.03-.41.01-.06.03-.19,0-.38v-.19c0-.05-.02-.11-.05-.17-.02-.06-.05-.12-.07-.19-.04-.15-.04-.22.04-.53,0-.02.04-.51-.04-.75,0-.07.03-.5,0-.9-.05-.53-.01-1.14.15-1.27,0,0,.01,0,.02,0,.06.02.16-.02.29-.1.3-.2.4-.23.44-.23.02,0,.03,0,.05,0,.05,0,.09.01.16-.04.06.02.19.05.28,0,.12.02.7.07,1.76-.36l1.09-.55c.17-.08.73-.38.92-.68.21-.33.2-.55-.01-.72Zm-7.73-.47c-.13-.06-.25-.04-.32-.02l-.11-.17.3-.24c.08,0,.16-.04.16-.04l.22-.22c.12.06.2.02.21.02.17-.07.42-.22.49-.26.19.08.33-.04.38-.13.37-.13.45-.42.48-.56.09.02.2-.02.26-.05.02.01.03.02.05.02,0,0,.01,0,.02,0,.04,0,.08-.03.1-.04.05-.02.12-.03.15-.03.08.06.19,0,.24-.05.12-.06.2-.04.23-.03.05.03.11.05.14.03,0,0,.02,0,.02,0,.05.05.13.06.15.06l.18.07c.08.1.14.14.19.14.01,0,.02,0,.02,0,.12.11.61.57.72.64.11.07.5.46.57.64.05.13.17.32.25.45-.36-.08-.84.01-.94.03-.11-.05-.26.03-.32.07-.05-.03-.1-.04-.14-.04-.01,0-.03,0-.04,0-.09-.1-.19-.1-.25-.08-.06-.03-.14-.03-.19-.03-.25-.07-.67-.19-.71-.19-.02,0-.15-.02-.25-.04-.03-.03-.07-.09-.14-.07-.04,0-.06.04-.07.06l-.35-.07-.35-.08c-.46-.08-.56.18-.56.19,0,0-.04.18-.21.28-.05.03-.12.04-.17.03-.03-.07-.11-.1-.13-.11l-.27-.19Zm-.58-1.1h.02s.06-.03.1-.04c.09-.03.19-.05.29-.06.06,0,.29,0,.43-.05h0s0,.02,0,.02c0,.01.02.03.03.04l-.5.44-.07.11-.27.2c-.06-.09-.17-.31-.23-.45,0-.03.03-.15.21-.2Z"/>
</svg>