<?xml version="1.0" encoding="UTF-8"?>
<svg id="_레이어_1" data-name="레이어 1" xmlns="http://www.w3.org/2000/svg" viewBox="0 0 40 40">
  <defs>
    <style>
      .cls-1 {
        fill: #1e1450;
        stroke-width: 0px;
      }
    </style>
  </defs>
  <g>
    <rect class="cls-1" x="4.33" y="7.52" width=".65" height="14.09"/>
    <path class="cls-1" d="m4.99,12.79v-5.18c2.54,1.9,5.09.69,7.63,2.59-2.54-.17-5.09,2.76-7.63,2.59Z"/>
  </g>
  <path class="cls-1" d="m3.14,21.41c.43,3.15,2.93,5.74,6.28,6.58v4.49h8.66v-2.17c2.08,1.26,4.64,1.94,7.33,1.94h.27c.85,0,1.53-.69,1.53-1.53s-.69-1.53-1.53-1.53h-.27c-2.78,0-5.34-.9-7.05-2.47l-.87-.93c-.08-.09-.18-.17-.27-.23-.32-.27-.84-.38-1-.41-.02,0-.03,0-.05,0-.09-.02-.17-.03-.25-.03-.04,0-.09,0-.13,0h-1.09c.38-.12.74-.32,1.04-.57.73-.59,1.2-1.49,1.2-2.5,0-1.78-1.44-3.22-3.22-3.22s-3.22,1.44-3.22,3.22c0,1.01.47,1.91,1.2,2.5.31.25.66.44,1.05.57h-2.15c-2.33-.42-4.08-2.04-4.39-4.05l-.12-2.23c-.02-.41-.2-.79-.51-1.06-.31-.27-.7-.41-1.1-.39-.41.02-.79.2-1.06.51-.27.31-.41.7-.39,1.11l.12,2.3s0,.08.01.13Z"/>
  <path class="cls-1" d="m18.1,21c1.22,1,2.57,1.43,3.63,1.61v7.75l-1.13,2.13h10.85l-1.13-2.13v-7.75c1.05-.17,2.4-.6,3.63-1.61,1.84-1.51,2.87-3.86,3.06-6.98.05-.84-.6-1.57-1.44-1.62,0,0,0,0,0,0-.85-.04-1.57.59-1.62,1.44-.13,2.22-.78,3.83-1.93,4.78-1.49,1.24-3.47,1.02-3.49,1.02-.05,0-.11,0-.16,0-.01,0-.03,0-.04,0h-1.25c.37-.13.72-.32,1.02-.57.71-.59,1.17-1.48,1.17-2.48,0-1.78-1.44-3.22-3.22-3.22s-3.22,1.44-3.22,3.22c0,1,.46,1.89,1.17,2.48.3.25.64.44,1.02.57h-1.27s-.04,0-.06,0c-.04,0-.09,0-.13,0-.02,0-2.01.21-3.5-1.02-1.15-.95-1.8-2.56-1.93-4.78-.05-.85-.77-1.49-1.62-1.44-.84.05-1.49.78-1.44,1.62.19,3.12,1.22,5.47,3.06,6.98Z"/>
</svg>