<?xml version="1.0" encoding="UTF-8"?>
<svg id="_레이어_1" data-name="레이어 1" xmlns="http://www.w3.org/2000/svg" viewBox="0 0 40 40">
  <defs>
    <style>
      .cls-1 {
        fill: #1e1450;
        stroke-width: 0px;
      }
    </style>
  </defs>
  <path class="cls-1" d="m20,15.57l-4.3-4.3c-.51-.51-.79-1.19-.79-1.91s.28-1.4.79-1.91c.51-.51,1.19-.79,1.91-.79s1.4.28,1.91.79l.48.48.48-.48c.51-.51,1.19-.79,1.91-.79s1.4.28,1.91.79c.51.51.79,1.19.79,1.91s-.28,1.4-.79,1.91l-4.3,4.3Zm-2.39-7.44c-.33,0-.64.13-.87.36-.23.23-.36.54-.36.87s.13.64.36.87l3.26,3.26,3.26-3.26c.23-.23.36-.54.36-.87s-.13-.64-.36-.87c-.47-.47-1.28-.47-1.74,0l-1.51,1.51-1.51-1.52c-.23-.23-.54-.36-.87-.36Z"/>
  <path class="cls-1" d="m2.75,28.67h.22c2.19,0,4.27-.56,5.96-1.58v4.39l.04,1.64h7.58l-.57-1.42v-6.49c2.73-.68,4.76-2.79,5.11-5.35,0-.03,0-.07,0-.1l.1-1.87c.02-.33-.09-.65-.32-.9-.22-.25-.53-.39-.86-.41-.33-.02-.65.09-.9.31-.25.22-.4.53-.42.87l-.1,1.82c-.25,1.64-1.68,2.95-3.57,3.29h-1.75c.31-.1.6-.26.85-.46.59-.48.97-1.21.97-2.04,0-1.45-1.18-2.62-2.62-2.62s-2.62,1.18-2.62,2.62c0,.82.38,1.55.97,2.04.25.2.54.36.85.46h-.89s-.07,0-.11,0c-.07,0-.13.01-.21.02-.01,0-.03,0-.04,0-.13.02-.56.11-.82.33-.07.05-.15.11-.22.18l-.71.76c-1.39,1.28-3.47,2.01-5.73,2.01h-.22c-.69,0-1.25.56-1.25,1.25s.56,1.25,1.25,1.25Z"/>
  <path class="cls-1" d="m18.91,19.85c.35,2.56,2.38,4.67,5.11,5.35v6.49l-.57,1.42h7.58l.04-1.64v-4.39c1.69,1.02,3.78,1.58,5.96,1.58h.22c.69,0,1.25-.56,1.25-1.25s-.56-1.25-1.25-1.25h-.22c-2.26,0-4.35-.73-5.73-2.01l-.71-.76c-.07-.07-.14-.14-.22-.18-.26-.22-.69-.31-.82-.33-.01,0-.03,0-.04,0-.07-.01-.14-.02-.21-.02-.04,0-.07,0-.11,0h-.89c.31-.1.6-.26.85-.46.59-.48.97-1.21.97-2.04,0-1.45-1.18-2.62-2.62-2.62s-2.62,1.18-2.62,2.62c0,.82.38,1.55.97,2.04.25.2.54.36.85.46h-1.75c-1.89-.34-3.32-1.66-3.57-3.29l-.1-1.82c-.02-.34-.17-.64-.42-.87-.25-.22-.57-.33-.9-.31-.33.02-.64.16-.86.41-.22.25-.34.57-.32.9l.1,1.87s0,.07,0,.1Z"/>
</svg>