<?xml version="1.0" encoding="UTF-8"?>
<svg id="_레이어_1" data-name="레이어 1" xmlns="http://www.w3.org/2000/svg" viewBox="0 0 40 40">
  <defs>
    <style>
      .cls-1 {
        fill: none;
      }

      .cls-1, .cls-2 {
        stroke-width: 0px;
      }

      .cls-3 {
        stroke: #1e1450;
        stroke-miterlimit: 10;
      }

      .cls-3, .cls-2 {
        fill: #1e1450;
      }
    </style>
  </defs>
  <path class="cls-1" d="m15.5,15.5c.69,0,1.25-.56,1.25-1.25s-.56-1.25-1.25-1.25-1.25.56-1.25,1.25.56,1.25,1.25,1.25Z"/>
  <path class="cls-1" d="m24.51,15.5c.69,0,1.25-.56,1.25-1.25s-.56-1.25-1.25-1.25-1.25.56-1.25,1.25.56,1.25,1.25,1.25Z"/>
  <path class="cls-3" d="m14.51,10.72h1.07c.26-2.83,2.12-5.04,4.37-5.04s4.11,2.2,4.37,5.04h1.07c-.27-3.49-2.61-6.22-5.44-6.22s-5.17,2.73-5.45,6.22Z"/>
  <path class="cls-2" d="m7.74,35.5h24.54c1.08,0,1.81-.8,1.61-1.78l-3.1-19.77c-.2-.98-1.25-1.78-2.34-1.78H11.2c-1.09,0-2.13.8-2.31,1.79l-2.78,19.76c-.19.98.55,1.79,1.64,1.79ZM24.51,13.94c.69,0,1.25.56,1.25,1.25s-.56,1.25-1.25,1.25-1.25-.56-1.25-1.25.56-1.25,1.25-1.25Zm-9.01,0c.69,0,1.25.56,1.25,1.25s-.56,1.25-1.25,1.25-1.25-.56-1.25-1.25.56-1.25,1.25-1.25Z"/>
</svg>