<?xml version="1.0" encoding="UTF-8"?>
<svg id="_레이어_1" data-name="레이어 1" xmlns="http://www.w3.org/2000/svg" viewBox="0 0 40 40">
  <defs>
    <style>
      .cls-1 {
        fill: #46b2e7;
      }

      .cls-1, .cls-2 {
        stroke-width: 0px;
      }

      .cls-2 {
        fill: #fff;
      }
    </style>
  </defs>
  <path class="cls-1" d="m8.94,25.44c0-8.02,8.42-13.34,10.91-21.34.02-.06.15-.6.15-.6,0,0,.13.54.15.6,2.63,8,10.91,13.33,10.91,21.34,0,6.11-4.95,11.06-11.06,11.06s-11.06-4.95-11.06-11.06Z"/>
  <path class="cls-2" d="m27.33,28.65c-1.42.64-3.04.64-4.57.47-.81-.09-1.61-.24-2.4-.47-.78-.23-1.51-.56-2.24-.9-.71-.34-1.43-.66-2.2-.84-.7-.16-1.42-.22-2.14-.17-.91.06-1.81.27-2.65.64.98,4.05,4.63,7.06,8.98,7.06s8.13-3.12,9.03-7.28c-.45.65-1.1,1.17-1.82,1.5Z"/>
</svg>