<?xml version="1.0" encoding="UTF-8"?>
<svg id="_레이어_1" data-name="레이어 1" xmlns="http://www.w3.org/2000/svg" viewBox="0 0 40 40">
  <defs>
    <style>
      .cls-1 {
        fill: #1e1450;
        stroke-width: 0px;
      }
    </style>
  </defs>
  <path class="cls-1" d="m26.16,4.68c-1.7-1.6-4.41-1.37-6.24.39-1.03.99-1.55,2.16-1.55,3.5,0,1.02.39,1.95,1.2,2.75.8.67,1.67,1,2.6,1,1.33,0,2.52-.46,3.59-1.4,1.05-1.01,1.58-2.19,1.58-3.52,0-1.06-.41-2.01-1.17-2.73Z"/>
  <path class="cls-1" d="m10.23,22s3.03-3.51,6.52-6.16c4.95-3.76,10.02-2.03,7.33,6.58l-3,7.99s-1.81,3.81,6.69-2.57c0,0-5.2,7.63-11.69,8.5-8.84,1.18,1.06-15.94,1.06-15.94,0,0,2.13-3.19-1.06-2.13-1.04.35-3.44,1.31-5.84,3.72Z"/>
</svg>