<?xml version="1.0" encoding="UTF-8"?>
<svg id="_레이어_1" data-name="레이어 1" xmlns="http://www.w3.org/2000/svg" viewBox="0 0 40 40">
  <defs>
    <style>
      .cls-1 {
        fill: none;
        stroke: #1e1450;
        stroke-linecap: round;
        stroke-linejoin: round;
        stroke-width: 1.3px;
      }

      .cls-2 {
        fill: #1e1450;
        stroke-width: 0px;
      }
    </style>
  </defs>
  <g>
    <g>
      <rect class="cls-2" x="10.36" y="18.42" width=".42" height="9.12"/>
      <path class="cls-2" d="m10.79,21.83v-3.35c1.65,1.23,3.29.45,4.94,1.67-1.65-.11-3.29,1.79-4.94,1.67Z"/>
    </g>
    <path class="cls-2" d="m9.59,27.42c.28,2.04,1.9,3.72,4.06,4.26v2.91h5.6v-1.41c1.35.81,3,1.26,4.74,1.26h.18c.55,0,.99-.45.99-.99s-.45-.99-.99-.99h-.18c-1.8,0-3.46-.58-4.56-1.6l-.57-.6c-.05-.06-.11-.11-.17-.15-.21-.18-.55-.25-.65-.26,0,0-.02,0-.03,0-.06-.01-.11-.02-.16-.02-.03,0-.06,0-.08,0h-.71c.25-.08.48-.21.68-.37.47-.38.77-.97.77-1.62,0-1.15-.93-2.08-2.08-2.08s-2.08.93-2.08,2.08c0,.65.3,1.24.77,1.62.2.16.43.29.68.37h-1.39c-1.5-.27-2.64-1.32-2.84-2.62l-.08-1.44c-.01-.27-.13-.51-.33-.69-.2-.18-.45-.27-.71-.25-.26.01-.51.13-.69.33-.18.2-.27.45-.25.72l.08,1.49s0,.06,0,.08Z"/>
    <path class="cls-2" d="m19.27,27.15c.79.65,1.67.93,2.35,1.04v5.01l-.73,1.38h7.02l-.73-1.38v-5.01c.68-.11,1.56-.39,2.35-1.04,1.19-.98,1.86-2.5,1.98-4.52.03-.55-.39-1.02-.93-1.05,0,0,0,0,0,0-.55-.03-1.01.38-1.05.93-.09,1.44-.51,2.48-1.25,3.09-.97.8-2.25.66-2.26.66-.04,0-.07,0-.11,0,0,0-.02,0-.03,0h-.81c.24-.08.46-.21.66-.37.46-.38.76-.96.76-1.6,0-1.15-.93-2.08-2.08-2.08s-2.08.93-2.08,2.08c0,.64.29,1.22.76,1.6.19.16.42.28.66.37h-.82s-.02,0-.04,0c-.03,0-.06,0-.08,0-.01,0-1.3.14-2.26-.66-.74-.62-1.16-1.66-1.25-3.09-.03-.55-.5-.96-1.05-.93-.55.03-.96.5-.93,1.05.12,2.02.79,3.54,1.98,4.52Z"/>
  </g>
  <path class="cls-1" d="m5.91,12.94c.09,0,.17,0,.25-.02l1.74,21.59h24.1l1.82-21.6c.08.02.17.02.26.02.78,0,1.41-.63,1.41-1.41s-.63-1.41-1.41-1.41-1.41.63-1.41,1.41c0,.3.09.58.26.81l-8.52,3.04-4.04-7.14c.57-.18.99-.71.99-1.35,0-.78-.63-1.41-1.41-1.41s-1.41.63-1.41,1.41c0,.64.43,1.18,1.01,1.35l-4.2,7.13-8.27-3.04c.16-.23.25-.51.25-.81,0-.78-.63-1.41-1.41-1.41s-1.41.63-1.41,1.41.63,1.41,1.41,1.41Z"/>
</svg>