<?xml version="1.0" encoding="UTF-8"?>
<svg id="_레이어_1" data-name="레이어 1" xmlns="http://www.w3.org/2000/svg" viewBox="0 0 40 40">
  <defs>
    <style>
      .cls-1 {
        fill: #1e1450;
        fill-rule: evenodd;
        stroke-width: 0px;
      }
    </style>
  </defs>
  <path class="cls-1" d="m22.98,10.61c0-.07-.01-.15-.01-.22,0-1.19.88-2.18,2.03-2.35.17-3.25,3.52-6.03,5.52-3.64.51.61-.04,1.02-.57.39-1.56-1.85-4.1.8-4.25,3.25,1.14.17,2.02,1.16,2.02,2.35,0,.07,0,.15-.01.22h-4.73Zm-7.81,6.49c1.41,1.65,2.83,3.43,3.65,4.86h2.36c.81-1.43,2.23-3.21,3.65-4.86h-9.66Zm16.73-5.85H8.09c2.71,3.16,11.19,11.68,11.19,15.19v8.43l-9.02,1.64c6.49,0,12.97,0,19.46,0l-8.98-1.64-.04-8.4c0-3.53,8.47-12.04,11.19-15.21h0Z"/>
</svg>