<?xml version="1.0" encoding="UTF-8"?>
<svg id="_레이어_1" data-name="레이어 1" xmlns="http://www.w3.org/2000/svg" viewBox="0 0 40 40">
  <defs>
    <style>
      .cls-1 {
        fill: #1e1450;
        stroke-width: 0px;
      }
    </style>
  </defs>
  <path class="cls-1" d="m29.67,18.91h-3.3v-1.79c.08,0,.16,0,.23,0,1.04,0,1.92-.27,2.62-.8.62-.47,1.07-1.13,1.29-1.91.23-.79.21-1.67-.05-2.45-.24-.73-.69-1.35-1.26-1.75-.06-.66-.2-1.4-.65-2.09-.6-.9-1.62-1.49-3.03-1.77-.6-.79-1.24-1.39-1.93-1.78-.65-.38-1.35-.57-2.06-.57-1.42,0-2.55.76-3.07,1.19-.3-.13-.75-.26-1.28-.26-.58,0-1.4.17-2.2.92-.64-.24-1.25-.36-1.81-.36-1.32,0-2.4.66-3.12,1.91-.35.61-.53,1.22-.61,1.56-.57.36-2.04,1.42-2.36,2.89-.16.71-.03,1.41.36,2.08-.41.5-.61,1.26-.51,2.1.08.67.35,1.44.9,1.89-.33,1.06-.22,2.05.33,2.82.61.86,1.68,1.37,2.87,1.37.26,0,.53-.03.78-.08v12.11h-.45c-.54,0-.54,1.88,0,1.88h15.45c.54,0,.54-1.88,0-1.88h-.45v-3.15h3.3c1.89,0,3.42-1.46,3.42-3.27v-5.53c0-1.81-1.53-3.27-3.42-3.27Zm-6.1,14.87h-8.81c-.31,0-.56-.24-.56-.54s.25-.54.56-.54h8.81c.31,0,.56.24.56.54s-.25.54-.56.54Zm-8.31-2.85v-11.96c0-.3.25-.54.56-.54s.56.24.56.54v11.96c0,.3-.25.54-.56.54s-.56-.24-.56-.54Zm3.27,0v-11.96c0-.3.25-.54.56-.54s.56.24.56.54v11.96c0,.3-.25.54-.56.54s-.56-.24-.56-.54Zm3.27,0v-11.96c0-.3.25-.54.56-.54s.56.24.56.54v11.96c0,.3-.25.54-.56.54s-.56-.24-.56-.54Zm2.34-15.38l-.31-.12-.26.21c-.31.26-.76.37-1.41.37-.36,0-.72-.04-1.07-.07-.31-.03-.59-.06-.85-.06h-.25s-.17.18-.17.18c-.59.63-1.27.94-2.08.94-1.23,0-2.31-.72-2.32-.73l-.64-.44-.22.73c-.16.53-.5,1.21-.71,1.35l-.24.16v.28c-.05,1.96-1.36,2.48-1.92,2.61-.21.05-.43.08-.65.08-.81,0-1.55-.34-1.94-.89-.41-.58-.43-1.36-.06-2.24l.21-.51-.54-.19c-.26-.09-.58-.58-.66-1.28-.08-.66.09-1.24.42-1.45l.49-.31-.35-.46c-.42-.54-.56-1.07-.44-1.62.29-1.33,2.03-2.31,2.05-2.32l.23-.13.04-.26s.13-.75.55-1.47c.51-.88,1.23-1.33,2.12-1.33.51,0,1.09.14,1.72.42l.39.17.28-.31c.49-.56,1.04-.84,1.63-.84s1.02.27,1.05.29l.4.28.33-.35s1.13-1.14,2.57-1.14c1.13,0,2.21.7,3.19,2.07l.13.19.23.04c2.8.46,2.93,2.09,3.01,3.18l.02.28.25.14c.95.54,1.41,1.93,1.05,3.16-.17.58-.78,1.92-2.83,1.92-.07,0-.14,0-.21,0-.67-.03-1.43-.2-2.25-.5Zm7.17,12.17c0,.87-.74,1.57-1.65,1.57h-3.3v-8.68h3.3c.91,0,1.65.71,1.65,1.57v5.53Z"/>
</svg>