<?xml version="1.0" encoding="UTF-8"?>
<svg id="_레이어_1" data-name="레이어 1" xmlns="http://www.w3.org/2000/svg" viewBox="0 0 40 40">
  <defs>
    <style>
      .cls-1 {
        fill: #1e1450;
        stroke-width: 0px;
      }
    </style>
  </defs>
  <polygon class="cls-1" points="10.13 26.51 8.89 30.55 30.66 30.55 29.74 26.51 10.13 26.51"/>
  <path class="cls-1" d="m34.59,15.78c-1.82.56-3.52.86-5.06.87h-.68s.11.67.11.67c.03.2.05.41.05.62,0,1.88-1.4,3.41-3.12,3.41s-3.12-1.53-3.12-3.41c0-.87.3-1.71.85-2.34l.4-.46-.48-.37c-1.15-.9-2.12-2.14-2.81-3.58-.07-.16-.14-.31-.21-.46l-.53-1.27-.53,1.27c-.06.15-.13.31-.21.46-.68,1.44-1.65,2.68-2.81,3.58l-.48.37.4.46c.55.63.85,1.47.85,2.34,0,1.88-1.4,3.41-3.12,3.41s-3.12-1.53-3.12-3.41c0-.21.02-.42.05-.62l.11-.67h-.68c-1.54-.01-3.24-.3-5.06-.87l-1.91-.59,1.3,1.52c.62.72,1.2,1.44,1.74,2.13,2.05,2.65,3.27,4.78,3.62,6.33l.1.45h19.48l.1-.45c.35-1.54,1.57-3.67,3.62-6.33.54-.7,1.12-1.41,1.74-2.13l1.3-1.52-1.91.59Z"/>
  <polygon class="cls-1" points="10.13 26.51 8.89 30.55 30.66 30.55 29.74 26.51 10.13 26.51"/>
  <path class="cls-1" d="m34.59,15.78c-1.82.56-3.52.86-5.06.87h-.68s.11.67.11.67c.03.2.05.41.05.62,0,1.88-1.4,3.41-3.12,3.41s-3.12-1.53-3.12-3.41c0-.87.3-1.71.85-2.34l.4-.46-.48-.37c-1.15-.9-2.12-2.14-2.81-3.58-.07-.16-.14-.31-.21-.46l-.53-1.27-.53,1.27c-.06.15-.13.31-.21.46-.68,1.44-1.65,2.68-2.81,3.58l-.48.37.4.46c.55.63.85,1.47.85,2.34,0,1.88-1.4,3.41-3.12,3.41s-3.12-1.53-3.12-3.41c0-.21.02-.42.05-.62l.11-.67h-.68c-1.54-.01-3.24-.3-5.06-.87l-1.91-.59,1.3,1.52c.62.72,1.2,1.44,1.74,2.13,2.05,2.65,3.27,4.78,3.62,6.33l.1.45h19.48l.1-.45c.35-1.54,1.57-3.67,3.62-6.33.54-.7,1.12-1.41,1.74-2.13l1.3-1.52-1.91.59Z"/>
</svg>