<?xml version="1.0" encoding="UTF-8"?>
<svg id="_레이어_1" data-name="레이어 1" xmlns="http://www.w3.org/2000/svg" viewBox="0 0 40 40">
  <defs>
    <style>
      .cls-1 {
        fill: none;
        stroke: #1e1450;
        stroke-miterlimit: 10;
      }

      .cls-2 {
        fill: #1e1450;
        stroke-width: 0px;
      }
    </style>
  </defs>
  <g>
    <path class="cls-2" d="m34.78,18.68c.14-.16.22-.37.22-.59v-.82c0-.49-.4-.89-.89-.89h-6.06c.15-.66.33-2.02-.38-3.21-.61-1.03-1.72-1.68-3.29-1.93-2.23-.36-3.21-1.27-3.64-1.97-.16-.26-.44-.41-.74-.41h0c-.3,0-.58.16-.74.42-.43.71-1.41,1.63-3.64,1.96-1.57.24-2.67.87-3.29,1.89-.72,1.2-.54,2.58-.38,3.25h-6.06c-.49,0-.89.4-.89.89v.82c0,.22.08.43.22.59l1.34,1.52v9.83c-.43.31-1.33,1.12-1.55,2.48-.05.3.04.6.23.83.19.23.48.36.78.36h6.86c.3,0,.58-.13.77-.36.2-.23.28-.53.23-.83-.19-1.16-.86-1.91-1.32-2.31v-10.26l1.11-1.26c.14-.16.22-.37.22-.59v-.82c0-.49-.4-.89-.89-.89h-.13c-.11-.37-.42-1.71.22-2.79.47-.78,1.36-1.27,2.65-1.46,2.53-.38,3.71-1.47,4.25-2.34.55.85,1.72,1.93,4.24,2.34,1.29.21,2.19.71,2.65,1.5.63,1.06.33,2.38.22,2.76h-.13c-.49,0-.89.4-.89.89v.82c0,.22.08.43.22.59l1.12,1.26v10.26c-.46.39-1.14,1.15-1.32,2.31-.05.3.04.6.23.83.19.23.48.36.77.36h6.86c.3,0,.58-.13.77-.36.2-.23.28-.53.23-.84-.22-1.37-1.12-2.17-1.55-2.48v-9.83l1.34-1.52Zm-21.79,13.98c0,.05-.01.09-.03.1-.02.02-.04.04-.08.04h-6.86s-.07-.02-.09-.04c-.01-.02-.04-.05-.03-.1.18-1.13.97-1.75,1.24-1.93h4.6c.27.18,1.06.8,1.24,1.93Zm-5.52-2.84v-9.34h4.19v9.34h-4.19Zm5.52-12.53v.79s-1.31,1.49-1.31,1.49h-4.46l-1.31-1.48v-.81h7.09Zm21.1,15.37c0,.05-.01.09-.03.1-.02.02-.04.04-.08.04h-6.86s-.07-.02-.08-.04c-.01-.02-.04-.05-.03-.1.18-1.13.97-1.75,1.24-1.93h4.6c.27.18,1.06.8,1.24,1.93Zm-5.75-2.84v-9.34h4.19v9.34h-4.19Zm4.43-10.24h-4.46l-1.31-1.48v-.81h7.09v.79s-1.31,1.49-1.31,1.49Z"/>
    <path class="cls-2" d="m7.53,10.17c0-.55.39-1.01.92-1.11l10.52-1.78c.68-.12,1.37-.12,2.05,0l10.51,1.78c.54.1.93.56.93,1.11v6.2h.91v-6.2c0-.99-.7-1.83-1.68-2l-10.52-1.78c-.78-.13-1.57-.13-2.35,0l-10.52,1.78c-.97.17-1.67,1.02-1.67,2v6.2h.91v-6.2Z"/>
  </g>
  <line class="cls-1" x1="12.56" y1="19.95" x2="27.44" y2="19.95"/>
  <line class="cls-1" x1="12.56" y1="29.35" x2="27.44" y2="29.35"/>
  <line class="cls-1" x1="20.01" y1="20.18" x2="20.01" y2="29.22"/>
  <line class="cls-1" x1="15.83" y1="20.18" x2="15.83" y2="29.22"/>
  <line class="cls-1" x1="24.19" y1="20.18" x2="24.19" y2="29.22"/>
  <path class="cls-1" d="m15.68,20.45c0-2.31,1.87-4.18,4.18-4.18s4.18,1.87,4.18,4.18"/>
</svg>