<?xml version="1.0" encoding="UTF-8"?>
<svg id="_레이어_1" data-name="레이어 1" xmlns="http://www.w3.org/2000/svg" viewBox="0 0 40 40">
  <defs>
    <style>
      .cls-1 {
        stroke-width: .5px;
      }

      .cls-1, .cls-2, .cls-3 {
        fill: #1e1450;
        stroke: #1e1450;
        stroke-miterlimit: 10;
      }

      .cls-2 {
        stroke-width: 1.3px;
      }

      .cls-3 {
        stroke-width: .8px;
      }
    </style>
  </defs>
  <path class="cls-1" d="m11.69,26.51h20.23c1.15,0,2.08-.93,2.08-2.08v-15.41c0-1.15-.93-2.08-2.08-2.08H8.08c-1.15,0-2.08.93-2.08,2.08v15.41c0,1.15.93,2.08,2.08,2.08h2.44m22.31-2.08c0,.5-.41.91-.91.91H8.08c-.5,0-.91-.41-.91-.91v-15.41c0-.5.41-.91.91-.91h23.84c.5,0,.91.41.91.91v15.41Zm-3.58-4.03c.39.64-.61,1.23-1.01.59-1.42-2.31-2.74-4.81-4.33-7.03-.66.94-1.31,1.88-1.97,2.82.28.41.55.82.83,1.23.42.63-.59,1.21-1.01.59-.33-.5-.67-1-1-1.49-.03-.04-.06-.08-.08-.12-1.19-1.77-2.38-3.54-3.57-5.31-2.1,3.1-4.19,6.21-6.29,9.31-.42.62-1.43.04-1.01-.59,2.26-3.35,4.53-6.71,6.79-10.06.25-.37.75-.38,1.01,0,1.21,1.8,2.42,3.6,3.63,5.4.72-1.03,1.43-2.05,2.15-3.08.27-.39.73-.36,1.01,0,1.83,2.39,3.27,5.17,4.84,7.73Z"/>
  <g>
    <line class="cls-2" x1="10.86" y1="34.06" x2="10.86" y2="26.16"/>
    <line class="cls-2" x1="15.25" y1="34.06" x2="15.25" y2="26.16"/>
    <line class="cls-3" x1="11.12" y1="27.32" x2="15.25" y2="32.18"/>
    <line class="cls-3" x1="15.31" y1="26.91" x2="10.87" y2="30.53"/>
    <line class="cls-3" x1="15.31" y1="29.08" x2="10.87" y2="32.7"/>
  </g>
  <g>
    <line class="cls-2" x1="24.69" y1="34.06" x2="24.69" y2="26.16"/>
    <line class="cls-2" x1="29.08" y1="34.06" x2="29.08" y2="26.16"/>
    <line class="cls-3" x1="24.96" y1="27.32" x2="29.08" y2="32.18"/>
    <line class="cls-3" x1="29.14" y1="26.91" x2="24.7" y2="30.53"/>
    <line class="cls-3" x1="29.14" y1="29.08" x2="24.7" y2="32.7"/>
  </g>
</svg>