<?xml version="1.0" encoding="UTF-8"?>
<svg id="_레이어_1" data-name="레이어 1" xmlns="http://www.w3.org/2000/svg" viewBox="0 0 40 40">
  <defs>
    <style>
      .cls-1 {
        fill: none;
        stroke: #999;
        stroke-miterlimit: 10;
        stroke-width: 2px;
      }

      .cls-2 {
        fill: #999;
        stroke-width: 0px;
      }
    </style>
  </defs>
  <path class="cls-1" d="m34.27,17.77l-12.15-11.09c-1.16-1.06-3.07-1.06-4.23,0l-12.15,11.09c-1.16,1.06-.91,1.93.56,1.93h2.35v14.41h22.71v-14.41h2.35c1.47,0,1.73-.87.56-1.93Z"/>
  <path class="cls-2" d="m26,23.15l-8.14,5.07c-.3.18-.63.28-.96.28s-.63-.08-.92-.25c-.59-.34-.95-.98-.95-1.68v-10.14c0-.7.36-1.34.95-1.68.59-.34,1.3-.33,1.88.03l8.14,5.07c.56.35.9.98.9,1.65s-.34,1.3-.9,1.65Z"/>
</svg>