<?xml version="1.0" encoding="UTF-8"?>
<svg id="_레이어_1" data-name="레이어 1" xmlns="http://www.w3.org/2000/svg" viewBox="0 0 40 40">
  <defs>
    <style>
      .cls-1 {
        stroke: #1e1450;
        stroke-miterlimit: 10;
        stroke-width: .25px;
      }

      .cls-1, .cls-2 {
        fill: #1e1450;
      }

      .cls-2 {
        stroke-width: 0px;
      }
    </style>
  </defs>
  <g>
    <path class="cls-1" d="m30.6,28.68c-.2,0-.35-.16-.35-.35v-1.06c0-.2.16-.35.35-.35s.35.16.35.35v1.06c0,.2-.16.35-.35.35Z"/>
    <path class="cls-1" d="m30.6,25.13c-.2,0-.35-.16-.35-.35v-2.48c0-.2.16-.35.35-.35s.35.16.35.35v2.48c0,.2-.16.35-.35.35Zm0-4.97c-.2,0-.35-.16-.35-.35v-2.48c0-.2.16-.35.35-.35s.35.16.35.35v2.48c0,.2-.16.35-.35.35Z"/>
    <path class="cls-1" d="m30.6,15.2c-.2,0-.35-.16-.35-.35v-1.06c0-.2.16-.35.35-.35s.35.16.35.35v1.06c0,.2-.16.35-.35.35Z"/>
    <path class="cls-1" d="m30.6,31.16H9.4c-.2,0-.35-.16-.35-.35V11.03c0-.2.16-.35.35-.35h21.2c.2,0,.35.16.35.35v2.75c0,.2-.16.35-.35.35s-.35-.16-.35-.35v-2.4H9.75v19.07h20.49v-2.13c0-.2.16-.35.35-.35s.35.16.35.35v2.48c0,.2-.16.35-.35.35Z"/>
    <path class="cls-1" d="m25.69,25.87h-11.37c-.2,0-.35-.16-.35-.35v-4.93c0-3.33,2.71-6.04,6.04-6.04s6.04,2.71,6.04,6.04v4.93c0,.2-.16.35-.35.35Zm-11.02-.71h10.66v-4.57c0-2.94-2.39-5.33-5.33-5.33s-5.33,2.39-5.33,5.33v4.57Z"/>
    <path class="cls-1" d="m33.97,34.09H6.03c-.2,0-.35-.16-.35-.35,0-1.81,1.47-3.28,3.28-3.28h22.09c1.81,0,3.28,1.47,3.28,3.28,0,.2-.16.35-.35.35Zm-27.56-.71h27.19c-.17-1.25-1.25-2.22-2.55-2.22H8.96c-1.3,0-2.37.97-2.55,2.22Z"/>
    <path class="cls-1" d="m28.19,25.87H11.81c-.2,0-.35-.16-.35-.35s.16-.35.35-.35h16.39c.2,0,.35.16.35.35s-.16.35-.35.35Z"/>
    <path class="cls-1" d="m33.97,11.38H6.03c-.17,0-.32-.13-.35-.3-.03-.17.07-.34.24-.39l13.97-4.76c.07-.03.15-.03.23,0l13.97,4.76c.16.06.26.22.24.39-.03.17-.18.3-.35.3Zm-25.8-.71h23.66l-11.83-4.03-11.83,4.03Z"/>
    <path class="cls-1" d="m25.69,11.38h-11.37c-.15,0-.28-.09-.33-.23-.05-.14,0-.3.11-.39l5.69-4.76c.13-.11.32-.11.46,0l5.69,4.76c.11.1.16.25.11.39-.05.14-.18.23-.33.23Zm-10.4-.71h9.42l-4.71-3.94-4.71,3.94Z"/>
    <path class="cls-1" d="m36.15,34.09H3.85c-.2,0-.35-.16-.35-.35s.16-.35.35-.35h32.29c.2,0,.35.16.35.35s-.16.35-.35.35Z"/>
  </g>
  <path class="cls-2" d="m19.84,21.32l-.47,1.44.63,1.17.63-1.17-.46-1.44c1.3-.08,2.34-1.18,2.34-2.52,0-1.4-1.12-2.54-2.51-2.54s-2.51,1.13-2.51,2.54,1.03,2.44,2.34,2.52Z"/>
  <path class="cls-2" d="m24.43,23.25c0-1.15-.86-2.1-1.93-2.1h-.51l-1.98,3.69-1.99-3.69h-.51c-1.06,0-1.93.94-1.93,2.1v2.09h8.86v-2.09Z"/>
</svg>