<?xml version="1.0" encoding="UTF-8"?><svg id="_레이어_2" xmlns="http://www.w3.org/2000/svg" xmlns:xlink="http://www.w3.org/1999/xlink" viewBox="0 0 252.28 164.41"><defs><style>.cls-1{fill:url(#linear-gradient-2);}.cls-2{clip-path:url(#clippath-16);}.cls-3{clip-path:url(#clippath-2);}.cls-4{clip-path:url(#clippath-13);}.cls-5{clip-path:url(#clippath-4);}.cls-6{clip-path:url(#clippath-12);}.cls-7{clip-path:url(#clippath-9);}.cls-8{clip-path:url(#clippath);}.cls-9{fill:none;}.cls-10{clip-path:url(#clippath-3);}.cls-11{clip-path:url(#clippath-8);}.cls-12{clip-path:url(#clippath-14);}.cls-13{fill:url(#linear-gradient-3);}.cls-14{fill:url(#linear-gradient);}.cls-15{clip-path:url(#clippath-10);}.cls-16{fill:url(#linear-gradient-4);}.cls-17{fill:#00302b;}</style><clipPath id="clippath"><path class="cls-9" d="m183,133.81c-30.9,14.69-63.59,23.38-95.56,28.64-4.3.71-8.6,1.36-12.89,1.96h177.73v-76.54c-18.51,18.59-44.25,34.05-69.28,45.94"/></clipPath><linearGradient id="linear-gradient" x1="-654.77" y1="486.52" x2="-653.77" y2="486.52" gradientTransform="translate(-53021.72 -39436.65) rotate(-180) scale(81.32 -81.32)" gradientUnits="userSpaceOnUse"><stop offset="0" stop-color="#b4926a"/><stop offset="1" stop-color="#eddfcb"/></linearGradient><clipPath id="clippath-2"><rect class="cls-9" width="252.28" height="164.41"/></clipPath><clipPath id="clippath-3"><path class="cls-9" d="m262.32-282.8c-8.34,3.02-15.65,6.59-22.47,9.54-7.77,3.36-15.58,6.69-23.47,9.92-13.75,5.65-29.53,11.83-47.86,17.76-30.73,9.94-63.68,17.22-97.8,18.43-30.84,1.1-62.52-2.52-88.95-12.87-3.74-1.46-7.34-3.06-10.79-4.78-4.89-4.89-9.79-9.79-14.68-14.68-.76-.76-2.6-.38-2.61.54-.44,26.22,1.25,52.41,5.11,78.44,1.92,12.94,4.37,22.95,7.35,35.79,1.13,4.87,1.97,10.22,6.32,14.35,4.49,4.27,11.81,5.4,19.41,5.52,9.81.16,19.68-.05,29.51-.18,9.98-.13,19.96-.33,29.93-.59,20.07-.53,40.12-1.32,60.16-2.38,39.4-2.07,78.86-5,117.93-9.28,15.06-1.65,30.84-3.89,43.56-9.91,13.23-6.26,19.81-13.06,22.97-23.2,1.68-5.38,2.54-10.84,3.39-16.28,1.03-6.58,1.9-13.18,2.6-19.77,1.4-13.05,2.17-26.11,2.3-39.17.07-6.53-.02-13.06-.27-19.58-.18-4.73-.56-9.68-3.56-14.02-2.98-4.31-8.85-7.3-16.16-7.7-.66-.04-1.32-.05-1.98-.05-6.98,0-13.86,1.95-19.93,4.14"/></clipPath><clipPath id="clippath-4"><rect class="cls-9" x="-60.88" y="-325.74" width="379.27" height="239.87" transform="translate(51.69 24.4) rotate(-13.52)"/></clipPath><linearGradient id="linear-gradient-2" x1="-652.45" y1="484.55" x2="-651.45" y2="484.55" gradientTransform="translate(-117359.07 -87511.98) rotate(180) scale(180.18 -180.18)" xlink:href="#linear-gradient"/><clipPath id="clippath-8"><rect class="cls-9" width="252.28" height="164.41"/></clipPath><clipPath id="clippath-9"><path class="cls-9" d="m354.11-292.8c-7.32.4-13.18,3.39-16.17,7.7-3.01,4.34-3.39,9.29-3.56,14.02-.25,6.52-.34,13.05-.27,19.58.14,13.06.91,26.12,2.3,39.17.71,6.6,1.58,13.19,2.6,19.77.85,5.44,1.71,10.9,3.39,16.28,3.17,10.14,9.74,16.95,22.97,23.2,12.72,6.01,28.5,8.26,43.56,9.91,39.08,4.28,78.53,7.21,117.93,9.28,20.04,1.06,40.1,1.85,60.16,2.38,9.97.26,19.95.46,29.93.59,9.82.13,19.69.34,29.51.18,7.6-.12,14.92-1.25,19.41-5.52,4.35-4.13,5.19-9.48,6.32-14.35,2.98-12.84,5.43-22.85,7.35-35.79,3.86-26.03,5.55-52.22,5.11-78.44-.02-.92-1.85-1.3-2.61-.54-4.89,4.89-9.79,9.78-14.68,14.68-3.46,1.72-7.06,3.31-10.79,4.78-26.44,10.35-58.12,13.97-88.95,12.87-34.12-1.22-67.07-8.49-97.8-18.44-18.33-5.93-34.1-12.12-47.86-17.76-7.89-3.24-15.7-6.56-23.47-9.93-6.81-2.95-14.13-6.52-22.47-9.54-6.07-2.19-12.95-4.14-19.93-4.14-.66,0-1.32.02-1.98.05"/></clipPath><clipPath id="clippath-10"><rect class="cls-9" x="389.63" y="-401.35" width="239.87" height="379.27" transform="translate(596.25 333.24) rotate(-76.48)"/></clipPath><linearGradient id="linear-gradient-3" x1="-647.28" y1="483.31" x2="-646.28" y2="483.31" gradientTransform="translate(87592.59 116345.08) rotate(90) scale(180.18)" xlink:href="#linear-gradient"/><clipPath id="clippath-12"><rect class="cls-9" width="252.28" height="164.41"/></clipPath><clipPath id="clippath-13"><path class="cls-9" d="m661.14,90.51c-3.75,5.88-7.51,11.76-11.27,17.64-3.02,2.43-4,5.58-7.35,7.82-23.7,15.83-56.18,25.28-86.63,30.68-33.69,5.98-67.51,5.7-99.73,2.31-17.23-1.81-34.07-4.48-50.66-7.54-8.42-1.55-16.78-3.2-25.1-4.9-5.34-1.09-13.31-3.22-24.04-4.72-7.02-.98-14.93-1.47-22.33.56-7.08,1.94-12.19,6.14-14.2,11.03-2.02,4.93-1.35,9.91-.52,14.64,1.14,6.52,2.44,13.01,3.89,19.47,2.91,12.92,6.43,25.71,10.57,38.35,2.09,6.39,4.34,12.75,6.75,19.06,1.99,5.22,4,10.45,6.78,15.43,5.26,9.39,13.76,17.61,28.05,21.03,13.74,3.29,29.68,2.19,44.78.65,39.19-3.98,78.47-9.38,117.51-15.62,19.85-3.17,39.67-6.61,59.44-10.31,9.83-1.84,19.65-3.74,29.45-5.71,9.65-1.94,19.37-3.81,28.95-6.03,7.42-1.72,14.35-4.38,17.85-9.56,3.38-5.01,3.07-10.5,3.14-15.56.19-13.35-.15-26.66-1.01-39.89-1.75-26.62-5.65-52.95-11.65-78.85-.1-.45-.62-.68-1.19-.68s-1.19.23-1.49.69"/></clipPath><clipPath id="clippath-14"><rect class="cls-9" x="351.23" y="-17.57" width="292.07" height="399.63" transform="translate(162.41 592.56) rotate(-70.91)"/></clipPath><linearGradient id="linear-gradient-4" x1="-647.69" y1="483.64" x2="-646.69" y2="483.64" gradientTransform="translate(-101444.79 136547.6) rotate(90) scale(210.78 -210.78)" xlink:href="#linear-gradient"/><clipPath id="clippath-16"><rect class="cls-9" width="252.28" height="164.41"/></clipPath></defs><g id="Layer_1"><g class="cls-8"><rect class="cls-14" x="66.73" y="53.43" width="193.38" height="145.41" transform="translate(-38.32 82.35) rotate(-25.42)"/></g><g class="cls-3"><g class="cls-10"><g class="cls-5"><rect class="cls-1" x="-115.41" y="-411.97" width="488.35" height="412.33" transform="translate(51.69 24.4) rotate(-13.52)"/></g></g></g><rect class="cls-9" width="252.28" height="164.41"/><g class="cls-11"><g class="cls-7"><g class="cls-15"><rect class="cls-13" x="303.4" y="-455.89" width="412.33" height="488.35" transform="translate(596.25 333.24) rotate(-76.48)"/></g></g></g><g class="cls-6"><g class="cls-4"><g class="cls-12"><rect class="cls-16" x="227.72" y="-107.84" width="539.1" height="580.17" transform="translate(162.41 592.56) rotate(-70.91)"/></g></g></g><g class="cls-2"><path class="cls-17" d="m-31.2,235.46c6.49,11.54,13.54,22.78,21.14,33.7,3.84,5.52,7.82,10.96,11.94,16.32,3.4,4.43,6.83,8.86,10.93,12.83,7.73,7.49,18.23,12.92,32.9,12.09,14.1-.8,29.06-6.42,43.09-12.23,36.4-15.07,72.47-31.51,108.08-48.7,18.11-8.74,36.11-17.72,53.98-26.94,8.89-4.58,17.74-9.22,26.57-13.92,8.69-4.63,17.46-9.21,26-14.08,6.62-3.78,12.49-8.31,14.35-14.28,1.8-5.77-.08-10.93-1.46-15.81-3.65-12.85-7.79-25.49-12.42-37.92-9.32-25-20.61-49.1-33.8-72.19-.46-.81-2.26-.27-2.56.78-1.91,6.71-3.82,13.42-5.73,20.14-2.2,3.2-2.22,6.49-4.79,9.6-18.16,21.97-46.56,40.34-74.17,54.26-30.55,15.4-63.03,24.84-94.87,30.84-17.03,3.21-33.92,5.49-50.69,7.32-8.51.93-16.99,1.75-25.45,2.52-8.09.73-16.17,1.12-24.38,2.38-7,1.08-14.72,2.88-21.23,6.94-6.23,3.89-9.92,9.38-10.44,14.65-.52,5.31,1.56,9.88,3.71,14.17,2.96,5.92,6.07,11.76,9.32,17.53"/></g></g></svg>