<?xml version="1.0" encoding="UTF-8"?><svg id="_레이어_2" xmlns="http://www.w3.org/2000/svg" xmlns:xlink="http://www.w3.org/1999/xlink" viewBox="0 0 252.28 164.41"><defs><style>.cls-1{fill:#eddfcb;}.cls-2{clip-path:url(#clippath-1);}.cls-3{clip-path:url(#clippath);}.cls-4{fill:none;}.cls-5{fill:url(#linear-gradient);}</style><clipPath id="clippath"><path class="cls-4" d="m0,0v41.07c2.28.95,4.59,1.86,6.93,2.72,21.99,8.12,46.19,12.21,70.68,11.56,27-.72,53.92-6.61,78.98-16.36,24.84-9.67,47.89-23.07,68.1-38.99H0Z"/></clipPath><linearGradient id="linear-gradient" x1="-634.58" y1="525.83" x2="-633.58" y2="525.83" gradientTransform="translate(-83013.31 100178.75) rotate(90) scale(158.08 -158.08)" gradientUnits="userSpaceOnUse"><stop offset="0" stop-color="#b4926a"/><stop offset="1" stop-color="#eddfcb"/></linearGradient><clipPath id="clippath-1"><rect class="cls-4" width="252.28" height="164.41"/></clipPath></defs><g id="Layer_1"><g class="cls-3"><rect class="cls-5" x="56.89" y="-87.77" width="110.91" height="231.55" transform="translate(56.89 129.64) rotate(-75.38)"/></g><g class="cls-2"><path class="cls-1" d="m283.77-61.18c-3.46,11.75-12.08,22.1-20.87,31.59-8.72,9.44-18.29,18.32-28.59,26.52-20.51,16.36-44,30.12-69.36,39.99-25.06,9.75-51.98,15.64-78.98,16.36-24.5.66-48.7-3.44-70.68-11.55C-6.35,33.73-25.95,21.91-41.38,6.82c-15.34-15-26.3-33.21-30.84-53.14-.02-.09-.03-.18-.03-.26-4.02.61-8.03,1.21-12.05,1.82.19,1.88.38,3.76.57,5.64.15,1.53-2.63,2.03-2.78.5-.23-2.29-.46-4.58-.69-6.87-.06-.63.39-1.31,1.18-1.42,8.23-1.24,16.47-2.49,24.7-3.73,33.78-5.1,67.56-10.2,101.34-15.3,33.78-5.1,67.56-10.2,101.35-15.29,33.83-5.11,67.65-10.29,101.49-15.32,6.92-1.03,14.04-1.91,20.85-.65,5.65,1.05,10.54,3.77,14.11,7.54,7.34,7.76,8.89,18.59,5.97,28.49"/></g></g></svg>