<?xml version="1.0" encoding="UTF-8"?><svg id="_레이어_2" xmlns="http://www.w3.org/2000/svg" xmlns:xlink="http://www.w3.org/1999/xlink" viewBox="0 0 240.95 153.07"><defs><style>.cls-1{fill:#eddfcb;}.cls-2{fill:url(#linear-gradient-2);}.cls-3{clip-path:url(#clippath-11);}.cls-4{clip-path:url(#clippath-16);}.cls-5{fill:#fff;}.cls-6{clip-path:url(#clippath-2);}.cls-7{clip-path:url(#clippath-13);}.cls-8{clip-path:url(#clippath-15);}.cls-9{clip-path:url(#clippath-6);}.cls-10{clip-path:url(#clippath-1);}.cls-11{clip-path:url(#clippath-4);}.cls-12{clip-path:url(#clippath-12);}.cls-13{fill:url(#linear-gradient-5);}.cls-14{clip-path:url(#clippath);}.cls-15{fill:none;}.cls-16{clip-path:url(#clippath-8);}.cls-17{fill:url(#linear-gradient-3);}.cls-18{clip-path:url(#clippath-17);}.cls-19{clip-path:url(#clippath-5);}.cls-20{fill:url(#linear-gradient);}.cls-21{fill:url(#linear-gradient-4);}.cls-22{fill:#00302b;}</style><clipPath id="clippath"><path class="cls-15" d="m8.5,0h223.94c4.69,0,8.5,3.81,8.5,8.5v136.06c0,4.69-3.81,8.5-8.5,8.5H8.5c-4.69,0-8.5-3.81-8.5-8.5V8.5C0,3.81,3.81,0,8.5,0Z"/></clipPath><clipPath id="clippath-1"><path class="cls-15" d="m177.33,128.14c-30.9,14.69-63.59,23.38-95.56,28.64-4.3.71-8.6,1.36-12.89,1.96h177.73v-76.54c-18.51,18.59-44.25,34.05-69.28,45.94"/></clipPath><linearGradient id="linear-gradient" x1="-175.19" y1="588.08" x2="-174.19" y2="588.08" gradientTransform="translate(-14028.84 -47700.94) rotate(-180) scale(81.32 -81.32)" gradientUnits="userSpaceOnUse"><stop offset="0" stop-color="#b4926a"/><stop offset="1" stop-color="#eddfcb"/></linearGradient><clipPath id="clippath-2"><path class="cls-15" d="m-5.67-5.67v41.07c2.28.95,4.59,1.86,6.93,2.72,21.99,8.12,46.19,12.21,70.68,11.56,27-.72,53.92-6.61,78.98-16.36,24.84-9.67,47.89-23.07,68.1-38.99H-5.67Z"/></clipPath><linearGradient id="linear-gradient-2" x1="-175.2" y1="588.42" x2="-174.2" y2="588.42" gradientTransform="translate(-92912.59 27552.63) rotate(90) scale(158.08 -158.08)" xlink:href="#linear-gradient"/><clipPath id="clippath-4"><rect class="cls-15" x="-5.67" y="-5.67" width="252.28" height="164.41"/></clipPath><clipPath id="clippath-5"><path class="cls-15" d="m256.65-288.47c-8.34,3.02-15.65,6.59-22.47,9.54-7.77,3.36-15.58,6.69-23.47,9.92-13.75,5.65-29.53,11.83-47.86,17.76-30.73,9.94-63.68,17.22-97.8,18.43-30.84,1.1-62.52-2.52-88.95-12.87-3.74-1.46-7.34-3.06-10.79-4.78-4.89-4.89-9.79-9.79-14.68-14.68-.76-.76-2.6-.38-2.61.54-.44,26.22,1.25,52.41,5.11,78.44,1.92,12.94,4.37,22.95,7.35,35.79,1.13,4.87,1.97,10.22,6.32,14.35,4.49,4.27,11.81,5.4,19.41,5.52,9.81.16,19.68-.05,29.51-.18,9.98-.13,19.96-.33,29.93-.59,20.07-.53,40.12-1.32,60.16-2.38,39.4-2.07,78.86-5,117.93-9.28,15.06-1.65,30.84-3.89,43.56-9.91,13.23-6.26,19.81-13.06,22.97-23.2,1.68-5.38,2.54-10.84,3.39-16.28,1.03-6.58,1.9-13.18,2.6-19.77,1.4-13.05,2.17-26.11,2.3-39.17.07-6.53-.02-13.06-.27-19.58-.18-4.73-.56-9.68-3.56-14.02-2.98-4.31-8.85-7.3-16.16-7.7-.66-.04-1.32-.05-1.98-.05-6.98,0-13.86,1.95-19.93,4.14"/></clipPath><clipPath id="clippath-6"><rect class="cls-15" x="-66.55" y="-331.41" width="379.27" height="239.87" transform="translate(52.86 22.92) rotate(-13.52)"/></clipPath><linearGradient id="linear-gradient-3" x1="-175.17" y1="588.66" x2="-174.17" y2="588.66" gradientTransform="translate(-31368.42 -106275.94) rotate(180) scale(180.18 -180.18)" xlink:href="#linear-gradient"/><clipPath id="clippath-8"><rect class="cls-15" x="-5.67" y="-5.67" width="252.28" height="164.41"/></clipPath><clipPath id="clippath-11"><rect class="cls-15" x="-5.67" y="-5.67" width="252.28" height="164.41"/></clipPath><clipPath id="clippath-12"><path class="cls-15" d="m348.44-298.47c-7.32.4-13.18,3.39-16.17,7.7-3.01,4.34-3.39,9.29-3.56,14.02-.25,6.52-.34,13.05-.27,19.58.14,13.06.91,26.12,2.3,39.17.71,6.6,1.58,13.19,2.6,19.77.85,5.44,1.71,10.9,3.39,16.28,3.17,10.14,9.74,16.95,22.97,23.2,12.72,6.01,28.5,8.26,43.56,9.91,39.08,4.28,78.53,7.21,117.93,9.28,20.04,1.06,40.1,1.85,60.16,2.38,9.97.26,19.95.46,29.93.59,9.82.13,19.69.34,29.51.18,7.6-.12,14.92-1.25,19.41-5.52,4.35-4.13,5.19-9.48,6.32-14.35,2.98-12.84,5.43-22.85,7.35-35.79,3.86-26.03,5.55-52.22,5.11-78.44-.02-.92-1.85-1.3-2.61-.54-4.89,4.89-9.79,9.78-14.68,14.68-3.46,1.72-7.06,3.31-10.79,4.78-26.44,10.35-58.12,13.97-88.95,12.87-34.12-1.22-67.07-8.49-97.8-18.44-18.33-5.93-34.1-12.12-47.86-17.76-7.89-3.24-15.7-6.56-23.47-9.93-6.81-2.95-14.13-6.52-22.47-9.54-6.07-2.19-12.95-4.14-19.93-4.14-.66,0-1.32.02-1.98.05"/></clipPath><clipPath id="clippath-13"><rect class="cls-15" x="383.96" y="-407.02" width="239.87" height="379.27" transform="translate(597.42 323.38) rotate(-76.48)"/></clipPath><linearGradient id="linear-gradient-4" x1="-175.19" y1="588.67" x2="-174.19" y2="588.67" gradientTransform="translate(106569.76 31277.41) rotate(90) scale(180.18)" xlink:href="#linear-gradient"/><clipPath id="clippath-15"><rect class="cls-15" x="-5.67" y="-5.67" width="252.28" height="164.41"/></clipPath><clipPath id="clippath-16"><path class="cls-15" d="m655.47,84.84c-3.75,5.88-7.51,11.76-11.27,17.64-3.02,2.43-4,5.58-7.35,7.82-23.7,15.83-56.18,25.28-86.63,30.68-33.69,5.98-67.51,5.7-99.73,2.31-17.23-1.81-34.07-4.48-50.66-7.54-8.42-1.55-16.78-3.2-25.1-4.9-5.34-1.09-13.31-3.22-24.04-4.72-7.02-.98-14.93-1.47-22.33.56-7.08,1.94-12.19,6.14-14.2,11.03-2.02,4.93-1.35,9.91-.52,14.64,1.14,6.52,2.44,13.01,3.89,19.47,2.91,12.92,6.43,25.71,10.57,38.35,2.09,6.39,4.34,12.75,6.75,19.06,1.99,5.22,4,10.45,6.78,15.43,5.26,9.39,13.76,17.61,28.05,21.03,13.74,3.29,29.68,2.19,44.78.65,39.19-3.98,78.47-9.38,117.51-15.62,19.85-3.17,39.67-6.61,59.44-10.31,9.83-1.84,19.65-3.74,29.45-5.71,9.65-1.94,19.37-3.81,28.95-6.03,7.42-1.72,14.35-4.38,17.85-9.56,3.38-5.01,3.07-10.5,3.14-15.56.19-13.35-.15-26.66-1.01-39.89-1.75-26.62-5.65-52.95-11.65-78.85-.1-.45-.62-.68-1.19-.68s-1.19.23-1.49.69"/></clipPath><clipPath id="clippath-17"><rect class="cls-15" x="345.56" y="-23.24" width="292.07" height="399.63" transform="translate(163.96 583.39) rotate(-70.91)"/></clipPath><linearGradient id="linear-gradient-5" x1="-175.19" y1="588.72" x2="-174.19" y2="588.72" gradientTransform="translate(-123599.88 36946.16) rotate(90) scale(210.78 -210.78)" xlink:href="#linear-gradient"/></defs><g id="Layer_1"><g class="cls-14"><rect class="cls-5" x="-5.67" y="-5.67" width="252.28" height="164.41"/><g class="cls-10"><rect class="cls-20" x="61.06" y="47.76" width="193.38" height="145.41" transform="translate(-36.44 79.36) rotate(-25.42)"/></g><g class="cls-6"><rect class="cls-2" x="51.22" y="-93.44" width="110.91" height="231.55" transform="translate(58.14 119.92) rotate(-75.38)"/></g><g class="cls-11"><g class="cls-19"><g class="cls-9"><rect class="cls-17" x="-121.08" y="-417.64" width="488.35" height="412.33" transform="translate(52.86 22.92) rotate(-13.52)"/></g></g></g><g class="cls-16"><path class="cls-1" d="m278.1-66.85c-3.46,11.75-12.08,22.1-20.87,31.59-8.72,9.44-18.29,18.32-28.59,26.52-20.51,16.36-44,30.12-69.36,39.99-25.06,9.75-51.98,15.64-78.98,16.36-24.5.66-48.7-3.44-70.68-11.55C-12.02,28.06-31.62,16.24-47.05,1.15c-15.34-15-26.3-33.21-30.84-53.14-.02-.09-.03-.18-.03-.26-4.02.61-8.03,1.21-12.05,1.82.19,1.88.38,3.76.57,5.64.15,1.53-2.63,2.03-2.78.5-.23-2.29-.46-4.58-.69-6.87-.06-.63.39-1.31,1.18-1.42,8.23-1.24,16.47-2.49,24.7-3.73,33.78-5.1,67.56-10.2,101.34-15.3,33.78-5.1,67.56-10.2,101.35-15.29,33.83-5.11,67.65-10.29,101.49-15.32,6.92-1.03,14.04-1.91,20.85-.65,5.65,1.05,10.54,3.77,14.11,7.54,7.34,7.76,8.89,18.59,5.97,28.49"/><path class="cls-22" d="m-36.87,229.79c6.49,11.54,13.54,22.78,21.14,33.7,3.84,5.52,7.82,10.96,11.94,16.32,3.4,4.43,6.83,8.86,10.93,12.83,7.73,7.49,18.23,12.92,32.9,12.09,14.1-.8,29.06-6.42,43.09-12.23,36.4-15.07,72.47-31.51,108.08-48.7,18.11-8.74,36.11-17.72,53.98-26.94,8.89-4.58,17.74-9.22,26.57-13.92,8.69-4.63,17.46-9.21,26-14.08,6.62-3.78,12.49-8.31,14.35-14.28,1.8-5.77-.08-10.93-1.46-15.81-3.65-12.85-7.79-25.49-12.42-37.92-9.32-25-20.61-49.1-33.8-72.19-.46-.81-2.26-.27-2.56.78-1.91,6.71-3.82,13.42-5.73,20.14-2.2,3.2-2.22,6.49-4.79,9.6-18.16,21.97-46.56,40.34-74.17,54.26-30.55,15.4-63.03,24.84-94.87,30.84-17.03,3.21-33.92,5.49-50.69,7.32-8.51.93-16.99,1.75-25.45,2.52-8.09.73-16.17,1.12-24.38,2.38-7,1.08-14.72,2.88-21.23,6.94-6.23,3.89-9.92,9.38-10.44,14.65-.52,5.31,1.56,9.88,3.71,14.17,2.96,5.92,6.07,11.76,9.32,17.53"/></g><g class="cls-3"><g class="cls-12"><g class="cls-7"><rect class="cls-21" x="297.73" y="-461.56" width="412.33" height="488.35" transform="translate(597.42 323.38) rotate(-76.48)"/></g></g></g><g class="cls-8"><g class="cls-4"><g class="cls-18"><rect class="cls-13" x="222.05" y="-113.51" width="539.1" height="580.17" transform="translate(163.96 583.39) rotate(-70.91)"/></g></g></g></g></g></svg>