<?xml version="1.0" encoding="UTF-8"?><svg id="_레이어_2" xmlns="http://www.w3.org/2000/svg" viewBox="0 0 40.93 41.29"><defs><style>.cls-1{fill:#be956a;}</style></defs><g id="Layer_1"><path class="cls-1" d="m40.29,29.07c0,.1.02.2.05.3.21-.4.4-.8.59-1.21-.37.14-.64.5-.64.92Z"/><path class="cls-1" d="m37.24,28.09c-.54,0-.98.44-.98.98s.44.98.98.98.98-.44.98-.98-.44-.98-.98-.98Z"/><path class="cls-1" d="m37.24,32.12c-.54,0-.98.44-.98.98,0,.48.34.88.79.96.38-.42.75-.85,1.1-1.3-.14-.37-.5-.64-.92-.64Z"/><path class="cls-1" d="m33.21,28.09c-.54,0-.98.44-.98.98s.44.98.98.98.98-.44.98-.98-.44-.98-.98-.98Z"/><path class="cls-1" d="m33.21,32.12c-.54,0-.98.44-.98.98s.44.98.98.98.98-.44.98-.98-.44-.98-.98-.98Z"/><path class="cls-1" d="m33.21,36.15c-.54,0-.98.44-.98.98,0,.28.12.54.31.72.54-.34,1.06-.71,1.57-1.09-.15-.35-.5-.6-.9-.6Z"/><path class="cls-1" d="m29.18,28.09c-.54,0-.98.44-.98.98s.44.98.98.98.98-.44.98-.98-.44-.98-.98-.98Z"/><path class="cls-1" d="m29.18,32.12c-.54,0-.98.44-.98.98s.44.98.98.98.98-.44.98-.98-.44-.98-.98-.98Z"/><path class="cls-1" d="m29.18,36.15c-.54,0-.98.44-.98.98s.44.98.98.98.98-.44.98-.98-.44-.98-.98-.98Z"/><path class="cls-1" d="m25.16,28.09c-.54,0-.98.44-.98.98s.44.98.98.98.98-.44.98-.98-.44-.98-.98-.98Z"/><path class="cls-1" d="m25.16,32.12c-.54,0-.98.44-.98.98s.44.98.98.98.98-.44.98-.98-.44-.98-.98-.98Z"/><path class="cls-1" d="m25.16,36.15c-.54,0-.98.44-.98.98s.44.98.98.98.98-.44.98-.98-.44-.98-.98-.98Z"/><path class="cls-1" d="m25.16,40.18c-.49,0-.89.36-.96.83.61-.1,1.21-.22,1.79-.36-.17-.28-.48-.47-.83-.47Z"/><path class="cls-1" d="m21.13,28.09c-.54,0-.98.44-.98.98s.44.98.98.98.98-.44.98-.98-.44-.98-.98-.98Z"/><path class="cls-1" d="m21.13,32.12c-.54,0-.98.44-.98.98s.44.98.98.98.98-.44.98-.98-.44-.98-.98-.98Z"/><path class="cls-1" d="m21.13,36.15c-.54,0-.98.44-.98.98s.44.98.98.98.98-.44.98-.98-.44-.98-.98-.98Z"/><path class="cls-1" d="m21.13,40.18c-.54,0-.98.44-.98.98,0,.04,0,.08.01.12.18,0,.35,0,.53,0,.47,0,.95-.02,1.41-.05,0-.03,0-.05,0-.08,0-.54-.44-.98-.98-.98Z"/><path class="cls-1" d="m17.1,28.09c-.54,0-.98.44-.98.98s.44.98.98.98.98-.44.98-.98-.44-.98-.98-.98Z"/><path class="cls-1" d="m17.1,32.12c-.54,0-.98.44-.98.98s.44.98.98.98.98-.44.98-.98-.44-.98-.98-.98Z"/><path class="cls-1" d="m17.1,36.15c-.54,0-.98.44-.98.98s.44.98.98.98.98-.44.98-.98-.44-.98-.98-.98Z"/><path class="cls-1" d="m17.1,40.18c-.42,0-.78.27-.92.65.62.13,1.25.23,1.9.31-.02-.53-.45-.95-.98-.95Z"/><path class="cls-1" d="m13.07,28.09c-.54,0-.98.44-.98.98s.44.98.98.98.98-.44.98-.98-.44-.98-.98-.98Z"/><path class="cls-1" d="m13.07,32.12c-.54,0-.98.44-.98.98s.44.98.98.98.98-.44.98-.98-.44-.98-.98-.98Z"/><path class="cls-1" d="m13.07,36.15c-.54,0-.98.44-.98.98s.44.98.98.98.98-.44.98-.98-.44-.98-.98-.98Z"/><path class="cls-1" d="m9.49,0c-.49.29-.96.59-1.42.91.02.52.45.94.98.94s.98-.44.98-.98c0-.38-.22-.71-.53-.87Z"/><path class="cls-1" d="m9.04,3.92c-.54,0-.98.44-.98.98s.44.98.98.98.98-.44.98-.98-.44-.98-.98-.98Z"/><path class="cls-1" d="m9.04,7.95c-.54,0-.98.44-.98.98s.44.98.98.98.98-.44.98-.98-.44-.98-.98-.98Z"/><path class="cls-1" d="m9.04,11.98c-.54,0-.98.44-.98.98s.44.98.98.98.98-.44.98-.98-.44-.98-.98-.98Z"/><path class="cls-1" d="m9.04,16c-.54,0-.98.44-.98.98s.44.98.98.98.98-.44.98-.98-.44-.98-.98-.98Z"/><path class="cls-1" d="m9.04,20.03c-.54,0-.98.44-.98.98s.44.98.98.98.98-.44.98-.98-.44-.98-.98-.98Z"/><path class="cls-1" d="m9.04,24.06c-.54,0-.98.44-.98.98s.44.98.98.98.98-.44.98-.98-.44-.98-.98-.98Z"/><path class="cls-1" d="m9.04,28.09c-.54,0-.98.44-.98.98s.44.98.98.98.98-.44.98-.98-.44-.98-.98-.98Z"/><path class="cls-1" d="m9.04,32.12c-.54,0-.98.44-.98.98s.44.98.98.98.98-.44.98-.98-.44-.98-.98-.98Z"/><path class="cls-1" d="m9.04,36.15c-.54,0-.98.44-.98.98,0,.08,0,.15.03.22.37.26.75.5,1.14.74.45-.09.79-.48.79-.96,0-.54-.44-.98-.98-.98Z"/><path class="cls-1" d="m5.01,3.92c-.54,0-.98.44-.98.98s.44.98.98.98.98-.44.98-.98-.44-.98-.98-.98Z"/><path class="cls-1" d="m5.01,7.95c-.54,0-.98.44-.98.98s.44.98.98.98.98-.44.98-.98-.44-.98-.98-.98Z"/><path class="cls-1" d="m5.01,11.98c-.54,0-.98.44-.98.98s.44.98.98.98.98-.44.98-.98-.44-.98-.98-.98Z"/><path class="cls-1" d="m5.01,16c-.54,0-.98.44-.98.98s.44.98.98.98.98-.44.98-.98-.44-.98-.98-.98Z"/><path class="cls-1" d="m5.01,20.03c-.54,0-.98.44-.98.98s.44.98.98.98.98-.44.98-.98-.44-.98-.98-.98Z"/><path class="cls-1" d="m5.01,24.06c-.54,0-.98.44-.98.98s.44.98.98.98.98-.44.98-.98-.44-.98-.98-.98Z"/><path class="cls-1" d="m5.01,28.09c-.54,0-.98.44-.98.98s.44.98.98.98.98-.44.98-.98-.44-.98-.98-.98Z"/><path class="cls-1" d="m5.01,32.12c-.54,0-.98.44-.98.98s.44.98.98.98.98-.44.98-.98-.44-.98-.98-.98Z"/><path class="cls-1" d="m1.47,8.08c-.32.56-.62,1.14-.9,1.73.12.06.26.09.41.09.54,0,.98-.44.98-.98,0-.36-.2-.68-.49-.84Z"/><path class="cls-1" d="m.98,13.94c.54,0,.98-.44.98-.98s-.44-.98-.98-.98-.98.44-.98.98.44.98.98.98Z"/><path class="cls-1" d="m.98,17.97c.54,0,.98-.44.98-.98s-.44-.98-.98-.98-.98.44-.98.98.44.98.98.98Z"/><path class="cls-1" d="m.98,22c.54,0,.98-.44.98-.98s-.44-.98-.98-.98-.98.44-.98.98.44.98.98.98Z"/><path class="cls-1" d="m1.96,25.04c0-.54-.44-.98-.98-.98s-.98.44-.98.98.44.98.98.98.98-.44.98-.98Z"/><path class="cls-1" d="m.98,28.09c-.18,0-.35.05-.5.14.27.6.56,1.18.88,1.74.35-.15.6-.5.6-.9,0-.54-.44-.98-.98-.98Z"/></g></svg>