<?xml version="1.0" encoding="UTF-8"?><svg id="_레이어_2" xmlns="http://www.w3.org/2000/svg" viewBox="0 0 124.72 23.57"><defs><style>.cls-1{fill:#be956a;}.cls-2{fill:#231815;}.cls-3{fill:#00302b;}</style></defs><g id="Layer_1"><rect class="cls-2" x="66.7" y="11.89" width="8.47" height="1.01"/><path class="cls-2" d="m72.92,9.19h-3.95v-2.18h3.95v2.18Zm2.25-2.18v-1.01h-8.48v1.01h1.27v2.18h-1.27v1.01h8.48v-1.01h-1.24v-2.18h1.24Z"/><rect class="cls-2" x="96.39" y="11.89" width="8.47" height="1.01"/><path class="cls-2" d="m102.61,9.19h-3.95v-2.18h3.95v2.18Zm2.25-2.18v-1.01h-8.47v1.01h1.27v2.18h-1.27v1.01h8.47v-1.01h-1.24v-2.18h1.24Z"/><polygon class="cls-2" points="76.6 6 76.6 7.01 84.07 7.01 84.07 7.61 76.6 7.61 76.6 10.2 80.33 10.2 80.33 11.89 76.6 11.89 76.6 12.89 85.08 12.89 85.08 11.89 81.34 11.89 81.34 10.2 85.08 10.2 85.08 9.19 77.61 9.19 77.61 8.62 85.08 8.62 85.08 6 76.6 6"/><polygon class="cls-2" points="86.45 6 86.45 6.98 93.92 6.98 93.92 8.02 94.93 8.02 94.93 6 86.45 6"/><polygon class="cls-2" points="86.45 9.5 86.45 10.41 93.92 10.41 93.92 10.78 86.45 10.78 86.45 12.89 94.93 12.89 94.93 12.01 87.47 12.01 87.47 11.68 94.93 11.68 94.93 9.5 86.45 9.5"/><polygon class="cls-2" points="91.19 7.46 90.18 7.46 90.18 8.29 86.46 8.29 86.46 9.19 94.93 9.19 94.93 8.29 91.19 8.29 91.19 7.46"/><polygon class="cls-2" points="56.91 9.97 60.64 9.97 60.64 10.53 56.91 10.53 56.91 11.54 64.37 11.54 64.37 12.89 65.38 12.89 65.38 10.53 61.65 10.53 61.65 9.97 65.38 9.97 65.38 8.96 56.91 8.96 56.91 9.97"/><polygon class="cls-2" points="64.37 8.42 65.38 8.42 65.38 6 56.91 6 56.91 7 64.37 7 64.37 8.42"/><path class="cls-2" d="m107.27,11.46h6.45v.42h-6.45v-.42Zm4.91-5.47v1.01h1.54v.76h-1.54v1.01h1.54v1.67h-6.45v-.47h-1.01v2.91h8.47v-6.9h-2.55Z"/><path class="cls-2" d="m108.62,8.93c-.45,0-.81-.36-.81-.81s.36-.81.81-.81.81.36.81.81-.36.81-.81.81m-1.79-.81c0,.97.79,1.76,1.76,1.76s1.76-.79,1.76-1.76c0-.42-.15-.81-.39-1.11h.96v-1.01h-1.83v-.63h-1.01v.63h-1.83v1.01h.96c-.24.3-.39.69-.39,1.11"/><polygon class="cls-2" points="123.44 6 123.44 11.89 119.5 11.89 119.5 10.69 118.49 10.69 118.49 11.89 116.01 11.89 116.01 12.89 124.45 12.89 124.45 6 123.44 6"/><path class="cls-2" d="m119,9.11c-.47,0-.85-.38-.85-.85s.38-.85.85-.85.85.38.85.85-.38.85-.85.85m-1.86-.85c0,1.02.83,1.85,1.85,1.85s1.85-.83,1.85-1.85c0-.49-.19-.93-.49-1.26h1.21v-1.01h-2.07v-.63h-1.01v.63h-2.07v1.01h1.21c-.3.33-.49.77-.49,1.26"/><polygon class="cls-2" points="56.06 6 53.8 6 53.8 11.89 47.35 11.89 47.35 10.17 46.34 10.17 46.34 12.89 54.81 12.89 54.81 7.01 56.06 7.01 56.06 6"/><path class="cls-2" d="m48.87,9.11c-.47,0-.85-.38-.85-.85s.38-.85.85-.85.85.38.85.85-.38.85-.85.85m-1.85-.85c0,1.02.83,1.85,1.85,1.85s1.85-.83,1.85-1.85c0-.49-.19-.93-.49-1.26h1.23v-1.01h-2.06v-.63h-1.01v.63h-2.06v1.01h1.2c-.3.33-.49.77-.49,1.26"/><polygon class="cls-2" points="44.35 9.86 44.35 12.46 41.51 12.46 41.51 11.7 41.06 11.7 41.06 12.9 44.79 12.9 44.79 9.86 44.35 9.86"/><path class="cls-2" d="m42.04,10.21c.23,0,.42.19.42.42s-.19.42-.42.42-.42-.19-.42-.42.19-.42.42-.42m0,1.27c.47,0,.86-.38.86-.86s-.38-.86-.86-.86-.86.38-.86.86.38.86.86.86"/><polygon class="cls-2" points="36.54 8.57 36.93 8.79 37.96 6.93 38.99 8.79 39.38 8.57 37.96 6.01 36.54 8.57"/><polygon class="cls-2" points="39.8 5.98 39.8 9.02 40.24 9.02 40.24 6.42 40.79 6.42 40.79 5.98 39.8 5.98"/><polygon class="cls-2" points="43.22 7.01 41.51 7.01 41.51 6.42 43.22 6.42 43.22 5.98 41.06 5.98 41.06 7.46 43.22 7.46 43.22 7.01"/><polygon class="cls-2" points="45.33 5.98 44.79 5.98 44.35 5.98 44.35 8.57 41.51 8.57 41.51 7.82 41.06 7.82 41.06 9.02 44.79 9.02 44.79 6.42 45.33 6.42 45.33 5.98"/><path class="cls-2" d="m36.95,12.21h2.84v.25h-2.84v-.25Zm2.21-2.35v.45h.64v1.45h-2.84v-.23h-.44v1.36h3.73v-3.04h-1.08Z"/><path class="cls-2" d="m36.95,10.63h1.27v.2h-1.27v-.2Zm1.71-.77h-.44v.32h-1.27v-.32h-.44v1.42h2.16v-1.42Z"/><path class="cls-2" d="m38.9,17.57h-1.24v-.09c.23,0,.29-.02.29-.08l-.09-.16-.67-.84-.1.09v.73c0,.22.13.23.33.26v.09h-1.25v-.09c.2-.02.32-.04.32-.26v-1.79c0-.24-.15-.25-.32-.26v-.09h1.25v.09c-.2.02-.33.02-.33.34v.79l.8-.81c.1-.1.13-.13.13-.2,0-.09-.05-.11-.31-.12v-.09h1.07v.09c-.39.02-.57.21-1.19.84l1.12,1.4.18.08v.09Z"/><path class="cls-2" d="m40.27,15.02c-.71,0-1.31.5-1.31,1.31s.55,1.31,1.31,1.31,1.31-.53,1.31-1.31-.59-1.31-1.31-1.31m0,.12c.52,0,.65.65.65,1.19,0,.32-.02,1.19-.65,1.19s-.65-.87-.65-1.19c0-.54.14-1.19.65-1.19"/><path class="cls-2" d="m44.34,17.48l-.15-.07-.74-1.05c.2-.06.58-.18.58-.63,0-.62-.78-.65-1.04-.65h-1.19v.09c.21.01.33.02.33.34v1.63c0,.3-.07.31-.33.34v.09h1.25v-.09c-.25-.04-.33-.04-.33-.34v-.72h.1l.77,1.15h.75v-.09Zm-1.62-2.12c.02-.12.02-.16.23-.16.3,0,.45.16.45.53,0,.48-.19.56-.68.56v-.94Z"/><path class="cls-2" d="m44.43,15.07h2.13v.74h-.09c-.09-.53-.35-.62-.85-.62-.2,0-.27.01-.27.17v.86c.35,0,.55-.09.6-.55h.1v1.25h-.1c-.04-.46-.23-.57-.6-.57v.89c0,.16.07.21.31.21.37,0,.74-.1.97-.65h.1l-.15.77h-2.16v-.09c.21-.02.32-.04.32-.26v-1.79c0-.24-.15-.25-.32-.26v-.09Z"/><path class="cls-2" d="m49.38,17.48c-.18,0-.24-.12-.4-.51l-.82-1.95h-.1l-.82,2.03c-.11.28-.16.4-.36.43v.09h.75v-.09c-.12,0-.3-.02-.3-.16,0-.06.06-.21.16-.47h.83c.05.12.17.39.17.49,0,.12-.06.12-.29.14v.09h1.2v-.09Zm-1.85-.78l.35-.9.37.9h-.72Z"/><path class="cls-2" d="m50.48,17.57h1.23v-.09c-.26-.04-.32-.04-.32-.34v-.69c.49,0,.68,0,.91-.14.29-.17.34-.43.34-.56,0-.62-.67-.68-.97-.68h-1.19v.09c.2.02.31.03.31.34v1.63c0,.21-.05.26-.09.29-.03.02-.03.02-.21.05v.09Zm.91-2.24c0-.08.05-.13.18-.13.3,0,.44.14.44.56,0,.46-.17.56-.62.56v-.99Z"/><path class="cls-2" d="m55.32,17.48l-.15-.07-.74-1.05c.2-.06.58-.18.58-.63,0-.62-.78-.65-1.04-.65h-1.19v.09c.21.01.32.02.32.34v1.63c0,.3-.07.31-.32.34v.09h1.25v-.09c-.24-.04-.33-.04-.33-.34v-.72h.1l.77,1.15h.76v-.09Zm-1.62-2.12c.02-.12.03-.16.23-.16.3,0,.45.16.45.53,0,.48-.19.56-.68.56v-.94Z"/><path class="cls-2" d="m56.67,15.02c-.71,0-1.31.5-1.31,1.31s.55,1.31,1.31,1.31,1.31-.53,1.31-1.31-.59-1.31-1.31-1.31m0,.12c.52,0,.65.65.65,1.19,0,.32-.02,1.19-.65,1.19s-.65-.87-.65-1.19c0-.54.13-1.19.65-1.19"/><path class="cls-2" d="m58.17,15.07h2.09v.74h-.09c-.08-.38-.18-.62-.82-.62-.2,0-.27.01-.27.17v.86c.46,0,.52-.26.56-.55h.09v1.25h-.09c-.04-.3-.1-.57-.56-.57v.86c0,.24.15.25.4.26v.09h-1.33v-.09c.21-.02.32-.04.32-.26v-1.79c0-.24-.15-.25-.32-.26v-.09Z"/><path class="cls-2" d="m60.43,15.07h2.13v.74h-.09c-.08-.53-.35-.62-.84-.62-.2,0-.27.01-.27.17v.86c.36,0,.54-.09.6-.55h.1v1.25h-.1c-.04-.46-.23-.57-.6-.57v.89c0,.16.07.21.31.21.36,0,.74-.1.97-.65h.11l-.15.77h-2.16v-.09c.21-.02.32-.04.32-.26v-1.79c0-.24-.16-.25-.32-.26v-.09Z"/><path class="cls-2" d="m64.52,15.82c-.06-.26-.29-.68-.72-.68-.19,0-.39.11-.39.35,0,.2.07.28.38.44l.54.27c.13.06.4.28.4.68,0,.32-.23.77-.91.77-.35,0-.52-.12-.64-.12l-.11.12h-.11v-.91h.11c.07.37.29.79.76.79.44,0,.46-.37.46-.41,0-.24-.17-.33-.41-.45l-.25-.12c-.63-.3-.63-.62-.63-.79,0-.22.12-.73.82-.73.29,0,.47.12.57.12.09,0,.11-.05.12-.12h.11v.8h-.1Z"/><path class="cls-2" d="m66.57,15.82c-.06-.26-.29-.68-.72-.68-.19,0-.39.11-.39.35,0,.2.07.28.38.44l.54.27c.12.06.41.28.41.68,0,.32-.24.77-.92.77-.35,0-.52-.12-.63-.12l-.11.12h-.11v-.91h.11c.07.37.29.79.76.79.44,0,.46-.37.46-.41,0-.24-.17-.33-.42-.45l-.25-.12c-.63-.3-.63-.62-.63-.79,0-.22.12-.73.82-.73.29,0,.47.12.57.12.09,0,.11-.05.12-.12h.11v.8h-.1Z"/><path class="cls-2" d="m68.3,17.57h-1.29v-.09c.2-.02.34-.04.34-.26v-1.79c0-.24-.17-.25-.34-.26v-.09h1.29v.09c-.18,0-.35.01-.35.26v1.79c0,.23.15.25.35.26v.09Z"/><path class="cls-2" d="m69.81,15.02c-.71,0-1.31.5-1.31,1.31s.55,1.31,1.31,1.31,1.31-.53,1.31-1.31-.59-1.31-1.31-1.31m0,.12c.52,0,.65.65.65,1.19,0,.32-.02,1.19-.65,1.19s-.65-.87-.65-1.19c0-.54.13-1.19.65-1.19"/><path class="cls-2" d="m71.31,17.48c.22-.03.33-.05.33-.3v-1.75c-.21-.25-.27-.27-.32-.27v-.09h.78l1.29,1.57h0v-1.12c0-.22-.04-.34-.34-.37v-.09h.79v.09c-.26.03-.29.12-.29.29v2.18h-.1l-1.64-2h0v1.48c0,.27.08.34.35.37v.09h-.84v-.09Z"/><path class="cls-2" d="m76.38,17.48c-.18,0-.24-.12-.4-.51l-.82-1.95h-.1l-.82,2.03c-.11.28-.16.4-.36.43v.09h.75v-.09c-.13,0-.3-.02-.3-.16,0-.06.06-.21.16-.47h.83c.05.12.17.39.17.49,0,.12-.07.12-.3.14v.09h1.2v-.09Zm-1.85-.78l.35-.9.37.9h-.72Z"/><path class="cls-2" d="m78.71,17.57h-2.13v-.09c.21-.03.32-.04.32-.26v-1.79c0-.24-.15-.25-.32-.26v-.09h1.29v.09c-.26.01-.37.01-.37.34v1.74c0,.18.08.21.33.21.56,0,.77-.31.93-.72h.11l-.15.84Z"/><path class="cls-2" d="m82.68,16.6c-.23.03-.32.04-.32.34v.47c-.18.13-.68.23-1,.23-.92,0-1.34-.65-1.34-1.29,0-.73.51-1.32,1.31-1.32.33,0,.62.18.71.18s.13-.08.17-.17h.1v.86h-.09c-.13-.32-.44-.75-.86-.75-.54,0-.69.56-.69,1.2,0,.26.02,1.18.72,1.18.33,0,.38-.11.38-.27v-.39c0-.23-.12-.24-.37-.26v-.09h1.27v.09Z"/><path class="cls-2" d="m84.2,15.02c-.72,0-1.31.5-1.31,1.31s.55,1.31,1.31,1.31,1.31-.53,1.31-1.31-.6-1.31-1.31-1.31m0,.12c.52,0,.65.65.65,1.19,0,.32-.02,1.19-.65,1.19s-.65-.87-.65-1.19c0-.54.13-1.19.65-1.19"/><path class="cls-2" d="m87.85,17.57h-2.14v-.09c.21-.03.32-.04.32-.26v-1.79c0-.24-.15-.25-.32-.26v-.09h1.29v.09c-.26.01-.37.01-.37.34v1.74c0,.18.08.21.33.21.56,0,.77-.31.94-.72h.11l-.15.84Z"/><path class="cls-2" d="m88.17,15.07h2.09v.74h-.09c-.08-.38-.18-.62-.82-.62-.2,0-.27.01-.27.17v.86c.46,0,.51-.26.57-.55h.09v1.25h-.09c-.04-.3-.1-.57-.57-.57v.86c0,.24.15.25.41.26v.09h-1.33v-.09c.21-.02.32-.04.32-.26v-1.79c0-.24-.15-.25-.32-.26v-.09Z"/><path class="cls-2" d="m90.42,15.07h2.13v.74h-.09c-.09-.53-.35-.62-.84-.62-.2,0-.27.01-.27.17v.86c.36,0,.54-.09.6-.55h.1v1.25h-.1c-.04-.46-.23-.57-.6-.57v.89c0,.16.07.21.31.21.37,0,.74-.1.97-.65h.11l-.15.77h-2.16v-.09c.21-.02.32-.04.32-.26v-1.79c0-.24-.15-.25-.32-.26v-.09Z"/><path class="cls-2" d="m95.47,17.48l-.15-.07-.74-1.05c.2-.06.58-.18.58-.63,0-.62-.79-.65-1.04-.65h-1.19v.09c.21.01.32.02.32.34v1.63c0,.3-.07.31-.32.34v.09h1.25v-.09c-.24-.04-.33-.04-.33-.34v-.72h.1l.77,1.15h.76v-.09Zm-1.62-2.12c.02-.12.03-.16.23-.16.29,0,.45.16.45.53,0,.48-.19.56-.68.56v-.94Z"/><path class="cls-2" d="m97.18,15.82c-.07-.26-.29-.68-.73-.68-.19,0-.39.11-.39.35,0,.2.06.28.38.44l.54.27c.12.06.4.28.4.68,0,.32-.23.77-.92.77-.35,0-.52-.12-.63-.12l-.11.12h-.11v-.91h.11c.08.37.29.79.76.79.44,0,.46-.37.46-.41,0-.24-.17-.33-.41-.45l-.25-.12c-.63-.3-.63-.62-.63-.79,0-.22.11-.73.81-.73.29,0,.47.12.58.12.09,0,.11-.05.12-.12h.11v.8h-.1Z"/><path class="cls-2" d="m97.99,16.08c-.06-.26-.17-.71-.16-.79,0-.16.09-.27.23-.27s.24.11.24.27c0,.08-.1.53-.16.79h-.15Z"/><path class="cls-2" d="m101.84,17.48c-.18,0-.24-.12-.4-.51l-.82-1.95h-.1l-.82,2.03c-.11.28-.16.4-.36.43v.09h.75v-.09c-.13,0-.31-.02-.31-.16,0-.06.06-.21.17-.47h.83c.05.12.17.39.17.49,0,.12-.07.12-.3.14v.09h1.2v-.09Zm-1.85-.78l.35-.9.37.9h-.72Z"/><path class="cls-2" d="m103.64,15.82c-.06-.26-.29-.68-.72-.68-.19,0-.39.11-.39.35,0,.2.07.28.38.44l.54.27c.12.06.4.28.4.68,0,.32-.23.77-.91.77-.35,0-.52-.12-.63-.12l-.11.12h-.11v-.91h.11c.07.37.29.79.76.79.44,0,.46-.37.46-.41,0-.24-.17-.33-.41-.45l-.25-.12c-.63-.3-.63-.62-.63-.79,0-.22.12-.73.81-.73.3,0,.47.12.58.12.09,0,.11-.05.12-.12h.11v.8h-.1Z"/><path class="cls-2" d="m105.7,15.82c-.06-.26-.28-.68-.72-.68-.19,0-.39.11-.39.35,0,.2.07.28.38.44l.54.27c.13.06.4.28.4.68,0,.32-.23.77-.92.77-.35,0-.52-.12-.63-.12l-.11.12h-.11v-.91h.11c.07.37.29.79.76.79.44,0,.46-.37.46-.41,0-.24-.17-.33-.41-.45l-.25-.12c-.63-.3-.63-.62-.63-.79,0-.22.12-.73.81-.73.3,0,.47.12.58.12.08,0,.11-.05.12-.12h.11v.8h-.11Z"/><path class="cls-2" d="m107.5,15.02c-.71,0-1.31.5-1.31,1.31s.54,1.31,1.31,1.31,1.31-.53,1.31-1.31-.6-1.31-1.31-1.31m0,.12c.52,0,.65.65.65,1.19,0,.32-.02,1.19-.65,1.19s-.65-.87-.65-1.19c0-.54.13-1.19.65-1.19"/><path class="cls-2" d="m111.48,17.1c-.27.31-.56.54-1.03.54-.86,0-1.33-.61-1.33-1.3,0-.75.53-1.32,1.31-1.32.33,0,.62.18.71.18s.13-.08.17-.17h.1v.86h-.09c-.13-.32-.44-.75-.86-.75-.54,0-.68.56-.68,1.18,0,.22.02.58.16.81.15.27.45.32.56.32.29,0,.56-.11.88-.45l.11.09Z"/><path class="cls-2" d="m112.97,17.57h-1.29v-.09c.2-.02.35-.04.35-.26v-1.79c0-.24-.18-.25-.35-.26v-.09h1.29v.09c-.17,0-.35.01-.35.26v1.79c0,.23.15.25.35.26v.09Z"/><path class="cls-2" d="m115.59,17.48c-.18,0-.24-.12-.4-.51l-.83-1.95h-.1l-.82,2.03c-.11.28-.16.4-.36.43v.09h.75v-.09c-.13,0-.3-.02-.3-.16,0-.06.06-.21.16-.47h.83c.05.12.17.39.17.49,0,.12-.07.12-.3.14v.09h1.2v-.09Zm-1.85-.78l.35-.9.37.9h-.72Z"/><path class="cls-2" d="m117.25,17.57h-1.32v-.09c.27-.02.36-.03.36-.34v-1.95c-.26.02-.64.04-.72.62h-.1v-.74h2.22v.74s-.1,0-.1,0c-.07-.59-.45-.61-.71-.62v1.95c0,.31.09.32.36.34v.09Z"/><path class="cls-2" d="m119.19,17.57h-1.29v-.09c.2-.02.34-.04.34-.26v-1.79c0-.24-.17-.25-.34-.26v-.09h1.29v.09c-.17,0-.35.01-.35.26v1.79c0,.23.15.25.35.26v.09Z"/><path class="cls-2" d="m120.7,15.02c-.71,0-1.31.5-1.31,1.31s.55,1.31,1.31,1.31,1.31-.53,1.31-1.31-.59-1.31-1.31-1.31m0,.12c.52,0,.65.65.65,1.19,0,.32-.02,1.19-.65,1.19s-.65-.87-.65-1.19c0-.54.13-1.19.65-1.19"/><path class="cls-2" d="m122.19,17.48c.22-.03.32-.05.32-.3v-1.75c-.21-.25-.27-.27-.31-.27v-.09h.78l1.28,1.57h0v-1.12c0-.22-.04-.34-.34-.37v-.09h.79v.09c-.27.03-.29.12-.29.29v2.18h-.1l-1.64-2h0v1.48c0,.27.08.34.35.37v.09h-.84v-.09Z"/><path class="cls-1" d="m31.66,19.45c-3.21.6-5.61,1.73-7.55,3.54h-15.8c-1.91-1.79-4.44-2.95-7.74-3.55V4.23c3.16-.59,5.66-1.79,7.63-3.65h15.79c1.92,1.81,4.5,3.04,7.65,3.64v15.23Zm.56-15.77h-.27c-3.18-.57-5.74-1.79-7.63-3.6l-.08-.08H7.98l-.09.08C5.98,1.93,3.53,3.1.4,3.67l-.4.07v16.19l.24.04c3.34.57,5.88,1.72,7.76,3.52l.08.08h16.27l.08-.08c1.91-1.82,4.31-2.94,7.57-3.52l.24-.04V3.97l-.02-.29Z"/><path class="cls-3" d="m31.23,4.85l-.04-.2-.03-.18-.18-.03c-2.78-.51-5.25-1.68-7.15-3.39l-.07-.07h-15.3l-.07.07c-1.84,1.67-4.38,2.86-7.14,3.37l-.14.03-.05.13c-.04.1-.03.18-.02.23h0v14.3l.21.04c2.82.51,5.39,1.71,7.23,3.37l.07.06h15.3l.07-.06c1.88-1.7,4.33-2.86,7.09-3.37l.21-.04V4.85Z"/><path class="cls-1" d="m31.01,19.09c-2.77.52-5.24,1.69-7.12,3.39l-.05.05h-15.25l-.05-.05c-1.86-1.67-4.44-2.88-7.27-3.39l-.15-.03V4.8s-.02-.11.01-.19l.04-.1.1-.02c2.78-.52,5.33-1.72,7.17-3.39l.05-.05h15.25l.05.05c1.9,1.72,4.39,2.9,7.19,3.41l.13.02.05.33v14.19s-.15.03-.15.03Zm.22-14.68l-.23-.04c-2.77-.5-5.23-1.67-7.12-3.37l-.09-.09h-15.36l-.1.09c-1.83,1.65-4.35,2.84-7.1,3.36l-.18.03-.07.17c-.05.11-.03.21-.02.28v14.35l.27.05c2.8.51,5.36,1.7,7.2,3.36l.1.09h15.36l.1-.09c1.86-1.69,4.3-2.84,7.05-3.36l.27-.05V4.89l-.07-.49Z"/><path class="cls-3" d="m7.48,3.87c-2.33,0-4.22,1.89-4.22,4.22s1.89,4.22,4.22,4.22,4.22-1.89,4.22-4.22-1.89-4.22-4.22-4.22"/><path class="cls-1" d="m3.78,8.16c.02-.09.18-.09.18-.1,0,0-.09.04-.12.13-.04.1,0,.21,0,.21-.04-.08-.1-.15-.07-.24"/><path class="cls-1" d="m3.97,7.79s-.06-.16-.03-.27l.18-.12c-.12.04-.17.17-.15.38"/><path class="cls-1" d="m4.96,6.75c.05-.08.13-.13.23-.1l.05.05c-.12,0-.21.09-.28.19v-.14Z"/><path class="cls-1" d="m5.37,6.4c-.04-.11.02-.2.09-.27.07-.05.19-.05.28-.05-.04.07-.16.05-.23.14l-.14.18Z"/><path class="cls-1" d="m6.18,5.81c.01-.08.04-.2.18-.26.1-.05.19-.02.25,0l.06.05c-.21,0-.35.04-.48.21"/><path class="cls-1" d="m5.75,5.38l.16.02c-.19.03-.27.12-.37.28.02-.12.07-.25.21-.3"/><path class="cls-1" d="m5.04,5.51c.09-.11.21-.07.28-.07-.16.09-.32.22-.35.35,0-.04-.04-.15.06-.28"/><path class="cls-1" d="m10.29,5.45l-.19-.17.19.17Z"/><path class="cls-1" d="m9.63,5.33l.06-.09c.12.01.18.12.26.21l-.02.03c-.11,0-.21-.06-.29-.15"/><path class="cls-1" d="m7.39,5.43l.11-.15c.14-.05.29-.02.4.06v.02c-.16-.03-.35-.02-.46.11l-.06-.05Z"/><path class="cls-1" d="m8.75,5.48l.17-.19.2.02.08.17s-.07-.08-.2-.1c-.14,0-.24.09-.25.09"/><path class="cls-1" d="m6.9,5.06c.18-.03.24.02.33.09h0c-.2-.07-.39,0-.5.12-.02-.04.04-.18.16-.21"/><polygon class="cls-1" points="9.97 5.17 9.95 5.12 9.71 4.97 9.97 5.17"/><path class="cls-1" d="m7.86,4.97c.1-.1.24-.07.36-.03l.11.08c-.13-.01-.28-.06-.39.04l-.05.06-.02-.15Z"/><path class="cls-1" d="m8.89,5.11c-.07-.07.09-.14.18-.14.09,0,.25.09.31.15-.1-.03-.39-.13-.49-.02"/><path class="cls-1" d="m6.51,4.96c-.19,0-.36.15-.36.15,0,0,.06-.13.16-.16.1-.03.22.01.21.01"/><path class="cls-1" d="m8.38,4.76s.15-.04.24-.02l.15.1c-.09-.02-.35-.1-.35.05l-.04-.14Z"/><path class="cls-1" d="m7.79,4.55c.06-.04.18-.1.28-.08.1.02.19.16.19.16-.13-.11-.36-.08-.46-.07"/><path class="cls-1" d="m9.11,4.66c.04-.05.26.02.35.1v.02c-.23-.09-.29.06-.29.06l-.05-.18Z"/><path class="cls-1" d="m4.23,6.77s-.04-.17,0-.27l.2-.09c-.12.02-.19.15-.2.36"/><path class="cls-1" d="m4.31,7.29c-.06-.1-.02-.2.03-.28.06-.06.18-.09.27-.11-.03.08-.15.09-.2.19l-.1.21Z"/><path class="cls-1" d="m4.71,6.54c-.06-.1,0-.2.05-.28.06-.06.18-.08.27-.1-.03.07-.15.08-.21.17l-.11.21Z"/><path class="cls-1" d="m7.28,4.71c.18,0,.23.06.3.15h0c-.19-.1-.38-.07-.51.03-.01-.04.07-.17.2-.18"/><path class="cls-1" d="m7.03,4.49c-.19-.03-.39.09-.39.09,0,0,.08-.12.19-.13.1-.01.21.05.2.05"/><path class="cls-1" d="m5.91,4.81c-.19.04-.33.21-.33.21,0,0,.03-.14.13-.18.09-.05.21-.03.21-.03"/><path class="cls-1" d="m4.58,5.79c-.18.08-.27.28-.27.28l.08-.21.2-.07Z"/><path class="cls-1" d="m3.89,6.92c-.14.13-.16.36-.16.36,0,0-.05-.13,0-.22.05-.09.16-.14.16-.13"/><path class="cls-1" d="m3.97,9.16c.09-.03.04-.3.18-.16.06.11,0,.26-.07.36-.18.53.11.54.08.71.11.15.19.3.3.46.33.27.75.43,1.21.43,1.07,0,1.94-.87,1.94-1.94s.87-1.94,1.94-1.94c.78,0,1.44.46,1.75,1.12,0-.19,0-.38-.02-.57-.02-.18,0-.39-.07-.55l-.13-.18c-.12-.13-.02-.32-.15-.45v.06c-.16.04-.17-.16-.27-.22,0-.09-.08-.1-.12-.16l-.05.02c-.16-.05-.28-.22-.34-.36l.04-.03c.06.06.13.12.22.13.02-.09-.02-.17-.09-.23l-.16-.04c-.13.03.05.12-.06.16h-.18s-.2-.2-.2-.2c-.1-.03-.19-.16-.29-.08l-.06.15h-.16c-.22.16-.46-.01-.66-.08l-.19-.09c-.1,0-.22-.03-.29.06l-.04.21c-.05.15-.13-.07-.25-.01-.09.02-.16.1-.22.16-.07-.06-.09-.16-.18-.21-.09-.07-.24-.08-.35-.04-.2.07-.21.3-.41.39-.19.15-.47,0-.63.21-.07.08-.06.19-.09.29-.04.09-.13.11-.2.13-.22.07-.24.26-.32.42l-.16.18h-.17l-.11-.11c-.05.1-.14.2-.26.19l-.02-.02c-.08,0-.16.06-.2.12-.04.09-.03.19,0,.28l.12.03c.21-.02.1-.3.29-.32.08.06.06.14.07.24-.01.13-.09.26-.22.32-.1.05-.19-.04-.26-.12l-.18.12c-.09.09-.07.25-.05.37.04.11-.07.21-.11.3v.03s-.03.23-.03.23l-.15-.15h-.06c-.06.14-.06.29.03.41l.06-.02Z"/><polygon class="cls-3" points="4.71 10.66 4.78 10.71 4.81 10.52 4.68 10.44 4.71 10.66"/><path class="cls-3" d="m4.67,10.2c.02-.08.18-.06.1-.18l-.02-.16c.11.07.12.21.1.32l-.08.07-.09-.05Z"/><path class="cls-3" d="m4.3,10.17c0-.1.05-.23-.05-.3l.04-.08.15.14c.04.11,0,.22-.06.31l-.09-.06Z"/><path class="cls-3" d="m4.25,9.7l-.11-.07c.04-.09.28.09.24-.11l-.1-.19h.14c.06.08.12.18.08.28-.05.09-.17.13-.26.09"/><path class="cls-3" d="m4.27,9.15c0-.12.19-.19.12-.34l.04-.06.12.12c.04.12-.01.25-.09.33-.06.04-.17.03-.19-.06"/><path class="cls-3" d="m4.29,8.52c-.04-.17.2-.12.2-.26l.04-.12c.11.03.09.14.1.23-.01.1-.06.2-.15.25l-.19-.1Z"/><path class="cls-3" d="m4.79,8.47c.04-.13.21-.1.27-.22l.03-.18.11.06c.03.1-.01.18-.05.26-.08.12-.25.18-.36.08"/><path class="cls-3" d="m5.09,7.86c.02-.1.15-.14.21-.23.11-.06-.02-.29.14-.26l.09.21c0,.14-.11.28-.23.34l-.21-.06Z"/><path class="cls-3" d="m6.18,7.34c.05-.14.38-.06.31-.32l.12-.05v.23c-.04.12-.16.19-.28.2l-.15-.07Z"/><path class="cls-3" d="m5.56,7.24l-.03-.05c.07-.12.27-.11.33-.28l.05-.1.09.05c-.02.15-.04.33-.21.39l-.23-.02Z"/><path class="cls-3" d="m10.85,6.8h.08c.05.1.14.18.14.29-.13-.04-.21-.16-.22-.29"/><path class="cls-3" d="m6.71,6.81l.06-.12c.18.04.29-.09.4-.19l.05.03c0,.11-.02.24-.14.3-.11.04-.29.1-.38-.02"/><path class="cls-3" d="m6.03,6.67l-.03-.14c.06-.06.17-.05.26-.1.09-.05.15-.22.28-.14.06.14-.04.27-.12.38-.1.08-.29.11-.39,0"/><path class="cls-3" d="m10.59,6.66c-.07-.07-.09-.17-.11-.27h.08c.06.06.09.19.2.18v.11s-.17-.02-.17-.02Z"/><path class="cls-3" d="m8.48,6.61l-.06-.15c.11-.1.27.07.37-.06l.08.04-.14.16c-.09.03-.18.03-.26,0"/><path class="cls-3" d="m9.44,6.38v-.05c.14-.05.23.18.35.04l.05.03-.02.15h-.22l-.16-.16Z"/><path class="cls-3" d="m7.59,6.21v-.03c.13-.02.29.08.39-.06l.12-.1.06.11c.02.09-.02.15-.09.2-.08.06-.19.08-.29.05l-.19-.17Z"/><path class="cls-3" d="m10.11,6.31l-.08-.24c.14-.04.14.21.28.07l.06.05-.09.17-.17-.05Z"/><path class="cls-3" d="m8.8,6.06c.06-.09.15.02.22.03.08.02.15-.04.19-.1l.08.06-.04.19-.23.02c-.09-.03-.17-.12-.22-.2"/><path class="cls-3" d="m6.89,6.05l.06-.13c.18.09.27-.12.44-.09l.08.07c0,.09-.02.18-.12.22-.14.08-.36.06-.46-.07"/><path class="cls-3" d="m9.36,5.78l.02-.09c.1.03.18.1.3.09l.09-.05c.06.05.11.13.08.21l-.1.1c-.16,0-.3-.12-.38-.26"/><path class="cls-3" d="m8.08,5.78l.05-.04c.09.04.19.05.3.02.08-.02.07-.19.18-.12l.07.16-.12.17c-.16.08-.33-.02-.45-.13l-.02-.06Z"/><path class="cls-3" d="m5.32,8.35c.03-.15.37-.14.24-.38l.11-.07.06.22c-.02.12-.13.22-.24.26l-.16-.03Z"/><path class="cls-1" d="m13.13,14.15h2.06l.05-.15c-.41-.06-.52-.07-.34-.57l.42-1.16c.82,0,1.14,0,1.61-.23.59-.28.82-.71.9-.93.38-1.04-.71-1.13-1.21-1.13h-1.99l-.05.15c.32.03.5.05.31.57l-.99,2.73c-.12.34-.24.43-.33.48-.05.03-.07.04-.39.09l-.05.15Zm2.88-3.74c.06-.13.16-.21.38-.21.51,0,.64.23.39.94-.28.76-.62.94-1.37.93l.6-1.65Z"/><path class="cls-1" d="m22.36,12.53c-.4.04-.55.06-.73.57l-.29.79c-.37.21-1.27.38-1.81.38-1.55,0-1.84-1.09-1.45-2.16.44-1.22,1.66-2.21,2.99-2.21.56,0,.92.3,1.08.3s.27-.13.39-.28h.16l-.53,1.44h-.15c-.02-.54-.28-1.26-.98-1.26-.9,0-1.48.94-1.87,2-.16.44-.68,1.97.49,1.97.54,0,.71-.19.8-.45l.24-.65c.14-.39-.05-.41-.47-.43l.05-.15h2.12l-.05.15Z"/><path class="cls-1" d="m26.53,14c-.3.01-.32-.2-.36-.86l-.19-3.25h-.17l-2.6,3.38c-.36.47-.52.67-.87.72l-.06.15h1.25l.06-.15c-.21-.01-.49-.03-.41-.27.04-.1.23-.35.56-.8h1.39c.02.2.05.65-.01.82-.08.21-.19.21-.58.24l-.05.15h2l.05-.15Zm-2.61-1.3l1.13-1.5.07,1.5h-1.2Z"/><path class="cls-1" d="m12.66,14.15h-2.07l.05-.15c.38-.01.5-.03.53-.13.03-.08,0-.15-.05-.27l-.61-1.4-.22.15-.44,1.21c-.13.37.07.39.38.44l-.05.15h-2.08l.06-.15c.35-.04.56-.06.7-.44l1.09-2.99c.15-.41-.1-.42-.38-.44l.06-.15h2.08l-.06.15c-.35.02-.56.04-.76.57l-.48,1.32,1.83-1.35c.23-.17.3-.22.34-.34.05-.14-.02-.18-.45-.21l.05-.15h1.79l-.06.15c-.66.04-1.07.34-2.49,1.4l1.03,2.33c.05.11.13.13.25.13l-.05.15Z"/><path class="cls-1" d="m11.68,17.23c.01-.14-.02-.39-.27-.39-.11,0-.25.06-.3.2-.04.12-.02.16.13.25l.25.15c.05.04.17.16.09.39-.07.18-.3.44-.68.44-.2,0-.27-.07-.33-.07l-.09.07h-.06l.19-.52h.06c-.04.21,0,.45.27.45.25,0,.34-.21.35-.24.05-.14-.03-.19-.14-.25l-.12-.07c-.29-.17-.23-.35-.19-.45.05-.13.21-.41.61-.41.17,0,.24.07.3.07l.1-.07h.06l-.17.46h-.06Z"/><path class="cls-1" d="m12.4,18.22h-.73l.02-.05c.12-.01.2-.02.25-.15l.37-1.01c.05-.14-.04-.14-.14-.15l.02-.05h.73l-.02.05c-.1,0-.2,0-.25.15l-.37,1.01c-.05.13.03.14.14.15l-.02.05Z"/><path class="cls-1" d="m12.6,18.17c.13-.01.19-.03.25-.17l.36-.99c-.06-.14-.09-.15-.12-.15l.02-.05h.44l.4.89h0l.23-.63c.05-.13.05-.2-.12-.21l.02-.05h.45l-.02.05c-.16.02-.19.07-.23.17l-.45,1.23h-.06l-.52-1.13h0l-.3.83c-.05.15-.03.19.12.21l-.02.05h-.47l.02-.05Z"/><path class="cls-1" d="m15.7,17.96c-.22.17-.43.31-.7.31-.49,0-.63-.35-.48-.74.16-.43.58-.75,1.02-.75.19,0,.31.1.37.1l.13-.1h.06l-.18.49h-.05c0-.18-.09-.43-.33-.43-.3,0-.5.32-.63.67-.04.12-.1.33-.08.46.04.15.19.18.25.18.16,0,.34-.06.59-.26l.05.05Z"/><path class="cls-1" d="m16.33,16.81h1.21l-.15.42h-.05c.06-.3-.07-.35-.35-.35-.12,0-.16,0-.19.1l-.18.49c.2,0,.33-.05.46-.32h.05l-.26.71h-.05c.07-.26-.02-.32-.22-.32l-.18.5c-.04.09,0,.12.14.12.2,0,.44-.05.69-.37h.06l-.25.43h-1.23l.02-.05c.13-.01.19-.02.24-.15l.37-1.01c.05-.14-.04-.14-.13-.15l.02-.05Z"/><path class="cls-1" d="m18.84,18.22h-.79l.02-.05c.24,0,.28-.08.33-.21l.29-.8-.03-.14-.19.05.02-.05.61-.23h.04l-.44,1.2c-.05.14-.05.2.15.2l-.02.05Z"/><path class="cls-1" d="m19.12,18.26c.65-.06,1.1-.47,1.24-.85.18-.5-.07-.62-.25-.62-.38,0-.59.36-.63.47-.13.36.08.44.22.44h.11s.1-.04.1-.04c-.25.4-.54.51-.76.55l-.03.06Zm.72-1.12c.06-.16.11-.29.24-.29s.12.13-.04.54l-.09.19-.1.03c-.15,0-.12-.16-.01-.46"/><path class="cls-1" d="m21.73,16.78c-.65.06-1.09.47-1.23.85-.18.5.06.62.25.62.37,0,.58-.36.62-.48.13-.36-.07-.44-.21-.44l-.2.04c.23-.38.53-.5.75-.54l.02-.05Zm-.71,1.12c-.06.16-.11.3-.24.3s-.12-.13.04-.54l.09-.19.1-.03c.14,0,.12.16,0,.46"/><path class="cls-1" d="m21.81,17.9c.05-.15.12-.22.22-.31.11.09.21.18.14.36-.02.06-.09.24-.27.24-.14,0-.15-.14-.09-.29m.65-1.11c-.33,0-.54.18-.61.37-.06.17.03.3.15.39-.16.05-.36.13-.44.36-.08.23.08.36.31.36.3,0,.55-.17.65-.43.07-.2,0-.34-.15-.45.13-.04.32-.11.39-.29.04-.12.02-.3-.29-.3m-.29.23c.03-.09.13-.17.23-.17.16,0,.13.15.1.26-.05.13-.1.18-.18.24-.02-.01-.22-.13-.15-.33"/></g></svg>