<?xml version="1.0" encoding="UTF-8"?><svg id="_레이어_2" xmlns="http://www.w3.org/2000/svg" viewBox="0 0 85.04 85.04"><defs><style>.cls-1{fill:#80674b;}.cls-2{fill:#666;}</style></defs><g id="_레이어_1-2"><path class="cls-2" d="m19.03,40.9c0-1.28-1.04-2.32-2.32-2.32s-2.32,1.04-2.32,2.32,1.04,2.32,2.32,2.32,2.32-1.04,2.32-2.32Z"/><path class="cls-2" d="m73.88,40.9c0-1.28-1.04-2.32-2.32-2.32s-2.32,1.04-2.32,2.32,1.04,2.32,2.32,2.32,2.32-1.04,2.32-2.32Z"/><circle class="cls-2" cx="44.13" cy="13.48" r="2.32"/><circle class="cls-2" cx="44.13" cy="68.33" r="2.32"/><path class="cls-2" d="m40.87,37.61c-.85.84-1.38,2.01-1.38,3.3,0,2.56,2.08,4.64,4.64,4.64.41,0,.81-.07,1.19-.17l9.8,9.8c.91.91,2.38.91,3.28,0,.91-.91.91-2.38,0-3.28l-9.8-9.8c.1-.38.17-.77.17-1.19,0-1.29-.53-2.46-1.38-3.3v-6.16c0-1.8-1.46-3.26-3.26-3.26s-3.26,1.46-3.26,3.26v6.16Z"/><path class="cls-1" d="m18.45,48.13c-10.19,0-18.45,8.26-18.45,18.45s8.26,18.45,18.45,18.45,18.45-8.26,18.45-18.45-8.26-18.45-18.45-18.45Zm11.24,17.53l-11.76,11.76c-.61.61-1.41.91-2.2.91s-1.59-.3-2.2-.91l-6.98-6.98c-1.22-1.22-1.22-3.19,0-4.41,1.22-1.22,3.19-1.22,4.41,0l4.77,4.77,9.55-9.55c1.22-1.22,3.19-1.22,4.41,0,1.22,1.22,1.22,3.19,0,4.41Z"/><path class="cls-2" d="m44.13,0C21.54,0,3.23,18.31,3.23,40.9c0,2.91.31,5.74.88,8.47,2.03-1.69,4.36-3.03,6.9-3.92-.2-1.49-.32-3-.32-4.55C10.7,22.44,25.67,7.47,44.13,7.47s33.43,14.97,33.43,33.43-14.97,33.43-33.43,33.43c-1.54,0-3.06-.11-4.55-.32-.89,2.54-2.23,4.87-3.92,6.9,2.73.58,5.57.88,8.47.88,22.59,0,40.9-18.31,40.9-40.9S66.73,0,44.13,0Z"/></g></svg>