<?xml version="1.0" encoding="UTF-8"?><svg id="_레이어_2" xmlns="http://www.w3.org/2000/svg" viewBox="0 0 346.51 225.4"><defs><style>.cls-1{fill:#fff;}.cls-2{fill:#d95096;}.cls-3{fill:#004097;}.cls-4{fill:#b4b4b5;}</style></defs><g id="Layer_1"><path class="cls-4" d="m322.46,178.32v-61.78h-32.65v12.86c-1.22-1.73-2.58-3.29-4.14-4.68-9.17-8.18-20.36-8.18-29.36-8.18h-41.67s-6.13,8.48-9.33,12.93v-12.93h-32.68v14.87c-2.64-8.04-6.43-16.8-11.75-23.66.55-7.67,4.72-11.94,6.07-13.09,3.59-3.14,4.6-7.03,5.13-9.21.29-.29.68-.66,1.06-.92.12-.09.14-.12.21-.17,16.33-12.85,23.59-24.79,23.89-25.37l.84-1.36.84-1.35-.23-1.66-.15-1.65c-.3-1.92-1.6-7.27-8.1-17.19,5.11-4.71,7.59-11.71,6.31-18.82-.98-5.39-4-10.09-8.54-13.25-4.52-3.14-9.96-4.32-15.41-3.38-5.41,1.02-10.11,4.05-13.25,8.57-3.17,4.51-4.36,10.02-3.35,15.41.28,1.53.73,3.03,1.35,4.46.2,1.81.78,3.43,1.2,4.55,1.25,3.06,3.56,5.17,6.9,6.29,1.17,3.34,3.04,7.48,4.76,11.14-1.07,1.05-2.14,2.15-3.18,3.19-.13-.31-.24-.71-.36-1.09l-.08-.12-.04-.15-.07-.09-.08-.15c-1.81-4.1-4.68-8.98-10.49-10.6-5.84-1.62-10.81,1.1-14.92,3.93-6.45,4.42-7.05,10.75-7.33,13.71-.06.62-.14,1.32-.21,1.61-.07.05-.19.21-.48.39l-5.15,3.87-5.2,3.85,3,2.18c-8.27,2.6-15.33,7.79-16.16,8.37l-.27.22-.28.22-.26.22-.25.26c-4.84,4.92-5.41,12.86-5.68,22.69,0,.19,0,.36,0,.56-.85.38-1.18.79-2.11,1.77-2.81,3.05-3.6,7.08-3.12,10.98h-16.54s-3.63,14.51-5.59,22.42l-5.4-22.42h-24.91s-3.61,14.75-5.59,22.77l-5.62-22.77H0l27.31,93.57h25.32s3.45-13.76,5-20.04l4.94,20.04h18.51c-2.02,3.24-2.33,6.52-.87,9.64,1.62,3.51,4.71,5.37,9.11,5.59l.3.04c7.9.47,14.87-6.75,18.34-11.07l.27-.34.28-.42.2-.36.24-.38c.7-1.37,3.1-5.41,5.44-7.66,5.69-5.47,11.57-12.69,17.48-21.35,1.44-.53,3.13-.96,5.09-1.33,19.99-3.99,30.48-11.53,35.67-16.94v44.58h32.68v-13.05l9.29,13.05h46.97c10.52,0,18.83-2.07,24.66-6.19,1.18-.79,2.37-1.76,3.59-2.84v9.04h56.7v-31.79h-24.05Z"/><path class="cls-1" d="m335.87,183.03h-18.13v-61.75h-23.25v52.65c-.79-5.13-3.11-10.68-8.72-14.8,3.09-3.55,4.68-8.07,4.68-13.42,0-6.28-3.11-13.18-7.94-17.47-7.82-6.96-17.57-6.96-26.22-6.96h-12.29.02-26.99l-1.43,1.89-15,20.84v-22.72h-23.26v84.11h23.26v-23.04l14.98,21.08,1.44,1.95h26.8,0,17.71c9.55,0,16.91-1.79,21.96-5.3,4.49-3.17,9.65-8.64,10.98-17.26v22.56h46.08v-22.36h-4.71Zm-99.01,11.31l-23.45-31.58,23.45-30.59v62.17h0Zm23.25-50.71h1.03c6.07,0,6.07,2.32,6.07,3.38,0,1.41,0,3.37-7.09,3.37v-6.74h0Zm2.27,39.41h-2.27v-10.29h2.58c4.04,0,8.89.91,8.89,5.22,0,1.51,0,5.07-9.21,5.07"/><path class="cls-1" d="m156.12,109.3c.03-10.6,5.87-16.54,7.74-18.21,2.59-2.2,3.26-5.08,3.7-6.98.09-.35.19-.8.26-.98.31-.54,1.53-1.68,2.54-2.39l.05-.03.04-.06c15.69-12.32,22.5-23.54,22.8-24.02l.83-1.4-.21-1.66c-.17-1.1-1.31-6.85-9.89-18.94,5.92-3.15,9.45-9.87,8.18-16.82-.76-4.18-3.11-7.83-6.59-10.26-3.49-2.42-7.71-3.31-11.88-2.6-4.22.79-7.82,3.12-10.27,6.6-2.4,3.48-3.31,7.67-2.56,11.88.26,1.44.7,2.84,1.35,4.15.04,1.38.52,2.78.96,3.97,1.23,3.06,4.06,3.63,5.3,3.94.25.03.57.12.71.13.05.08.29.38.56,1.24,1.36,4.34,4.5,10.9,6.48,14.92-4.35,3.86-9.29,9.47-11.63,12.18-.4.07-.81.15-1.23.21.74-3.01.3-6.56-.87-9.65l-.07-.16-.04-.11c-1.52-3.34-3.6-6.91-7.49-8-3.98-1.13-7.63.92-11.01,3.23-4.64,3.22-5.03,7.48-5.31,10.31-.25,2.48-.39,3.7-2.55,5.37l-5.19,3.86,3.2,2.25c-1.57.9-3.24,2.16-5.04,3.98h-.04c-8.34,2.13-16.09,7.92-16.43,8.14l-.27.25-.27.21c-3.62,3.67-4.09,10.71-4.31,19.52-.02,1.12-.05,2.41-.12,3.34-.53.32-1.18.7-1.73.97l-.87.34-.64.7c-3.23,3.5-1.95,9.32-.26,12.56h-19.17l-.89,3.51-8.48,33.98-8.15-33.9-.87-3.59h-17.51l-.87,3.57-8.4,34.04-8.44-34.04-.87-3.57H6.25l1.77,6.01,21.83,74.7.98,3.41h18.12l.89-3.6,7.81-31.31,7.69,31.31.91,3.6h18.21l1-3.41,21.74-74.7.64-2.27c1.23.45,2.33.44,2.93.32,1.92-.35,4.41-1.72,5.14-6.56.09-.55.69-1.13.85-1.25h-.09c4.86-3.17,6.38-13.98,6.78-22.14,4.82-1.08,8.81-2.51,11.76-3.87.99,5.91.81,12.82-3.48,15.51-10.51,6.7-11.31,15.98-11.25,19.12-3.04,11.89-.99,26-.04,31.25-2.01,2.81-6.23,8.85-10.21,14.11-2.64,3.55-3.77,7.38-4.9,11.08-1.13,3.79-2.09,7.14-4.64,9.87-.03.04-.07.04-.09.09-.1.02-.25.02-.36.02-3.58.36-6.43,1.87-8.85,8.15-2.64,6.86-4.79,9.74-5.79,11.12-.78,1.04-2.37,3.18-1.13,5.92,1.29,2.66,3.96,2.84,5.15,2.89h.26c6.04.36,12.07-6.33,14.36-9.26l.3-.35.21-.39c.02-.06,2.95-5.58,6.37-8.91,5.74-5.5,11.7-12.82,17.71-21.8,1.92-.86,4.35-1.55,7.21-2.11,28.41-5.62,36.03-18.74,36.78-20.24l.71-1.34-.22-1.49c-.18-1.25-4.3-30.1-17.21-45.46"/><polyline class="cls-3" points="88.53 125.94 75.49 178.13 75.28 178.13 62.79 125.94 52.64 125.94 39.84 178.13 39.63 178.13 26.71 125.94 12.57 125.94 34.38 200.67 45.27 200.67 57.59 151.31 57.82 151.31 69.95 200.67 80.94 200.67 102.67 125.94 88.53 125.94"/><polyline class="cls-3" points="219.46 125.94 196.12 158.26 195.9 158.26 195.9 125.94 182.07 125.94 182.07 200.67 195.9 200.67 195.9 167.88 196.12 167.88 219.46 200.67 235.71 200.67 207.52 162.71 235.71 125.94 219.46 125.94"/><path class="cls-3" d="m277.29,159.94c2.38-1.28,8.45-4.84,8.45-14.22,0-5.14-2.63-10.64-6.37-13.99-6.45-5.72-14.75-5.72-23.08-5.72h-14.72v74.66h19.98c4.84,0,13.61-.53,19.27-4.44,4.54-3.23,9.27-8.82,9.27-17.75,0-12.58-7.84-16.72-12.81-18.54h0Zm-21.9-21.04h5.74c7.94,0,10.76,3.7,10.76,8.11,0,8.09-8.69,8.09-11.92,8.09h-4.58v-16.2h0Zm6.98,48.81h-6.98v-19.64h7.29c12.1,0,13.59,6.9,13.59,9.9,0,9.74-11.19,9.74-13.9,9.74"/><path class="cls-2" d="m160.76,87.56c2.25-1.96,1.99-5.12,2.96-6.79,1.03-1.79,3.84-3.8,3.84-3.8,15.14-11.93,21.62-22.79,21.62-22.79,0,0-.85-6.54-13.17-22.38.83.03,1.65,0,2.47-.18,6.08-1.06,10.14-6.88,9.01-12.96-1.09-6.11-6.9-10.19-12.99-9.08-6.09,1.12-10.12,6.97-9,13,.25,1.54.82,2.88,1.59,4.09-.31.46-.24,1.38.45,3.16.79,1.96,4.79-.47,6.7,5.6,1.89,6.11,7.87,17.59,7.87,17.59-5.45,3.77-15.15,15.46-15.15,15.46-3.38-.06-9.69,2.54-9.69,2.54-2.38-1.37-1.2-4.66-1.2-4.66,5.12-2.02,1.99-10.2,1.99-10.2-2.95-6.57-5.49-6.97-11.51-2.8-5.99,4.12-.36,10.05-7.71,15.54,4.29,3.05,9.47-.75,9.47-.75,0,0,1.04-1.28-.25,4.45-6.47,1.61-9.74-.03-15.8,5.98-.25.22-.69.8-.66.93-.19,0-.46.04-.84.1-7.75,1.82-15.44,7.54-15.44,7.54-3.99,4.05-2.33,20.77-3.5,22.14-1.15,1.31-4.09,2.65-4.09,2.65-2.58,2.74,2.35,13.72,3.53,6.15.42-2.85,2.76-4.42,2.76-4.42,4.55-3.02,4.85-22.27,4.85-22.27,12.03-1.81,19.5-6.85,19.5-6.85.74,2.32,6.06,20.03-4.13,26.45-10.19,6.45-9.02,15.61-9.02,15.61-3.82,13.82.21,31.81.21,31.81,0,0-5.95,8.58-11.41,15.9-4.76,6.32-3.84,14.74-9.9,21.32-3.29,3.57-5.29-1.24-8.35,6.73-5.4,14.02-9.25,13.35-5.6,13.6,4.23.22,10.41-7.57,10.41-7.57,0,0,3.25-6.22,7.27-10.07,6.78-6.52,13-14.92,17.78-22.19,2.3-1.11,5.37-2.15,9.52-2.93,26.99-5.35,33.52-17.83,33.52-17.83,0,0-4.19-30.26-17.26-44.25-.66-13.22,6.44-21.04,9.34-23.58h0Zm-6.01,66.97c-11.96,2.66-19.08,11.94-22.23,13.75-.99.58-1.91,1.1-2.83,1.49,4.17-4.71,5.98-7.6,5.98-7.6,0,0,5.9-4.66,7.32-29.75,5.05,12.97,11.75,22.11,11.75,22.11"/><polyline class="cls-3" points="313.06 187.7 313.06 125.94 299.2 125.94 299.2 200.67 335.87 200.67 335.87 187.7 313.06 187.7"/></g></svg>