<?xml version="1.0" encoding="UTF-8"?>
<svg id="_레이어_1" data-name="레이어 1" xmlns="http://www.w3.org/2000/svg" viewBox="0 0 40 40">
  <defs>
    <style>
      .cls-1 {
        opacity: .75;
      }

      .cls-1, .cls-2 {
        fill: none;
      }

      .cls-1, .cls-3 {
        stroke-width: 0px;
      }

      .cls-2 {
        stroke: #fff;
        stroke-linecap: round;
        stroke-linejoin: round;
        stroke-width: 2.8px;
      }

      .cls-3 {
        fill: #fff;
      }
    </style>
  </defs>
  <rect class="cls-1" width="40" height="40"/>
  <path class="cls-2" d="m30.35,9.18c5.79,5.79,5.79,15.18,0,20.98-4.14,4.14-13.54,7.44-20.98,0-5.79-5.79-5.79-15.18,0-20.98,5.79-5.79,15.18-5.79,20.98,0Zm4.71,26.07l-4.28-4.73"/>
  <path class="cls-3" d="m9.19,26.48c.31.21.85.29,1.16.09.25-.17.37-.61.36-1.45-.01-.08-.04-.32-.04-.42,0-.12,0-.15.08-.2l.26-.22.07-.11,6.07-5.18c.06.19.16.49.34.85,0,.03.22.62.35.93l.43.99s.31.96.35,1.1c.03.09.2,1.08.3,1.7l.24.98-.08.08.05.88h.02c-.03.05-.2.27-.28.58-.08.27-.24.83-.05,1.68,0,0,.04.21.17.4,0,.07,0,.2.05.33,0,.06.01.15.09.22,0,.03,0,.06,0,.06-.05.05-.1.1.05.6,0,.16.06,1.22.22,1.73.13.38.26.87.31,1.08h5.95c.02-.12.04-.24.04-.36,0,0,.09-.64.22-.95,0-.03.07-.27.09-.43.11-.08.27-.27.27-.74v-.05c-.01-.07-.03-.24.03-.46.03-.04.06-.12.06-.23v-.04s-.03-.09.03-.2c.08-.15.07-.21.07-.33,0-.04,0-.09,0-.17,0-.25.09-1.2.09-1.23,0-.03,0-.8-.05-1.27-.03-.08-.03-.18,0-.19.09-.06.12-.15.1-.24-.02-.08-.09-.15-.17-.17.05-.27-.1-.75-.26-1.02v-.1c-.13-.26-.26-.6-.26-.69,0-.15-.07-.29-.19-.35,0,0-.01,0-.02,0,.03-.13.04-.29-.05-.42.01-.08.02-.23,0-.4v-.22c0-.07-.03-.14-.06-.23-.02-.06-.05-.12-.07-.2-.04-.14-.04-.2.05-.57,0-.06.04-.57-.04-.86,0-.12.04-.57,0-1-.06-.65,0-1.17.11-1.32.09.01.21-.03.36-.13.35-.23.44-.24.45-.24.01,0,.03,0,.04,0,.05,0,.12.02.2-.03.08.02.21.04.31-.01.19.02.86.04,2-.41,0,0,1.14-.57,1.23-.61.25-.12.85-.45,1.06-.79.16-.26.33-.63-.03-.92h0c-.09-.07-.34-.29-.44-.52-.16-.37-1.21-1.34-1.93-1.72-.34-.24-.9-.64-.95-.69-.04-.04-.38-.28-.6-.43-.06-.11-.19-.25-.42-.26-.06-.04-.12-.08-.12-.08,0-.13-.11-.25-.23-.34.01,0,.03-.02.04-.03l.04-.03v-.04s.08-.22-.15-.45c-.1-.1-.19-.14-.29-.13-.09,0-.14.06-.17.09l-.25.21c-.12-.1-.26-.14-.39-.06l-.15.11s-.02.02-.03.04c-.08,0-.17.04-.25.12-.04.03-.07.06-.1.09-.06,0-.15,0-.25.08-.01,0-.1.07-.15.17-.05,0-.12,0-.17.02-.06.03-.1.08-.13.15l-.02.07c-.18,0-.4-.01-.46-.04-.02,0-.06-.02-.11-.04-.24-.09-.68-.27-1.03-.27-.24,0-.62,0-.9.03,0,0,0,0,0-.01.02-.08,0-.18-.09-.33.02-.09,0-.21-.1-.31,0-.09-.06-.24-.25-.38-.04-.06-.1-.15-.18-.19-.02-.04-.06-.08-.12-.1-.01,0-.03,0-.04-.01-.06-.08-.16-.2-.3-.28-.09-.08-.52-.45-.89-.46-.07-.02-.32-.08-.57,0-.14,0-.29.02-.39.09-.09,0-.16.04-.2.09-.12.01-.33.05-.42.21-.12.06-.36.2-.42.36-.01.03-.02.06-.02.09-.08.1-.23.32-.16.55,0,.14.08.36.3.45,0,0,.05.03.05.14v.57s0,.15.05.31c.03.1.09.22.12.29-.01.1-.02.31.07.45.05.07.12.35.15.52,0,.03.04.17.07.27l-.03.06c-.17.04-.59.18-.92.59-.04.03-.93.84-.83,1.81,0,.01,0,.3.18.7.1.35.21.76.21.84,0,.11.05.45.08.6l-6.25,5.3h-.09l-.41.36s-.06.07-.24.07h-.08c-.34,0-1.14-.03-1.37.71-.21.67.19,1.22.62,1.51Zm13.87-12.03c.17-.07.42-.21.53-.28.22.07.39-.05.47-.17.34-.13.5-.4.55-.6.08,0,.16-.03.22-.05.01,0,.03,0,.04.01.08.01.15-.03.18-.06.03-.01.07-.02.1-.02.03.02.07.03.11.03h0c.1,0,.19-.06.22-.1.08-.04.15-.03.18-.03.07.04.14.06.21.04.06.04.13.05.17.05l.17.07c.07.09.16.17.27.17.18.17.67.63.79.7.12.08.53.5.61.68.04.1.12.24.19.36-.36-.04-.74.03-.88.06-.14-.05-.29.02-.38.07-.06-.02-.11-.03-.15-.03,0,0,0,0,0,0-.1-.1-.22-.11-.31-.09-.06-.02-.14-.03-.21-.03-.77-.23-.8-.21-.81-.22-.04,0-.16-.02-.24-.03-.07-.07-.14-.1-.21-.08-.04,0-.08.03-.1.06l-.74-.16c-.59-.11-.72.25-.73.28,0,0-.04.16-.2.26-.03.02-.07.02-.1.03-.04-.06-.1-.1-.16-.12l-.31-.22c-.13-.07-.27-.06-.36-.04l-.05-.07.26-.2c.09-.01.17-.05.19-.05l.23-.22c.14.05.24,0,.24,0Zm-1.18-.49h.04s.06-.04.1-.04c.1-.03.2-.05.3-.06.1,0,.22,0,.32-.02l-.42.36-.09.12-.22.16c-.06-.1-.13-.25-.2-.4,0-.03.04-.09.17-.13Z"/>
  <path class="cls-3" d="m36.41,33.12l-3.67-3.99c-.07-.07-.14-.13-.22-.19l-3.47,3.16c.06.09.12.17.19.25l3.67,3.99c.47.51,1.11.77,1.75.77.57,0,1.15-.21,1.61-.63.97-.89,1.03-2.39.14-3.36Z"/>
</svg>