<?xml version="1.0" encoding="UTF-8"?>
<svg id="_레이어_1" data-name="레이어 1" xmlns="http://www.w3.org/2000/svg" viewBox="0 0 40 40">
  <defs>
    <style>
      .cls-1 {
        fill: #1e1450;
      }

      .cls-1, .cls-2 {
        stroke-width: 0px;
      }

      .cls-2 {
        fill: #e60012;
      }
    </style>
  </defs>
  <g>
    <g>
      <polygon class="cls-2" points="26.11 19.39 22.39 19.39 22.39 15.67 17.61 15.67 17.61 19.39 13.89 19.39 13.89 24.17 17.61 24.17 17.61 27.89 22.39 27.89 22.39 24.17 26.11 24.17 26.11 19.39"/>
      <path class="cls-1" d="m31.43,34.14H8.57c-2.79,0-5.07-2.27-5.07-5.07v-14.58c0-2.79,2.27-5.07,5.07-5.07h22.86c2.79,0,5.07,2.27,5.07,5.07v14.58c0,2.79-2.27,5.07-5.07,5.07ZM8.57,10.93c-1.97,0-3.57,1.6-3.57,3.57v14.58c0,1.97,1.6,3.57,3.57,3.57h22.86c1.97,0,3.57-1.6,3.57-3.57v-14.58c0-1.97-1.6-3.57-3.57-3.57H8.57Z"/>
    </g>
    <g>
      <path class="cls-1" d="m9.79,33.45c-.41,0-.75-.34-.75-.75V10.87c0-.41.34-.75.75-.75s.75.34.75.75v21.82c0,.41-.34.75-.75.75Z"/>
      <path class="cls-1" d="m30.21,33.45c-.41,0-.75-.34-.75-.75V10.87c0-.41.34-.75.75-.75s.75.34.75.75v21.82c0,.41-.34.75-.75.75Z"/>
    </g>
  </g>
  <path class="cls-1" d="m24.71,10.74c-.41,0-.75-.34-.75-.75v-2.63h-7.91v2.63c0,.41-.34.75-.75.75s-.75-.34-.75-.75v-3.38c0-.41.34-.75.75-.75h9.41c.41,0,.75.34.75.75v3.38c0,.41-.34.75-.75.75Z"/>
</svg>