<?xml version="1.0" encoding="UTF-8"?>
<svg id="_레이어_1" data-name="레이어 1" xmlns="http://www.w3.org/2000/svg" viewBox="0 0 40 40">
  <defs>
    <style>
      .cls-1 {
        fill: #1e1450;
      }

      .cls-1, .cls-2 {
        stroke-width: 0px;
      }

      .cls-2 {
        fill: #fff;
      }
    </style>
  </defs>
  <rect class="cls-1" x="14.6" y="3.65" width=".97" height="21.11"/>
  <path class="cls-1" d="m16.16,22.68v1.78c.51.1.87.32.87.56,0,.35-.7.63-1.57.63s-1.57-.28-1.57-.63c0-.03.01-.06.02-.08v-2.04c-1.76.24-3.56.63-5.37,1.22-4.42,1.44-5.55,1.92-5.55,1.92,1,8.96,10.37,1.49,9.53,10.61,0,0,2.88-2.99,6.76-5.49,7.2-4.66,17.71-3.63,17.71-3.63,0,0-9.32-5.57-20.84-4.85Z"/>
  <path class="cls-2" d="m23.35,25.41c0,1.01-.82,1.84-1.84,1.84s-1.84-.82-1.84-1.84.82-1.84,1.84-1.84,1.84.82,1.84,1.84Z"/>
  <path class="cls-1" d="m15.59,11.55V3.79c3.81,2.84,7.62,1.03,11.43,3.88-3.81-.26-7.62,4.14-11.43,3.88Z"/>
</svg>