<?xml version="1.0" encoding="UTF-8"?>
<svg id="_레이어_1" data-name="레이어 1" xmlns="http://www.w3.org/2000/svg" viewBox="0 0 40 40">
  <defs>
    <style>
      .cls-1 {
        fill: #1e1450;
        stroke-width: 0px;
      }
    </style>
  </defs>
  <path class="cls-1" d="m21.48,21.72v10.09h3.94v-10.09c0-.27-.22-.49-.49-.49h-2.95c-.27,0-.49.22-.49.49Z"/>
  <path class="cls-1" d="m11.14,17.05c.54,0,.98-.44.98-.98s-.44-.98-.98-.98-.98.44-.98.98.44.98.98.98Z"/>
  <path class="cls-1" d="m27.63,16.06v15.75h3.94v-15.75c0-.27-.22-.49-.49-.49h-2.95c-.27,0-.49.22-.49.49Z"/>
  <path class="cls-1" d="m22.46,16.06c0,.54.44.98.98.98s.98-.44.98-.98-.44-.98-.98-.98-.98.44-.98.98Z"/>
  <path class="cls-1" d="m17.29,11.14c.54,0,.98-.44.98-.98s-.44-.98-.98-.98-.98.44-.98.98.44.98.98.98Z"/>
  <path class="cls-1" d="m29.6,10.9c.54,0,.98-.44.98-.98s-.44-.98-.98-.98-.98.44-.98.98.44.98.98.98Z"/>
  <path class="cls-1" d="m9.17,21.72v10.09h3.94v-10.09c0-.27-.22-.49-.49-.49h-2.95c-.27,0-.49.22-.49.49Z"/>
  <path class="cls-1" d="m15.33,16.06v15.75h3.94v-15.75c0-.27-.22-.49-.49-.49h-2.95c-.27,0-.49.22-.49.49Z"/>
  <path class="cls-1" d="m25.14,15.07l3.46-3.46c-.29-.17-.53-.41-.7-.7l-3.46,3.46c.29.17.53.41.7.7Z"/>
  <path class="cls-1" d="m18.44,11.76l3.31,3.31c.17-.29.41-.53.7-.7l-3.37-3.37c-.14.3-.36.56-.63.76Z"/>
  <path class="cls-1" d="m12.84,15.07l3.31-3.31c-.27-.19-.49-.46-.63-.76l-3.37,3.37c.29.17.53.41.7.7Z"/>
  <path class="cls-1" d="m35.36,32.94l-1.6-1.6c-.19-.19-.5-.19-.7,0-.19.19-.19.5,0,.7l.76.76H7.21V6.18l.76.76c.1.1.22.14.35.14s.25-.05.35-.14c.19-.19.19-.5,0-.7l-1.6-1.6c-.19-.19-.5-.19-.7,0l-1.6,1.6c-.19.19-.19.5,0,.7.19.19.5.19.7,0l.76-.76v26.61h-1.23c-.27,0-.49.22-.49.49s.22.49.49.49h1.23v1.23c0,.27.22.49.49.49s.49-.22.49-.49v-1.23h26.61l-.76.76c-.19.19-.19.5,0,.7.1.1.22.14.35.14s.25-.05.35-.14l1.6-1.6c.19-.19.19-.5,0-.7Z"/>
</svg>