<?xml version="1.0" encoding="UTF-8"?>
<svg id="_레이어_1" data-name="레이어 1" xmlns="http://www.w3.org/2000/svg" viewBox="0 0 40 40">
  <defs>
    <style>
      .cls-1 {
        fill: #1e1450;
        stroke-width: .25px;
      }

      .cls-1, .cls-2 {
        stroke: #1e1450;
        stroke-miterlimit: 10;
      }

      .cls-2 {
        fill: none;
        stroke-width: 2px;
      }
    </style>
  </defs>
  <g>
    <g>
      <rect class="cls-1" x="9.74" y="13.8" width=".34" height="14.52"/>
      <rect class="cls-1" x="6.46" y="13.8" width=".34" height="14.52"/>
      <g>
        <g>
          <polygon class="cls-1" points="9.79 21.19 6.51 17.56 6.75 17.29 10.03 20.92 9.79 21.19"/>
          <polygon class="cls-1" points="6.75 21.19 6.51 20.92 9.79 17.29 10.03 17.56 6.75 21.19"/>
        </g>
        <g>
          <polygon class="cls-1" points="9.79 24.82 6.51 21.19 6.75 20.92 10.03 24.55 9.79 24.82"/>
          <polygon class="cls-1" points="6.75 24.82 6.51 24.55 9.79 20.92 10.03 21.19 6.75 24.82"/>
        </g>
        <g>
          <polygon class="cls-1" points="9.79 28.45 6.51 24.82 6.75 24.55 10.03 28.18 9.79 28.45"/>
          <polygon class="cls-1" points="6.75 28.45 6.51 28.18 9.79 24.55 10.03 24.82 6.75 28.45"/>
        </g>
        <g>
          <polygon class="cls-1" points="9.79 17.56 6.51 13.93 6.75 13.66 10.03 17.29 9.79 17.56"/>
          <polygon class="cls-1" points="6.75 17.56 6.51 17.29 9.79 13.66 10.03 13.93 6.75 17.56"/>
        </g>
      </g>
      <rect class="cls-1" x="33.2" y="13.8" width=".34" height="14.52"/>
      <rect class="cls-1" x="29.92" y="13.8" width=".34" height="14.52"/>
      <g>
        <g>
          <polygon class="cls-1" points="33.25 21.19 29.97 17.56 30.21 17.29 33.49 20.92 33.25 21.19"/>
          <polygon class="cls-1" points="30.21 21.19 29.97 20.92 33.25 17.29 33.49 17.56 30.21 21.19"/>
        </g>
        <g>
          <polygon class="cls-1" points="33.25 24.82 29.97 21.19 30.21 20.92 33.49 24.55 33.25 24.82"/>
          <polygon class="cls-1" points="30.21 24.82 29.97 24.55 33.25 20.92 33.49 21.19 30.21 24.82"/>
        </g>
        <g>
          <polygon class="cls-1" points="33.25 28.45 29.97 24.82 30.21 24.55 33.49 28.18 33.25 28.45"/>
          <polygon class="cls-1" points="30.21 28.45 29.97 28.18 33.25 24.55 33.49 24.82 30.21 28.45"/>
        </g>
        <g>
          <polygon class="cls-1" points="33.25 17.56 29.97 13.93 30.21 13.66 33.49 17.29 33.25 17.56"/>
          <polygon class="cls-1" points="30.21 17.56 29.97 17.29 33.25 13.66 33.49 13.93 30.21 17.56"/>
        </g>
      </g>
    </g>
    <rect class="cls-1" x="6" y="24.65" width="28" height="4.3"/>
    <rect class="cls-1" x="6" y="10.73" width="28" height="3.09"/>
    <g>
      <rect class="cls-1" x="14.61" y="27.45" width="10.77" height="2.6"/>
      <path class="cls-1" d="m25.48,30.21h-10.96v-2.92h10.96v2.92Zm-10.77-.33h10.59v-2.27h-10.59v2.27Z"/>
    </g>
    <path class="cls-1" d="m33.37,13.45H6.63v-3.25h0c8.14-4.7,18.6-4.7,26.74,0h0v3.25Z"/>
    <g>
      <g>
        <rect class="cls-1" x="19.81" y="14.08" width=".38" height="1.19"/>
        <g>
          <rect class="cls-1" x="19.34" y="16.07" width="1.33" height="1.01"/>
          <path class="cls-1" d="m20.66,16.07c0,.37-.3.66-.66.67-.37,0-.66-.3-.67-.66,0-.37.3-.66.66-.67.37,0,.66.3.67.66Z"/>
        </g>
      </g>
      <g>
        <g>
          <rect class="cls-1" x="13.22" y="14.08" width=".38" height="1.19"/>
          <g>
            <rect class="cls-1" x="12.98" y="15.99" width="1.33" height="1.01" transform="translate(-6.71 9.85) rotate(-32.32)"/>
            <path class="cls-1" d="m13.94,15.72c.2.31.1.72-.21.92s-.72.1-.92-.21c-.2-.31-.1-.72.21-.92.31-.2.72-.1.92.21Z"/>
          </g>
        </g>
        <g>
          <rect class="cls-1" x="25.92" y="14.11" width=".38" height="1.19"/>
          <g>
            <rect class="cls-1" x="25.2" y="16.01" width="1.33" height="1.01" transform="translate(38.9 44.31) rotate(-147.68)"/>
            <path class="cls-1" d="m25.57,15.74c-.2.31-.1.72.21.92.31.2.72.1.92-.21.2-.31.1-.72-.21-.92-.31-.2-.72-.1-.92.21Z"/>
          </g>
        </g>
      </g>
    </g>
  </g>
  <line class="cls-2" x1="10.87" y1="28.45" x2="10.87" y2="33.32"/>
  <line class="cls-2" x1="29.13" y1="28.45" x2="29.13" y2="33.32"/>
</svg>