<?xml version="1.0" encoding="UTF-8"?>
<svg id="_레이어_1" data-name="레이어 1" xmlns="http://www.w3.org/2000/svg" viewBox="0 0 40 40">
  <defs>
    <style>
      .cls-1 {
        fill: none;
        stroke: #1e1450;
        stroke-miterlimit: 10;
        stroke-width: 1.4px;
      }

      .cls-2 {
        fill: #1e1450;
        stroke-width: 0px;
      }
    </style>
  </defs>
  <g>
    <path class="cls-2" d="m13.42,27.26h-5.96c-1.36,0-2.46-1.1-2.46-2.46v-8.89c0-1.36,1.1-2.46,2.46-2.46h.4c1.36,0,2.46,1.1,2.46,2.46v4.73c0,.6.49,1.1,1.1,1.1h2.01c1.36,0,2.46,1.1,2.46,2.46v.62c0,1.36-1.1,2.46-2.46,2.46Zm-5.96-12.45c-.6,0-1.1.49-1.1,1.1v8.89c0,.6.49,1.1,1.1,1.1h5.96c.6,0,1.1-.49,1.1-1.1v-.62c0-.6-.49-1.1-1.1-1.1h-2.01c-1.36,0-2.46-1.1-2.46-2.46v-4.73c0-.6-.49-1.1-1.1-1.1h-.4Z"/>
    <g>
      <path class="cls-2" d="m6.47,34.6s-.07,0-.1,0c-.37-.06-.63-.4-.57-.78l1.12-7.34c.06-.37.4-.63.78-.57.37.06.63.4.57.78l-1.12,7.34c-.05.34-.34.58-.67.58Z"/>
      <path class="cls-2" d="m14.4,34.6c-.33,0-.62-.24-.67-.58l-1.11-7.34c-.06-.37.2-.72.57-.78.37-.06.72.2.78.57l1.11,7.34c.06.37-.2.72-.57.78-.03,0-.07,0-.1,0Z"/>
    </g>
    <path class="cls-2" d="m32.54,27.26h-5.96c-1.36,0-2.46-1.1-2.46-2.46v-.62c0-1.36,1.1-2.46,2.46-2.46h2.01c.6,0,1.1-.49,1.1-1.1v-4.73c0-1.36,1.1-2.46,2.46-2.46h.4c1.36,0,2.46,1.1,2.46,2.46v8.89c0,1.36-1.1,2.46-2.46,2.46Zm-5.96-4.17c-.6,0-1.1.49-1.1,1.1v.62c0,.6.49,1.1,1.1,1.1h5.96c.6,0,1.1-.49,1.1-1.1v-8.89c0-.6-.49-1.1-1.1-1.1h-.4c-.6,0-1.1.49-1.1,1.1v4.73c0,1.36-1.1,2.46-2.46,2.46h-2.01Z"/>
    <g>
      <path class="cls-2" d="m33.53,34.6c-.33,0-.62-.24-.67-.58l-1.12-7.34c-.06-.37.2-.72.57-.78.37-.06.72.2.78.57l1.12,7.34c.06.37-.2.72-.57.78-.03,0-.07,0-.1,0Z"/>
      <path class="cls-2" d="m25.6,34.6s-.07,0-.1,0c-.37-.06-.63-.4-.57-.78l1.11-7.34c.06-.37.4-.63.78-.57.37.06.63.4.57.78l-1.11,7.34c-.05.34-.34.58-.67.58Z"/>
    </g>
    <path class="cls-2" d="m26.71,20.48h-13.61c-.38,0-.68-.3-.68-.68s.3-.68.68-.68h13.61c.38,0,.68.3.68.68s-.3.68-.68.68Z"/>
    <path class="cls-2" d="m22.45,33.94h-5.09c-.38,0-.68-.3-.68-.68s.3-.68.68-.68h5.09c.38,0,.68.3.68.68s-.3.68-.68.68Z"/>
    <path class="cls-2" d="m20.02,33.77c-.38,0-.68-.3-.68-.68v-10.91c0-.38.3-.68.68-.68s.68.3.68.68v10.91c0,.38-.3.68-.68.68Z"/>
  </g>
  <line class="cls-1" x1="20.03" y1="19.74" x2="20.03" y2="8.4"/>
  <polygon class="cls-2" points="9.03 10.4 20.03 5.4 31.03 10.4 9.03 10.4"/>
</svg>