<svg width="16" height="15" viewBox="0 0 16 15" xmlns="http://www.w3.org/2000/svg">
    <path d="M6.631 12.865c.71-.429 1.866-.426 2.571 0l2.322 1.4c.71.43 1.131.116.944-.686l-.616-2.64c-.188-.808.172-1.907.795-2.447l2.05-1.776c.628-.544.461-1.042-.36-1.111l-2.7-.23c-.826-.07-1.76-.749-2.08-1.505L8.5 1.379c-.323-.762-.848-.756-1.169 0l-1.055 2.49c-.323.762-1.26 1.437-2.08 1.507l-2.701.229c-.826.07-.983.57-.36 1.11l2.05 1.777c.628.544.982 1.645.795 2.446l-.616 2.641c-.188.808.24 1.112.945.687l2.321-1.401z" fill="#C6C6C6" fill-rule="evenodd"/>
</svg>
