<?xml version="1.0" encoding="utf-8"?>
<!-- Generator: Adobe Illustrator 27.3.0, SVG Export Plug-In . SVG Version: 6.00 Build 0)  -->
<svg version="1.1" id="_xF91C_迹_x5F_1" xmlns="http://www.w3.org/2000/svg" xmlns:xlink="http://www.w3.org/1999/xlink" x="0px"
	 y="0px" viewBox="0 0 3000 2000" style="enable-background:new 0 0 3000 2000;" xml:space="preserve">
<style type="text/css">
	.樂賊妬執銳音裝{fill:url(#SVGID_1_);stroke:#FFFFFF;stroke-width:0.25;stroke-miterlimit:1;}
	.st0{opacity:0.56;fill:#141413;}
	.st1{opacity:0.56;fill:#FFFFFF;}
</style>
<linearGradient id="SVGID_1_" gradientUnits="userSpaceOnUse" x1="0" y1="2000" x2="0.7071" y2="1999.2928">
	<stop  offset="0" style="stop-color:#1EAB4B"/>
	<stop  offset="0.9831" style="stop-color:#19361A"/>
</linearGradient>
<g>
	<rect class="st0" width="100" height="100"/>
	<rect x="100" class="st1" width="100" height="100"/>
	<rect x="200" class="st0" width="100" height="100"/>
	<rect x="300" class="st1" width="100" height="100"/>
	<rect x="400" class="st0" width="100" height="100"/>
	<rect x="500" class="st1" width="100" height="100"/>
	<rect x="600" class="st0" width="100" height="100"/>
	<rect x="700" class="st1" width="100" height="100"/>
	<rect x="800" class="st0" width="100" height="100"/>
	<rect x="900" class="st1" width="100" height="100"/>
	<rect x="1000" class="st0" width="100" height="100"/>
	<rect x="1100" class="st1" width="100" height="100"/>
	<rect x="1200" class="st0" width="100" height="100"/>
	<rect x="1300" class="st1" width="100" height="100"/>
	<rect x="1400" class="st0" width="100" height="100"/>
	<rect x="1500" class="st1" width="100" height="100"/>
	<rect x="1600" class="st0" width="100" height="100"/>
	<rect x="1700" class="st1" width="100" height="100"/>
	<rect x="1800" class="st0" width="100" height="100"/>
	<rect x="1900" class="st1" width="100" height="100"/>
	<rect x="2000" class="st0" width="100" height="100"/>
	<rect x="2100" class="st1" width="100" height="100"/>
	<rect x="2200" class="st0" width="100" height="100"/>
	<rect x="2300" class="st1" width="100" height="100"/>
	<rect x="2400" class="st0" width="100" height="100"/>
	<rect x="2500" class="st1" width="100" height="100"/>
	<rect x="2600" class="st0" width="100" height="100"/>
	<rect x="2700" class="st1" width="100" height="100"/>
	<rect x="2800" class="st0" width="100" height="100"/>
	<rect x="2900" class="st1" width="100" height="100"/>
	<rect y="100" class="st1" width="100" height="100"/>
	<rect x="100" y="100" class="st0" width="100" height="100"/>
	<rect x="200" y="100" class="st1" width="100" height="100"/>
	<rect x="300" y="100" class="st0" width="100" height="100"/>
	<rect x="400" y="100" class="st1" width="100" height="100"/>
	<rect x="500" y="100" class="st0" width="100" height="100"/>
	<rect x="600" y="100" class="st1" width="100" height="100"/>
	<rect x="700" y="100" class="st0" width="100" height="100"/>
	<rect x="800" y="100" class="st1" width="100" height="100"/>
	<rect x="900" y="100" class="st0" width="100" height="100"/>
	<rect x="1000" y="100" class="st1" width="100" height="100"/>
	<rect x="1100" y="100" class="st0" width="100" height="100"/>
	<rect x="1200" y="100" class="st1" width="100" height="100"/>
	<rect x="1300" y="100" class="st0" width="100" height="100"/>
	<rect x="1400" y="100" class="st1" width="100" height="100"/>
	<rect x="1500" y="100" class="st0" width="100" height="100"/>
	<rect x="1600" y="100" class="st1" width="100" height="100"/>
	<rect x="1700" y="100" class="st0" width="100" height="100"/>
	<rect x="1800" y="100" class="st1" width="100" height="100"/>
	<rect x="1900" y="100" class="st0" width="100" height="100"/>
	<rect x="2000" y="100" class="st1" width="100" height="100"/>
	<rect x="2100" y="100" class="st0" width="100" height="100"/>
	<rect x="2200" y="100" class="st1" width="100" height="100"/>
	<rect x="2300" y="100" class="st0" width="100" height="100"/>
	<rect x="2400" y="100" class="st1" width="100" height="100"/>
	<rect x="2500" y="100" class="st0" width="100" height="100"/>
	<rect x="2600" y="100" class="st1" width="100" height="100"/>
	<rect x="2700" y="100" class="st0" width="100" height="100"/>
	<rect x="2800" y="100" class="st1" width="100" height="100"/>
	<rect x="2900" y="100" class="st0" width="100" height="100"/>
	<rect y="200" class="st0" width="100" height="100"/>
	<rect x="100" y="200" class="st1" width="100" height="100"/>
	<rect x="200" y="200" class="st0" width="100" height="100"/>
	<rect x="300" y="200" class="st1" width="100" height="100"/>
	<rect x="400" y="200" class="st0" width="100" height="100"/>
	<rect x="500" y="200" class="st1" width="100" height="100"/>
	<rect x="600" y="200" class="st0" width="100" height="100"/>
	<rect x="700" y="200" class="st1" width="100" height="100"/>
	<rect x="800" y="200" class="st0" width="100" height="100"/>
	<rect x="900" y="200" class="st1" width="100" height="100"/>
	<rect x="1000" y="200" class="st0" width="100" height="100"/>
	<rect x="1100" y="200" class="st1" width="100" height="100"/>
	<rect x="1200" y="200" class="st0" width="100" height="100"/>
	<rect x="1300" y="200" class="st1" width="100" height="100"/>
	<rect x="1400" y="200" class="st0" width="100" height="100"/>
	<rect x="1500" y="200" class="st1" width="100" height="100"/>
	<rect x="1600" y="200" class="st0" width="100" height="100"/>
	<rect x="1700" y="200" class="st1" width="100" height="100"/>
	<rect x="1800" y="200" class="st0" width="100" height="100"/>
	<rect x="1900" y="200" class="st1" width="100" height="100"/>
	<rect x="2000" y="200" class="st0" width="100" height="100"/>
	<rect x="2100" y="200" class="st1" width="100" height="100"/>
	<rect x="2200" y="200" class="st0" width="100" height="100"/>
	<rect x="2300" y="200" class="st1" width="100" height="100"/>
	<rect x="2400" y="200" class="st0" width="100" height="100"/>
	<rect x="2500" y="200" class="st1" width="100" height="100"/>
	<rect x="2600" y="200" class="st0" width="100" height="100"/>
	<rect x="2700" y="200" class="st1" width="100" height="100"/>
	<rect x="2800" y="200" class="st0" width="100" height="100"/>
	<rect x="2900" y="200" class="st1" width="100" height="100"/>
	<rect y="300" class="st1" width="100" height="100"/>
	<rect x="100" y="300" class="st0" width="100" height="100"/>
	<rect x="200" y="300" class="st1" width="100" height="100"/>
	<rect x="300" y="300" class="st0" width="100" height="100"/>
	<rect x="400" y="300" class="st1" width="100" height="100"/>
	<rect x="500" y="300" class="st0" width="100" height="100"/>
	<rect x="600" y="300" class="st1" width="100" height="100"/>
	<rect x="700" y="300" class="st0" width="100" height="100"/>
	<rect x="800" y="300" class="st1" width="100" height="100"/>
	<rect x="900" y="300" class="st0" width="100" height="100"/>
	<rect x="1000" y="300" class="st1" width="100" height="100"/>
	<rect x="1100" y="300" class="st0" width="100" height="100"/>
	<rect x="1200" y="300" class="st1" width="100" height="100"/>
	<rect x="1300" y="300" class="st0" width="100" height="100"/>
	<rect x="1400" y="300" class="st1" width="100" height="100"/>
	<rect x="1500" y="300" class="st0" width="100" height="100"/>
	<rect x="1600" y="300" class="st1" width="100" height="100"/>
	<rect x="1700" y="300" class="st0" width="100" height="100"/>
	<rect x="1800" y="300" class="st1" width="100" height="100"/>
	<rect x="1900" y="300" class="st0" width="100" height="100"/>
	<rect x="2000" y="300" class="st1" width="100" height="100"/>
	<rect x="2100" y="300" class="st0" width="100" height="100"/>
	<rect x="2200" y="300" class="st1" width="100" height="100"/>
	<rect x="2300" y="300" class="st0" width="100" height="100"/>
	<rect x="2400" y="300" class="st1" width="100" height="100"/>
	<rect x="2500" y="300" class="st0" width="100" height="100"/>
	<rect x="2600" y="300" class="st1" width="100" height="100"/>
	<rect x="2700" y="300" class="st0" width="100" height="100"/>
	<rect x="2800" y="300" class="st1" width="100" height="100"/>
	<rect x="2900" y="300" class="st0" width="100" height="100"/>
	<rect y="400" class="st0" width="100" height="100"/>
	<rect x="100" y="400" class="st1" width="100" height="100"/>
	<rect x="200" y="400" class="st0" width="100" height="100"/>
	<rect x="300" y="400" class="st1" width="100" height="100"/>
	<rect x="400" y="400" class="st0" width="100" height="100"/>
	<rect x="500" y="400" class="st1" width="100" height="100"/>
	<rect x="600" y="400" class="st0" width="100" height="100"/>
	<rect x="700" y="400" class="st1" width="100" height="100"/>
	<rect x="800" y="400" class="st0" width="100" height="100"/>
	<rect x="900" y="400" class="st1" width="100" height="100"/>
	<rect x="1000" y="400" class="st0" width="100" height="100"/>
	<rect x="1100" y="400" class="st1" width="100" height="100"/>
	<rect x="1200" y="400" class="st0" width="100" height="100"/>
	<rect x="1300" y="400" class="st1" width="100" height="100"/>
	<rect x="1400" y="400" class="st0" width="100" height="100"/>
	<rect x="1500" y="400" class="st1" width="100" height="100"/>
	<rect x="1600" y="400" class="st0" width="100" height="100"/>
	<rect x="1700" y="400" class="st1" width="100" height="100"/>
	<rect x="1800" y="400" class="st0" width="100" height="100"/>
	<rect x="1900" y="400" class="st1" width="100" height="100"/>
	<rect x="2000" y="400" class="st0" width="100" height="100"/>
	<rect x="2100" y="400" class="st1" width="100" height="100"/>
	<rect x="2200" y="400" class="st0" width="100" height="100"/>
	<rect x="2300" y="400" class="st1" width="100" height="100"/>
	<rect x="2400" y="400" class="st0" width="100" height="100"/>
	<rect x="2500" y="400" class="st1" width="100" height="100"/>
	<rect x="2600" y="400" class="st0" width="100" height="100"/>
	<rect x="2700" y="400" class="st1" width="100" height="100"/>
	<rect x="2800" y="400" class="st0" width="100" height="100"/>
	<rect x="2900" y="400" class="st1" width="100" height="100"/>
	<rect y="500" class="st1" width="100" height="100"/>
	<rect x="100" y="500" class="st0" width="100" height="100"/>
	<rect x="200" y="500" class="st1" width="100" height="100"/>
	<rect x="300" y="500" class="st0" width="100" height="100"/>
	<rect x="400" y="500" class="st1" width="100" height="100"/>
	<rect x="500" y="500" class="st0" width="100" height="100"/>
	<rect x="600" y="500" class="st1" width="100" height="100"/>
	<rect x="700" y="500" class="st0" width="100" height="100"/>
	<rect x="800" y="500" class="st1" width="100" height="100"/>
	<rect x="900" y="500" class="st0" width="100" height="100"/>
	<rect x="1000" y="500" class="st1" width="100" height="100"/>
	<rect x="1100" y="500" class="st0" width="100" height="100"/>
	<rect x="1200" y="500" class="st1" width="100" height="100"/>
	<rect x="1300" y="500" class="st0" width="100" height="100"/>
	<rect x="1400" y="500" class="st1" width="100" height="100"/>
	<rect x="1500" y="500" class="st0" width="100" height="100"/>
	<rect x="1600" y="500" class="st1" width="100" height="100"/>
	<rect x="1700" y="500" class="st0" width="100" height="100"/>
	<rect x="1800" y="500" class="st1" width="100" height="100"/>
	<rect x="1900" y="500" class="st0" width="100" height="100"/>
	<rect x="2000" y="500" class="st1" width="100" height="100"/>
	<rect x="2100" y="500" class="st0" width="100" height="100"/>
	<rect x="2200" y="500" class="st1" width="100" height="100"/>
	<rect x="2300" y="500" class="st0" width="100" height="100"/>
	<rect x="2400" y="500" class="st1" width="100" height="100"/>
	<rect x="2500" y="500" class="st0" width="100" height="100"/>
	<rect x="2600" y="500" class="st1" width="100" height="100"/>
	<rect x="2700" y="500" class="st0" width="100" height="100"/>
	<rect x="2800" y="500" class="st1" width="100" height="100"/>
	<rect x="2900" y="500" class="st0" width="100" height="100"/>
	<rect y="600" class="st0" width="100" height="100"/>
	<rect x="100" y="600" class="st1" width="100" height="100"/>
	<rect x="200" y="600" class="st0" width="100" height="100"/>
	<rect x="300" y="600" class="st1" width="100" height="100"/>
	<rect x="400" y="600" class="st0" width="100" height="100"/>
	<rect x="500" y="600" class="st1" width="100" height="100"/>
	<rect x="600" y="600" class="st0" width="100" height="100"/>
	<rect x="700" y="600" class="st1" width="100" height="100"/>
	<rect x="800" y="600" class="st0" width="100" height="100"/>
	<rect x="900" y="600" class="st1" width="100" height="100"/>
	<rect x="1000" y="600" class="st0" width="100" height="100"/>
	<rect x="1100" y="600" class="st1" width="100" height="100"/>
	<rect x="1200" y="600" class="st0" width="100" height="100"/>
	<rect x="1300" y="600" class="st1" width="100" height="100"/>
	<rect x="1400" y="600" class="st0" width="100" height="100"/>
	<rect x="1500" y="600" class="st1" width="100" height="100"/>
	<rect x="1600" y="600" class="st0" width="100" height="100"/>
	<rect x="1700" y="600" class="st1" width="100" height="100"/>
	<rect x="1800" y="600" class="st0" width="100" height="100"/>
	<rect x="1900" y="600" class="st1" width="100" height="100"/>
	<rect x="2000" y="600" class="st0" width="100" height="100"/>
	<rect x="2100" y="600" class="st1" width="100" height="100"/>
	<rect x="2200" y="600" class="st0" width="100" height="100"/>
	<rect x="2300" y="600" class="st1" width="100" height="100"/>
	<rect x="2400" y="600" class="st0" width="100" height="100"/>
	<rect x="2500" y="600" class="st1" width="100" height="100"/>
	<rect x="2600" y="600" class="st0" width="100" height="100"/>
	<rect x="2700" y="600" class="st1" width="100" height="100"/>
	<rect x="2800" y="600" class="st0" width="100" height="100"/>
	<rect x="2900" y="600" class="st1" width="100" height="100"/>
	<rect y="700" class="st1" width="100" height="100"/>
	<rect x="100" y="700" class="st0" width="100" height="100"/>
	<rect x="200" y="700" class="st1" width="100" height="100"/>
	<rect x="300" y="700" class="st0" width="100" height="100"/>
	<rect x="400" y="700" class="st1" width="100" height="100"/>
	<rect x="500" y="700" class="st0" width="100" height="100"/>
	<rect x="600" y="700" class="st1" width="100" height="100"/>
	<rect x="700" y="700" class="st0" width="100" height="100"/>
	<rect x="800" y="700" class="st1" width="100" height="100"/>
	<rect x="900" y="700" class="st0" width="100" height="100"/>
	<rect x="1000" y="700" class="st1" width="100" height="100"/>
	<rect x="1100" y="700" class="st0" width="100" height="100"/>
	<rect x="1200" y="700" class="st1" width="100" height="100"/>
	<rect x="1300" y="700" class="st0" width="100" height="100"/>
	<rect x="1400" y="700" class="st1" width="100" height="100"/>
	<rect x="1500" y="700" class="st0" width="100" height="100"/>
	<rect x="1600" y="700" class="st1" width="100" height="100"/>
	<rect x="1700" y="700" class="st0" width="100" height="100"/>
	<rect x="1800" y="700" class="st1" width="100" height="100"/>
	<rect x="1900" y="700" class="st0" width="100" height="100"/>
	<rect x="2000" y="700" class="st1" width="100" height="100"/>
	<rect x="2100" y="700" class="st0" width="100" height="100"/>
	<rect x="2200" y="700" class="st1" width="100" height="100"/>
	<rect x="2300" y="700" class="st0" width="100" height="100"/>
	<rect x="2400" y="700" class="st1" width="100" height="100"/>
	<rect x="2500" y="700" class="st0" width="100" height="100"/>
	<rect x="2600" y="700" class="st1" width="100" height="100"/>
	<rect x="2700" y="700" class="st0" width="100" height="100"/>
	<rect x="2800" y="700" class="st1" width="100" height="100"/>
	<rect x="2900" y="700" class="st0" width="100" height="100"/>
	<rect y="800" class="st0" width="100" height="100"/>
	<rect x="100" y="800" class="st1" width="100" height="100"/>
	<rect x="200" y="800" class="st0" width="100" height="100"/>
	<rect x="300" y="800" class="st1" width="100" height="100"/>
	<rect x="400" y="800" class="st0" width="100" height="100"/>
	<rect x="500" y="800" class="st1" width="100" height="100"/>
	<rect x="600" y="800" class="st0" width="100" height="100"/>
	<rect x="700" y="800" class="st1" width="100" height="100"/>
	<rect x="800" y="800" class="st0" width="100" height="100"/>
	<rect x="900" y="800" class="st1" width="100" height="100"/>
	<rect x="1000" y="800" class="st0" width="100" height="100"/>
	<rect x="1100" y="800" class="st1" width="100" height="100"/>
	<rect x="1200" y="800" class="st0" width="100" height="100"/>
	<rect x="1300" y="800" class="st1" width="100" height="100"/>
	<rect x="1400" y="800" class="st0" width="100" height="100"/>
	<rect x="1500" y="800" class="st1" width="100" height="100"/>
	<rect x="1600" y="800" class="st0" width="100" height="100"/>
	<rect x="1700" y="800" class="st1" width="100" height="100"/>
	<rect x="1800" y="800" class="st0" width="100" height="100"/>
	<rect x="1900" y="800" class="st1" width="100" height="100"/>
	<rect x="2000" y="800" class="st0" width="100" height="100"/>
	<rect x="2100" y="800" class="st1" width="100" height="100"/>
	<rect x="2200" y="800" class="st0" width="100" height="100"/>
	<rect x="2300" y="800" class="st1" width="100" height="100"/>
	<rect x="2400" y="800" class="st0" width="100" height="100"/>
	<rect x="2500" y="800" class="st1" width="100" height="100"/>
	<rect x="2600" y="800" class="st0" width="100" height="100"/>
	<rect x="2700" y="800" class="st1" width="100" height="100"/>
	<rect x="2800" y="800" class="st0" width="100" height="100"/>
	<rect x="2900" y="800" class="st1" width="100" height="100"/>
	<rect y="900" class="st1" width="100" height="100"/>
	<rect x="100" y="900" class="st0" width="100" height="100"/>
	<rect x="200" y="900" class="st1" width="100" height="100"/>
	<rect x="300" y="900" class="st0" width="100" height="100"/>
	<rect x="400" y="900" class="st1" width="100" height="100"/>
	<rect x="500" y="900" class="st0" width="100" height="100"/>
	<rect x="600" y="900" class="st1" width="100" height="100"/>
	<rect x="700" y="900" class="st0" width="100" height="100"/>
	<rect x="800" y="900" class="st1" width="100" height="100"/>
	<rect x="900" y="900" class="st0" width="100" height="100"/>
	<rect x="1000" y="900" class="st1" width="100" height="100"/>
	<rect x="1100" y="900" class="st0" width="100" height="100"/>
	<rect x="1200" y="900" class="st1" width="100" height="100"/>
	<rect x="1300" y="900" class="st0" width="100" height="100"/>
	<rect x="1400" y="900" class="st1" width="100" height="100"/>
	<rect x="1500" y="900" class="st0" width="100" height="100"/>
	<rect x="1600" y="900" class="st1" width="100" height="100"/>
	<rect x="1700" y="900" class="st0" width="100" height="100"/>
	<rect x="1800" y="900" class="st1" width="100" height="100"/>
	<rect x="1900" y="900" class="st0" width="100" height="100"/>
	<rect x="2000" y="900" class="st1" width="100" height="100"/>
	<rect x="2100" y="900" class="st0" width="100" height="100"/>
	<rect x="2200" y="900" class="st1" width="100" height="100"/>
	<rect x="2300" y="900" class="st0" width="100" height="100"/>
	<rect x="2400" y="900" class="st1" width="100" height="100"/>
	<rect x="2500" y="900" class="st0" width="100" height="100"/>
	<rect x="2600" y="900" class="st1" width="100" height="100"/>
	<rect x="2700" y="900" class="st0" width="100" height="100"/>
	<rect x="2800" y="900" class="st1" width="100" height="100"/>
	<rect x="2900" y="900" class="st0" width="100" height="100"/>
	<rect y="1000" class="st0" width="100" height="100"/>
	<rect x="100" y="1000" class="st1" width="100" height="100"/>
	<rect x="200" y="1000" class="st0" width="100" height="100"/>
	<rect x="300" y="1000" class="st1" width="100" height="100"/>
	<rect x="400" y="1000" class="st0" width="100" height="100"/>
	<rect x="500" y="1000" class="st1" width="100" height="100"/>
	<rect x="600" y="1000" class="st0" width="100" height="100"/>
	<rect x="700" y="1000" class="st1" width="100" height="100"/>
	<rect x="800" y="1000" class="st0" width="100" height="100"/>
	<rect x="900" y="1000" class="st1" width="100" height="100"/>
	<rect x="1000" y="1000" class="st0" width="100" height="100"/>
	<rect x="1100" y="1000" class="st1" width="100" height="100"/>
	<rect x="1200" y="1000" class="st0" width="100" height="100"/>
	<rect x="1300" y="1000" class="st1" width="100" height="100"/>
	<rect x="1400" y="1000" class="st0" width="100" height="100"/>
	<rect x="1500" y="1000" class="st1" width="100" height="100"/>
	<rect x="1600" y="1000" class="st0" width="100" height="100"/>
	<rect x="1700" y="1000" class="st1" width="100" height="100"/>
	<rect x="1800" y="1000" class="st0" width="100" height="100"/>
	<rect x="1900" y="1000" class="st1" width="100" height="100"/>
	<rect x="2000" y="1000" class="st0" width="100" height="100"/>
	<rect x="2100" y="1000" class="st1" width="100" height="100"/>
	<rect x="2200" y="1000" class="st0" width="100" height="100"/>
	<rect x="2300" y="1000" class="st1" width="100" height="100"/>
	<rect x="2400" y="1000" class="st0" width="100" height="100"/>
	<rect x="2500" y="1000" class="st1" width="100" height="100"/>
	<rect x="2600" y="1000" class="st0" width="100" height="100"/>
	<rect x="2700" y="1000" class="st1" width="100" height="100"/>
	<rect x="2800" y="1000" class="st0" width="100" height="100"/>
	<rect x="2900" y="1000" class="st1" width="100" height="100"/>
	<rect y="1100" class="st1" width="100" height="100"/>
	<rect x="100" y="1100" class="st0" width="100" height="100"/>
	<rect x="200" y="1100" class="st1" width="100" height="100"/>
	<rect x="300" y="1100" class="st0" width="100" height="100"/>
	<rect x="400" y="1100" class="st1" width="100" height="100"/>
	<rect x="500" y="1100" class="st0" width="100" height="100"/>
	<rect x="600" y="1100" class="st1" width="100" height="100"/>
	<rect x="700" y="1100" class="st0" width="100" height="100"/>
	<rect x="800" y="1100" class="st1" width="100" height="100"/>
	<rect x="900" y="1100" class="st0" width="100" height="100"/>
	<rect x="1000" y="1100" class="st1" width="100" height="100"/>
	<rect x="1100" y="1100" class="st0" width="100" height="100"/>
	<rect x="1200" y="1100" class="st1" width="100" height="100"/>
	<rect x="1300" y="1100" class="st0" width="100" height="100"/>
	<rect x="1400" y="1100" class="st1" width="100" height="100"/>
	<rect x="1500" y="1100" class="st0" width="100" height="100"/>
	<rect x="1600" y="1100" class="st1" width="100" height="100"/>
	<rect x="1700" y="1100" class="st0" width="100" height="100"/>
	<rect x="1800" y="1100" class="st1" width="100" height="100"/>
	<rect x="1900" y="1100" class="st0" width="100" height="100"/>
	<rect x="2000" y="1100" class="st1" width="100" height="100"/>
	<rect x="2100" y="1100" class="st0" width="100" height="100"/>
	<rect x="2200" y="1100" class="st1" width="100" height="100"/>
	<rect x="2300" y="1100" class="st0" width="100" height="100"/>
	<rect x="2400" y="1100" class="st1" width="100" height="100"/>
	<rect x="2500" y="1100" class="st0" width="100" height="100"/>
	<rect x="2600" y="1100" class="st1" width="100" height="100"/>
	<rect x="2700" y="1100" class="st0" width="100" height="100"/>
	<rect x="2800" y="1100" class="st1" width="100" height="100"/>
	<rect x="2900" y="1100" class="st0" width="100" height="100"/>
	<rect y="1200" class="st0" width="100" height="100"/>
	<rect x="100" y="1200" class="st1" width="100" height="100"/>
	<rect x="200" y="1200" class="st0" width="100" height="100"/>
	<rect x="300" y="1200" class="st1" width="100" height="100"/>
	<rect x="400" y="1200" class="st0" width="100" height="100"/>
	<rect x="500" y="1200" class="st1" width="100" height="100"/>
	<rect x="600" y="1200" class="st0" width="100" height="100"/>
	<rect x="700" y="1200" class="st1" width="100" height="100"/>
	<rect x="800" y="1200" class="st0" width="100" height="100"/>
	<rect x="900" y="1200" class="st1" width="100" height="100"/>
	<rect x="1000" y="1200" class="st0" width="100" height="100"/>
	<rect x="1100" y="1200" class="st1" width="100" height="100"/>
	<rect x="1200" y="1200" class="st0" width="100" height="100"/>
	<rect x="1300" y="1200" class="st1" width="100" height="100"/>
	<rect x="1400" y="1200" class="st0" width="100" height="100"/>
	<rect x="1500" y="1200" class="st1" width="100" height="100"/>
	<rect x="1600" y="1200" class="st0" width="100" height="100"/>
	<rect x="1700" y="1200" class="st1" width="100" height="100"/>
	<rect x="1800" y="1200" class="st0" width="100" height="100"/>
	<rect x="1900" y="1200" class="st1" width="100" height="100"/>
	<rect x="2000" y="1200" class="st0" width="100" height="100"/>
	<rect x="2100" y="1200" class="st1" width="100" height="100"/>
	<rect x="2200" y="1200" class="st0" width="100" height="100"/>
	<rect x="2300" y="1200" class="st1" width="100" height="100"/>
	<rect x="2400" y="1200" class="st0" width="100" height="100"/>
	<rect x="2500" y="1200" class="st1" width="100" height="100"/>
	<rect x="2600" y="1200" class="st0" width="100" height="100"/>
	<rect x="2700" y="1200" class="st1" width="100" height="100"/>
	<rect x="2800" y="1200" class="st0" width="100" height="100"/>
	<rect x="2900" y="1200" class="st1" width="100" height="100"/>
	<rect y="1300" class="st1" width="100" height="100"/>
	<rect x="100" y="1300" class="st0" width="100" height="100"/>
	<rect x="200" y="1300" class="st1" width="100" height="100"/>
	<rect x="300" y="1300" class="st0" width="100" height="100"/>
	<rect x="400" y="1300" class="st1" width="100" height="100"/>
	<rect x="500" y="1300" class="st0" width="100" height="100"/>
	<rect x="600" y="1300" class="st1" width="100" height="100"/>
	<rect x="700" y="1300" class="st0" width="100" height="100"/>
	<rect x="800" y="1300" class="st1" width="100" height="100"/>
	<rect x="900" y="1300" class="st0" width="100" height="100"/>
	<rect x="1000" y="1300" class="st1" width="100" height="100"/>
	<rect x="1100" y="1300" class="st0" width="100" height="100"/>
	<rect x="1200" y="1300" class="st1" width="100" height="100"/>
	<rect x="1300" y="1300" class="st0" width="100" height="100"/>
	<rect x="1400" y="1300" class="st1" width="100" height="100"/>
	<rect x="1500" y="1300" class="st0" width="100" height="100"/>
	<rect x="1600" y="1300" class="st1" width="100" height="100"/>
	<rect x="1700" y="1300" class="st0" width="100" height="100"/>
	<rect x="1800" y="1300" class="st1" width="100" height="100"/>
	<rect x="1900" y="1300" class="st0" width="100" height="100"/>
	<rect x="2000" y="1300" class="st1" width="100" height="100"/>
	<rect x="2100" y="1300" class="st0" width="100" height="100"/>
	<rect x="2200" y="1300" class="st1" width="100" height="100"/>
	<rect x="2300" y="1300" class="st0" width="100" height="100"/>
	<rect x="2400" y="1300" class="st1" width="100" height="100"/>
	<rect x="2500" y="1300" class="st0" width="100" height="100"/>
	<rect x="2600" y="1300" class="st1" width="100" height="100"/>
	<rect x="2700" y="1300" class="st0" width="100" height="100"/>
	<rect x="2800" y="1300" class="st1" width="100" height="100"/>
	<rect x="2900" y="1300" class="st0" width="100" height="100"/>
	<rect y="1400" class="st0" width="100" height="100"/>
	<rect x="100" y="1400" class="st1" width="100" height="100"/>
	<rect x="200" y="1400" class="st0" width="100" height="100"/>
	<rect x="300" y="1400" class="st1" width="100" height="100"/>
	<rect x="400" y="1400" class="st0" width="100" height="100"/>
	<rect x="500" y="1400" class="st1" width="100" height="100"/>
	<rect x="600" y="1400" class="st0" width="100" height="100"/>
	<rect x="700" y="1400" class="st1" width="100" height="100"/>
	<rect x="800" y="1400" class="st0" width="100" height="100"/>
	<rect x="900" y="1400" class="st1" width="100" height="100"/>
	<rect x="1000" y="1400" class="st0" width="100" height="100"/>
	<rect x="1100" y="1400" class="st1" width="100" height="100"/>
	<rect x="1200" y="1400" class="st0" width="100" height="100"/>
	<rect x="1300" y="1400" class="st1" width="100" height="100"/>
	<rect x="1400" y="1400" class="st0" width="100" height="100"/>
	<rect x="1500" y="1400" class="st1" width="100" height="100"/>
	<rect x="1600" y="1400" class="st0" width="100" height="100"/>
	<rect x="1700" y="1400" class="st1" width="100" height="100"/>
	<rect x="1800" y="1400" class="st0" width="100" height="100"/>
	<rect x="1900" y="1400" class="st1" width="100" height="100"/>
	<rect x="2000" y="1400" class="st0" width="100" height="100"/>
	<rect x="2100" y="1400" class="st1" width="100" height="100"/>
	<rect x="2200" y="1400" class="st0" width="100" height="100"/>
	<rect x="2300" y="1400" class="st1" width="100" height="100"/>
	<rect x="2400" y="1400" class="st0" width="100" height="100"/>
	<rect x="2500" y="1400" class="st1" width="100" height="100"/>
	<rect x="2600" y="1400" class="st0" width="100" height="100"/>
	<rect x="2700" y="1400" class="st1" width="100" height="100"/>
	<rect x="2800" y="1400" class="st0" width="100" height="100"/>
	<rect x="2900" y="1400" class="st1" width="100" height="100"/>
	<rect y="1500" class="st1" width="100" height="100"/>
	<rect x="100" y="1500" class="st0" width="100" height="100"/>
	<rect x="200" y="1500" class="st1" width="100" height="100"/>
	<rect x="300" y="1500" class="st0" width="100" height="100"/>
	<rect x="400" y="1500" class="st1" width="100" height="100"/>
	<rect x="500" y="1500" class="st0" width="100" height="100"/>
	<rect x="600" y="1500" class="st1" width="100" height="100"/>
	<rect x="700" y="1500" class="st0" width="100" height="100"/>
	<rect x="800" y="1500" class="st1" width="100" height="100"/>
	<rect x="900" y="1500" class="st0" width="100" height="100"/>
	<rect x="1000" y="1500" class="st1" width="100" height="100"/>
	<rect x="1100" y="1500" class="st0" width="100" height="100"/>
	<rect x="1200" y="1500" class="st1" width="100" height="100"/>
	<rect x="1300" y="1500" class="st0" width="100" height="100"/>
	<rect x="1400" y="1500" class="st1" width="100" height="100"/>
	<rect x="1500" y="1500" class="st0" width="100" height="100"/>
	<rect x="1600" y="1500" class="st1" width="100" height="100"/>
	<rect x="1700" y="1500" class="st0" width="100" height="100"/>
	<rect x="1800" y="1500" class="st1" width="100" height="100"/>
	<rect x="1900" y="1500" class="st0" width="100" height="100"/>
	<rect x="2000" y="1500" class="st1" width="100" height="100"/>
	<rect x="2100" y="1500" class="st0" width="100" height="100"/>
	<rect x="2200" y="1500" class="st1" width="100" height="100"/>
	<rect x="2300" y="1500" class="st0" width="100" height="100"/>
	<rect x="2400" y="1500" class="st1" width="100" height="100"/>
	<rect x="2500" y="1500" class="st0" width="100" height="100"/>
	<rect x="2600" y="1500" class="st1" width="100" height="100"/>
	<rect x="2700" y="1500" class="st0" width="100" height="100"/>
	<rect x="2800" y="1500" class="st1" width="100" height="100"/>
	<rect x="2900" y="1500" class="st0" width="100" height="100"/>
	<rect y="1600" class="st0" width="100" height="100"/>
	<rect x="100" y="1600" class="st1" width="100" height="100"/>
	<rect x="200" y="1600" class="st0" width="100" height="100"/>
	<rect x="300" y="1600" class="st1" width="100" height="100"/>
	<rect x="400" y="1600" class="st0" width="100" height="100"/>
	<rect x="500" y="1600" class="st1" width="100" height="100"/>
	<rect x="600" y="1600" class="st0" width="100" height="100"/>
	<rect x="700" y="1600" class="st1" width="100" height="100"/>
	<rect x="800" y="1600" class="st0" width="100" height="100"/>
	<rect x="900" y="1600" class="st1" width="100" height="100"/>
	<rect x="1000" y="1600" class="st0" width="100" height="100"/>
	<rect x="1100" y="1600" class="st1" width="100" height="100"/>
	<rect x="1200" y="1600" class="st0" width="100" height="100"/>
	<rect x="1300" y="1600" class="st1" width="100" height="100"/>
	<rect x="1400" y="1600" class="st0" width="100" height="100"/>
	<rect x="1500" y="1600" class="st1" width="100" height="100"/>
	<rect x="1600" y="1600" class="st0" width="100" height="100"/>
	<rect x="1700" y="1600" class="st1" width="100" height="100"/>
	<rect x="1800" y="1600" class="st0" width="100" height="100"/>
	<rect x="1900" y="1600" class="st1" width="100" height="100"/>
	<rect x="2000" y="1600" class="st0" width="100" height="100"/>
	<rect x="2100" y="1600" class="st1" width="100" height="100"/>
	<rect x="2200" y="1600" class="st0" width="100" height="100"/>
	<rect x="2300" y="1600" class="st1" width="100" height="100"/>
	<rect x="2400" y="1600" class="st0" width="100" height="100"/>
	<rect x="2500" y="1600" class="st1" width="100" height="100"/>
	<rect x="2600" y="1600" class="st0" width="100" height="100"/>
	<rect x="2700" y="1600" class="st1" width="100" height="100"/>
	<rect x="2800" y="1600" class="st0" width="100" height="100"/>
	<rect x="2900" y="1600" class="st1" width="100" height="100"/>
	<rect y="1700" class="st1" width="100" height="100"/>
	<rect x="100" y="1700" class="st0" width="100" height="100"/>
	<rect x="200" y="1700" class="st1" width="100" height="100"/>
	<rect x="300" y="1700" class="st0" width="100" height="100"/>
	<rect x="400" y="1700" class="st1" width="100" height="100"/>
	<rect x="500" y="1700" class="st0" width="100" height="100"/>
	<rect x="600" y="1700" class="st1" width="100" height="100"/>
	<rect x="700" y="1700" class="st0" width="100" height="100"/>
	<rect x="800" y="1700" class="st1" width="100" height="100"/>
	<rect x="900" y="1700" class="st0" width="100" height="100"/>
	<rect x="1000" y="1700" class="st1" width="100" height="100"/>
	<rect x="1100" y="1700" class="st0" width="100" height="100"/>
	<rect x="1200" y="1700" class="st1" width="100" height="100"/>
	<rect x="1300" y="1700" class="st0" width="100" height="100"/>
	<rect x="1400" y="1700" class="st1" width="100" height="100"/>
	<rect x="1500" y="1700" class="st0" width="100" height="100"/>
	<rect x="1600" y="1700" class="st1" width="100" height="100"/>
	<rect x="1700" y="1700" class="st0" width="100" height="100"/>
	<rect x="1800" y="1700" class="st1" width="100" height="100"/>
	<rect x="1900" y="1700" class="st0" width="100" height="100"/>
	<rect x="2000" y="1700" class="st1" width="100" height="100"/>
	<rect x="2100" y="1700" class="st0" width="100" height="100"/>
	<rect x="2200" y="1700" class="st1" width="100" height="100"/>
	<rect x="2300" y="1700" class="st0" width="100" height="100"/>
	<rect x="2400" y="1700" class="st1" width="100" height="100"/>
	<rect x="2500" y="1700" class="st0" width="100" height="100"/>
	<rect x="2600" y="1700" class="st1" width="100" height="100"/>
	<rect x="2700" y="1700" class="st0" width="100" height="100"/>
	<rect x="2800" y="1700" class="st1" width="100" height="100"/>
	<rect x="2900" y="1700" class="st0" width="100" height="100"/>
	<rect y="1800" class="st0" width="100" height="100"/>
	<rect x="100" y="1800" class="st1" width="100" height="100"/>
	<rect x="200" y="1800" class="st0" width="100" height="100"/>
	<rect x="300" y="1800" class="st1" width="100" height="100"/>
	<rect x="400" y="1800" class="st0" width="100" height="100"/>
	<rect x="500" y="1800" class="st1" width="100" height="100"/>
	<rect x="600" y="1800" class="st0" width="100" height="100"/>
	<rect x="700" y="1800" class="st1" width="100" height="100"/>
	<rect x="800" y="1800" class="st0" width="100" height="100"/>
	<rect x="900" y="1800" class="st1" width="100" height="100"/>
	<rect x="1000" y="1800" class="st0" width="100" height="100"/>
	<rect x="1100" y="1800" class="st1" width="100" height="100"/>
	<rect x="1200" y="1800" class="st0" width="100" height="100"/>
	<rect x="1300" y="1800" class="st1" width="100" height="100"/>
	<rect x="1400" y="1800" class="st0" width="100" height="100"/>
	<rect x="1500" y="1800" class="st1" width="100" height="100"/>
	<rect x="1600" y="1800" class="st0" width="100" height="100"/>
	<rect x="1700" y="1800" class="st1" width="100" height="100"/>
	<rect x="1800" y="1800" class="st0" width="100" height="100"/>
	<rect x="1900" y="1800" class="st1" width="100" height="100"/>
	<rect x="2000" y="1800" class="st0" width="100" height="100"/>
	<rect x="2100" y="1800" class="st1" width="100" height="100"/>
	<rect x="2200" y="1800" class="st0" width="100" height="100"/>
	<rect x="2300" y="1800" class="st1" width="100" height="100"/>
	<rect x="2400" y="1800" class="st0" width="100" height="100"/>
	<rect x="2500" y="1800" class="st1" width="100" height="100"/>
	<rect x="2600" y="1800" class="st0" width="100" height="100"/>
	<rect x="2700" y="1800" class="st1" width="100" height="100"/>
	<rect x="2800" y="1800" class="st0" width="100" height="100"/>
	<rect x="2900" y="1800" class="st1" width="100" height="100"/>
	<rect y="1900" class="st1" width="100" height="100"/>
	<rect x="100" y="1900" class="st0" width="100" height="100"/>
	<rect x="200" y="1900" class="st1" width="100" height="100"/>
	<rect x="300" y="1900" class="st0" width="100" height="100"/>
	<rect x="400" y="1900" class="st1" width="100" height="100"/>
	<rect x="500" y="1900" class="st0" width="100" height="100"/>
	<rect x="600" y="1900" class="st1" width="100" height="100"/>
	<rect x="700" y="1900" class="st0" width="100" height="100"/>
	<rect x="800" y="1900" class="st1" width="100" height="100"/>
	<rect x="900" y="1900" class="st0" width="100" height="100"/>
	<rect x="1000" y="1900" class="st1" width="100" height="100"/>
	<rect x="1100" y="1900" class="st0" width="100" height="100"/>
	<rect x="1200" y="1900" class="st1" width="100" height="100"/>
	<rect x="1300" y="1900" class="st0" width="100" height="100"/>
	<rect x="1400" y="1900" class="st1" width="100" height="100"/>
	<rect x="1500" y="1900" class="st0" width="100" height="100"/>
	<rect x="1600" y="1900" class="st1" width="100" height="100"/>
	<rect x="1700" y="1900" class="st0" width="100" height="100"/>
	<rect x="1800" y="1900" class="st1" width="100" height="100"/>
	<rect x="1900" y="1900" class="st0" width="100" height="100"/>
	<rect x="2000" y="1900" class="st1" width="100" height="100"/>
	<rect x="2100" y="1900" class="st0" width="100" height="100"/>
	<rect x="2200" y="1900" class="st1" width="100" height="100"/>
	<rect x="2300" y="1900" class="st0" width="100" height="100"/>
	<rect x="2400" y="1900" class="st1" width="100" height="100"/>
	<rect x="2500" y="1900" class="st0" width="100" height="100"/>
	<rect x="2600" y="1900" class="st1" width="100" height="100"/>
	<rect x="2700" y="1900" class="st0" width="100" height="100"/>
	<rect x="2800" y="1900" class="st1" width="100" height="100"/>
	<rect x="2900" y="1900" class="st0" width="100" height="100"/>
</g>
</svg>
