<svg id="eYmE9Hugn5p1" xmlns="http://www.w3.org/2000/svg" xmlns:xlink="http://www.w3.org/1999/xlink" viewBox="0 0 40 40" shape-rendering="geometricPrecision" text-rendering="geometricPrecision"><rect width="19.18" height="13.51" rx="2.6" ry="2.6" transform="translate(7.67 19.28)" fill="#fff" stroke-width="0"/><path d="M34.46,32.18L28.75,29.3v-6.53l5.71-2.88c.63,0,1.14.51,1.14,1.14v10.01c0,.63-.51,1.14-1.14,1.14Z" fill="#fff" stroke-width="0"/><path d="M14.08,13.05c0,2.17-1.76,3.92-3.92,3.92s-3.92-1.76-3.92-3.92s1.76-3.92,3.92-3.92s3.92,1.76,3.92,3.92Z" fill="none" stroke="#fff" stroke-width="2" stroke-miterlimit="10"/><path d="M28.06,11.64c0,2.95-2.39,5.34-5.34,5.34s-5.34-2.39-5.34-5.34s2.39-5.34,5.34-5.34s5.34,2.39,5.34,5.34Z" fill="none" stroke="#fff" stroke-width="2" stroke-miterlimit="10"/></svg>
