<?xml version="1.0" encoding="UTF-8"?>
<svg id="_레이어_1" data-name="레이어 1" xmlns="http://www.w3.org/2000/svg" viewBox="0 0 40 40">
  <defs>
    <style>
      .cls-1 {
        stroke-width: 2px;
      }

      .cls-1, .cls-2 {
        fill: none;
        stroke: #fff;
        stroke-miterlimit: 10;
      }

      .cls-2 {
        stroke-width: 1.2px;
      }

      .cls-3 {
        fill: #3c73cb;
      }

      .cls-3, .cls-4, .cls-5 {
        stroke-width: 0px;
      }

      .cls-4 {
        fill: #aaddf7;
      }

      .cls-5 {
        fill: #fff;
      }
    </style>
  </defs>
  <g>
    <rect class="cls-3" x="1" y="1" width="38" height="38" rx="8.25" ry="8.25"/>
    <path class="cls-4" d="m30.74,2c4,0,7.26,3.25,7.26,7.26v21.49c0,4-3.25,7.26-7.26,7.26H9.26c-4,0-7.26-3.25-7.26-7.26V9.26c0-4,3.25-7.26,7.26-7.26h21.49m0-2H9.26C4.14,0,0,4.14,0,9.26v21.49c0,5.11,4.14,9.26,9.26,9.26h21.49c5.11,0,9.26-4.14,9.26-9.26V9.26c0-5.11-4.14-9.26-9.26-9.26h0Z"/>
  </g>
  <g>
    <circle class="cls-5" cx="12" cy="19" r="2.5"/>
    <path class="cls-5" d="m5.5,29l10-7.38,4,2.95,7-5.91,4,2.95v7.38s-25,.84-25,0Z"/>
    <rect class="cls-1" x="6.5" y="13.5" width="24" height="15.5"/>
    <polyline class="cls-2" points="14.5 9.5 34.5 9.5 34.5 24.5"/>
  </g>
</svg>