<svg id="egBX3FISAdo1" xmlns="http://www.w3.org/2000/svg" xmlns:xlink="http://www.w3.org/1999/xlink" viewBox="0 0 40 40" shape-rendering="geometricPrecision" text-rendering="geometricPrecision"><g><path d="M13.95,32.68c-.65,0-1.29-.13-1.88-.38-.58-.24-1.09-.59-1.54-1.04-.44-.44-.79-.96-1.04-1.54-.25-.6-.38-1.23-.38-1.88s.13-1.29.38-1.89c.24-.58.59-1.09,1.04-1.54s.96-.79,1.54-1.04c.6-.25,1.23-.38,1.88-.38s1.29.13,1.88.38c.58.24,1.09.59,1.54,1.04.44.44.79.96,1.04,1.54.25.6.38,1.23.38,1.89s-.13,1.29-.38,1.88c-.24.58-.59,1.09-1.04,1.54s-.96.79-1.54,1.04c-.6.25-1.23.38-1.88.38Zm0-7.26c-.65,0-1.25.25-1.71.71s-.71,1.07-.71,1.71.25,1.25.71,1.71s1.07.71,1.71.71s1.25-.25,1.71-.71.71-1.07.71-1.71-.25-1.25-.71-1.71-1.07-.71-1.71-.71Z" fill="#fff" stroke-width="0"/><path d="M26.05,32.68c-.65,0-1.29-.13-1.89-.38-.58-.24-1.09-.59-1.54-1.04-.44-.44-.79-.96-1.04-1.54-.25-.6-.38-1.23-.38-1.88s.13-1.29.38-1.89c.24-.58.59-1.09,1.04-1.54.44-.44.96-.79,1.54-1.04.6-.25,1.23-.38,1.89-.38s1.29.13,1.89.38c.58.24,1.09.59,1.54,1.04.44.44.79.96,1.04,1.54.25.6.38,1.23.38,1.89s-.13,1.29-.38,1.88c-.24.58-.59,1.09-1.04,1.54-.44.44-.96.79-1.54,1.04-.6.25-1.23.38-1.89.38Zm0-7.26c-.65,0-1.25.25-1.71.71s-.71,1.07-.71,1.71.25,1.25.71,1.71s1.07.71,1.71.71s1.25-.25,1.71-.71.71-1.07.71-1.71-.25-1.25-.71-1.71-1.07-.71-1.71-.71Z" fill="#fff" stroke-width="0"/><path d="M29.68,29.05c-.67,0-1.21-.54-1.21-1.21v-13.31c0-.67.54-1.21,1.21-1.21s1.21.54,1.21,1.21v13.31c0,.67-.54,1.21-1.21,1.21Z" fill="#fff" stroke-width="0"/><path d="M17.58,29.05c-.67,0-1.21-.54-1.21-1.21v-14.84c0-.52.17-1.03.48-1.44.31-.42.75-.72,1.25-.87l2.72-.81c.64-.19,1.31.17,1.51.81.19.64-.17,1.31-.81,1.51l-2.72.81v14.83c0,.67-.54,1.21-1.21,1.21h-.01Z" fill="#fff" stroke-width="0"/><path d="M17.58,19.37c-.52,0-1-.34-1.16-.86-.19-.64.17-1.32.81-1.51l12.1-3.63c.64-.19,1.32.17,1.51.81s-.17,1.32-.81,1.51l-12.1,3.63c-.12.03-.23.05-.35.05Z" fill="#fff" stroke-width="0"/><path d="M17.58,13.37c-.52,0-1-.34-1.16-.86-.19-.64.17-1.32.81-1.51l12.1-3.63c.64-.19,1.32.17,1.51.81s-.17,1.32-.81,1.51l-12.1,3.63c-.12.03-.23.05-.35.05Z" fill="#fff" stroke-width="0"/></g></svg>
