<?xml version="1.0" encoding="UTF-8"?>
<svg id="_레이어_1" data-name="레이어 1" xmlns="http://www.w3.org/2000/svg" viewBox="0 0 40 40">
  <defs>
    <style>
      .cls-1 {
        fill: none;
        stroke: #fff;
        stroke-linecap: round;
        stroke-linejoin: round;
        stroke-width: 1.8px;
      }

      .cls-2 {
        fill: #3c73cb;
      }

      .cls-2, .cls-3, .cls-4 {
        stroke-width: 0px;
      }

      .cls-3 {
        fill: #aaddf7;
      }

      .cls-4 {
        fill: #fff;
      }
    </style>
  </defs>
  <g>
    <rect class="cls-2" x="1" y="1" width="38" height="38" rx="8.25" ry="8.25"/>
    <path class="cls-3" d="m30.74,2c4,0,7.26,3.25,7.26,7.26v21.49c0,4-3.25,7.26-7.26,7.26H9.26c-4,0-7.26-3.25-7.26-7.26V9.26c0-4,3.25-7.26,7.26-7.26h21.49M30.74,0H9.26C4.14,0,0,4.14,0,9.26v21.49c0,5.11,4.14,9.26,9.26,9.26h21.49c5.11,0,9.26-4.14,9.26-9.26V9.26C40,4.14,35.86,0,30.74,0h0Z"/>
  </g>
  <line class="cls-1" x1="20" y1="32.44" x2="20" y2="20.44"/>
  <polyline class="cls-1" points="25 24.44 20 19.44 15 24.44"/>
  <path class="cls-4" d="m30.34,16.34c.03-.24.04-.48.04-.72,0-3.9-3.17-7.06-7.06-7.06-2.69,0-5.12,1.55-6.31,3.89-.83-.54-1.8-.83-2.8-.83-2.72,0-4.96,2.13-5.13,4.81-2.86.53-4.98,3.02-4.98,6.01,0,3.37,2.74,6.12,6.12,6.12h5.78v-1.8h-5.78c-2.38,0-4.32-1.94-4.32-4.32s1.82-4.21,4.14-4.31c.25-.01.48-.12.65-.31.16-.19.24-.44.21-.69-.01-.12-.02-.25-.02-.37,0-1.84,1.5-3.34,3.34-3.34.95,0,1.87.41,2.5,1.13.22.25.55.35.88.28.32-.07.58-.32.67-.63.63-2.26,2.72-3.84,5.06-3.84,2.9,0,5.26,2.36,5.26,5.26,0,.44-.06.9-.19,1.36-.07.27-.02.56.15.78.17.22.43.35.71.35h.52c2.38,0,4.32,1.94,4.32,4.32s-1.94,4.32-4.32,4.32h-5.78v1.8h5.78c3.37,0,6.12-2.74,6.12-6.12,0-3.18-2.45-5.81-5.56-6.09Z"/>
</svg>