<?xml version="1.0" encoding="UTF-8"?>
<svg id="_레이어_1" data-name="레이어 1" xmlns="http://www.w3.org/2000/svg" viewBox="0 0 40 40">
  <defs>
    <style>
      .cls-1 {
        fill: #cacaca;
      }

      .cls-1, .cls-2 {
        stroke-width: 0px;
      }

      .cls-2 {
        fill: #fff;
      }
    </style>
  </defs>
  <rect class="cls-1" width="40" height="40" rx="9.26" ry="9.26"/>
  <g>
    <path class="cls-2" d="m19.29,26.89s0,0,0,0c.03.03.06.06.09.08,0,0,0,0,0,0,.03.02.06.05.09.07,0,0,0,0,.01,0,.03.02.06.04.09.05,0,0,0,0,.01,0,.03.02.06.03.09.04,0,0,0,0,.01,0,.03.01.07.03.1.04,0,0,0,0,0,0,.03.01.07.02.11.03,0,0,0,0,0,0,.04,0,.07.01.11.02,0,0,0,0,0,0,.04,0,.07,0,.11,0,.04,0,.08,0,.11,0,0,0,0,0,0,0,.04,0,.07,0,.11-.01,0,0,0,0,0,0,.04,0,.07-.02.11-.03,0,0,0,0,0,0,.03,0,.07-.02.1-.03,0,0,0,0,.01,0,.03-.01.06-.03.1-.04,0,0,0,0,.01,0,.03-.02.06-.03.09-.05,0,0,0,0,.01,0,.03-.02.06-.04.09-.06,0,0,0,0,0,0,.03-.02.06-.05.09-.08,0,0,0,0,0,0l6.3-6.2c.48-.47.49-1.24.01-1.72s-1.24-.49-1.72-.01l-.87.85-3.34,3.28.03-3.31.09-10.65c0-.67-.54-1.22-1.21-1.23s-1.22.54-1.23,1.21l-.09,10.65-.03,3.31-3.28-3.34-.85-.87c-.47-.48-1.24-.49-1.72-.01-.48.47-.49,1.24-.01,1.72l6.2,6.3Z"/>
    <path class="cls-2" d="m31.12,24.9c-.67,0-1.22.54-1.23,1.21l-.03,3.63-19.88-.17.03-3.63c0-.67-.54-1.22-1.21-1.23-.67,0-1.22.54-1.23,1.21l-.04,4.85c0,.67.54,1.22,1.21,1.23l22.32.19c.67,0,1.22-.54,1.23-1.21l.04-4.85c0-.67-.54-1.22-1.21-1.23Z"/>
  </g>
</svg>