<svg id="eI6UHJEPxb41" xmlns="http://www.w3.org/2000/svg" xmlns:xlink="http://www.w3.org/1999/xlink" viewBox="0 0 40 40" shape-rendering="geometricPrecision" text-rendering="geometricPrecision"><g><path d="M19.29,26.89c0,0,0,0,0,0c.03.03.06.06.09.08c0,0,0,0,0,0c.03.02.06.05.09.07c0,0,0,0,.01,0c.03.02.06.04.09.05c0,0,0,0,.01,0c.03.02.06.03.09.04c0,0,0,0,.01,0c.03.01.07.03.1.04c0,0,0,0,0,0c.03.01.07.02.11.03c0,0,0,0,0,0c.04,0,.07.01.11.02c0,0,0,0,0,0c.04,0,.07,0,.11,0s.08,0,.11,0c0,0,0,0,0,0c.04,0,.07,0,.11-.01c0,0,0,0,0,0c.04,0,.07-.02.11-.03c0,0,0,0,0,0c.03,0,.07-.02.1-.03c0,0,0,0,.01,0c.03-.01.06-.03.1-.04c0,0,0,0,.01,0c.03-.02.06-.03.09-.05c0,0,0,0,.01,0c.03-.02.06-.04.09-.06c0,0,0,0,0,0c.03-.02.06-.05.09-.08c0,0,0,0,0,0l6.3-6.2c.48-.47.49-1.24.01-1.72s-1.24-.49-1.72-.01l-.87.85-3.34,3.28.03-3.31.09-10.65c0-.67-.54-1.22-1.21-1.23s-1.22.54-1.23,1.21l-.09,10.65-.03,3.31-3.28-3.34-.85-.87c-.47-.48-1.24-.49-1.72-.01-.48.47-.49,1.24-.01,1.72l6.2,6.3.07-.01Z" fill="#fff" stroke-width="0"/><path d="M31.12,24.9c-.67,0-1.22.54-1.23,1.21l-.03,3.63-19.88-.17.03-3.63c0-.67-.54-1.22-1.21-1.23-.67,0-1.22.54-1.23,1.21l-.04,4.85c0,.67.54,1.22,1.21,1.23l22.32.19c.67,0,1.22-.54,1.23-1.21l.04-4.85c0-.67-.54-1.22-1.21-1.23Z" fill="#fff" stroke-width="0"/></g></svg>
