<svg id="eClrNe4Hp9T1" xmlns="http://www.w3.org/2000/svg" xmlns:xlink="http://www.w3.org/1999/xlink" viewBox="0 0 40 40" shape-rendering="geometricPrecision" text-rendering="geometricPrecision"><path d="M34.5,18.83v9.75c0,3.27-2.65,5.92-5.92,5.92h-17.16c-3.27,0-5.92-2.65-5.92-5.92v-17.16c0-3.27,2.65-5.92,5.92-5.92h9.03" fill="none" stroke="#fff" stroke-width="1.35" stroke-miterlimit="10"/><g><path d="M19.78,5.5v5c-.28,1.5-1.66-.12-1.66-.12-.54-.54-1.29-.88-2.12-.88-1.66,0-3,1.34-3,3s1.34,3,3,3c1,0,1.89-.49,2.44-1.25c0,0,1.06-1.75,1.34-.25v5.5" fill="none" stroke="#fff" stroke-width="1.35" stroke-linecap="round" stroke-linejoin="round"/><path d="M20,19.5h-5.5c-1.5,0-.03,1.28-.03,1.28.76.54,1.25,1.43,1.25,2.44c0,1.66-1.34,3-3,3s-3-1.34-3-3c0-.83.34-1.58.88-2.12c0,0,1.9-1.6-.1-1.6h-4.5" fill="none" stroke="#fff" stroke-width="1.35" stroke-linecap="round" stroke-linejoin="round"/><path d="M19.78,19.5v5.5c.22,1.5,1.22.75,1.22.75.54-.76,1.43-1.25,2.44-1.25c1.66,0,3,1.34,3,3s-1.34,3-3,3c-.83,0-1.58-.34-2.12-.88c0,0-1.32-1.12-1.54.88v4" fill="none" stroke="#fff" stroke-width="1.35" stroke-linecap="round" stroke-linejoin="round"/><path d="M19.78,19.5h5.22c2,0,.97-1.28.97-1.28-.76-.54-1.25-1.43-1.25-2.44c0-1.66,1.34-3,3-3s3,1.34,3,3c0,.83-.34,1.58-.88,2.12c0,0-1.34,1.1.16,1.6h4" fill="none" stroke="#fff" stroke-width="1.35" stroke-linecap="round" stroke-linejoin="round"/></g></svg>
