<?xml version="1.0" encoding="UTF-8"?>
<svg id="_레이어_1" data-name="레이어 1" xmlns="http://www.w3.org/2000/svg" viewBox="0 0 40 40">
  <defs>
    <style>
      .cls-1 {
        fill: #cacaca;
      }

      .cls-1, .cls-2 {
        stroke-width: 0px;
      }

      .cls-2 {
        fill: #fff;
      }
    </style>
  </defs>
  <rect class="cls-1" width="40" height="40" rx="9.26" ry="9.26"/>
  <path class="cls-2" d="m23.63,19.98l-.05.57c-.29,1.84-1.96,3.18-3.85,3.05-1.9-.14-3.34-1.71-3.37-3.58l.05-.58c.3-1.84,1.97-3.18,3.86-3.03,1.89.14,3.34,1.7,3.37,3.57Z"/>
  <path class="cls-2" d="m31.53,18.35c-1.82-.51-2.75-3.15-1.68-4.71.71-1.05.38-1.64-.31-2.42-.73-.84-1.41-1.01-2.42-.44-1.52.84-4.3-.41-4.65-2.21-.28-1.45-1.14-1.42-2.22-1.5-1.15-.09-1.54.52-1.81,1.47-.27.95-2.36,2.14-3.75,2.1-.26-.1-.76-.17-1.06-.45-1.1-.96-1.81-.31-2.63.43-.85.75-.76,1.42-.25,2.33.84,1.46-.51,4.33-2.29,4.62-1.07.18-1.31.7-1.4,1.39l-.04,1.21c.04.69.25,1.23,1.29,1.47,1.76.42,2.89,3.38,1.96,4.78-.58.86-.7,1.53.08,2.34.76.79,1.43,1.51,2.6.61.33-.25.82-.29,1.09-.38,1.37.06,3.38,1.39,3.59,2.35.21.98.55,1.61,1.71,1.6,1.07,0,1.93.07,2.32-1.34.47-1.77,3.33-2.83,4.79-1.89.97.64,1.66.52,2.45-.26.73-.73,1.1-1.31.47-2.39-.95-1.65.16-4.2,2.01-4.58,1-.22,1.4-.64,1.56-1.4l.04-1.21c-.1-.77-.48-1.22-1.45-1.5Zm-5.03,2.39c-.4,3.34-3.31,5.86-6.73,5.75-3.42-.12-6.14-2.84-6.32-6.21l.04-1.04c.41-3.33,3.31-5.86,6.73-5.74,3.42.12,6.14,2.84,6.32,6.2l-.05,1.03Z"/>
  <path class="cls-2" d="m23.63,19.98l-.05.57c-.29,1.84-1.96,3.18-3.85,3.05-1.9-.14-3.34-1.71-3.37-3.58l.05-.58c.3-1.84,1.97-3.18,3.86-3.03,1.89.14,3.34,1.7,3.37,3.57Z"/>
  <path class="cls-2" d="m23.63,19.98l-.05.57c-.29,1.84-1.96,3.18-3.85,3.05-1.9-.14-3.34-1.71-3.37-3.58l.05-.58c.3-1.84,1.97-3.18,3.86-3.03,1.89.14,3.34,1.7,3.37,3.57Z"/>
</svg>