<svg cache-id="46d7af5518684c768e9ef67de1ef9018" id="esRWYB02tJ81" xmlns="http://www.w3.org/2000/svg" xmlns:xlink="http://www.w3.org/1999/xlink" viewBox="0 0 40 40" shape-rendering="geometricPrecision" text-rendering="geometricPrecision"><polygon points="21.84,6.28 25.31,11.88 19.71,15.35 20.98,17.41 28.65,12.66 23.9,5 21.84,6.28" fill="#666" stroke-width="0"/><path d="M29.86,22.36c-.14,5.32-4.5,9.61-9.85,9.61s-9.86-4.42-9.86-9.86s4.42-9.86,9.86-9.86c1.75,0,3.38.46,4.81,1.26l1.5-2.63c-1.87-1.05-4.02-1.66-6.31-1.66-7.11,0-12.9,5.79-12.9,12.9s5.79,12.9,12.9,12.9s12.75-5.65,12.88-12.64h-3.03v-.02Z" fill="#666" stroke-width="0"/></svg>
