<?xml version="1.0" encoding="UTF-8"?>
<svg id="_레이어_1" data-name="레이어 1" xmlns="http://www.w3.org/2000/svg" viewBox="0 0 40 40">
  <defs>
    <style>
      .cls-1 {
        fill: #fff;
        stroke-width: 0px;
      }
    </style>
  </defs>
  <path class="cls-1" d="m19.23,28.27s0,0,0,0c.03.04.07.07.11.1,0,0,0,0,.01,0,.03.03.07.05.11.08,0,0,.01,0,.02.01.04.02.07.05.11.07,0,0,.01,0,.02,0,.04.02.08.04.11.05,0,0,0,0,.01,0,.04.02.08.03.12.04,0,0,0,0,.01,0,.04.01.09.02.13.03,0,0,0,0,0,0,.04,0,.09.02.13.02,0,0,0,0,0,0,.05,0,.09,0,.14,0,.05,0,.09,0,.14,0,0,0,0,0,0,0,.04,0,.09-.01.13-.02,0,0,0,0,0,0,.04,0,.09-.02.13-.03,0,0,0,0,.01,0,.04-.01.08-.03.12-.04,0,0,0,0,.01,0,.04-.02.08-.03.12-.05,0,0,.01,0,.02,0,.04-.02.07-.04.11-.06,0,0,.01,0,.02-.01.04-.02.07-.05.11-.08,0,0,0,0,.01,0,.04-.03.07-.06.11-.1,0,0,0,0,0,0l7.63-7.5c.58-.57.59-1.5.02-2.09-.57-.58-1.51-.59-2.09-.02l-1.05,1.03-4.04,3.97.03-4,.11-12.89c0-.81-.65-1.48-1.46-1.49-.81,0-1.48.65-1.49,1.46l-.11,12.89-.03,4-3.97-4.04-1.03-1.05c-.57-.58-1.51-.59-2.09-.02-.58.57-.59,1.51-.02,2.09l7.5,7.63Z"/>
  <path class="cls-1" d="m33.54,25.87c-.81,0-1.48.65-1.49,1.46l-.04,4.39-24.05-.21.04-4.39c0-.81-.65-1.48-1.46-1.49-.81,0-1.48.65-1.49,1.46l-.05,5.87c0,.81.65,1.48,1.46,1.49l27,.23c.81,0,1.48-.65,1.49-1.46l.05-5.87c0-.81-.65-1.48-1.46-1.49Z"/>
</svg>