<svg id="etvSE7ekQlp1" xmlns="http://www.w3.org/2000/svg" xmlns:xlink="http://www.w3.org/1999/xlink" viewBox="0 0 40 40" shape-rendering="geometricPrecision" text-rendering="geometricPrecision"><path d="M19.23,28.27c0,0,0,0,0,0c.03.04.07.07.11.1c0,0,0,0,.01,0c.03.03.07.05.11.08c0,0,.01,0,.02.01.04.02.07.05.11.07c0,0,.01,0,.02,0c.04.02.08.04.11.05c0,0,0,0,.01,0c.04.02.08.03.12.04c0,0,0,0,.01,0c.04.01.09.02.13.03c0,0,0,0,0,0c.04,0,.09.02.13.02c0,0,0,0,0,0c.05,0,.09,0,.14,0s.09,0,.14,0c0,0,0,0,0,0c.04,0,.09-.01.13-.02c0,0,0,0,0,0c.04,0,.09-.02.13-.03c0,0,0,0,.01,0c.04-.01.08-.03.12-.04c0,0,0,0,.01,0c.04-.02.08-.03.12-.05c0,0,.01,0,.02,0c.04-.02.07-.04.11-.06c0,0,.01,0,.02-.01.04-.02.07-.05.11-.08c0,0,0,0,.01,0c.04-.03.07-.06.11-.1c0,0,0,0,0,0l7.63-7.5c.58-.57.59-1.5.02-2.09-.57-.58-1.51-.59-2.09-.02L25.81,19.7l-4.04,3.97.03-4l.11-12.89c0-.81-.65-1.48-1.46-1.49-.81,0-1.48.65-1.49,1.46l-.11,12.89-.03,4-3.97-4.04-1.03-1.05c-.57-.58-1.51-.59-2.09-.02s-.59,1.51-.02,2.09l7.5,7.63.02.02Z" fill="#666" stroke-width="0"/><path d="M33.54,25.87c-.81,0-1.48.65-1.49,1.46l-.04,4.39-24.05-.21L8,27.12c0-.81-.65-1.48-1.46-1.49-.81,0-1.48.65-1.49,1.46L5,32.96c0,.81.65,1.48,1.46,1.49l27,.23c.81,0,1.48-.65,1.49-1.46L35,27.35c0-.81-.65-1.48-1.46-1.49v.01Z" fill="#666" stroke-width="0"/></svg>
