<svg id="eG96mrLO5H11" xmlns="http://www.w3.org/2000/svg" xmlns:xlink="http://www.w3.org/1999/xlink" viewBox="0 0 40 40" shape-rendering="geometricPrecision" text-rendering="geometricPrecision"><path d="M34.41,31.54l-5.3-5.3c3.84-5.22,3.4-12.61-1.32-17.34-5.21-5.21-13.66-5.21-18.88,0-5.21,5.21-5.21,13.66,0,18.88c4.73,4.73,12.11,5.17,17.34,1.32l5.3,5.3c.79.79,2.07.79,2.86,0s.79-2.07,0-2.86Zm-9.48-6.62c-3.63,3.63-9.52,3.63-13.15,0s-3.63-9.52,0-13.15s9.52-3.63,13.15,0s3.63,9.52,0,13.15Z" fill="#666" stroke-width="0"/><polygon points="24.44,16.84 19.88,16.84 19.88,12.39 16.86,12.39 16.86,16.84 12.54,16.84 12.54,19.86 16.86,19.86 16.86,24.3 19.88,24.3 19.88,19.86 24.44,19.86 24.44,16.84" fill="#666" stroke-width="0"/></svg>
