<svg id="eDLa27rHyzv1" xmlns="http://www.w3.org/2000/svg" xmlns:xlink="http://www.w3.org/1999/xlink" viewBox="0 0 40 40" shape-rendering="geometricPrecision" text-rendering="geometricPrecision"><path d="M5,24.71c0-.16,0-.32.03-.49.13-1.2.72-2.29,1.66-3.05s2.13-1.11,3.33-.98s2.28.72,3.04,1.66s1.11,2.13.98,3.33-.72,2.29-1.66,3.05-2.13,1.11-3.33.98v0C6.73,28.96,5,26.99,5,24.71Zm6.62,0c0-.47-.16-.93-.46-1.31-.35-.43-.85-.71-1.4-.77s-1.1.1-1.53.45-.71.85-.77,1.4c-.12,1.16.71,2.18,1.85,2.3v0c.55.06,1.1-.1,1.53-.45s.71-.85.77-1.4c0-.08.01-.15.01-.23v.01Zm-2.44,3.3v0c0,0,0,0,0,0Z" fill="#666" stroke-width="0"/><path d="M5,11.47c0-.16,0-.32.03-.49.13-1.2.72-2.29,1.66-3.05s2.13-1.11,3.33-.98s2.28.72,3.04,1.66s1.11,2.13.98,3.33-.72,2.29-1.66,3.05-2.13,1.11-3.33.98v0C6.73,15.72,5,13.75,5,11.47Zm6.62,0c0-.47-.16-.93-.46-1.31-.35-.43-.85-.71-1.4-.77s-1.1.1-1.53.45-.71.85-.77,1.4c-.12,1.16.71,2.18,1.85,2.3v0c.55.06,1.1-.1,1.53-.45s.71-.85.77-1.4c0-.08.01-.15.01-.23v.01Zm-2.44,3.3v0c0,0,0,0,0,0Z" fill="#666" stroke-width="0"/><path d="M5.25,31.84c0-3.14,2.34-4.65,3.58-5.01.65-.19,1.33.18,1.51.83.19.65-.18,1.32-.82,1.51-.2.06-1.83.64-1.83,2.67c0,.67-.55,1.22-1.22,1.22s-1.22-.55-1.22-1.22Z" fill="#666" stroke-width="0"/><path d="M35,26.2L12.82,10.56l-1.19,2.36L29.9,26.2c0,0,3.06,2.04,5.09,0h.01Z" fill="#666" stroke-width="0"/><g><path d="M24.67,16.71L35,9.43c-2.04-2.04-5.09,0-5.09,0l-7.59,5.51l2.36,1.77h-.01Z" fill="#666" stroke-width="0"/><polygon points="22.74,18.07 19.94,16.67 11.64,22.71 12.82,25.07 22.74,18.07" fill="#666" stroke-width="0"/></g></svg>
