<svg id="evoNJspq9kU1" xmlns="http://www.w3.org/2000/svg" xmlns:xlink="http://www.w3.org/1999/xlink" viewBox="0 0 40 40" shape-rendering="geometricPrecision" text-rendering="geometricPrecision"><path d="M7.94,10.92l7.11,7.11c.49-1.23,1.43-2.23,2.61-2.81L10.65,8.21L7.94,10.92Z" fill="#666" stroke-width="0"/><path d="M24.95,18.03l7.11-7.11l2.07,2.07c.08.08.23.02.23-.09L35,5.4c0-.07-.06-.13-.13-.13l-7.5.64c-.12,0-.18.14-.09.23l2.07,2.07-7.01,7.01c1.18.58,2.12,1.58,2.61,2.81Z" fill="#666" stroke-width="0"/><path d="M34.13,27.01l-2.07,2.07-7.11-7.11c-.49,1.23-1.43,2.23-2.61,2.81l7.01,7.01-2.07,2.07c-.08.08-.02.23.09.23l7.5.64c.07,0,.13-.06.13-.13l-.64-7.5c0-.12-.14-.18-.23-.09Z" fill="#666" stroke-width="0"/><path d="M10.65,8.2v0c0,0,2.07-2.07,2.07-2.07.08-.08.02-.23-.09-.23l-7.5-.64c-.07,0-.13.06-.13.13l.64,7.5c0,.12.14.18.23.09l2.07-2.07v0c0,0,2.71-2.71,2.71-2.71Z" fill="#666" stroke-width="0"/><path d="M15.05,21.97L7.94,29.08L5.87,27.01c-.08-.08-.23-.02-.23.09L5,34.6c0,.07.06.13.13.13l7.5-.64c.12,0,.18-.14.09-.23l-2.07-2.07l7.01-7.01c-1.18-.58-2.12-1.58-2.61-2.81Z" fill="#666" stroke-width="0"/></svg>
