<svg id="evoq9UZJVc11" xmlns="http://www.w3.org/2000/svg" xmlns:xlink="http://www.w3.org/1999/xlink" viewBox="0 0 40 40" shape-rendering="geometricPrecision" text-rendering="geometricPrecision"><path d="M6.49,21.89c2.03.49,3.34,3.91,2.27,5.53-.67,1-.81,1.76.1,2.7.88.91,1.65,1.74,3,.71.38-.29.95-.33,1.26-.44c1.59.07,3.91,1.61,4.14,2.72.24,1.13.63,1.86,1.98,1.85c1.24,0,2.23.09,2.68-1.55.55-2.05,3.85-3.27,5.54-2.18c1.12.74,1.92.61,2.84-.3.85-.84,1.28-1.51.54-2.76-1.1-1.91.19-4.85,2.32-5.3c1.15-.25,1.62-.74,1.8-1.62l.04-1.4c-.11-.89-.55-1.41-1.68-1.74-2.1-.59-3.18-3.64-1.94-5.44.83-1.21.44-1.89-.35-2.79-.84-.97-1.63-1.17-2.8-.51-1.76.97-4.97-.48-5.38-2.55-.32-1.67-1.31-1.64-2.56-1.74-1.33-.11-1.77.6-2.09,1.7-.31,1.1-2.73,2.47-4.33,2.42-.3-.12-.87-.2-1.23-.52-1.27-1.11-2.09-.36-3.04.5-.98.87-.87,1.64-.29,2.69.97,1.69-.59,5-2.64,5.34-1.23.21-1.51.81-1.62,1.6l-.04,1.4c.05.8.29,1.42,1.49,1.7l-.01-.02Zm5.99-2.76c.47-3.85,3.83-6.77,7.78-6.63c3.96.14,7.1,3.28,7.3,7.16l-.05,1.19c-.46,3.86-3.82,6.77-7.77,6.64-3.96-.14-7.1-3.29-7.3-7.17l.05-1.2-.01.01Z" fill="#666" stroke-width="0"/><path d="M19.7,24.15c2.19.15,4.11-1.39,4.45-3.52l.05-.66c-.03-2.16-1.7-3.97-3.89-4.13s-4.11,1.38-4.46,3.51l-.05.67c.03,2.15,1.7,3.97,3.89,4.13h.01Z" fill="#666" stroke-width="0"/></svg>
