<svg id="eK5rO1i4Ngp1" xmlns="http://www.w3.org/2000/svg" xmlns:xlink="http://www.w3.org/1999/xlink" viewBox="0 0 40 40" shape-rendering="geometricPrecision" text-rendering="geometricPrecision"><g><path d="M27.28,17.03l5.3-1.06C29.9,11.84,25.27,9.1,19.99,9.1c-8.27,0-15,6.73-15,15c0,2.36.56,4.72,1.63,6.81l4.31-2.2c-.73-1.43-1.1-2.99-1.1-4.61c0-5.6,4.56-10.16,10.16-10.16c2.86,0,5.44,1.19,7.28,3.09h.01Z" fill="#666" stroke-width="0"/><path d="M30.15,24.26c-.02,1.31-.28,2.59-.79,3.79l4.46,1.88C34.6,28.08,35,26.11,35,24.09c0-.98-.1-1.94-.28-2.88l-4.56,3.04-.01.01Z" fill="#666" stroke-width="0"/></g><g><path d="M34.03,17.81L19.9,21.12l2.08,4.8l12.05-7.14c0,0,1.67-.88,0-.97Z" fill="#666" stroke-width="0"/><path d="M21.38,26.16c-1.38.43-2.85-.34-3.28-1.72s.34-2.85,1.72-3.28s2.85.34,3.28,1.72-.34,2.85-1.72,3.28Z" fill="#666" stroke-width="0"/></g></svg>
