<svg id="esZ597zy0Q41" xmlns="http://www.w3.org/2000/svg" xmlns:xlink="http://www.w3.org/1999/xlink" viewBox="0 0 40 40" shape-rendering="geometricPrecision" text-rendering="geometricPrecision"><path d="M20.52,32.39c-.42,0-.93-.27-1.36-.71s-.87-.89-1.29-1.32v0c-1.23-1.26-2.5-2.56-3.7-3.86-1.14-1.23-2.6-1.87-4.35-1.91-1.15-.03-4.32-.07-4.49-.25-.06-.06-.24-.25-.28-.93-.05-.97-.05-5.86,0-6.84.04-.67.22-.86.28-.92.17-.18,3.34-.22,4.49-.25c1.75-.04,3.21-.68,4.35-1.91c1.21-1.3,2.48-2.6,3.7-3.85v0c.42-.44.86-.89,1.29-1.33.43-.45.94-.71,1.36-.71.11,0,.2.02.28.06.57.26.94.65.94,1.69-.01,3.48-.01,17.81,0,21.3c0,1.03-.37,1.42-.94,1.69-.08.04-.17.06-.28.06v0-.01Z" fill="#666" stroke-width="0"/><g><path d="M26.41,26.84c-.23,0-.47-.08-.65-.25-.4-.36-.43-.98-.07-1.38c1.33-1.48,2.01-3.2,2.01-5.12c0-.02,0-.05,0-.09s0-.07,0-.09c0-1.92-.68-3.64-2.01-5.12-.36-.4-.33-1.02.07-1.38s1.02-.33,1.38.07c.82.91,1.45,1.92,1.87,2.98.43,1.09.64,2.25.65,3.47c0,.02,0,.05,0,.06c0,.02,0,.04,0,.06c0,1.21-.22,2.38-.65,3.47-.42,1.07-1.05,2.07-1.87,2.98-.19.21-.46.32-.73.32v.02Z" fill="#666" stroke-width="0"/><path d="M28.97,32.45c-.26,0-.51-.1-.71-.3-.37-.39-.36-1.01.03-1.38c3.24-3.1,4.75-6.52,4.75-10.76s-1.51-7.66-4.75-10.76c-.39-.37-.4-.99-.03-1.38s.99-.4,1.38-.03c1.74,1.66,3.01,3.39,3.89,5.28.48,1.02.84,2.11,1.08,3.23.25,1.16.38,2.39.38,3.67s-.13,2.51-.38,3.67c-.24,1.12-.61,2.2-1.08,3.23-.88,1.89-2.16,3.62-3.89,5.28-.19.18-.43.27-.68.27l.01-.02Z" fill="#666" stroke-width="0"/></g></svg>
