<svg id="eaBpKXnjtGd1" xmlns="http://www.w3.org/2000/svg" xmlns:xlink="http://www.w3.org/1999/xlink" viewBox="0 0 40 40" shape-rendering="geometricPrecision" text-rendering="geometricPrecision"><path d="M28.8,23.55c0,.18-.07.35-.2.48l-3.09,3.09c-.13.13-.3.2-.48.2s-.35-.07-.48-.2-.2-.3-.2-.48.07-.35.2-.48l1.93-1.93h-18.38c-1.71,0-3.1-1.39-3.1-3.1L5,8.79c0-1.71,1.39-3.1,3.1-3.1h12.43c1.71,0,3.1,1.39,3.1,3.1v3.59c0,.31-.21.58-.51.66-.05.01-.11.02-.17.02-.38,0-.68-.31-.68-.68v-3.59c0-.96-.78-1.74-1.74-1.74h-12.43c-.96,0-1.74.78-1.74,1.74v12.34c0,.96.78,1.74,1.74,1.74h18.38l-1.84-1.84c-.13-.13-.2-.3-.2-.48s.07-.35.2-.48c.09-.09.19-.15.31-.18.24-.06.48,0,.66.18l3,3c.13.13.2.3.2.48h-.01Z" fill="#666" stroke="#666" stroke-width="0.8" stroke-miterlimit="10"/><path d="M35,18.87v12.34c0,1.71-1.39,3.1-3.1,3.1h-12.43c-1.71,0-3.1-1.39-3.1-3.1v-3.59c0-.31.21-.58.5-.66v0c.05-.02.11-.02.17-.02.37,0,.68.31.68.68v3.59c0,.96.78,1.74,1.74,1.74h12.43c.96,0,1.74-.78,1.74-1.74v-12.34c0-.96-.78-1.74-1.74-1.74h-18.37l1.84,1.84c.13.13.2.3.2.48s-.07.35-.2.48c-.09.09-.19.15-.31.18-.24.06-.48,0-.66-.18l-3-3c-.13-.13-.2-.3-.2-.48s.07-.35.2-.48l3.09-3.09c.13-.13.3-.2.48-.2s.35.07.48.2.2.3.2.48-.07.35-.2.48l-1.93,1.93h18.38c1.71,0,3.1,1.39,3.1,3.1h.01Z" fill="#666" stroke="#666" stroke-width="0.8" stroke-miterlimit="10"/></svg>
