<svg id="eUBGpF7JVif1" xmlns="http://www.w3.org/2000/svg" xmlns:xlink="http://www.w3.org/1999/xlink" viewBox="0 0 40 40" shape-rendering="geometricPrecision" text-rendering="geometricPrecision"><g><line x1="20.22" y1="5" x2="20.22" y2="7.42" fill="none" stroke="#666" stroke-width="2.1" stroke-linecap="round" stroke-linejoin="round"/><line x1="20.22" y1="10.52" x2="20.22" y2="12.94" fill="none" stroke="#666" stroke-width="2.1" stroke-linecap="round" stroke-linejoin="round"/><line x1="20.22" y1="16.03" x2="20.22" y2="18.45" fill="none" stroke="#666" stroke-width="2.1" stroke-linecap="round" stroke-linejoin="round"/><line x1="20.22" y1="21.55" x2="20.22" y2="23.97" fill="none" stroke="#666" stroke-width="2.1" stroke-linecap="round" stroke-linejoin="round"/><line x1="20.22" y1="27.06" x2="20.22" y2="29.48" fill="none" stroke="#666" stroke-width="2.1" stroke-linecap="round" stroke-linejoin="round"/><line x1="20.22" y1="32.58" x2="20.22" y2="35" fill="none" stroke="#666" stroke-width="2.1" stroke-linecap="round" stroke-linejoin="round"/></g><path d="M24.57,17.96l6.57-6.11c1.66-1.54,3.03-1.06,3.04,1.07v0v14.22c-.02,2.07-1.37,2.54-3,1.06l-6.59-6.01c-1.27-1.16-1.28-3.06-.02-4.22v-.01Z" fill="#666" stroke-width="0"/><path d="M15.43,22.04L8.86,28.15c-1.66,1.54-3.03,1.06-3.04-1.07v0-14.22c.02-2.07,1.37-2.54,3-1.06l6.59,6.01c1.27,1.16,1.28,3.06.02,4.22v.01Z" fill="#666" stroke-width="0"/></svg>
