<?xml version="1.0" encoding="UTF-8"?>
<svg id="_레이어_1" data-name="레이어 1" xmlns="http://www.w3.org/2000/svg" viewBox="0 0 40 40">
  <defs>
    <style>
      .cls-1 {
        fill: #666;
        stroke-width: 0px;
      }
    </style>
  </defs>
  <path class="cls-1" d="m32,12.05H8c-.58,0-1.05-.47-1.05-1.05s.47-1.05,1.05-1.05h24c.58,0,1.05.47,1.05,1.05s-.47,1.05-1.05,1.05Z"/>
  <path class="cls-1" d="m24,18.05H8c-.58,0-1.05-.47-1.05-1.05s.47-1.05,1.05-1.05h16c.58,0,1.05.47,1.05,1.05s-.47,1.05-1.05,1.05Z"/>
  <path class="cls-1" d="m32,24.05H8c-.58,0-1.05-.47-1.05-1.05s.47-1.05,1.05-1.05h24c.58,0,1.05.47,1.05,1.05s-.47,1.05-1.05,1.05Z"/>
  <path class="cls-1" d="m24,30.05H8c-.58,0-1.05-.47-1.05-1.05s.47-1.05,1.05-1.05h16c.58,0,1.05.47,1.05,1.05s-.47,1.05-1.05,1.05Z"/>
</svg>