<?xml version="1.0" encoding="UTF-8"?>
<svg id="_레이어_1" data-name="레이어 1" xmlns="http://www.w3.org/2000/svg" viewBox="0 0 40 40">
  <defs>
    <style>
      .cls-1, .cls-2 {
        stroke-width: 0px;
      }

      .cls-2 {
        fill: #fff;
      }
    </style>
  </defs>
  <rect class="cls-1" width="40" height="40" rx="9.26" ry="9.26"/>
  <g>
    <path class="cls-2" d="m30.11,12.3H9.89c-.77,0-1.39-.58-1.39-1.3s.62-1.3,1.39-1.3h20.23c.77,0,1.39.58,1.39,1.3s-.62,1.3-1.39,1.3Z"/>
    <g>
      <path class="cls-2" d="m27.19,34.46h-14.35c-1.22,0-2.22-.92-2.22-2.06V15.19c0-.72.62-1.3,1.39-1.3s1.39.58,1.39,1.3v16.68h13.21V15.19c0-.72.62-1.3,1.39-1.3s1.39.58,1.39,1.3v17.21c0,1.13-.98,2.06-2.19,2.06Z"/>
      <path class="cls-2" d="m17.23,29.54c-.61,0-1.11-.58-1.11-1.3v-13.05c0-.72.5-1.3,1.11-1.3s1.11.58,1.11,1.3v13.05c0,.72-.5,1.3-1.11,1.3Z"/>
      <path class="cls-2" d="m22.59,29.54c-.61,0-1.09-.58-1.09-1.3v-13.05c0-.72.5-1.3,1.11-1.3s1.11.58,1.11,1.3v13.05c0,.72-.52,1.3-1.13,1.3Z"/>
    </g>
    <path class="cls-2" d="m17.18,11.54c-.11-.31-.18-.65-.18-1,0-1.65,1.35-3,3-3s3,1.35,3,3c0,.35-.07.69-.18,1h2.08c.07-.32.1-.66.1-1,0-2.76-2.24-5-5-5s-5,2.24-5,5c0,.34.04.68.1,1h2.08Z"/>
  </g>
</svg>