<svg cache-id="ac6b86e781e94168af0a6eedfcc63872" id="eGieR9DUw6k1" xmlns="http://www.w3.org/2000/svg" xmlns:xlink="http://www.w3.org/1999/xlink" viewBox="0 0 40 40" shape-rendering="geometricPrecision" text-rendering="geometricPrecision"><g><polyline points="27.98,7.58 33.89,7.58 33.89,13.49" fill="none" stroke="#fff" stroke-width="2" stroke-miterlimit="10"/><polyline points="12.01,32.43 6.09,32.43 6.09,26.51" fill="none" stroke="#fff" stroke-width="2" stroke-miterlimit="10"/></g><g><polyline points="12.01,7.58 6.09,7.58 6.09,13.49" fill="none" stroke="#fff" stroke-width="2" stroke-miterlimit="10"/><polyline points="27.98,32.43 33.89,32.43 33.89,26.51" fill="none" stroke="#fff" stroke-width="2" stroke-miterlimit="10"/></g><path d="M26.58,20.9l-8.23,4.96c-.3.18-.64.27-.97.27s-.64-.08-.93-.24c-.59-.33-.96-.96-.96-1.64v-9.91c0-.68.37-1.31.96-1.64s1.32-.32,1.9.03l8.23,4.96c.57.34.91.95.91,1.62s-.35,1.27-.91,1.62v-.03Z" fill="#fff" stroke-width="0"/></svg>
