<?xml version="1.0" encoding="UTF-8"?>
<svg id="_레이어_1" data-name="레이어 1" xmlns="http://www.w3.org/2000/svg" viewBox="0 0 40 40">
  <defs>
    <style>
      .cls-1 {
        fill: #666;
        stroke-width: 0px;
      }
    </style>
  </defs>
  <path class="cls-1" d="m35,32.83L7.17,5l-2.17,2.17,4.64,4.64c-.71.2-1.22.85-1.22,1.62v9.77c0,.93.76,1.69,1.69,1.69h8.25l7.05,5.99c.31.26.7.4,1.1.4.24,0,.48-.05.71-.16.39-.18.69-.5.85-.88l4.76,4.76,2.17-2.17Z"/>
  <path class="cls-1" d="m28.2,7.03c0-.66-.38-1.26-.98-1.53-.6-.28-1.3-.18-1.8.25l-7.05,5.99h-.95l10.79,10.79V7.03Z"/>
</svg>