<?xml version="1.0" encoding="UTF-8"?><svg id="_레이어_2" xmlns="http://www.w3.org/2000/svg" viewBox="0 0 378.78 79.39"><defs><style>.cls-1{fill:#fff;}</style></defs><g id="_레이어_1-2"><path class="cls-1" d="m178.04,51.63h-14.5v21.19h-9.22v-21.19h-16.43v21.19h-9.29v-21.19h-14.5v-8.48h63.94v8.48Zm-31.97-11.67c-13.38,0-26.99-1.49-26.99-16.13s13.61-16.13,26.99-16.13,26.99,1.48,26.99,16.13-13.61,16.13-26.99,16.13Zm0-24.02c-10.04,0-17.92.82-17.92,7.88s7.88,7.88,17.92,7.88,17.92-.82,17.92-7.88-7.88-7.88-17.92-7.88Z"/><path class="cls-1" d="m229.12,54.83h-9.22v-25.65h-5.06c-1.63,8.1-7.88,13.16-16.73,13.16-10.41,0-17.17-7.14-17.17-17.62s6.84-17.62,17.17-17.62c9,0,15.24,5.28,16.8,13.53h4.98V6.57h9.22v48.26Zm13.46,17.25h-45.95c-3.2,0-8.33-1.33-8.33-7.21v-17.03h9.3v15.69h44.98v8.55Zm-44.46-56.58c-5.35,0-8.11,4.68-8.11,9.37s2.75,9.37,8.11,9.37,8.11-4.76,8.11-9.37-2.75-9.37-8.11-9.37Zm43.64,39.34h-9.22V6.57h9.22v48.26Z"/><path class="cls-1" d="m288.6,52.59h-30.56c-3.64,0-8.17-1.26-8.17-7.36V8.65h9.22v14.8h20.22v-14.8h9.3v43.94Zm-9.3-8.55v-12.12h-20.22v12.12h20.22Zm29.44,28.78h-9.21V6.64h9.21v66.18Z"/><path class="cls-1" d="m378.78,58.62h-64.01v-8.47h64.01v8.47Zm-2.45-25.5l-4.91,7.81-24.61-13.98-24.76,14.13-4.91-8.11,29.74-16.13,29.45,16.28Zm-2.61-16.5h-53.83v-8.48h53.83v8.48Z"/><path class="cls-1" d="m91.97,36.51c2.29-3.71,3.49-8.11,3.49-12.76,0-13.76-10.2-23.75-24.25-23.75h-7.41v2.26h7.41c12.72,0,21.96,9.03,21.96,21.49s-9.23,21.49-21.96,21.49h-7.41v2.26h10.52c4.19,0,6.89,2.59,6.89,6.6s-2.7,6.61-6.89,6.61h-12.41c-.24.76-.49,1.52-.77,2.25h13.18c5.5,0,9.19-3.56,9.19-8.86,0-3.49-1.65-6.32-4.47-7.74,1.13-.35,2.24-.77,3.29-1.27,2.65,2.04,4.1,5.22,4.1,9,0,7.01-4.87,11.72-12.11,11.72h-14.46c-.4.78-.82,1.53-1.27,2.26h15.74c8.62,0,14.41-5.62,14.41-13.97,0-4.13-1.47-7.73-4.16-10.2.83-.51,1.63-1.07,2.38-1.67,3.05,2.97,4.72,7.17,4.72,11.88,0,9.91-7.13,16.83-17.33,16.83h-17.76c-.63.78-1.3,1.54-2.01,2.25h19.77c11.56,0,19.62-7.84,19.62-19.08,0-5.29-1.86-10.05-5.24-13.46.69-.69,1.34-1.42,1.93-2.19,4.02,3.88,6.23,9.42,6.23,15.64,0,12.92-9.27,21.94-22.55,21.94h-23.13c-1.12.83-2.3,1.59-3.54,2.25h26.67c14.63,0,24.85-9.95,24.85-24.19,0-7.01-2.55-13.24-7.19-17.59Z"/><path class="cls-1" d="m79.8,23.75c0-4.88-3.62-8.42-8.6-8.42h-7.41v2.26h7.41c3.65,0,6.3,2.59,6.3,6.16s-2.65,6.16-6.3,6.16h-7.41v2.25h7.41c4.98,0,8.6-3.54,8.6-8.41Z"/><path class="cls-1" d="m85.02,23.75c0-7.84-5.81-13.53-13.82-13.53h-7.41v2.25h7.41c6.68,0,11.52,4.74,11.52,11.27s-4.85,11.27-11.52,11.27h-7.41v2.26h7.41c8.01,0,13.82-5.68,13.82-13.53Z"/><path class="cls-1" d="m90.24,23.75c0-10.8-8.01-18.64-19.04-18.64h-7.41v2.26h7.41c9.7,0,16.74,6.89,16.74,16.38s-7.04,16.38-16.74,16.38h-7.41v2.25h7.41c11.03,0,19.04-7.83,19.04-18.63Z"/><path class="cls-1" d="m52.56,70.92c.86-.89,1.64-1.85,2.37-2.85.53-.72,1.02-1.48,1.49-2.26.53-.91,1.01-1.86,1.45-2.85.32-.73.62-1.48.89-2.25,1.22-3.53,1.89-7.46,1.9-11.77V.07h-2.33v48.82c0,13.98-7.3,23.92-19.2,27.13-2.71.77-5.66,1.17-8.8,1.17s-6.09-.4-8.8-1.17c-11.9-3.2-19.2-13.15-19.2-27.13V.07H0v48.86c.02,18.5,11.92,30.46,30.33,30.46,3.72,0,7.16-.51,10.3-1.44,1.74-.51,3.39-1.15,4.93-1.92,1.61-.81,3.1-1.77,4.47-2.86.89-.7,1.73-1.45,2.52-2.25Z"/><path class="cls-1" d="m22.34,73.17c2.45.68,5.13,1.04,8,1.04s5.55-.36,8-1.04c10.49-2.92,16.92-11.79,16.93-24.24V.07h-2.33v48.82c0,10.9-5.38,18.77-14.22,21.74-2.55.93-5.35,1.45-8.38,1.45s-5.83-.52-8.37-1.45c-8.84-2.97-14.23-10.84-14.23-21.74V.07h-2.33v48.86c.01,12.44,6.44,21.31,16.93,24.24Z"/><path class="cls-1" d="m22.33,67.63c2.39.96,5.07,1.47,8,1.47s5.62-.51,8-1.47c7.11-2.86,11.51-9.67,11.53-18.7V.07h-2.34v48.82c0,7.74-3.41,13.52-9.12,16.23-2.36,1.2-5.08,1.88-8.08,1.88s-5.7-.66-8.06-1.87c-5.72-2.71-9.14-8.49-9.14-16.24V.07h-2.33v48.86c.01,9.03,4.42,15.85,11.53,18.7Z"/><path class="cls-1" d="m23.23,62.28c2.03,1.13,4.43,1.74,7.11,1.74s5.08-.61,7.11-1.74c4.36-2.41,7-7.17,7.01-13.32V.07h-2.33v48.82c0,7.68-4.74,12.84-11.79,12.84s-11.79-5.15-11.79-12.81V.1h-2.33v48.86c.01,6.15,2.66,10.91,7.02,13.32Z"/></g></svg>