<svg width="230" height="61" viewBox="0 0 230 61" fill="none" xmlns="http://www.w3.org/2000/svg">
<g clip-path="url(#clip0_76_7352)">
<path d="M22.2578 35.5384C20.4394 35.3273 18.6241 34.7936 17.255 34.1271C13.6604 32.3871 12.21 29.7576 12.21 29.7576C13.4343 34.8237 17.1223 40.1582 23.452 43.4392C28.5453 46.0778 37.3055 47.7997 43.6864 42.4742C49.4552 37.6553 46.5753 29.5193 41.9736 28.3101C40.3813 27.894 38.5057 28.3101 38.4333 29.2962C38.4333 29.2962 43.2069 30.819 43.023 35.6138C42.8692 39.6607 38.8072 40.7312 37.7186 40.9785C37.3839 41.0599 37.1125 41.0388 37.1064 40.9544C37.1034 40.9001 37.2964 40.879 37.6191 40.7614C38.7891 40.3331 41.3614 39.0274 41.7685 36.0752C42.067 33.9221 40.7673 29.9174 37.2271 28.8981C34.7061 28.1744 32.3147 28.8318 30.9064 30.2491C30.0108 31.0693 29.854 31.9951 29.4349 32.8003C27.8758 35.7947 24.1546 35.7585 22.2638 35.5384H22.2578Z" fill="#005AAA"/>
<path d="M37.9328 24.6854C39.7542 24.8965 41.5665 25.4302 42.9356 26.0967C46.5301 27.8397 47.9836 30.4662 47.9836 30.4662C46.7593 25.4001 43.0683 20.0656 36.7386 16.7846C31.6483 14.143 22.8881 12.4241 16.5102 17.7526C10.7384 22.5715 13.6213 30.7075 18.2231 31.9167C19.8153 32.3329 21.6909 31.9167 21.7633 30.9276C21.7633 30.9276 16.9897 29.4048 17.1706 24.607C17.3244 20.5601 21.3894 19.4896 22.475 19.2453C22.8097 19.1639 23.0841 19.185 23.0902 19.2664C23.0932 19.3207 22.9002 19.3418 22.5775 19.4624C21.4045 19.8876 18.8322 21.1964 18.4251 24.1456C18.1296 26.3017 19.4293 30.3064 22.9695 31.3257C25.4875 32.0524 27.8789 31.392 29.2932 29.9747C30.1858 29.1575 30.3426 28.2287 30.7587 27.4265C32.3178 24.4321 36.042 24.4683 37.9328 24.6854Z" fill="#ED1B23"/>
<path d="M4.85804 33.334L3.9202 33.4366L3.89608 33.2255C3.85989 32.8727 3.99861 32.6706 4.30318 32.6374C4.6168 32.6043 4.79472 32.7701 4.83392 33.135L4.85804 33.334ZM7.04432 33.8105L6.91164 32.5892C6.83022 31.8293 6.39296 31.4131 5.75366 31.4825C5.26514 31.5368 4.97866 31.8202 4.9274 32.3148C4.72837 32.0434 4.50824 31.9589 4.1524 32.0012C3.85386 32.0313 3.58547 32.1881 3.44977 32.4052C3.32312 32.6073 3.28392 32.8968 3.32915 33.3129L3.42565 34.2055L7.04432 33.8105ZM6.39899 33.1682L5.39481 33.2737L5.36767 33.0084C5.30736 32.4836 5.43703 32.2484 5.7989 32.2092C6.12759 32.173 6.31456 32.3902 6.36582 32.8606L6.39899 33.1652V33.1682Z" fill="#221E1F"/>
<path d="M3.73937 28.8891C3.76953 28.2196 4.35455 27.707 5.0421 27.7371C5.73568 27.7703 6.26943 28.3433 6.23927 29.0037C6.20912 29.6762 5.62108 30.1918 4.93052 30.1617C4.24297 30.1315 3.7062 29.5616 3.73937 28.8891ZM3.08801 28.862C3.03976 29.9536 3.83889 30.8462 4.9064 30.8944C5.97391 30.9427 6.83636 30.1375 6.88762 29.0369C6.93889 27.9543 6.14278 27.0586 5.07527 27.0074C4.01379 26.9621 3.14229 27.7733 3.09103 28.862H3.08801Z" fill="#221E1F"/>
<path d="M3.39559 26.1479L3.56447 25.3156L4.79783 24.9116L3.82682 24.028L3.99871 23.1927L5.45221 24.6341L7.58421 23.8018L7.41835 24.6191L5.94978 25.1558L7.08664 26.2475L6.91777 27.0707L5.28937 25.4242L3.39258 26.1449L3.39559 26.1479Z" fill="#221E1F"/>
<path d="M7.97009 22.7494L7.75598 23.4249L4.28809 22.3302L4.50219 21.6548L7.9731 22.7524L7.97009 22.7494Z" fill="#221E1F"/>
<path d="M4.78882 20.4485L4.99388 19.9992L8.2145 19.0372L5.986 18.021L6.28152 17.3757L9.65594 18.9166L9.45088 19.3629L6.23026 20.3249L8.46781 21.3502L8.1753 21.9925L4.79183 20.4485H4.78882Z" fill="#221E1F"/>
<path d="M10.3615 14.2485L10.452 14.3149C11.42 14.9813 11.6371 15.9704 11.0159 16.86C10.3887 17.7677 9.27896 17.9818 8.38334 17.3606C7.46962 16.7273 7.26758 15.5995 7.90386 14.6798C8.28986 14.1249 8.83869 13.8475 9.49608 13.8867L9.41466 14.5863C8.9955 14.5591 8.6668 14.719 8.42857 15.0658C8.04258 15.6206 8.2024 16.3474 8.8025 16.7635C9.38149 17.1646 10.1082 17.05 10.4972 16.4891C10.7898 16.0639 10.7566 15.5754 10.4068 15.2678L9.91826 15.9734L9.41164 15.6206L10.3585 14.2516L10.3615 14.2485Z" fill="#221E1F"/>
<path d="M13.7722 11.6401L13.0123 12.3427L12.5147 11.0219L13.7752 11.6401H13.7722ZM14.3241 11.9085L15.0719 12.2613L15.6298 11.7486L11.987 10.0539L11.595 10.4158L12.952 14.2154L13.5068 13.7057L13.2264 12.9187L14.321 11.9085H14.3241Z" fill="#221E1F"/>
<path d="M15.7925 8.24756C15.5241 8.18424 15.3281 8.21138 15.1562 8.332C14.9029 8.5069 14.8215 8.7783 14.9542 8.96527C15.0628 9.12509 15.2286 9.14017 15.6689 9.02558C16.5012 8.80544 16.8449 8.88385 17.1767 9.35729C17.5777 9.93326 17.433 10.6359 16.8299 11.0551C16.3866 11.3657 15.9433 11.4139 15.4005 11.2058L15.5241 10.5816C15.8408 10.7475 16.1604 10.7324 16.4378 10.5364C16.6972 10.3554 16.7635 10.0448 16.5977 9.80359C16.5102 9.67694 16.3775 9.6106 16.2087 9.61663C16.1242 9.61965 15.9735 9.6498 15.684 9.72821C15.0024 9.91215 14.6677 9.83375 14.3782 9.42062C14.0405 8.9321 14.1852 8.28375 14.716 7.91585C15.0416 7.68969 15.4216 7.59319 15.8257 7.63842L15.7985 8.24756H15.7925Z" fill="#221E1F"/>
<path d="M18.5547 6.67344C18.2924 6.57694 18.0994 6.58297 17.9124 6.68249C17.641 6.82422 17.5264 7.08356 17.635 7.2856C17.7224 7.45749 17.8822 7.49367 18.3346 7.43336C19.188 7.31576 19.5197 7.43336 19.7911 7.94601C20.1198 8.56721 19.8906 9.2427 19.2393 9.58647C18.7628 9.83978 18.3165 9.83375 17.8008 9.56537L17.9999 8.95924C18.2924 9.1643 18.612 9.18541 18.9136 9.02558C19.194 8.87782 19.2965 8.57626 19.1608 8.31391C19.0885 8.18122 18.9648 8.09679 18.796 8.08171C18.7145 8.07568 18.5577 8.08472 18.2652 8.12694C17.5656 8.22344 17.2399 8.10583 17.0077 7.66255C16.7303 7.13784 16.9535 6.51362 17.5234 6.20904C17.8732 6.0251 18.2592 5.97383 18.6572 6.06731L18.5577 6.66741L18.5547 6.67344Z" fill="#221E1F"/>
<path d="M21.4406 5.1928C22.0739 4.97266 22.7705 5.3285 22.9967 5.97685C23.2198 6.63122 22.8881 7.33988 22.2639 7.557C21.6306 7.77714 20.931 7.42432 20.7018 6.77296C20.4787 6.12461 20.8074 5.41294 21.4406 5.1928ZM21.2265 4.58064C20.1982 4.93648 19.6615 6.01303 20.0143 7.02325C20.3641 8.03346 21.4346 8.53404 22.472 8.17218C23.4973 7.81634 24.034 6.74582 23.6812 5.7356C23.3344 4.73142 22.2579 4.22481 21.2235 4.58064H21.2265Z" fill="#221E1F"/>
<path d="M26.9531 4.3002C26.6153 4.068 26.3379 3.99562 26.0062 4.05292C25.3518 4.16751 24.9326 4.80379 25.0533 5.48833C25.1799 6.21206 25.771 6.63424 26.4736 6.5106C26.7902 6.45632 27.0164 6.29951 27.2486 5.97082L27.3933 6.79407C27.1038 6.99912 26.8566 7.10467 26.555 7.15895C25.4905 7.3429 24.5195 6.67043 24.3386 5.62101C24.1546 4.57763 24.8573 3.59757 25.9157 3.4106C26.2203 3.35632 26.4826 3.37743 26.8143 3.47996L26.9591 4.3002H26.9531Z" fill="#221E1F"/>
<path d="M28.7353 6.85136L28.0297 6.90262L27.7673 3.2749L28.473 3.22364L28.7353 6.85437V6.85136Z" fill="#221E1F"/>
<path d="M31.5338 5.50642L30.4995 5.47023L31.0755 4.18259L31.5338 5.50943V5.50642ZM31.7359 6.08842L32.0193 6.86945L32.7762 6.89659L31.3891 3.13016L30.8553 3.10905L29.1455 6.76391L29.8964 6.79105L30.2552 6.03414L31.7419 6.08842H31.7359Z" fill="#221E1F"/>
<path d="M33.3853 7.04134L33.8557 4.05593L33.0505 3.92928L33.147 3.32014L35.46 3.68502L35.3635 4.29115L34.5553 4.16449L34.0849 7.1499L33.3822 7.03833L33.3853 7.04134Z" fill="#221E1F"/>
<path d="M35.9999 7.56906L35.3093 7.40019L36.1748 3.86595L36.8654 4.03181L35.9999 7.56605V7.56906Z" fill="#221E1F"/>
<path d="M39.51 5.47626C40.1372 5.71449 40.4418 6.4322 40.1945 7.07451C39.9473 7.71984 39.2386 8.05155 38.6144 7.81332C37.9871 7.57509 37.6796 6.85437 37.9298 6.20603C38.1711 5.56371 38.8828 5.23502 39.51 5.47325V5.47626ZM39.7452 4.87013C38.7229 4.48113 37.6253 4.9606 37.2423 5.95875C36.8623 6.9569 37.3569 8.02743 38.3852 8.42247C39.3984 8.80846 40.4961 8.33502 40.8791 7.33686C41.259 6.34474 40.7615 5.26216 39.7452 4.87013Z" fill="#221E1F"/>
<path d="M42.6281 6.11255L43.0473 6.36586L43.6293 9.67694L44.8988 7.58113L45.505 7.94903L43.584 11.1184L43.1649 10.8651L42.5829 7.55097L41.3073 9.65584L40.7012 9.28794L42.6311 6.10652L42.6281 6.11255Z" fill="#221E1F"/>
<path d="M48.6833 11.4079C49.1598 11.8813 49.1447 12.6593 48.6592 13.1479C48.1707 13.6394 47.3866 13.6545 46.9162 13.184C46.4397 12.7106 46.4488 11.9266 46.9343 11.438C47.4198 10.9495 48.2008 10.9344 48.6803 11.4079H48.6833ZM49.1386 10.9465C48.3606 10.1805 47.1634 10.1715 46.4096 10.9284C45.6557 11.6883 45.6738 12.8674 46.4578 13.6454C47.2268 14.4084 48.424 14.4204 49.1778 13.6605C49.9257 12.9066 49.9106 11.7155 49.1386 10.9435V10.9465Z" fill="#221E1F"/>
<path d="M51.0476 14.1822L50.3993 14.6677L51.0868 15.5754L50.5953 15.9463L49.9107 15.0356L48.6352 15.9976L48.21 15.4306L51.1139 13.2413L52.2719 14.7793L51.7804 15.1502L51.0506 14.1792L51.0476 14.1822Z" fill="#221E1F"/>
<path d="M54.5637 18.8081L54.9618 19.6072L52.7725 18.9769L51.7382 21.2989L51.325 20.4636L52.2176 18.5789L52.1 18.5397L50.7129 19.2302L50.3962 18.597L53.653 16.9806L53.9697 17.6139L52.5916 18.2984L54.5637 18.8111V18.8081Z" fill="#221E1F"/>
<path d="M55.2542 22.1945C55.4532 22.8338 55.0823 23.5184 54.4279 23.7234C53.7675 23.9315 53.0649 23.5787 52.8689 22.9454C52.6638 22.3061 53.0378 21.6186 53.6982 21.4075C54.3556 21.1994 55.0552 21.5522 55.2572 22.1915L55.2542 22.1945ZM55.8754 22.0015C55.5467 20.9612 54.4882 20.3943 53.469 20.7169C52.4467 21.0366 51.916 22.089 52.2477 23.1414C52.5734 24.1758 53.6258 24.7427 54.645 24.42C55.6583 24.1004 56.2011 23.0389 55.8754 21.9985V22.0015Z" fill="#221E1F"/>
<path d="M55.019 25.9338L56.1106 25.771L56.1408 25.9851C56.2071 26.4224 56.0594 26.6877 55.7096 26.742C55.3477 26.7963 55.1185 26.5882 55.0522 26.1389L55.022 25.9338H55.019ZM54.7114 26.7872C54.8984 27.3029 55.3025 27.5381 55.8543 27.4567C56.5268 27.3572 56.8464 26.8355 56.7258 26.0273L56.569 24.987L52.9714 25.5267L53.074 26.2264L54.5184 26.0092L54.5335 26.1027L53.2308 27.2878L53.3604 28.1503L54.7084 26.7903L54.7114 26.7872Z" fill="#221E1F"/>
<path d="M56.403 29.1967L55.5979 29.2178L55.6311 30.4692L55.0129 30.4873L54.9827 29.2329L54.0027 29.257L54.0388 30.5597L53.4206 30.5748L53.3694 28.5634L57.0062 28.4699L57.0574 30.4813L56.4422 30.4934L56.4061 29.1937L56.403 29.1967Z" fill="#221E1F"/>
<path d="M54.5456 33.2586L54.6541 32.2303L55.9026 32.8938L54.5456 33.2586ZM53.9545 33.4215L53.1554 33.6507L53.074 34.4046L56.9279 33.2767L56.9852 32.746L53.457 30.7889L53.3755 31.5368L54.1053 31.9439L53.9515 33.4245L53.9545 33.4215Z" fill="#221E1F"/>
<path d="M9.06177 30.0893C9.06177 41.6841 18.4975 51.1168 30.0893 51.1168C41.6811 51.1168 51.1168 41.6841 51.1168 30.0893C51.1168 18.4944 41.6841 9.06177 30.0893 9.06177C18.4944 9.06177 9.06177 18.4944 9.06177 30.0893ZM9.39951 30.0893C9.39951 18.6814 18.6844 9.39951 30.0893 9.39951C41.4941 9.39951 50.7761 18.6814 50.7761 30.0893C50.7761 41.4972 41.4972 50.776 30.0893 50.776C18.6814 50.776 9.39951 41.4941 9.39951 30.0893Z" fill="#221E1F"/>
<path d="M0 30.0893C0 46.6809 13.5007 60.1786 30.0893 60.1786C46.6779 60.1786 60.1786 46.6809 60.1786 30.0893C60.1786 13.4977 46.6809 0 30.0893 0C13.4977 0 0 13.4977 0 30.0893ZM0.9107 30.0893C0.9107 13.9982 14.0013 0.9107 30.0893 0.9107C46.1773 0.9107 59.2679 14.0013 59.2679 30.0893C59.2679 46.1773 46.1773 59.2679 30.0893 59.2679C14.0013 59.2679 0.9107 46.1773 0.9107 30.0893Z" fill="#221E1F"/>
<path d="M8.26571 40.0527C8.26571 40.7915 7.66561 41.3916 6.9268 41.3916C6.18799 41.3916 5.58789 40.7915 5.58789 40.0527C5.58789 39.3139 6.18497 38.7138 6.9268 38.7138C7.66863 38.7138 8.26571 39.3139 8.26571 40.0527Z" fill="#221E1F"/>
<path d="M51.9131 40.0527C51.9131 40.7915 52.5132 41.3916 53.252 41.3916C53.9908 41.3916 54.5909 40.7915 54.5909 40.0527C54.5909 39.3139 53.9938 38.7138 53.252 38.7138C52.5102 38.7138 51.9131 39.3139 51.9131 40.0527Z" fill="#221E1F"/>
<path d="M13.4886 47.471L13.169 47.1242L14.0978 46.2678L13.564 45.6918L11.0822 47.9776L9.89104 46.6839L11.8602 44.8686L12.6141 45.6858L13.1267 45.2184L11.8451 43.8252L11.8391 43.8191L8.84766 46.5754L10.5695 48.448L9.63773 49.3075L10.1685 49.8864L12.6533 47.5946L12.976 47.9414L10.4911 50.2332L11.0219 50.8122L14.9481 47.1936L14.4174 46.6146L13.4886 47.471Z" fill="#221E1F"/>
<path d="M34.6518 54.9496L35.2007 54.3796L32.9842 52.4316L31.6091 55.1185L32.3299 55.4472L33.2194 53.665L34.6518 54.9496Z" fill="#221E1F"/>
<path d="M35.9778 52.0983L35.2048 52.2464L35.6567 54.6039L36.4297 54.4558L35.9778 52.0983Z" fill="#221E1F"/>
<path d="M34.8539 54.9134C34.0518 55.0672 33.5301 55.8422 33.6839 56.6413C33.8346 57.4434 34.6096 57.9682 35.4118 57.8144C36.2139 57.6606 36.7356 56.8856 36.5848 56.0834C36.431 55.2843 35.656 54.7596 34.8539 54.9134ZM35.267 57.0695C34.875 57.1449 34.4981 56.8886 34.4257 56.4996C34.3503 56.1076 34.6066 55.7306 34.9956 55.6552C35.3877 55.5798 35.7646 55.8362 35.837 56.2282C35.9124 56.6202 35.656 56.9971 35.267 57.0695Z" fill="#221E1F"/>
<path d="M26.4405 54.7536L28.093 55.028L28.102 55.034L28.4639 52.8688L27.6859 52.7392L27.6286 53.095L25.0654 52.6668L25.1257 52.311L24.3507 52.1873L23.9888 54.3525H23.9979L25.6655 54.6269L25.6082 54.9616L23.636 54.6329L23.5244 55.3205L28.2438 56.1076L28.3584 55.42L26.3832 55.0913L26.4405 54.7566V54.7536ZM27.517 53.7826L27.4416 54.2138L24.8784 53.7856L24.9508 53.3543L27.517 53.7795V53.7826Z" fill="#221E1F"/>
<path d="M23.6389 56.4302L26.9802 56.9851L26.8113 57.9953L27.5893 58.125L27.8728 56.4272L23.7535 55.7427L23.6389 56.4302Z" fill="#221E1F"/>
<path d="M43.5779 52.4437L41.3796 53.6589L41.1775 53.294L40.49 53.674L41.5877 55.6643L45.1581 53.6921L44.0604 51.7018L43.3699 52.0818L43.5719 52.4467L43.5779 52.4437ZM43.9157 53.0528L44.1418 53.4599L41.9435 54.6752L41.7173 54.2681L43.9157 53.0528Z" fill="#221E1F"/>
<path d="M42.218 49.986L41.6089 50.3237L41.3827 49.9166L40.4026 50.4564L40.1704 50.0372L39.4829 50.4172L39.7121 50.8364L38.729 51.3792L39.0547 51.9642L39.4738 51.732C39.4437 51.9883 39.4889 52.2506 39.6246 52.4889C39.9624 53.1041 40.7344 53.3272 41.3495 52.9895C41.9647 52.6487 42.1879 51.8767 41.8501 51.2615C41.7174 51.0233 41.5154 50.8424 41.2862 50.7338L41.6963 50.5077L41.9044 50.8876L42.5286 50.5469L42.6915 50.8454L42.0702 51.1892L42.3778 51.7471L42.999 51.4033L43.2463 51.8526L43.9339 51.4726L42.6311 49.1145L41.9436 49.4944L42.215 49.989L42.218 49.986ZM40.9907 52.3381C40.7374 52.4798 40.4147 52.3894 40.273 52.133C40.1312 51.8767 40.2247 51.5541 40.481 51.4123C40.7344 51.2706 41.057 51.3671 41.1988 51.6234C41.3405 51.8767 41.244 52.1994 40.9877 52.3411L40.9907 52.3381Z" fill="#221E1F"/>
<path d="M17.0533 52.1632C17.6986 52.522 18.5037 52.2989 18.8535 51.6656C19.0043 51.3912 19.0465 51.0866 18.9953 50.8002L19.3963 51.0233L19.722 50.4383L18.757 49.9045L18.9953 49.4733L18.3077 49.0934L18.0695 49.5216L17.1075 48.9878L16.7819 49.5728L17.1829 49.796C16.9115 49.9015 16.6763 50.0975 16.5225 50.372C16.1727 51.0052 16.4109 51.8074 17.0563 52.1632H17.0533ZM17.4 51.539C17.1226 51.3852 17.0231 51.0263 17.1829 50.7368C17.3427 50.4504 17.6986 50.3418 17.979 50.4956C18.2595 50.6524 18.356 51.0113 18.1962 51.3007C18.0363 51.5902 17.6805 51.6958 17.4031 51.539H17.4Z" fill="#221E1F"/>
<path d="M16.6642 52.2054L15.9796 51.8255L14.9634 53.6499L18.5067 55.616L18.8444 55.0069L15.9887 53.4237L16.6642 52.2054Z" fill="#221E1F"/>
<path d="M20.8889 50.9721L20.2043 50.5891L18.4734 53.7072L19.1609 54.0901L19.9359 52.6879L20.5089 53.0045L20.8436 52.3984L20.2737 52.0818L20.8889 50.9721Z" fill="#221E1F"/>
<path d="M47.3443 44.9379L49.805 47.2689L48.6591 48.4752L48.246 48.0801C48.4963 47.5705 48.4028 46.9342 47.9686 46.5211C47.7575 46.3221 47.5011 46.2075 47.2328 46.1683L47.5524 45.8305L47.0669 45.3691L46.2708 46.2075L45.9059 45.8637L45.3691 46.4336L45.731 46.7774L44.9319 47.6187L45.4174 48.0801L45.737 47.7424C45.7883 48.0078 45.921 48.258 46.1291 48.4601C46.5663 48.8732 47.2086 48.9365 47.7062 48.6531L48.1193 49.0451L47.2297 49.9829L47.7122 50.4443L50.2875 47.7303L51.2073 48.6048L51.7471 48.0349L47.8811 44.368L47.3413 44.9379H47.3443ZM46.6538 47.9052C46.4246 47.6881 46.4155 47.3262 46.6327 47.0971C46.8498 46.8679 47.2117 46.8618 47.4408 47.079C47.67 47.2961 47.6791 47.658 47.465 47.8871C47.2448 48.1133 46.886 48.1254 46.6538 47.9082V47.9052Z" fill="#221E1F"/>
<path d="M76.5621 45.1008V43.3186H76.9662C77.6356 43.3186 77.9734 43.6322 77.9734 44.2142C77.9734 44.7962 77.6386 45.1038 76.9451 45.1038H76.5621V45.1008ZM75.2051 49.1326H77.5421C78.9806 49.1326 79.8671 48.3877 79.8671 47.1604C79.8671 46.2467 79.3816 45.6496 78.474 45.4325C79.0258 45.1249 79.2218 44.7298 79.2218 44.0513C79.2218 43.4874 78.9775 42.9507 78.6006 42.6431C78.2508 42.3687 77.717 42.2299 76.9149 42.2299H75.2051V49.1296V49.1326ZM76.5621 48.047V46.1321H77.0536C78.0638 46.1321 78.483 46.4216 78.483 47.1091C78.483 47.7303 78.0457 48.047 77.12 48.047H76.5591H76.5621Z" fill="#221E1F"/>
<path d="M84.291 43.3095C85.5756 43.3095 86.5798 44.38 86.5798 45.6797C86.5798 46.9795 85.5515 48.0439 84.291 48.0439C83.0305 48.0439 81.978 46.9885 81.978 45.6797C81.978 44.371 83.0184 43.3095 84.291 43.3095ZM84.291 42.0701C82.2193 42.0701 80.606 43.6623 80.606 45.6978C80.606 47.7333 82.2072 49.2592 84.291 49.2592C86.3747 49.2592 87.973 47.6941 87.973 45.6797C87.973 43.6653 86.3506 42.0701 84.291 42.0701Z" fill="#221E1F"/>
<path d="M88.4736 42.2299H90.0869L91.3082 44.38L92.5838 42.2299H94.185L92.0651 45.4837L94.4082 49.1326H92.8341L91.2841 46.6085L89.6798 49.1326H88.0906L90.5272 45.4837L88.4705 42.2299H88.4736Z" fill="#221E1F"/>
<path d="M96.5191 49.1296H95.1711V42.2299H96.5191V49.1296Z" fill="#221E1F"/>
<path d="M97.9907 42.0701H98.9286L103.123 46.8709V42.2299H104.471V49.2592H103.539L99.3296 44.4584V49.1295H97.9907V42.0701Z" fill="#221E1F"/>
<path d="M112.658 45.4325V45.6556C112.658 47.863 111.365 49.2592 109.305 49.2592C107.245 49.2592 105.677 47.7786 105.677 45.7099C105.677 43.6412 107.215 42.0701 109.335 42.0701C110.629 42.0701 111.648 42.6401 112.302 43.7015L111.12 44.3348C110.71 43.6623 110.11 43.3095 109.308 43.3095C108.035 43.3095 107.073 44.3378 107.073 45.7099C107.073 47.082 108.035 48.047 109.323 48.047C110.309 48.047 111.033 47.474 111.135 46.6055H109.519V45.4325H112.661H112.658Z" fill="#221E1F"/>
<path d="M119.947 46.5754H117.99L119 44.1026L119.944 46.5754H119.947ZM120.384 47.67L120.966 49.1295H122.405L119.51 42.0822H118.493L115.499 49.1295H116.94L117.556 47.67H120.387H120.384Z" fill="#221E1F"/>
<path d="M126.485 43.8041C126.141 43.412 125.803 43.2432 125.402 43.2432C124.838 43.2432 124.398 43.5869 124.398 44.0061C124.398 44.38 124.639 44.57 125.441 44.8716C126.97 45.4325 127.429 45.927 127.429 47.0156C127.429 48.3515 126.452 49.2773 125.052 49.2773C124.027 49.2773 123.279 48.8732 122.667 47.9716L123.529 47.1302C123.852 47.7273 124.365 48.047 125.001 48.047C125.637 48.047 126.044 47.6459 126.044 47.091C126.044 46.7865 125.903 46.5422 125.634 46.3643C125.505 46.2949 125.239 46.1652 124.709 45.9753C123.454 45.5229 123.02 45.0435 123.02 44.0905C123.02 42.9748 123.955 42.1184 125.17 42.1184C125.915 42.1184 126.617 42.3747 127.199 42.8934L126.488 43.801L126.485 43.8041Z" fill="#221E1F"/>
<path d="M131.886 43.8041C131.536 43.412 131.21 43.2432 130.803 43.2432C130.218 43.2432 129.802 43.5869 129.802 44.0061C129.802 44.38 130.034 44.57 130.851 44.8716C132.377 45.4325 132.827 45.927 132.827 47.0156C132.827 48.3515 131.852 49.2773 130.45 49.2773C129.434 49.2773 128.686 48.8732 128.065 47.9716L128.927 47.1302C129.241 47.7273 129.757 48.047 130.408 48.047C131.002 48.047 131.439 47.6459 131.439 47.091C131.439 46.7865 131.31 46.5422 131.053 46.3643C130.903 46.2949 130.64 46.1652 130.109 45.9753C128.852 45.5229 128.421 45.0435 128.421 44.0905C128.421 42.9748 129.353 42.1184 130.574 42.1184C131.328 42.1184 132.021 42.3747 132.6 42.8934L131.889 43.801L131.886 43.8041Z" fill="#221E1F"/>
<path d="M137.262 43.3095C138.535 43.3095 139.557 44.38 139.557 45.6797C139.557 46.9795 138.517 48.0439 137.262 48.0439C136.008 48.0439 134.946 46.9885 134.946 45.6797C134.946 44.371 135.987 43.3095 137.262 43.3095ZM137.262 42.0701C135.194 42.0701 133.562 43.6623 133.562 45.6978C133.562 47.7333 135.173 49.2592 137.262 49.2592C139.352 49.2592 140.938 47.6941 140.938 45.6797C140.938 43.6653 139.322 42.0701 137.262 42.0701Z" fill="#221E1F"/>
<path d="M147.063 44.0755C146.487 43.5327 146.014 43.3095 145.374 43.3095C144.111 43.3095 143.119 44.3378 143.119 45.6797C143.119 47.0217 144.075 48.0439 145.438 48.0439C146.041 48.0439 146.52 47.8238 147.066 47.2901V48.8762C146.445 49.1657 145.956 49.2592 145.377 49.2592C143.318 49.2592 141.731 47.7032 141.731 45.6797C141.731 43.6563 143.366 42.0701 145.395 42.0701C145.968 42.0701 146.466 42.1938 147.063 42.4953V44.0755Z" fill="#221E1F"/>
<path d="M149.545 49.1296H148.2V42.2299H149.545V49.1296Z" fill="#221E1F"/>
<path d="M152.295 47.67L151.674 49.1295H150.244L153.233 42.0822H154.255L157.15 49.1295H155.706L155.108 47.67H152.298H152.295ZM153.727 44.1026L152.723 46.5754H154.695L153.727 44.1026Z" fill="#221E1F"/>
<path d="M158.326 49.1295V43.397H156.788V42.2269H161.224V43.397H159.677V49.1295H158.326Z" fill="#221E1F"/>
<path d="M163.335 49.1296H161.99V42.2299H163.335V49.1296Z" fill="#221E1F"/>
<path d="M168.16 43.3095C169.432 43.3095 170.455 44.38 170.455 45.6797C170.455 46.9795 169.423 48.0439 168.16 48.0439C166.896 48.0439 165.85 46.9885 165.85 45.6797C165.85 44.371 166.887 43.3095 168.16 43.3095ZM168.16 42.0701C166.091 42.0701 164.463 43.6623 164.463 45.6978C164.463 47.7333 166.073 49.2592 168.16 49.2592C170.246 49.2592 171.83 47.6941 171.83 45.6797C171.83 43.6653 170.219 42.0701 168.16 42.0701Z" fill="#221E1F"/>
<path d="M172.976 42.0701H173.904L178.108 46.8709V42.2299H179.462V49.2592H178.518L174.321 44.4584V49.1295H172.979V42.0701H172.976Z" fill="#221E1F"/>
<path d="M186.754 43.3095C188.02 43.3095 189.058 44.38 189.058 45.6797C189.058 46.9795 188.017 48.0439 186.754 48.0439C185.49 48.0439 184.444 46.9885 184.444 45.6797C184.444 44.371 185.478 43.3095 186.754 43.3095ZM186.754 42.0701C184.694 42.0701 183.066 43.6623 183.066 45.6978C183.066 47.7333 184.661 49.2592 186.754 49.2592C188.847 49.2592 190.433 47.6941 190.433 45.6797C190.433 43.6653 188.825 42.0701 186.754 42.0701Z" fill="#221E1F"/>
<path d="M192.921 43.4V44.9289H195.083V46.1049H192.921V49.1326H191.573V42.233H195.234V43.403H192.921V43.4Z" fill="#221E1F"/>
<path d="M202.667 42.2299H204.365L201.446 45.4174L204.512 49.1326H202.748L200.297 46.0235L200.134 46.1833V49.1296H198.789V42.2299H200.134V45.146L202.67 42.2299H202.667Z" fill="#221E1F"/>
<path d="M208.197 43.3095C209.479 43.3095 210.504 44.38 210.504 45.6797C210.504 46.9795 209.467 48.0439 208.197 48.0439C206.928 48.0439 205.902 46.9885 205.902 45.6797C205.902 44.371 206.94 43.3095 208.197 43.3095ZM208.197 42.0701C206.132 42.0701 204.509 43.6623 204.509 45.6978C204.509 47.7333 206.105 49.2592 208.197 49.2592C210.29 49.2592 211.879 47.6941 211.879 45.6797C211.879 43.6653 210.275 42.0701 208.197 42.0701Z" fill="#221E1F"/>
<path d="M214.37 45.4144V43.3155H214.783C215.625 43.3155 216.071 43.6623 216.071 44.3348C216.071 45.0073 215.625 45.4144 214.765 45.4144H214.37ZM215.884 46.2135C216.897 46.0024 217.464 45.3179 217.464 44.2504C217.464 42.9748 216.575 42.2269 215.019 42.2269H213.025V49.1265H214.367V46.3582H214.542L216.403 49.1265H218.055L215.881 46.2135H215.884Z" fill="#221E1F"/>
<path d="M220.199 43.4V44.9289H222.591V46.1049H220.199V47.9535H222.687V49.1326H218.86V42.233H222.687V43.403H220.199V43.4Z" fill="#221E1F"/>
<path d="M227.545 46.5754H225.585L226.583 44.1026L227.542 46.5754H227.545ZM227.977 47.67L228.562 49.1295H229.997L227.108 42.0822H226.089L223.1 49.1295H224.512L225.148 47.67H227.973H227.977Z" fill="#221E1F"/>
<path d="M91.6038 18.5608H89.4025V12.7015H85.7597V28.3372H77.5814V15.9372H82.7622V12.7015H73.9809H73.9326V31.576H85.7597V37.4533H89.4025V21.7814H91.6038V37.4533H95.2466V12.7015H91.6038V18.5608Z" fill="#221E1F"/>
<path d="M167.174 24.5406L170.177 22.4117L161.773 11.6099L153.148 22.6318L156.155 24.7578L161.773 17.4269L167.174 24.5406Z" fill="#221E1F"/>
<path d="M175.705 12.7015H172.056V23.835H175.705V12.7015Z" fill="#221E1F"/>
<path d="M168.133 24.5527C164.339 24.5527 161.272 27.5984 161.272 31.389C161.272 35.1796 164.339 38.2343 168.133 38.2343C171.926 38.2343 174.987 35.1796 174.987 31.389C174.987 27.5984 171.917 24.5527 168.133 24.5527ZM168.133 34.7272C166.29 34.7272 164.789 33.2345 164.789 31.389C164.789 29.5435 166.29 28.0598 168.133 28.0598C169.975 28.0598 171.486 29.5344 171.486 31.389C171.486 33.2436 169.978 34.7272 168.133 34.7272Z" fill="#221E1F"/>
<path d="M141.017 22.9213H148.806L148.854 22.9394V12.7558H145.199V14.4476H133.125V12.7558H129.485V22.9394L129.536 22.9213H137.368V24.4864H128.101V27.704H150.332V24.4864H141.023V22.9213H141.017ZM145.196 17.6742V19.7037H133.122V17.6742H145.196Z" fill="#221E1F"/>
<path d="M129.455 32.7068H145.196V37.4533H148.854V29.4952H129.455V32.7068Z" fill="#221E1F"/>
<path d="M199.082 28.3192H187.411V26.3681H183.762V36.9014H202.721V26.3681H199.082V28.3192ZM199.082 31.5428V33.6929H187.411V31.5428H199.082Z" fill="#221E1F"/>
<path d="M199.082 15.2768H195.837V13.1207H190.626V10.9013H186.989V13.1207H181.772V16.2237H184.004C183.313 17.1887 182.912 18.3527 182.912 19.6223C182.912 22.8881 185.542 25.5086 188.801 25.5086C192.061 25.5086 194.697 22.8881 194.697 19.6223C194.697 18.3527 194.293 17.1887 193.611 16.2237H195.783V18.2321H199.085V19.8183H195.783V22.7705H199.085V25.1528H202.724V12.6563H199.085V15.2768H199.082ZM188.801 22.095C187.444 22.095 186.347 20.9853 186.347 19.6343C186.347 18.2834 187.444 17.1857 188.801 17.1857C190.158 17.1857 191.259 18.2803 191.259 19.6343C191.259 20.9883 190.165 22.095 188.801 22.095Z" fill="#221E1F"/>
<path d="M107.785 26.166C111.202 26.166 113.985 23.452 113.985 20.0867C113.985 18.6543 113.449 17.3154 112.598 16.278H114.733V13.172H109.601V10.8952H105.961V13.172H100.834V16.278H102.96C102.107 17.3123 101.582 18.6543 101.582 20.0867C101.582 23.452 104.372 26.166 107.785 26.166ZM107.785 22.858C106.299 22.858 105.101 21.6186 105.101 20.0867C105.101 18.5548 106.299 17.3214 107.785 17.3214C109.272 17.3214 110.478 18.5608 110.478 20.0867C110.478 21.6125 109.269 22.858 107.785 22.858Z" fill="#221E1F"/>
<path d="M106.29 27.1943H102.65V36.8833H121.473V33.6657H106.29V27.1943Z" fill="#221E1F"/>
<path d="M120.68 12.7015H117.034V29.2298H120.68V21.8085H123.729V18.5819H120.68V12.7015Z" fill="#221E1F"/>
<path d="M226.131 12.7588V28.4699H218.396V25.8223C220.926 25.0382 222.769 22.6951 222.769 19.9087C222.769 18.5638 222.344 17.3335 221.605 16.3232H223.77V13.2202H218.393V10.9013H214.747V13.2202H209.353V16.3232H211.527C210.788 17.3335 210.363 18.5638 210.363 19.9087C210.363 22.6951 212.217 25.0563 214.747 25.8313V28.4699H208.75V31.576H226.125V37.4533H229.765V12.7588H226.125H226.131ZM213.918 19.9087C213.918 18.4432 215.115 17.2581 216.581 17.2581C218.047 17.2581 219.232 18.4402 219.232 19.9087C219.232 21.3773 218.047 22.5534 216.581 22.5534C215.115 22.5534 213.918 21.3653 213.918 19.9087Z" fill="#221E1F"/>
</g>
<defs>
<clipPath id="clip0_76_7352">
<rect width="230" height="60.1786" fill="white"/>
</clipPath>
</defs>
</svg>
