<?xml version="1.0" encoding="UTF-8"?><svg id="_레이어_2" xmlns="http://www.w3.org/2000/svg" viewBox="0 0 383.46 241.21"><defs><style>.cls-1{fill:#fff;stroke:#fff;stroke-miterlimit:10;stroke-width:15px;}</style></defs><g id="_레이어_1-2"><path class="cls-1" d="m370.96,233.71H12.5c-2.76,0-5-2.24-5-5v-63.34c0-2.76,2.24-5,5-5,21.92,0,39.76-17.84,39.76-39.76s-17.84-39.76-39.76-39.76c-2.76,0-5-2.24-5-5V12.5c0-2.76,2.24-5,5-5h358.46c2.76,0,5,2.24,5,5v63.34c0,2.76-2.24,5-5,5-21.92,0-39.76,17.84-39.76,39.76s17.84,39.76,39.76,39.76c2.76,0,5,2.24,5,5v63.34c0,2.76-2.24,5-5,5Zm-353.46-10h348.46v-53.59c-25.1-2.52-44.76-23.76-44.76-49.51s19.66-47,44.76-49.51V17.5H17.5v53.59c25.1,2.52,44.76,23.76,44.76,49.51s-19.66,47-44.76,49.51v53.59Z"/><path class="cls-1" d="m278.16,57.02c-2.76,0-5-2.24-5-5v-10.91c0-2.76,2.24-5,5-5s5,2.24,5,5v10.91c0,2.76-2.24,5-5,5Z"/><path class="cls-1" d="m278.16,94.22c-2.76,0-5-2.24-5-5v-10.91c0-2.76,2.24-5,5-5s5,2.24,5,5v10.91c0,2.76-2.24,5-5,5Z"/><path class="cls-1" d="m278.16,131.42c-2.76,0-5-2.24-5-5v-10.91c0-2.76,2.24-5,5-5s5,2.24,5,5v10.91c0,2.76-2.24,5-5,5Z"/><path class="cls-1" d="m278.16,168.62c-2.76,0-5-2.24-5-5v-10.91c0-2.76,2.24-5,5-5s5,2.24,5,5v10.91c0,2.76-2.24,5-5,5Z"/><path class="cls-1" d="m278.16,205.82c-2.76,0-5-2.24-5-5v-10.91c0-2.76,2.24-5,5-5s5,2.24,5,5v10.91c0,2.76-2.24,5-5,5Z"/></g></svg>