<svg id="edSh5GaHk6Q1" xmlns="http://www.w3.org/2000/svg" xmlns:xlink="http://www.w3.org/1999/xlink" viewBox="0 0 450.3 631.04" shape-rendering="geometricPrecision" text-rendering="geometricPrecision"><g><path d="M87.47,221.75c.98-1.51,6.06-4.63,8.47-3.74s5.26.62,7.13-1.16s4.72-2.23,8.02-1.78s2.94,4.54,11.94,7.13c9,2.58,3.74-1.16,11.58-1.96s6.06-4.19,9.71-5.44s8.91-8.91,10.07-8.11c5.88,1.16,9.09-1.43,11.67-3.48s4.37,0,8.38-7.04s4.01-12.03,5.35-19.69s1.6-12.83,4.37-17.55c2.76-4.72,1.6-9.8,1.96-12.48s5.44-5.7.45-10.07c-6.77-7.93-21.92-3.65-23.26-7.22-1.34-3.56-10.34-20.32-9.27-22.99s3.48-12.39,3.56-15.42-1.96-3.48-4.01-5.35-2.58-8.38-6.24-12.03c-3.65-3.65-11.85-2.41-13.01-4.63-1.16-2.23-4.1-4.37-7.13-4.54s-2.94-.89-6.06-5.17-3.21-2.5-7.22-3.56c-4.01-1.07-4.63-6.42-10.43-9-5.79-2.58-11.58,3.83-15.42,3.83-2.74,0-6.42-2.54-8.31-4-.58.37-1.9.36-2.74.83-1.11.62-.4,2.14-5.75,4.41-1.78.85-2.94,3.7-3.56,6.01-.62,2.32-2.54,3.21-3.34,3.52s-1.6,3.79-3.39,4.99c-1.78,1.2-11.63,7.66-16.31,8.6s1.65,10.56-1.74,12.97-3.56,5.66-7.49,6.06c-3.92.4-9.8-1.47-11.18.49c0,0-.22,4.37,4.54,9.09c4.77,4.72,8.78,12.52,8.96,18.58s7.47,4.6,15.19,16.96s5.7,15.98,6,21.68s8.91,9.92,10.75,16.34-10.81-1.6-3.45,15.15c0,0,1.49,5.05.24,9.92s2.97,2.85,4.63,6s5.88,4.4,6.65,7.31s1.28,5.11,5.2,6.89c-.16.08-.32.14-.48.2c2.13.39,4.35.35,4.94-.56l.03.01Z" fill="#cad2de" stroke="#fff" stroke-width="0.94" stroke-miterlimit="9.43"/><path d="M76.34,134.37c-.32,1.33.05,2.74.88,3.83c2.3,3.04,7.84,10.19,8.91,10.19c1.37,0,3.39-2.14,4.51-1.43s4.16,5.23,6.83,4.75s4.51-1.9,5.88-1.6s3.21-1.66,4.51-1.96s3.92,2.14,5.11,1.84s2.91-1.13,4.16-2.91s4.51-3.39,4.81-4.34-.53-2.52,1.65-4.71.71-6.15,1.92-8.24s1.38-6.5-1.25-7.53-3.76-.07-5.24-.87-2.14.16-2.38.42-1.72.33-1.94.91-2.27-2.92-4.05-3.65-7.33-2.14-10.38-1.36-5.15,2.43-6.01,2.92-2.25,1.16-3.36,4.41-2.99,2.63-4.92,5.97c-1.2,1.63-6.19.53-6.55.2s-1.4.13-1.56,1.16c-.12.77-1.13.33-1.53,2Z" fill="#a3b4c6" stroke="#fff" stroke-width="0.94" stroke-miterlimit="9.43"/><path d="M80,46.11c-.05.08-.12.14-.21.2.4.31.89.67,1.43,1.04-.05-.06-.1-.12-.13-.14-.21-.16-.58-.55-1.09-1.11v.01Z" fill="none" stroke="#231815" stroke-miterlimit="10"/><path d="M184.87,191.99c4.01-.18,6.33,1.87,7.93.89s4.54-3.3,6.42-3.12s5.61.53,6.33-1.96.36-6.59,3.92-7.49c3.56-.89,10.07-1.78,12.12,2.41s4.37,4.37,6.42,4.63s3.48-.98,6.95-2.5c3.48-1.51,9.27,1.43,12.3,2.23s3.48,3.39,5.79,3.56s4.9-.18,7.04,1.25s6.77,1.6,8.64,2.05s6.24,1.69,7.75,2.94s5.35,2.94,10.78,2.23c5.44-.71,8.29-2.14,11.23-2.76s6.33.71,9.98,3.83s5.79,4.37,9.98,2.85s8.73-6.59,12.03-6.77s8.2,4.28,13.9,4.19s4.63-2.94,6.77-3.65s6.68-1.51,8.82-3.65c1.9-1.9,8.21-4.15,11.35-8.5-11.53-36.42-43.15-59.01-47.62-69.83-4.63-11.23-18.89-24.42-23.52-30.48s-11.05-10.16-14.79-20.14-10.51-15.33-11.23-20.85c-.71-5.52-3.56-11.05-6.42-16.57-2.85-5.52-10.16-14.08-10.16-17.82s-1.6-7.84-4.81-8.38c-3.21-.53-6.95.89-8.38,4.46-1.43,3.56-2.67,6.24-5.35,4.99-2.67-1.25-12.56-3.83-18.71,2.05s1.34,10.69-7.04,12.92-7.04-.36-16.13,5.17c-5.35-.45-5.52-2.14-10.07-1.87s-7.57-3.12-11.14-2.14c-3.56.98-19.96-2.05-24.24-4.46s-7.19-2.7-8.44-1.22c-1.25,1.49.83,2.44-3.15,2.79-3.98.36-16.16,2.2-20.79,1.19s-9.33-1.07-11.82.65-3.27.95-6.24,3.5-1.49,3.39-9.27,4.46-8.2,2.38-8.44,2.85c-.24.48-1.1,3.24-2.17,3.91s-1.74,3.3-1.34,5.97c0,.12-.03.22-.08.3.51.56.88.94,1.09,1.11.03.02.08.08.13.14c1.99,1.38,4.72,2.95,6.88,2.95c3.83,0,9.62-6.42,15.42-3.83c5.79,2.58,6.42,7.93,10.43,9s4.1-.71,7.22,3.56c3.12,4.28,3.03,4.99,6.06,5.17s5.97,2.32,7.13,4.54c1.16,2.23,9.36.98,13.01,4.63s4.19,10.16,6.24,12.03s4.1,2.32,4.01,5.35-2.49,12.74-3.56,15.42s7.93,19.43,9.27,22.99s16.49-.71,23.26,7.22c4.99,4.37-.09,7.4-.45,10.07s.8,7.75-1.96,12.48c-2.76,4.72-3.03,9.89-4.37,17.55-.64,3.64-.97,6.68-1.58,9.63c1.51,2.51,4.08,5.99,6.66,5.88h.01Z" fill="#e2e7ef" stroke="#fff" stroke-width="0.94" stroke-miterlimit="9.43"/><path d="M136.57,333.49c1.43,7.66,4.81,9.09,11.23,8.91s7.84.8,8.64-1.16s4.1-4.1,5.88-4.28s2.41-1.6,8.11-1.07s10.07-.18,12.56-1.25c2.47-1.06,7.83,3.92,9.05,5.22.07-1.43.17-2.45.18-2.69.06-1.07,1.19-2.67,6.53-4.28s9.33-10.4,10.93-12.95-.36-8.38-2.67-14.08c-2.32-5.7-11.23-2.61-11.7-10.57-.48-7.96,4.1-8.32,2.85-11.82s.18-8.2-1.13-9.86-1.31-7.13-2.73-9.39c-1.43-2.26-.59-4.16-.59-5.76s4.75-6,5.23-6.36s4.1-4.1,5.82-6.95s5.47-2.55,8.61-2.14c3.15.42,6.53-2.02,8.55-2.5s4.87-3.45,5.76-5.47s4.28-3.98,5.35-4.16s11.29-2.55,13.19-1.07c1.9,1.49,7.01,3.39,8.2,1.78c1.19-1.6,8.79-3.39,9.68-4.28s2.2-8.08,5.17-10.34.77-3.27,1.84-6.83.18-5.35,1.6-7.13c.93-1.16,4.67-3.18,7.18-4.45-1.57-.48-2.75-1.13-3.44-1.7-1.51-1.25-5.88-2.5-7.75-2.94s-6.5-.62-8.64-2.05-4.72-1.07-7.04-1.25-2.76-2.76-5.79-3.56-8.82-3.74-12.3-2.23-4.9,2.76-6.95,2.5-4.37-.45-6.42-4.63-8.55-3.3-12.12-2.41c-3.56.89-3.21,4.99-3.92,7.49s-4.46,2.14-6.33,1.96-4.81,2.14-6.42,3.12c-1.6.98-3.92-1.07-7.93-.89-2.58.11-5.14-3.37-6.66-5.88-.67,3.25-1.67,6.37-3.77,10.07-4.01,7.04-5.79,4.99-8.38,7.04-2.58,2.05-5.79,4.63-11.67,3.48-1.16-.8-6.42,6.86-10.07,8.11s-1.87,4.63-9.71,5.44c-5.3.54-4.62,2.42-6.4,2.79c1.39,2.77,3.62,6.5,6.1,7.99c4.16,2.5,8.55,9.98,8.67,16.28s7.6,12.36,6.65,24.48-1.19,25.31-3.92,31.25-2.79,12.18-4.93,14.2c-2.03,1.91-7.19,4.47-9.2,6.4c1.01.83,3.82,3.65,4.98,9.88l.04-.01Z" fill="#a3b4c6" stroke="#fff" stroke-width="0.94" stroke-miterlimit="9.43"/><path d="M53.34,425.81c5.35-2.23,12.39-8.73,15.59-8.2c3.21.53,10.87,1.07,12.92-.09s7.75-.53,7.57.45s3.12,7.31,4.28,8.2s9.98,2.94,12.74,4.37s7.93-1.6,13.01-3.83s4.28.36,11.14-.8s7.49.36,9.62,1.25c2.14.89,14.17,3.92,16.75,3.92s5.79-1.43,6.68-4.63c.89-3.21,1.96-1.96,2.85-7.04s-1.87-5.79-2.94-9.36c-1.07-3.56,2.05-18.18,5.35-21.83s3.03-3.74,7.84-9.71s2.41-8.73,5.79-10.6c3.39-1.87,7.57-6.15,9-7.84c1.14-1.35,2.16-2.83,3.48-5.21-3.21-2.4-3.21-10.61-2.98-14.96-1.22-1.3-6.58-6.28-9.05-5.22-2.5,1.07-6.86,1.78-12.56,1.25s-6.33.89-8.11,1.07-5.08,2.32-5.88,4.28-2.23.98-8.64,1.16-9.8-1.25-11.23-8.91c-1.16-6.23-3.97-9.05-4.98-9.88-.11.11-.22.21-.31.32-1.72,1.96-4.51,4.57-6.53,4.57s-8.79-.53-11.47,0c-2.67.53-3.33,0-4.75-1.13-1.43-1.13-8.73-2.02-10.04-3.51s-13.49,3.15-16.22,5.29-5.41,4.57-8.91,8.44c-2.63,2.9-11.48,3.42-16.94,4.13.19.16.39.3.58.37c2,.76.36.85-2.14,1.29s-10.2,2-10.83,5.57c-.62,3.56.13,9.62,2.72,11.05c2.58,1.43,3.88,1.25,7.89,2.45s3.88,5.93,3.92,7.53-18.67,6.5-18.53,10.29c.13,3.79-.49,6.55,1.6,9.31s-1.07,7.71-2.23,7.93-9.09,4.41-8.96,7.22-1.43,8.82-.67,11.94c.12.5.08.92-.06,1.3c2.93,2.58,7.78,6.09,11.06,8.28c4.81,3.21,7.22,1.78,12.56-.45l.02-.03Z" fill="#e2e7ef" stroke="#fff" stroke-width="0.94" stroke-miterlimit="9.43"/><path d="M374.4,410.48c2.85-8.64,2.27-7.84,4.95-10.96c2.67-3.12,4.46-4.14,4.37-9.67-.07-4.27.55-5.6,1.23-9.71-3.93-.84-9.12.77-10.63,1.88-1.78,1.31-7.72-1.54-10.69-4.4-2.97-2.85-7.25-1.43-9.74-.83-2.49.59-10.93.48-12.24.48s-7.6,7.37-7.6,9.03.12,3.33-6.06,5.82c-1.03.41-2.01.65-2.96.76.9,2.36,2.92,6.44,6.64,8.87c5.47,3.56,5.94,4.81,8.32,4.87s5.41,7.25,8.67,8.85c3.27,1.6,8.73,5.11,10.34,4.63c1.6-.48,2.91,1.6,3.92,1.25.92-.32,2.1-1.32,3.87-.64.02-.04.05-.1.05-.12.13-.45,4.72-1.47,7.57-10.11h-.01Z" fill="#e2e7ef" stroke="#fff" stroke-width="0.94" stroke-miterlimit="9.43"/><path d="M181.13,459.02c-.71-3.33-11.52-13.43-12.83-18.3-.98-3.65-4.29-9.36-5.89-12-1.41,1.6-3.57,2.35-5.43,2.35-2.58,0-14.61-3.03-16.75-3.92s-2.76-2.41-9.62-1.25-6.06-1.43-11.14.8-10.25,5.26-13.01,3.83-11.58-3.48-12.74-4.37-4.46-7.22-4.28-8.2-5.52-1.6-7.57-.45c-2.05,1.16-9.71.62-12.92.09s-10.25,5.97-15.59,8.2c-5.35,2.23-7.75,3.65-12.56.45-3.28-2.19-8.14-5.7-11.06-8.28-.7,1.99-4.2,2.85-3.15,7.79c1.25,5.88-10.87,8.33-11.72,14.26s.31,7.53,4.5,15.06c0,0,1.87,4.1,0,10.02-1.87,5.93.09,11.36-1.92,15.77s-8.06,2.58-12.52,12.88-1.47,16.53.22,18.4-5.17,6.46-4.63,13.19-1.16,7.49,6.01,10.02c7.17,2.54,6.46-.45,9.45-2.27c2.99-1.83,14.12,1.56,16.84,3.61s1.47,3.7,2,8.55s1.11,4.59,3.92,6.06s2.99,4.32,8.11,4.46c5.12.13,9.04-4.68,8.69-6.42s-.27-7.17,5.44-14.3c1.6-1.87,1.74-1.29,4.19.8s4.46,1.78,6.59,4.72s2.72,6.42,6.24,4.99s4.81-4.37,9.8-5.75s2.05-6.24,2.63-9.04c.58-2.81,1.87-6.19,2.85-6.73.98-.53,9.49-2.85,11.99-5.08s5.44-3.92,5.79-5.12s1.29-2.36,3.03-2.09s2.45.4,6.28.76-2.05,8.73-2.14,10.38-.85,4.77,3.07,6.19c3.92,1.43,4.9,2.85,13.41.85s6.73-5.48,5.21-9.09c-1.51-3.61-.09-4.9-.53-8.91-.45-4.01-.85-7.71-.18-7.93s7.57-4.37,9.98-4.46s3.61-6.24,5.66-7.4s9.67.4,16.04-2.67s9.4-7.35,11.94-9.76c1.07-1.01,2.5-.7,3.79.18.55-8.08-4.81-17.73-5.48-20.89l-.01.02Z" fill="#91a3ba" stroke="#fff" stroke-width="0.94" stroke-miterlimit="9.43"/><path d="M17.7,605.81c0,0-7.31,2.67-12.83,13.19s3.92,11.05,11.41,11.41s7.4.18,9.98-.89s7.22-1.07,9.62,0s13.99,1.43,16.4.45s22.81-9.27,29.05-13.81s8.73-8.11,8.29-10.96-1.07-5.26-2.5-8.02-4.37-3.83-10.43-3.48-10.25-3.39-20.14-2.85-10.78.8-19.78,5.08-13.9,2.58-19.07,9.89v-.01Z" fill="#91a3ba" stroke="#fff" stroke-width="0.94" stroke-miterlimit="9.43"/><path d="M93.76,450.89l-2.7-4.62-3.47-3.08h-2.31c-1.16,0-4.24,1.16-4.24,1.16l-6.94,1.54-5.4-3.08c0,0-3.08.39-3.85,1.54s-4.24,4.63-4.24,4.63l-1.93,1.93c0,0-1.54,2.31-1.54,3.47s0,2.31,1.16,4.24l1.16,1.93l3.47,1.54l4.24,1.16l2.7,2.7l2.31,2.7l3.47-.38l5.01.38l5.4-1.54l2.31,1.16l3.08.38c0,0-.39-1.16,1.16-1.54c1.54-.38,2.7-2.7,2.7-2.7l1.16-2.7c0,0,1.93-3.47,1.93-4.62s-1.54-3.86-1.54-3.86l-3.08-2.31-.02-.03Z" fill="#e2e7ef" stroke="#fff" stroke-width="0.94" stroke-miterlimit="9.43"/><path d="M302.76,463.15c-.62-.36.71-3.3.98-4.81s1.69-2.58,2.58-4.46c.89-1.87-1.78-3.65-1.87-5.44s2.32-2.05,4.37-2.76s2.41-1.87,4.1-4.1s3.3-.8,4.9-1.96s3.83-1.34,4.28-1.69s3.39.27,5.08-.98s4.9-5.26,5.88-5.97s4.72-.09,5.26-.89c.53-.8,2.14-2.05,3.12-2.5s2.05-2.41,2.67-3.48s2.05-1.07,2.32-1.07s4.01-.98,4.99-2.05c.5-.54,1.77-1.59,2.91-2.49-1.94-1.01-4.07-2.25-5.67-3.04-3.27-1.6-6.3-8.79-8.67-8.85-2.38-.06-2.85-1.31-8.32-4.87-3.73-2.43-5.74-6.51-6.64-8.87-4.75.56-8.39-2.22-9.87-3.61-1.78-1.66-4.63-3.56-12.95-1.07s-10.57,2.14-12.12.59-5.82.12-9.74,1.07-9.98-4.04-12-6.77-6.06-1.19-13.9.12-8.55,1.66-19.84-2.61c-11.29-4.28-10.34-13.9-16.4-15.21s-16.28-8.55-21.98-9.98c-.44-.11-.83-.31-1.18-.58-1.32,2.39-2.34,3.86-3.48,5.21-1.43,1.69-5.61,5.97-9,7.84s-.98,4.63-5.79,10.6-4.54,6.06-7.84,9.71-6.42,18.27-5.35,21.83s3.83,4.28,2.94,9.36-1.96,3.83-2.85,7.04c-.25.91-.7,1.66-1.26,2.29c1.6,2.64,4.91,8.35,5.89,12c1.31,4.87,12.12,14.97,12.83,18.3.68,3.15,6.03,12.81,5.48,20.89c1.79,1.22,3.32,3.53,3.29,5.03-.04,2.58-1.69,9.53,5.88,13.86c7.57,4.32,7.08,1.69,17.11.98c5.21-.76.8-6.24,1.96-12.97s1.16-6.5,8.33-8.38s10.38.71,11.99,4.37c1.6,3.65,12.97,5.21,18.53.62c5.57-4.59,13.37-9.36,17.64-11.36c4.28-2.01,4.14-5.79,5.84-5.93s5.35-.67,11.05-3.3s8.06,2.27,12.48,2.18c.69-.01,1.54-.07,2.48-.15-.08-.83-.16-1.57-.43-1.72l-.01.03Z" fill="#cad2de" stroke="#fff" stroke-width="0.94" stroke-miterlimit="9.43"/><path d="M318.58,459.89c2.94-3.61,10.83-2.63,12.3-1.96s3.97,3.21,10.92-2.67s12.39-10.2,13.37-12.21c.98-2,2.32-7.57,4.46-10.25c2.05-2.57,6.68-11.03,7.17-12.09-1.77-.68-2.95.32-3.87.64-1.01.36-2.32-1.72-3.92-1.25-.82.24-2.64-.55-4.66-1.6-1.14.9-2.41,1.95-2.91,2.49-.98,1.07-4.72,2.05-4.99,2.05s-1.69,0-2.32,1.07c-.62,1.07-1.69,3.03-2.67,3.48s-2.58,1.69-3.12,2.5c-.53.8-4.28.18-5.26.89s-4.19,4.72-5.88,5.97-4.63.62-5.08.98-2.67.53-4.28,1.69-3.21-.27-4.9,1.96-2.05,3.39-4.1,4.1-4.46.98-4.37,2.76s2.76,3.56,1.87,5.44c-.89,1.87-2.32,2.94-2.58,4.46-.27,1.51-1.6,4.46-.98,4.81.27.15.36.89.43,1.72c5.05-.45,12.9-1.93,15.38-4.98h-.01Z" fill="#a3b4c6" stroke="#fff" stroke-width="0.94" stroke-miterlimit="9.43"/><path d="M142.99,247.29c-.04-1.98-.5-4.08-1.24-6.1-1.11-.02-2.07-.1-2.56-.31-1.66-.71-6-4.34-8.76-3.89s-3.12,1.34-3.39,3.56-1.25,5.44.36,8.47c1.6,3.03,1.43,7.13,4.28,7.13s4.01,2.49,3.65,4.19c-.36,1.69-.89,5.44.98,7.22s.98,3.39.53,3.74c-.45.36-2.05.71-1.34,2.67s4,4.62,4.54,5.44c.55.81,3.83.71,5.08-.09.7-.45,2.63-2.02,4.22-3.48.09-1.36.19-2.72.29-4.06.95-12.12-6.53-18.18-6.65-24.48l.01-.01Z" fill="#ccc" stroke="#fff" stroke-width="0.94" stroke-miterlimit="9.43"/><path d="M140.84,279.22c0,0-2.41.18-2.23,1.16s1.69,3.56.18,6.68-3.39,10.25-1.34,15.5s2.67,8.11,5.97,9.45s2.85-7.4,3.21-8.02s2.5.18,2.94,1.78.53,4.54,3.03,5.52s5.79-.45,7.13-1.07s4.9-7.4,4.37-9.27-.71-5.35.62-6.77s4.28-5.88,3.21-8.73-3.03-8.02-5.08-8.02-5.79,2.32-7.04.09-3.3-5.44-4.1-5.17-4.81,6.59-10.87,6.86v.01Z" fill="#cad2de" stroke="#fff" stroke-width="0.94" stroke-miterlimit="9.43"/><path d="M137.82,302.57c-2.05-5.26-.18-12.39,1.34-15.5c1.51-3.12,0-5.7-.18-6.68-.09-.5.5-.79,1.09-.96c0,0-.02-.01-.02-.02-.55-.81-3.83-3.48-4.54-5.44s.89-2.32,1.34-2.67c.45-.36,1.34-1.96-.53-3.74s-1.34-5.52-.98-7.22c.36-1.69-.8-4.19-3.65-4.19s-2.67-4.1-4.28-7.13c-1.6-3.03-.62-6.24-.36-8.47s.62-3.12,3.39-3.56c2.76-.45,7.1,3.18,8.76,3.89.49.21,1.45.29,2.56.31-1.62-4.41-4.58-8.46-7.43-10.17-2.48-1.49-4.71-5.22-6.1-7.99-.85.18-2.27,0-5.19-.83-9-2.58-8.64-6.68-11.94-7.13s-6.15,0-8.02,1.78-4.72,2.05-7.13,1.16-7.49,2.23-8.47,3.74c-.59.91-2.81.95-4.94.56-5.68,2.45-9.18-2.11-13.69-3.32-4.63-1.25-10.87-2.41-11.76-3.74-.89-1.34-4.46-3.92-9.18-1.78s-9.98-3.65-15.15-.45c-5.17,3.21,3.83,7.49-13.81,15.33c0,0-6.24,2.58-2.76,9.62s3.48,13.01,5.44,16.13-2.85,4.1,6.33,9c6.68,3.74,12.56,18.71,13.28,22.28.71,3.56,3.03,11.58,1.78,13.99s.27,7.66,1.16,8.47c.89.8.18,11.05,5.17,13.99c2.17,1.31.25,9.59,1.93,11.47c1.52,1.69,3.34,6.89,5.16,8.44c5.46-.71,14.31-1.23,16.94-4.13c3.5-3.86,6.18-6.3,8.91-8.44s14.91-6.77,16.22-5.29c1.31,1.49,8.61,2.38,10.04,3.51s2.08,1.66,4.75,1.13s9.45,0,11.47,0s4.81-2.61,6.53-4.57s7.37-4.69,9.51-6.71c1.06-1,1.61-3.04,2.23-5.57-2.63-1.46-3.32-4.26-5.2-9.07l-.02-.03Z" fill="#91a3ba" stroke="#fff" stroke-width="0.94" stroke-miterlimit="9.43"/><path d="M395.7,329.75c-.85-3.07-13.1,7.13-13.54,5.88-.45-1.25,0-11.85.98-14.66s2.23-23.84,2.41-35.06s2.32-27.45-2.85-37.96s5.35-3.39-10.16-59.17c-.37-1.4-.78-2.77-1.21-4.13-3.14,4.34-9.45,6.6-11.35,8.5-2.14,2.14-6.68,2.94-8.82,3.65s-1.07,3.56-6.77,3.65-10.6-4.37-13.9-4.19-7.84,5.26-12.03,6.77-6.33.27-9.98-2.85-7.04-4.46-9.98-3.83c-2.94.62-5.79,2.05-11.23,2.76-2.97.39-5.45.05-7.34-.53-2.51,1.28-6.25,3.29-7.18,4.45-1.43,1.78-.53,3.56-1.6,7.13-1.07,3.56,1.13,4.57-1.84,6.83s-4.28,9.45-5.17,10.34-8.5,2.67-9.68,4.28c-1.19,1.6-6.3-.3-8.2-1.78-1.9-1.49-12.12.89-13.19,1.07s-4.46,2.14-5.35,4.16-3.74,4.99-5.76,5.47-5.41,2.91-8.55,2.5c-3.15-.42-6.89-.71-8.61,2.14s-5.35,6.59-5.82,6.95-5.23,4.75-5.23,6.36-.83,3.5.59,5.76c1.43,2.26,1.43,7.72,2.73,9.39c1.31,1.66-.12,6.36,1.13,9.86s-3.33,3.86-2.85,11.82s9.39,4.87,11.7,10.57c2.32,5.7,4.28,11.52,2.67,14.08-1.6,2.55-5.58,11.35-10.93,12.95s-6.48,3.21-6.53,4.28c-.06,1.07-1.72,16.81,3.98,18.24s15.92,8.67,21.98,9.98s5.11,10.93,16.4,15.21s12,3.92,19.84,2.61c2.47-.41,4.56-.85,6.34-1.16.03-1.04-.05-2.96-.99-3.47-1.31-.71-4.16-5.94-3.33-6.65s2.91.31,3.8,1.07s4.63-1.66,4.63-3.09-3.56-6.77-3.21-8.32s1.19-4.04,2.97-4.16s5.58-.59,5.82-1.9s0-3.31-1.19-3.92-6.3-1.43-7.25-2.73c-.95-1.31-3.09-2.26,1.43-5.58c4.51-3.33,7.72-3.68,9.03-1.78s-.04,4.07,2.02,4.28s2.5-.36,3.92-4.04c1.43-3.68,9.86-8.79,11.17-8.91s11.05-.59,12.24,2.14s1.78,5.23.48,8.2c-1.31,2.97,3.68,4.51,1.9,7.72s-5.23-.48-6.53,2.73c-1.31,3.21-.07,5.08-.95,7.01s-2.85,5.35-2.38,8.44c.48,3.09-2.97,3.56-3.8,4.16-.83.59-4.87.12-4.87-1.07s-1.19-3.92-3.45-3.56-4.75,1.19-5.58,2.85-2.38,8.55-2.49,9.15c-.08.39-1.03,3.69-2.34,5.95c2.64,2.11,6.01,3.92,8.52,3.32c3.92-.95,8.2-2.61,9.74-1.07s3.8,1.9,12.12-.59s11.17-.59,12.95,1.07s6.65,5.35,12.83,2.85s6.06-4.16,6.06-5.82s6.3-9.03,7.6-9.03s9.74.12,12.24-.48c2.5-.59,6.77-2.02,9.74.83s8.91,5.7,10.69,4.4c1.51-1.11,6.7-2.72,10.63-1.88.2-1.21.4-2.66.6-4.51.85-8.11,5.35-8.96,6.68-17.2c1.34-8.24,2.76-11.94,2.58-16.93s3.16-5.17.89-11.76l-.02-.04Z" fill="#91a3ba" stroke="#fff" stroke-width="0.94" stroke-miterlimit="9.43"/><path d="M276.65,371.45c.83-1.66,3.33-2.5,5.58-2.85c2.26-.36,3.45,2.38,3.45,3.56s4.04,1.66,4.87,1.07s4.28-1.07,3.8-4.16s1.5-6.5,2.38-8.44c.88-1.93-.36-3.8.95-7.01s4.75.48,6.53-2.73-3.21-4.75-1.9-7.72.71-5.47-.48-8.2-10.93-2.26-12.24-2.14-9.74,5.23-11.17,8.91-1.86,4.25-3.92,4.04-.71-2.38-2.02-4.28-4.51-1.54-9.03,1.78c-4.51,3.33-2.38,4.28-1.43,5.58.95,1.31,6.05,2.13,7.25,2.73c1.2.61,1.43,2.61,1.19,3.92s-4.04,1.78-5.82,1.9-2.61,2.61-2.97,4.16s3.21,6.89,3.21,8.32-3.74,3.85-4.63,3.09-2.97-1.78-3.8-1.07s2.02,5.94,3.33,6.65c.94.51,1.02,2.43.99,3.47c3.85-.69,6.18-.83,7.56,1.05.73.99,1.99,2.27,3.48,3.45c1.31-2.26,2.26-5.56,2.34-5.95.12-.59,1.66-7.49,2.49-9.15l.01.02Z" fill="#e2e7ef" stroke="#fff" stroke-width="0.94" stroke-miterlimit="9.43"/><path d="M420.79,127.05l-4.5.41-4.92,2.46c0,0-1.64,2.87-.82,4.91.82,2.05,1.23,2.05,3.68,3.28c2.46,1.23,2.46,2.05,4.91,2.05s5.73-1.23,6.14-2.46s1.64-3.28,1.64-4.51-.82-4.91-.82-4.91l-5.33-1.23h.02Z" fill="#91a3ba" stroke="#fff" stroke-width="0.94" stroke-miterlimit="9.43"/><path d="M449.41,145.19l-3.68-.82c0,0-2.05-.82-2.46,2.46s1.64,4.91,1.64,4.91s2.87,2.46,3.69.82s1.23-3.69,1.23-3.69l-.41-3.69-.01.01Z" fill="#91a3ba" stroke="#fff" stroke-width="0.94" stroke-miterlimit="9.43"/></g></svg>
