<?xml version="1.0" encoding="UTF-8"?><svg id="_레이어_2" xmlns="http://www.w3.org/2000/svg" viewBox="0 0 112 207.28"><defs><style>.cls-1{fill:#fff;}.cls-2{fill:#463d3d;}.cls-3{fill:none;stroke:#463d3d;stroke-miterlimit:10;stroke-width:.84px;}</style></defs><g id="OBJECTS"><rect class="cls-2" width="112" height="207.28" rx="13.1" ry="13.1"/><rect class="cls-1" x="3.85" y="3.86" width="104.29" height="199.57" rx="9.25" ry="9.25"/><path class="cls-1" d="m108.14,19.71v-6.6c0-5.1-4.15-9.25-9.25-9.25H13.1c-5.1,0-9.25,4.15-9.25,9.25v6.6h104.29Z"/><line class="cls-3" x1="13.56" y1="10.45" x2="22.38" y2="10.45"/><line class="cls-3" x1="13.56" y1="12.54" x2="22.38" y2="12.54"/><line class="cls-3" x1="13.56" y1="14.63" x2="22.38" y2="14.63"/><path id="Shape" class="cls-2" d="m92.35,13.28c.06.2.15.4.25.59l-.3.38c-.1.12-.09.3.02.41l.52.51c.11.11.29.12.42.02l.38-.3c.2.11.4.2.62.26l.06.48c.02.16.15.28.32.28h.73c.16,0,.3-.12.31-.28l.05-.46c.23-.06.46-.15.67-.26l.37.29c.13.1.3.09.42-.02l.52-.51c.11-.11.13-.29.02-.42l-.28-.35c.12-.2.21-.42.27-.64l.44-.05c.16-.02.28-.15.28-.31v-.72c0-.16-.12-.29-.28-.31l-.43-.05c-.06-.22-.15-.44-.26-.64l.27-.33c.1-.12.09-.3-.02-.41l-.52-.51c-.11-.11-.29-.12-.42-.02l-.33.26c-.21-.12-.44-.22-.68-.28l-.05-.41c-.02-.16-.15-.28-.32-.28h-.73c-.16,0-.3.12-.32.28l-.05.41c-.25.06-.48.16-.7.29l-.34-.27c-.13-.1-.3-.09-.42.02l-.52.51c-.11.11-.12.29-.02.41l.28.35c-.11.2-.2.42-.26.64l-.45.05c-.16.02-.28.15-.28.31v.72c0,.16.12.29.28.31l.48.05Zm2.62-2.06c.68,0,1.24.55,1.24,1.22s-.55,1.22-1.24,1.22-1.24-.55-1.24-1.22.55-1.22,1.24-1.22Z"/><path class="cls-2" d="m35.46,3.22h41.08v2.98c0,3.29-2.67,5.96-5.96,5.96h-29.17c-3.29,0-5.96-2.67-5.96-5.96v-2.98h0Z"/></g></svg>