<?xml version="1.0" encoding="UTF-8"?><svg id="_레이어_2" xmlns="http://www.w3.org/2000/svg" viewBox="0 0 219.54 156.11"><defs><style>.cls-1{fill:none;stroke:#853b3d;stroke-width:2px;}.cls-2{fill:#f1511b;}.cls-3{fill:#19255f;}</style></defs><g id="_레이어_1-2"><path class="cls-1" d="m91.39,36.91l-5.29-3.18" vector-effect="non-scaling-stroke"/><path class="cls-2" d="m96.83,0h4.25c27.92,4.59,18.98,46.12-9.69,36.91l-5.29-3.18c-11.83-12.2-6.17-31,10.73-33.73Z"/><path class="cls-3" d="m86.1,33.73l5.29,3.18-30.61,43.87c-.16.24-.22.53-.16.8l10.92,48.44c.12.54-.22,1.07-.76,1.2-.07.02-.15.02-.22.02h-26.1c-.5,0-.93-.36-1-.86-.47-3.65-5.17-42.41-5.52-42.44-.2-.02-.38.11-.43.31l-10.13,42.23c-.11.45-.52.77-.98.77H2.12c-.56,0-1.01-.45-1.01-1,0-.08,0-.16.03-.24L24.14,35.01c.11-.45.51-.76.97-.76h24.25c.55,0,1,.45,1,1,0,.08,0,.15-.03.23-3.03,12.95-6.17,25.72-9.42,38.32-.11.41-.18.52.37.49.11,0,.2-.07.26-.16l23.21-39.29c.19-.31.52-.5.88-.49,6.82.14,13.64-.07,20.47-.62Zm61.16,46.17c0,.3.2.5.5.58,5.83,1.53,11.04,2.7,13.82,8.29,3.24,6.52,1.14,17.33-2.02,23.77-6.88,14.04-24.23,18.03-38.99,18.23-11.73.16-23.46.27-35.2.33-.89,0-1-.29-.34-.89.09-.08.18-.14.29-.18,28.57-11.25,69.81-41.24,50.41-78-3.26-6.17-7.66-11.5-13.19-15.98-1.43-1.15-1.22-1.74.61-1.77,8.4-.14,16.69.02,24.86.48,7.94.45,19.21,2.76,22.52,10.69,3.09,7.41-.13,19.16-4.69,25.37-4.26,5.81-10.35,8.73-18.26,8.74-.18,0-.32.15-.32.33,0,0,0,0,0,.01h0Zm71.3,28.69l-5.3,22.04c-.05.23-.26.39-.49.39h-44.96c-.28.01-.51-.21-.51-.5,0-.04,0-.08.01-.12l23.2-95.76c.05-.23.26-.39.49-.39h25.26c.28,0,.51.22.51.51,0,.04,0,.08-.01.12l-17.6,72.56c-.07.27.1.55.38.62.04,0,.08.01.12.01l18.4-.11c.28,0,.51.22.51.51,0,.04,0,.08-.01.12h0Z"/><path class="cls-3" d="m109.92,50.58c18.98,15.42,13.96,38.05.07,54.63-8.04,9.59-17.37,17.7-28,24.31-1.39.86-1.89.5-1.5-1.09l20.07-82.79c.13-.54.67-.87,1.21-.74.1.02.2.06.28.12,2.67,1.61,5.3,3.47,7.87,5.56ZM15.21,156h-2.5c-3.75-1-1.5-7.24-.59-10.01,1.23-3.73,4.73-5.36,8.12-2.88.31.23.46.61.39.99-.74,4.01-1.24,10.47-5.42,11.9Zm-.91-2.26c.63.16,1.68-1.87,2.34-4.54,0,0,0,0,0,0,.66-2.66.68-4.95.05-5.11,0,0,0,0,0,0-.63-.16-1.68,1.88-2.34,4.54,0,0,0,0,0,0-.66,2.66-.68,4.95-.05,5.11h0Zm74.16,2.26h-2.5c-4.23-2.2.4-7.99,1.13-3.2.21,1.36.79,1.54,1.72.53,3.05-3.28-7.12-3.92-.88-10.81.14-.16.33-.26.54-.31,3.54-.71,5.28.31,5.23,3.07,0,.46-.33.86-.78.96-1.15.25-1.97-.18-2.44-1.28-.16-.36-.54-.55-.92-.46-.75.18-.99.75-.72,1.7.05.2.17.38.33.51l2.64,2.12c.2.15.33.38.37.63.48,3.19-.76,5.37-3.72,6.54Zm104.75,0h-1.5c-1.36-.63-1.89-1.7-1.59-3.22.98-4.93,1.1-12.64,8.83-10.31.43.13.72.53.71.98l-.05,2.6c0,.55-.45,1-1,.99-.08,0-.16-.01-.24-.03l-.73-.19c-.45-.11-.76-.52-.76-.98,0-.84-.32-1.33-.99-1.47-.42-.09-.83.17-.94.58l-1.9,7.44c-.1.38.04.79.35,1.04.77.59,1.4.28,1.9-.95.27-.66.21-1.48-.18-2.46-.2-.51.05-1.09.57-1.3.09-.03.18-.06.27-.06l1.91-.18c.55-.05,1.04.35,1.09.9,0,.1,0,.2-.02.3l-1.07,5.15c-.11.54-.65.89-1.19.77-.02,0-.03,0-.05-.01-1.11-.29-2.25-.16-3.42.41h0Zm11.5,0h-2.5c-1.63-.65-2.25-1.88-1.86-3.69.24-1.11,1.72-13.07,4.73-9.52.2.22.28.52.23.82-.45,2.56-1.04,5.03-1.76,7.41-.3,1-.87,3.82,1.49,2.11.19-.14.33-.35.39-.58l2.25-9.4c.06-.27.23-.5.47-.64,2.95-1.67,2.44,1.44,2.03,2.89-1.05,3.74-.99,9.21-5.47,10.6h0Z"/><path class="cls-3" d="m7.79,156.05l-1.33-.05c-1.31-.44-1.78-1.36-1.42-2.77.05-.19.05-.38-.01-.56-.95-2.87-1.96,2.67-3.32,3.33h-.75c-.87-.23-1.15-.96-.83-2.17,1.06-4.03,1.99-11.8,4.39-11.65.46.03.83.38.91.83.16.91.05,1.8-.34,2.69-.34.8.25,1.62.77.53.83-1.74,1.57-2.86,2.21-3.37.55-.45,1.07-.65,1.56-.61,1.18.09,1.43.61.74,1.57l-2.88,4.03c-.18.25-.23.56-.15.86.69,2.43.84,4.88.45,7.34h0Zm19.36.06l-.69-.11c-.13-.11-.28-.21-.47-.28-.4-.14-.66-.52-.66-.94.01-.6,1.38-6.38-1.21-4-.2.18-.32.45-.32.72-.03,1.87-.72,3.37-2.09,4.5h-.5l-.69-.44c-.36-.23-.54-.67-.44-1.08l2.72-11.22c.11-.43.49-.74.93-.76l5.34-.21c.47-.02.89.29,1.01.74.51,1.96.24,3.66-.81,5.11-.15.21-.21.47-.18.73.37,2.77-.27,5.19-1.94,7.24Zm-1.8-8.01c.57.23,1.34-.32,1.71-1.24.37-.92.2-1.85-.37-2.08,0,0,0,0,0,0-.57-.23-1.34.33-1.71,1.24,0,0,0,0,0,0-.37.92-.2,1.85.37,2.08,0,0,0,0,0,0h0Zm10.53-.54l1.68.2c.55.07.94.56.87,1.11-.01.1-.04.2-.08.3-.47,1.03-1.45,1.36-2.95,1-.3-.07-.61,0-.85.18-.75.59-.94,1.3-.57,2.13.19.43.66.66,1.12.56,1.95-.41,2.71.23,2.3,1.94-.11.45-.51.77-.97.77h-5.2c-.56,0-1.01-.44-1.01-.99,0-.08,0-.16.03-.24l2.7-11.25c.1-.43.47-.74.91-.77l4.9-.31c.25-.01.5.07.7.23,3.45,2.81-4.57,1.82-4.46,4.19.03.49.4.89.88.95h0Zm4.58,8.44h-.5c-.23-.03-.44-.09-.61-.19-.44-.26-.62-.81-.41-1.28,1.51-3.37,3-6.73,4.46-10.1.82-1.89,2.06-2.81,4.02-1.95.35.16.58.51.59.9.09,5.81-.02,9.58-.33,11.32-.19,1.07-.91,1.43-2.14,1.09-.35-.1-.62-.38-.71-.73l-.42-1.69c-.06-.24-.22-.45-.45-.54-1.28-.56-2.18,2.4-3.5,3.17Zm3.6-7.71c-.25.61-.41,1.21-.48,1.8-.05.43.26.83.69.89.53.07.82-.24.88-.92.05-.54.09-1.03.13-1.46.27-2.82-.14-2.92-1.22-.31Zm11.65,7.71h-.5c-1.65-.66-1.36-4.07-1.48-5.62-.02-.21-.19-.38-.4-.38h-.28c-.18-.01-.32.12-.34.29-.18,1.8.14,5.04-2,5.71h-.5c-1.97-.57,1.16-10.15,1.58-12,.44-1.93,2.02-2.41,3.53-1.16.25.2.38.51.36.83-.03.53-.05,1.02-.06,1.45-.09,4.09.33,4.15,1.26.16l.44-1.89c.05-.18.14-.35.27-.48,4.88-4.81-.11,11.69-.17,11.95-.07.33-.3.6-.62.72l-1.09.42h0Zm26.59.05l-1.59-.05c-.83-.45-1.25-1.14-1.25-2.07,0-.53-.41-.97-.94-1l-.28-.02c-.47-.03-.89.27-1.02.72-.32,1.09-.99,1.88-2.01,2.37h-.75c-.74-.33-.92-.89-.55-1.68,1.75-3.67,3.38-7.39,4.89-11.15.1-.25.3-.45.55-.55,1-.41,1.98-.45,2.93-.14.43.14.71.55.69,1l-.67,12.57h0Zm-3.2-7.69l-.6,1.25c-.17.37-.1.81.18,1.11.84.89,1.52-.36,1.58-1.18.01-.3.03-.59.05-.86.15-2.25-.25-2.35-1.21-.32Zm21.27,7.69l-1.16-.05c-.87-.81-1.2-1.83-.98-3.06.07-.36-.07-.72-.35-.95-1.1-.9-1.27,3.23-2.92,4.01h-.75l-.52-.33c-.36-.23-.54-.66-.44-1.07l2.69-11.35c.08-.34.33-.62.66-.72,2.21-.72,2.88.15,2.01,2.6-.26.72.14,2.82.78.87.37-1.12,3.66-5.87,4.53-3.35.11.3.06.64-.12.9l-3.05,4.4c-.19.27-.23.62-.11.93.99,2.51.9,4.9-.27,7.17h0Zm7.75-3.03c2.1-.49,2.9.17,2.41,1.99-.12.44-.51.74-.97.74h-5.25c-.55,0-1-.45-1-.99,0-.08,0-.16.03-.24l2.73-11.27c.11-.43.48-.74.91-.76l4.8-.28c.56-.03,1.03.4,1.06.95,0,.09,0,.19-.02.28l-.18.74c-.1.44-.48.76-.92.78l-2.59.12c-.47.03-.86.37-.94.83-.26,1.48.49,1.99,2.25,1.54.51-.14,1.05.16,1.21.67.29.96-.19,1.67-1.45,2.14-.18.07-.37.08-.56.03-1.87-.41-2.79.19-2.75,1.78.02.56.48.99,1.04.98.07,0,.13-.01.19-.03h0Zm7.76-7.75c-6.07-2.99,8.51-4.69,6.49-1.03-.12.23-.33.4-.57.48l-1.76.56c-.35.11-.6.4-.67.76-.34,1.73-1.36,8.88-2.74,9.6-.53.27-1.08.29-1.66.07-.47-.18-.74-.69-.61-1.18l2.05-8.12c.11-.46-.11-.93-.53-1.14h0Zm23.05,10.79l-.97-.06c-1.33-.85-.93-3.54-2.51-3.15-.25.06-.46.23-.55.47-.46,1.13-1.19,2.02-2.19,2.68h-.75c-.15-.04-.29-.1-.4-.17-.43-.27-.6-.82-.38-1.28,1.56-3.33,3.06-6.7,4.49-10.09.81-1.92,2.1-2.98,4.1-1.96.3.15.5.44.54.77.56,4.42.1,8.68-1.38,12.79Zm-2.43-7.93c-.3.49-.52.99-.66,1.49-.34,1.24.95,1.64,1.45.53.25-.56.38-1.12.4-1.67.05-1.62-.35-1.74-1.19-.35h0Zm10.35,5.01c2.53.36,2.2,2.23,0,2.56-1.55.23-3.08.18-4.59-.16-.54-.12-.88-.65-.76-1.19,0-.01,0-.02,0-.04.9-3.5,1.69-6.96,2.36-10.38.35-1.79,1.27-2.29,2.75-1.52.41.21.62.67.51,1.12l-1.96,8.16c-.12.47.13.96.58,1.15.35.15.72.25,1.09.3h0Zm6.35-1.31c-.13.53.19,1.07.73,1.2.14.03.29.04.43.01,2.11-.41,2.73.32,1.84,2.17-.17.35-.53.58-.92.57l-4.72-.08c-.55,0-.99-.46-.99-1.01,0-.07,0-.15.03-.22.8-3.33,1.56-6.66,2.29-9.99.33-1.51,1.18-3.25,2.95-1.96.33.24.48.66.38,1.05l-2.02,8.26h0Zm15.98,2.21l-.03.75c-.02.54-.46.97-1,.97l-4.75-.02c-.55,0-1-.45-.99-1.01,0-.07,0-.14.02-.21.75-3.45,1.52-6.87,2.3-10.25.34-1.47,1.32-2.84,2.88-1.71.33.24.48.64.39,1.03l-1.89,8.17c-.12.54.22,1.07.76,1.2.07.02.14.02.2.02l1.13.02c.55.01.99.47.98,1.02,0,0,0,.01,0,.02h0Zm5.22-3.07c-1.73,4.39,5.37-.16,3.21,4.22-.17.34-.52.56-.9.56h-4.98c-.55,0-.99-.44-.99-.99,0-.08,0-.15.02-.22l2.48-11.24c.09-.44.47-.75.92-.78,1.65-.08,7.63-1.56,5.86,1.94-.17.34-.52.55-.9.54h-2.39c-.35-.01-.68.17-.86.47-1,1.66-.34,2.41,1.98,2.25.55-.04,1.03.37,1.07.92,0,.08,0,.16-.01.23l-.07.42c-.07.45-.45.8-.91.84l-2.68.21c-.38.03-.71.28-.85.63h0Zm12.56,5.03h-.75c-1.51-.84-1.02-3.64-2.6-3.19-.31.09-.56.32-.67.63-.37,1.06-1.03,1.91-1.98,2.56h-.75c-.92-.25-1.22-.73-.89-1.44,1.79-3.83,3.51-7.7,5.17-11.61.16-.37.52-.61.92-.61h2.18c.55,0,1,.45,1,1.01,0,.01,0,.02,0,.03l-.4,11.29c0,.32-.17.62-.44.8l-.79.53h0Zm-1.4-5.99c1.14-5.84-1.55-1.2-1.55-.13,0,.44.36.79.8.8.41,0,.66-.22.75-.67Zm28.85,2.92l1.92.1c.48.02.88.39.94.88.14,1.18-.56,1.83-1.77,1.84-1.61.01-3.16,0-4.67-.02-.55,0-1-.46-.99-1,0-.08.01-.15.03-.23l2.75-11.2c.11-.42.47-.73.91-.76l4.95-.29c.55-.03,1.02.39,1.06.94,0,.06,0,.12,0,.18-.21,1.59-1.27,2.1-3.18,1.55-.36-.1-.75,0-1,.28-3.39,3.63,4.11,1.76,3.15,3.49-.53.95-1.15,1.61-1.45,1.53-1.93-.52-3.11-.04-3.55,1.43-.16.53.15,1.09.68,1.24.08.02.15.04.23.04h0Z"/><path class="cls-3" d="m73.75,143.03c.87,1.67.67,3.24-.62,4.72-.18.2-.27.47-.24.74.53,5.83-2.13,8.21-7.96,7.16-.54-.1-.91-.62-.81-1.16,0-.02,0-.03.01-.05l2.6-11.17c.11-.45.51-.77.98-.77h5.15c.37-.01.71.2.89.53Zm-4.4,4.74c.53.21,1.24-.31,1.59-1.17,0,0,0,0,0,0,.34-.86.19-1.73-.34-1.95,0,0,0,0,0,0-.53-.21-1.24.31-1.59,1.17,0,0,0,0,0,0-.34.86-.19,1.73.34,1.95,0,0,0,0,0,0Zm-1.37,5.41c.56.29,1.38-.2,1.84-1.09.46-.89.38-1.84-.18-2.13-.56-.29-1.38.2-1.84,1.09-.46.89-.38,1.84.18,2.13Zm60.99-10.65c5.45.45,1.44,4.14,1.34,6.22-.03.67.06,1.4.27,2.17.06.2.05.42-.02.62-1.45,3.82-4.23,5.17-8.35,4.04-.52-.14-.83-.67-.71-1.19l2.67-11.06c.09-.42.45-.72.87-.76,1.34-.13,2.65-.15,3.93-.04Zm-2.19,5.14c.58.21,1.29-.28,1.59-1.1,0,0,0,0,0,0,.29-.82.06-1.65-.52-1.86-.58-.21-1.29.28-1.59,1.1,0,0,0,0,0,0-.29.82-.06,1.65.52,1.86Zm-1.41,5.75c.59.27,1.42-.28,1.85-1.23,0,0,0,0,0,0,.43-.95.29-1.93-.3-2.2,0,0,0,0,0,0-.59-.27-1.42.28-1.85,1.23,0,0,0,0,0,0-.43.95-.29,1.93.3,2.2,0,0,0,0,0,0Z"/></g></svg>