<?xml version="1.0" encoding="UTF-8"?><svg id="_레이어_2" xmlns="http://www.w3.org/2000/svg" viewBox="0 0 77 120.66"><defs><style>.cls-1{fill:none;stroke:#96878a;stroke-miterlimit:10;}.cls-2{fill:#090910;}.cls-3{fill:#aa8f92;}.cls-4{fill:#11070a;}</style></defs><g id="_레이어_1-2"><path class="cls-2" d="m28.46,25.61s5.74,2.64,6.2,8.58-2.87,10.87,1.41,14.23,3.33,6.92,2.14,8.11-10.69,5.76-11.64,5.26-9.74-4.21-9.98-5.33.48-26.84,2.85-28.24,9.03-2.6,9.03-2.6Z"/><path class="cls-2" d="m20.91,30.8l-4.38-4.46s-4.23.36-5.66,4.93c0,0,5.88,6.89,7.72,8.32s2.32-8.79,2.32-8.79Z"/><path class="cls-3" d="m16.22,22.72s-5.88-4.04-6.18-5.05-.3-4.75,0-4.75,1.37-.3,1.37-.65.95-6.12-3.68-4.93c-3.39.25-1.31,4.84,0,5.33s-.89,5.57-.06,7.1,9.76,9.71,11.05,9.91,1.43-5.64-2.49-6.95Z"/><path class="cls-3" d="m28.69,24.9c-1.59,4.5-5.74,5.38-7.56,4.21s-3.16-5.57-1.05-8.84,5.6-3.33,7.42-2.15,3.54.12,1.19,6.79Z"/><path class="cls-4" d="m23.02,12.6s-4.1.62-4.99,5.97c0,0-3.03,1.43-1.87,2.67s2.85-.98,3.92,0,.36,1.82,1.43,2.43,1.72.43,3.56-1.89c1.69-2.14,2.94-.53,4.19-2.14s.36-3.3.45-3.83-2.32-3.92-6.68-3.21Z"/><polygon class="cls-3" points="10.21 107.62 10.84 114.27 14.53 113.79 14.53 106.78 10.21 107.62"/><polygon class="cls-3" points="45.53 108.8 44.5 113.56 49.25 114.27 48.18 107.73 45.53 108.8"/><path class="cls-2" d="m14.91,112.72s-3.92-.83-5.47,0-3.09,5.31-6.77,5.11c-1.9-1.31-1.07,2.38,4.4,2.26s5.11-2.97,5.94-2.97,3.6.59,3.52-.12.65-3.96-1.62-4.28Z"/><path class="cls-2" d="m44.02,111.3s-1.78,3.92-.59,5.47,2.26-.18,5.11,2.64,10.34,0,10.34,0c0,0,.71-1.34-2.02-2.05s-6.42-1.54-6.53-2.26-.12-2.75-.12-2.75c0,0-4.73.54-6.18-1.06Z"/><path class="cls-2" d="m20.91,56.46s-3.62,3.95-3.39,8.54-5.47,7.21-6.65,11.72-3.33,25.9-2.38,32.79h6.89s4.16-12.71,4.4-22.93c-.59-5.23,6.78-13.54,8.08-15.21s8.76,14.73,9.07,16.4.43,11.88,6.13,22.93h6.18s-1.07-18.77-2.61-23.52-4.63-15.68-4.87-17.7-.71-13.43-5.7-14.5-15.15,1.48-15.15,1.48Z"/><path class="cls-4" d="m6.22,8.82L69.58,1.69s.98-3.12,5.08-.89,1.87,7.75.36,8.02-5.88-4.81-5.79-5.44S9.61,10.16,9.61,10.16c0,0-3.56,5.52-5.88,4.99s-7.31-4.06.45-7.56c4.18-.67,2.05,1.23,2.05,1.23Z"/><path class="cls-1" d="m8.56,12.15v7.37l7.66,7.49s.25-.08-.33.96"/><path class="cls-3" d="m16.22,27s-4.46-4.63-7.66-7.49c0,0-.3-5.23,0-7.37s-4.1-1.72-4.81,2.26-.59,5.43,1.01,7.79,6.24,8.07,7.72,8.9,3.81-3.5,3.74-4.1Z"/></g></svg>