<?xml version="1.0" encoding="UTF-8"?><svg id="_레이어_2" xmlns="http://www.w3.org/2000/svg" viewBox="0 0 117.62 105.21"><defs><style>.cls-1{fill:#a8948c;}.cls-2{fill:#080706;}.cls-3{fill:#090805;}.cls-4{fill:#ac9690;}.cls-5{fill:#0e0404;}</style></defs><g id="_레이어_1-2"><path class="cls-3" d="m76.23,46.4s-3.03,22.51-3.68,23.82-2.32,2.92-2.2,12.1-1.66,13.09.48,13.69.59,1.78-3.21,4.04c-3.8,2.26-7.01,3.01-4.4,4.48s6.42.4,9.33-1.27,3.39-.12,3.68-.59.42-4.63-.53-4.87-.59-1.54-.59-1.54c0,0,2.26.24,2.97-.36s2.82-21.07,2.97-25.19,7.25-13.18,7.72-14.61,8.08,8.55,8.55,13.78,2.5,22.34,5.35,27.09c2.85,4.75-1.07,5.58,4.16,7.01,5.23,1.43,5.94,1.47,9.74.55,3.8-.91-3.68-2.81-6.77-5.78s0-1.31,0-2.73-2.38-20.55-2.61-24.36-3.68-16.73-6.3-19.23-.12-9.08-1.7-9.2-17.9-.44-22.95,3.18Z"/><path class="cls-4" d="m67.67,32.84s-3.68,4.35-5.76,12.66c-2.5,4.16-3.66,4.1-5.46,6s-2.68,3.39.94,3.39,4.1-2.08,5.05-3.45,8.18-10.09,9.82-16.39-4.6-2.22-4.6-2.22Z"/><path class="cls-5" d="m77.22,18.11s11.36-1.6,14.12-.62,6.77.71,7.31,5.93-.36,13.59.49,15.01,2.5,7.35-5.26,9.58-17.06.31-17.6-1.74-.49-1.25.49-4.77-1.78-19.43.45-23.39Z"/><path class="cls-5" d="m78.11,18.11s-5.61.71-7.8,7.08-3.65,6.1-2,7.98,4.41,3.97,5.21,3.39,4.14-4.37,4.59-5.52,5.48-7.44,0-12.92Z"/><path class="cls-1" d="m79.37,12.36s.48,7.25,4.87,7.25,4.28-4.34,5.35-7.87-8.44-5.5-10.22,0"/><path d="m83.77,0s-4.46.89-5.17,4.99-2.02,6.95,0,7.54,3.21-3.98,5.64-3.39,3.09,3.2,5.11,3.44,2.79-1.54,1.72-2.61,2.97-9.45-7.31-9.98Z"/><path class="cls-2" d="m62.74,51.09l-57.15.83v-7.13S.25,46.93,0,50.85s4.63,4.51,5.23,4.04.48-1.19.48-1.19l57.5-1.29-.48-1.32Z"/><path class="cls-4" d="m82.05,35.29s-11.82,11.23-13.3,12.42c-1.06.85-1.96,1.24-1.75,2.22-.02,0-.04,0-.04,0,0,0-3.5-1.79-5.16.7-1.66,2.5-.18,4.03,2.58,5.16,2.76,1.13,4.67-1.09,4.9-3.24,0-.05,0-.09,0-.13,1.02.05,1.82-1.31,2.61-2.14,1.13-1.19,11.88-6.71,13.72-10.69,1.84-3.98.29-3.68-3.57-4.28Z"/><path class="cls-2" d="m90.01,23.82s-10.34,10.75-9.45,11.7,3.8,4.51,5.82,4.51,7.07-6.31,8.55-8.5"/></g></svg>