<?xml version="1.0" encoding="UTF-8"?><svg id="_레이어_2" xmlns="http://www.w3.org/2000/svg" viewBox="0 0 117.62 105.21"><defs><style>.cls-1{fill:#a8948c;}.cls-2{fill:#080706;}.cls-3{fill:#090805;}.cls-4{fill:#ac9690;}</style></defs><g id="_레이어_1-2"><path class="cls-4" d="m67.67,32.84s-3.68,4.35-5.76,12.66c-2.5,4.16-3.66,4.1-5.46,6s-2.68,3.39.94,3.39,4.1-2.08,5.05-3.45,8.18-10.09,9.82-16.39-4.6-2.22-4.6-2.22Z"/><path class="cls-3" d="m81.16,15.5c-.33.09-.66.1-1,.06-1.55-.21-6.39-.41-9.04,1.84-3.21,2.73-3.95,10.76-6,12.59-1.72,1.54,8.14,5.47,8.14,5.47,0,0,1.72-4.63,2.67-4.28s-3.5,14.44.3,15.21,14.08.53,17.23-.71c0,0,4.12.3,5.72-1.83s-1.33-5.89-1.45-6.9.59-14.02-.36-16.4-6.59-5.35-10.4-5.47c-2.84-.09-4.89.17-5.82.42Z"/><path class="cls-1" d="m79.37,12.36s.48,7.25,4.87,7.25,4.28-4.34,5.35-7.87-8.44-5.5-10.22,0"/><path d="m83.77,0s-4.46.89-5.17,4.99-2.02,6.95,0,7.54,3.21-3.98,5.64-3.39,3.09,3.2,5.11,3.44,2.79-1.54,1.72-2.61,2.97-9.45-7.31-9.98Z"/><path class="cls-4" d="m82.05,35.29s-11.82,11.23-13.3,12.42-2.67,1.49-.89,3.74,2.91,0,4.04-1.19,11.88-6.71,13.72-10.69.29-3.68-3.57-4.28Z"/><path class="cls-2" d="m90.01,23.82s-10.34,10.75-9.45,11.7,3.8,4.51,5.82,4.51,7.07-6.31,8.55-8.5"/><path class="cls-2" d="m62.74,51.09l-57.15.83v-7.13S.25,46.93,0,50.85s4.63,4.51,5.23,4.04.48-1.19.48-1.19l57.5-1.29-.48-1.32Z"/><path class="cls-4" d="m66.96,49.91s-3.5-1.79-5.16.7-.18,4.03,2.58,5.16,4.67-1.09,4.9-3.24-2.32-2.62-2.32-2.62Z"/><path class="cls-3" d="m76.23,46.4s-3.03,22.51-3.68,23.82-2.32,2.92-2.2,12.1-1.66,13.09.48,13.69.59,1.78-3.21,4.04-7.01,3.01-4.4,4.48,6.42.4,9.33-1.27,3.39-.12,3.68-.59.42-4.63-.53-4.87-.59-1.54-.59-1.54c0,0,2.26.24,2.97-.36s2.82-21.07,2.97-25.19,7.25-13.18,7.72-14.61,8.08,8.55,8.55,13.78,2.5,22.34,5.35,27.09-1.07,5.58,4.16,7.01,5.94,1.47,9.74.55-3.68-2.81-6.77-5.78,0-1.31,0-2.73-2.38-20.55-2.61-24.36-3.68-16.73-6.3-19.23-.12-9.08-1.7-9.2-17.9-.44-22.95,3.18Z"/></g></svg>