<?xml version="1.0" encoding="UTF-8"?><svg id="_레이어_2" xmlns="http://www.w3.org/2000/svg" viewBox="0 0 55.34 108.32"><defs><style>.cls-1{fill:#a8948c;}.cls-2{fill:#110c0c;}.cls-3{fill:#090910;}.cls-4{fill:#ac9690;}.cls-5{fill:#040800;}</style></defs><g id="_레이어_1-2"><path class="cls-5" d="m18.21,12.77s-8.29,4.15-8.71,6.47,2.32,15.68,5.7,18.92c0,0,1.37-.89,3.3-2.5,0,0,1.49-.18,6.25,10.16l10.15-.45s1.01-4.16,2.26-14.02l3.8-.18s-1.96-14.26-6.77-17.58c-4.93-2.41-15.98-.82-15.98-.82Z"/><path class="cls-3" d="m16.91,40.76s-5.34,2.66-5.57,12.1-2.25,23.37-3.6,25.62-.22,15.73,0,20.22c0,0-3.74,5.28-6.77,5.1s1.6,3.83,5.26,2.05,4.54-3.74,5.26-3.21,1.6.09,1.69-.18,1.41-15.77,2.44-21.92,8.35-26.46,11.46-27.53,7.22,16.4,7.31,17.73.09,9.8,2.05,13.9,4.01,10.69,4.1,12.83-.36,5.08,1.78,5.88,3.48,2.5,8.2,2.41,4.72-.71,4.81-2.14-3.12.53-8.38-5.08c0,0,.09-21.21-2.76-27.53s-1.37-27.62-8.22-30.25-19.07,0-19.07,0Z"/><path class="cls-4" d="m31.75,31.24h5.7s-2.2,16.4-3.68,18.3,1.37,6.65-.89,7.72-4.69-2.02-4.57-3.5,1.25-1.96,2.02-5.58.42-14.2,1.43-16.93Z"/><path class="cls-4" d="m15.63,37.87s4.15,10.63,10.06,15.11c0,0-.48,4.34,2.85,6.18s3.27-2.5,3.33-3.62-1.43-4.28-3.33-4.63-6.18-8.85-6.77-10.87c-.3-1.01-1.12-1.96-2.41-3.64-1.04-1.35-1.75,0-3.73,1.48Z"/><ellipse class="cls-1" cx="22.03" cy="11.05" rx="4.13" ry="5.08" transform="translate(-1.29 3.07) rotate(-7.75)"/><path class="cls-2" d="m15.59,7.06S13.57,1.18,20.11.11s6.42,6.06,6.42,6.06c0,0,3.09,1.84.48,3.33s-1.54-1.43-4.22-1.6-2.9,2.76-4.9,3.16-3.36.05-2.29-3.99Z"/><path class="cls-3" d="m28.78,57.48s2.5,41.3,2.38,44.39c0,0-4.99.36-7.01,3.86-1.57,2.73,4.6,2.69,7.41,2.53.73-.04,1.29-.66,1.25-1.39l-2.57-50.26s-1.22-.81-1.46.87Z"/></g></svg>