<?xml version="1.0" encoding="UTF-8"?><svg id="_레이어_2" xmlns="http://www.w3.org/2000/svg" viewBox="0 0 77 119.97"><defs><style>.cls-1{fill:#aa8f92;}.cls-2{fill:#11070a;}</style></defs><g id="_레이어_1-2"><path class="cls-1" d="m6.38,10.56s1.76-6,3.9-4.53,3.84,1.65-.15,9.54c0,0-3.08,1.61,4.51,7.81s-2.65,6.77-2.65,6.77l-5.82-9.33.22-10.26Z"/><path class="cls-2" d="m6.22,8.82L69.58,1.69s.98-3.12,5.08-.89,1.87,7.75.36,8.02-5.88-4.81-5.79-5.44S9.61,10.16,9.61,10.16c0,0-3.56,5.52-5.88,4.99s-7.31-4.06.45-7.56c4.18-.67,2.05,1.23,2.05,1.23Z"/><path class="cls-1" d="m14.51,25.74s-6.69-4.98-6.69-6.14-.36-6.06-.36-6.33-1.96-4.01-3.48-1.6-1.43,9.71,0,11.32,6.15,6.42,7.49,6.91,3.03-4.16,3.03-4.16Z"/><path class="cls-2" d="m27.31,24.29s6.89,1.64,7.07,7.17-1.87,10.43.45,15.86,5.35,6.68.62,9.98-9.47,5.08-12.71,1.78-6.81-1.96-5.92-9.09,2.05-9.45.36-11.23-7.57-7.84-7.57-7.84c0,0,3.03-6.06,6.15-5.17s4.24,3.56,5.77,3.03,5.78-4.49,5.78-4.49Z"/><path class="cls-1" d="m27.31,25.22c-1.59,4.5-5.74,5.38-7.56,4.21s-3.16-5.57-1.05-8.84,5.6-3.33,7.42-2.15,3.54.12,1.19,6.79Z"/><path class="cls-2" d="m21.64,12.92s-4.1.62-4.99,5.97c0,0-3.03,1.43-1.87,2.67s2.85-.98,3.92,0,.36,1.82,1.43,2.43,1.72.43,3.56-1.89c1.69-2.14,2.94-.53,4.19-2.14s.36-3.3.45-3.83-2.32-3.92-6.68-3.21Z"/><path class="cls-2" d="m20.12,55.52s-3.92,6.14-3.8,9.31-5.7,5.07-6.71,13.5-2.08,31.6-2.08,31.6c0,0,1.19,2.5-1.36,4.87s-6.83,2.38-3.98,4.04,9.14.95,9.62-.48,3.57-1.07,3.57-1.07c0,0,.48-3.45,0-4.75s0-7.6,1.07-11.05,1.78-11.75,1.78-13.84,7.49-16.22,8.67-15.87,9.15,14.03,9.15,15.87,2.02,18.47,5.47,22.39-.83,6.65,1.54,7.37,5.58,3.23,10.57,2.39,4.4-2.15,0-3.58-5.23-2.73-5.58-4.4,0-19.6-1.54-24.59-4.75-14.02-6.42-25.19c-1.59-8.2-5.7-6.3-6.77-7.13s-13.19.59-13.19.59Z"/></g></svg>