<?xml version="1.0" encoding="UTF-8"?><svg id="_레이어_2" xmlns="http://www.w3.org/2000/svg" viewBox="0 0 17.33 10.75"><defs><style>.cls-1{fill:#86654b;stroke:#86654b;stroke-miterlimit:10;stroke-width:.5px;}</style></defs><g id="_레이어_1-2"><path class="cls-1" d="m1.64,10.5c.77,0,1.39-.62,1.39-1.39,0-.13-.02-.26-.05-.38l3.14-1.92c.25.23.58.37.95.37s.7-.14.95-.37l3.14,1.92c-.03.12-.05.25-.05.38,0,.77.62,1.39,1.39,1.39s1.39-.62,1.39-1.39c0-.33-.11-.63-.3-.86l1.64-5.3c.15.06.31.09.48.09.77,0,1.39-.62,1.39-1.39s-.62-1.39-1.39-1.39-1.39.62-1.39,1.39c0,.33.11.63.3.86l-1.64,5.3c-.15-.06-.31-.09-.48-.09-.37,0-.7.14-.95.37l-3.14-1.92c.03-.12.05-.25.05-.38,0-.77-.62-1.39-1.39-1.39s-1.39.62-1.39,1.39c0,.13.02.26.05.38l-3.14,1.92c-.25-.23-.58-.37-.95-.37-.77,0-1.39.62-1.39,1.39s.62,1.39,1.39,1.39ZM15.05,1.64c0-.36.29-.64.64-.64s.64.29.64.64-.29.64-.64.64c0,0,0,0,0,0-.28,0-.52-.19-.6-.44-.02-.06-.03-.13-.03-.21Zm-2.82,6.88c.08-.03.16-.05.25-.05,0,0,0,0,0,0,.28,0,.52.19.6.44.02.06.03.13.03.21,0,.36-.29.64-.64.64s-.62-.27-.64-.6c0-.01,0-.03,0-.04,0-.27.16-.49.39-.59Zm-5.17-3.37c.34,0,.62.27.64.6,0,.01,0,.03,0,.04,0,.27-.16.49-.39.59-.08.03-.16.05-.25.05s-.18-.02-.25-.05c-.23-.1-.39-.33-.39-.59,0-.02,0-.03,0-.04.02-.33.3-.6.64-.6Zm-5.42,3.32c.09,0,.18.02.25.05.23.1.39.33.39.59,0,.02,0,.03,0,.04-.02.33-.3.6-.64.6s-.64-.29-.64-.64.29-.64.64-.64Z"/></g></svg>