<?xml version="1.0" encoding="UTF-8"?>
<svg id="_레이어_1" data-name="레이어 1" xmlns="http://www.w3.org/2000/svg" viewBox="0 0 40 40">
  <defs>
    <style>
      .cls-1 {
        fill: none;
        stroke: #fff;
        stroke-miterlimit: 10;
        stroke-width: 2px;
      }

      .cls-2 {
        fill: #cacaca;
      }

      .cls-2, .cls-3 {
        stroke-width: 0px;
      }

      .cls-3 {
        fill: #fff;
      }
    </style>
  </defs>
  <rect class="cls-2" width="40" height="40" rx="9.26" ry="9.26"/>
  <rect class="cls-3" x="7.67" y="19.28" width="19.18" height="13.51" rx="2.6" ry="2.6"/>
  <path class="cls-3" d="m34.46,32.18l-5.71-2.88v-6.53l5.71-2.88c.63,0,1.14.51,1.14,1.14v10.01c0,.63-.51,1.14-1.14,1.14Z"/>
  <path class="cls-1" d="m14.08,13.05c0,2.17-1.76,3.92-3.92,3.92s-3.92-1.76-3.92-3.92,1.76-3.92,3.92-3.92,3.92,1.76,3.92,3.92Z"/>
  <path class="cls-1" d="m28.06,11.64c0,2.95-2.39,5.34-5.34,5.34s-5.34-2.39-5.34-5.34,2.39-5.34,5.34-5.34,5.34,2.39,5.34,5.34Z"/>
</svg>