<?xml version="1.0" encoding="UTF-8"?>
<svg id="_레이어_1" data-name="레이어 1" xmlns="http://www.w3.org/2000/svg" viewBox="0 0 40 40">
  <defs>
    <style>
      .cls-1 {
        fill: none;
        stroke: #fff;
        stroke-miterlimit: 10;
        stroke-width: 2px;
      }

      .cls-2 {
        fill: #3c73cb;
      }

      .cls-2, .cls-3, .cls-4 {
        stroke-width: 0px;
      }

      .cls-3 {
        fill: #aaddf7;
      }

      .cls-4 {
        fill: #fff;
      }
    </style>
  </defs>
  <g>
    <rect class="cls-2" x="1" y="1" width="38" height="38" rx="8.25" ry="8.25"/>
    <path class="cls-3" d="m30.74,2c4,0,7.26,3.25,7.26,7.26v21.49c0,4-3.25,7.26-7.26,7.26H9.26c-4,0-7.26-3.25-7.26-7.26V9.26c0-4,3.25-7.26,7.26-7.26h21.49m0-2H9.26C4.14,0,0,4.14,0,9.26v21.49c0,5.11,4.14,9.26,9.26,9.26h21.49c5.11,0,9.26-4.14,9.26-9.26V9.26c0-5.11-4.14-9.26-9.26-9.26h0Z"/>
  </g>
  <rect class="cls-4" x="7.67" y="19.28" width="19.18" height="13.51" rx="2.6" ry="2.6"/>
  <path class="cls-4" d="m34.46,32.18l-5.71-2.88v-6.53l5.71-2.88c.63,0,1.14.51,1.14,1.14v10.01c0,.63-.51,1.14-1.14,1.14Z"/>
  <path class="cls-1" d="m14.08,13.05c0,2.17-1.76,3.92-3.92,3.92s-3.92-1.76-3.92-3.92,1.76-3.92,3.92-3.92,3.92,1.76,3.92,3.92Z"/>
  <path class="cls-1" d="m28.06,11.64c0,2.95-2.39,5.34-5.34,5.34s-5.34-2.39-5.34-5.34,2.39-5.34,5.34-5.34,5.34,2.39,5.34,5.34Z"/>
</svg>