<?xml version="1.0" encoding="UTF-8"?>
<svg id="_레이어_1" data-name="레이어 1" xmlns="http://www.w3.org/2000/svg" viewBox="0 0 40 40">
  <defs>
    <style>
      .cls-1 {
        fill: #3c73cb;
      }

      .cls-1, .cls-2, .cls-3 {
        stroke-width: 0px;
      }

      .cls-2 {
        fill: #aaddf7;
      }

      .cls-3 {
        fill: #fff;
      }
    </style>
  </defs>
  <g>
    <rect class="cls-1" x="1" y="1" width="38" height="38" rx="8.25" ry="8.25"/>
    <path class="cls-2" d="m30.74,2c4,0,7.26,3.25,7.26,7.26v21.49c0,4-3.25,7.26-7.26,7.26H9.26c-4,0-7.26-3.25-7.26-7.26V9.26c0-4,3.25-7.26,7.26-7.26h21.49M30.74,0H9.26C4.14,0,0,4.14,0,9.26v21.49c0,5.11,4.14,9.26,9.26,9.26h21.49c5.11,0,9.26-4.14,9.26-9.26V9.26C40,4.14,35.86,0,30.74,0h0Z"/>
  </g>
  <g>
    <path class="cls-3" d="m13.95,32.68c-.65,0-1.29-.13-1.88-.38-.58-.24-1.09-.59-1.54-1.04-.44-.44-.79-.96-1.04-1.54-.25-.6-.38-1.23-.38-1.88s.13-1.29.38-1.89c.24-.58.59-1.09,1.04-1.54s.96-.79,1.54-1.04c.6-.25,1.23-.38,1.88-.38s1.29.13,1.88.38c.58.24,1.09.59,1.54,1.04.44.44.79.96,1.04,1.54.25.6.38,1.23.38,1.89s-.13,1.29-.38,1.88c-.24.58-.59,1.09-1.04,1.54s-.96.79-1.54,1.04c-.6.25-1.23.38-1.88.38Zm0-7.26c-.65,0-1.25.25-1.71.71s-.71,1.07-.71,1.71.25,1.25.71,1.71c.46.46,1.07.71,1.71.71s1.25-.25,1.71-.71.71-1.07.71-1.71-.25-1.25-.71-1.71c-.46-.46-1.07-.71-1.71-.71Z"/>
    <path class="cls-3" d="m26.05,32.68c-.65,0-1.29-.13-1.89-.38-.58-.24-1.09-.59-1.54-1.04-.44-.44-.79-.96-1.04-1.54-.25-.6-.38-1.23-.38-1.88s.13-1.29.38-1.89c.24-.58.59-1.09,1.04-1.54.44-.44.96-.79,1.54-1.04.6-.25,1.23-.38,1.89-.38s1.29.13,1.89.38c.58.24,1.09.59,1.54,1.04.44.44.79.96,1.04,1.54.25.6.38,1.23.38,1.89s-.13,1.29-.38,1.88c-.24.58-.59,1.09-1.04,1.54-.44.44-.96.79-1.54,1.04-.6.25-1.23.38-1.89.38Zm0-7.26c-.65,0-1.25.25-1.71.71-.46.46-.71,1.07-.71,1.71s.25,1.25.71,1.71,1.07.71,1.71.71,1.25-.25,1.71-.71c.46-.46.71-1.07.71-1.71s-.25-1.25-.71-1.71c-.46-.46-1.07-.71-1.71-.71Z"/>
    <path class="cls-3" d="m29.68,29.05c-.67,0-1.21-.54-1.21-1.21v-13.31c0-.67.54-1.21,1.21-1.21s1.21.54,1.21,1.21v13.31c0,.67-.54,1.21-1.21,1.21Z"/>
    <path class="cls-3" d="m17.58,29.05c-.67,0-1.21-.54-1.21-1.21v-14.84c0-.52.17-1.03.48-1.44.31-.42.75-.72,1.25-.87l2.72-.81c.64-.19,1.31.17,1.51.81.19.64-.17,1.31-.81,1.51l-2.72.81v14.83c0,.67-.54,1.21-1.21,1.21Z"/>
    <path class="cls-3" d="m17.58,19.37c-.52,0-1-.34-1.16-.86-.19-.64.17-1.32.81-1.51l12.1-3.63c.64-.19,1.32.17,1.51.81.19.64-.17,1.32-.81,1.51l-12.1,3.63c-.12.03-.23.05-.35.05Z"/>
    <path class="cls-3" d="m17.58,13.37c-.52,0-1-.34-1.16-.86-.19-.64.17-1.32.81-1.51l12.1-3.63c.64-.19,1.32.17,1.51.81.19.64-.17,1.32-.81,1.51l-12.1,3.63c-.12.03-.23.05-.35.05Z"/>
  </g>
</svg>