<?xml version="1.0" encoding="UTF-8"?>
<svg id="_레이어_1" data-name="레이어 1" xmlns="http://www.w3.org/2000/svg" viewBox="0 0 40 40">
  <defs>
    <style>
      .cls-1 {
        fill: none;
        stroke: #fff;
        stroke-linecap: round;
        stroke-linejoin: round;
        stroke-width: 5px;
      }

      .cls-2 {
        fill: #3c73cb;
      }

      .cls-2, .cls-3 {
        stroke-width: 0px;
      }

      .cls-3 {
        fill: #aaddf7;
      }
    </style>
  </defs>
  <g>
    <rect class="cls-2" x="1" y="1" width="38" height="38" rx="8.25" ry="8.25"/>
    <path class="cls-3" d="m30.74,2c4,0,7.26,3.25,7.26,7.26v21.49c0,4-3.25,7.26-7.26,7.26H9.26c-4,0-7.26-3.25-7.26-7.26V9.26c0-4,3.25-7.26,7.26-7.26h21.49m0-2H9.26C4.14,0,0,4.14,0,9.26v21.49c0,5.11,4.14,9.26,9.26,9.26h21.49c5.11,0,9.26-4.14,9.26-9.26V9.26c0-5.11-4.14-9.26-9.26-9.26h0Z"/>
  </g>
  <line class="cls-1" x1="11.67" y1="13.88" x2="28.33" y2="13.88"/>
  <line class="cls-1" x1="20" y1="14.44" x2="20" y2="29.62"/>
</svg>