<?xml version="1.0" encoding="UTF-8"?>
<svg id="_레이어_1" data-name="레이어 1" xmlns="http://www.w3.org/2000/svg" viewBox="0 0 40 40">
  <defs>
    <style>
      .cls-1 {
        fill: #3c73cb;
      }

      .cls-1, .cls-2, .cls-3 {
        stroke-width: 0px;
      }

      .cls-2 {
        fill: #aaddf7;
      }

      .cls-3 {
        fill: #fff;
      }
    </style>
  </defs>
  <g>
    <rect class="cls-1" x="1" y="1" width="38" height="38" rx="8.25" ry="8.25"/>
    <path class="cls-2" d="m30.74,2c4,0,7.26,3.25,7.26,7.26v21.49c0,4-3.25,7.26-7.26,7.26H9.26c-4,0-7.26-3.25-7.26-7.26V9.26c0-4,3.25-7.26,7.26-7.26h21.49m0-2H9.26C4.14,0,0,4.14,0,9.26v21.49c0,5.11,4.14,9.26,9.26,9.26h21.49c5.11,0,9.26-4.14,9.26-9.26V9.26c0-5.11-4.14-9.26-9.26-9.26h0Z"/>
  </g>
  <g>
    <path class="cls-3" d="m19.35,26.89s0,0,0,0c.03.03.06.06.09.08,0,0,0,0,0,0,.03.02.06.04.09.06,0,0,0,0,.01,0,.03.02.06.04.09.05,0,0,0,0,.01,0,.03.02.06.03.09.04,0,0,0,0,.01,0,.03.01.07.03.1.04,0,0,0,0,0,0,.04.01.07.02.11.03,0,0,0,0,0,0,.04,0,.07.01.11.02,0,0,0,0,0,0,.04,0,.07,0,.11,0s.08,0,.11,0c0,0,0,0,0,0,.04,0,.07,0,.11-.02,0,0,0,0,0,0,.04,0,.07-.02.11-.03,0,0,0,0,0,0,.03-.01.07-.02.1-.04,0,0,0,0,.01,0,.03-.01.06-.03.09-.04,0,0,0,0,.01,0,.03-.02.06-.03.09-.05,0,0,0,0,.01,0,.03-.02.06-.04.09-.06,0,0,0,0,0,0,.03-.03.06-.05.09-.08h0s6.25-6.25,6.25-6.25c.48-.48.48-1.25,0-1.72-.48-.48-1.25-.48-1.72,0l-.86.86-3.31,3.31v-13.96c0-.67-.55-1.22-1.22-1.22s-1.22.55-1.22,1.22v13.96l-3.31-3.31-.86-.86c-.48-.48-1.25-.48-1.72,0s-.48,1.25,0,1.72l6.25,6.25Z"/>
    <path class="cls-3" d="m31.16,24.8c-.67,0-1.22.55-1.22,1.22v3.63H10.06v-3.63c0-.67-.55-1.22-1.22-1.22s-1.22.55-1.22,1.22v4.85c0,.67.55,1.22,1.22,1.22h22.32c.67,0,1.22-.55,1.22-1.22v-4.85c0-.67-.55-1.22-1.22-1.22Z"/>
  </g>
</svg>