<?xml version="1.0" encoding="UTF-8"?>
<svg id="_레이어_1" data-name="레이어 1" xmlns="http://www.w3.org/2000/svg" viewBox="0 0 40 40">
  <defs>
    <style>
      .cls-1 {
        fill: #3c73cb;
      }

      .cls-1, .cls-2 {
        stroke-width: 0px;
      }

      .cls-2 {
        fill: #aaddf7;
      }

      .cls-3 {
        fill: none;
        stroke: #fff;
        stroke-linecap: round;
        stroke-linejoin: round;
        stroke-width: 3px;
      }
    </style>
  </defs>
  <g>
    <rect class="cls-1" x="1" y="1" width="38" height="38" rx="8.25" ry="8.25"/>
    <path class="cls-2" d="m30.74,2c4,0,7.26,3.25,7.26,7.26v21.49c0,4-3.25,7.26-7.26,7.26H9.26c-4,0-7.26-3.25-7.26-7.26V9.26c0-4,3.25-7.26,7.26-7.26h21.49m0-2H9.26C4.14,0,0,4.14,0,9.26v21.49c0,5.11,4.14,9.26,9.26,9.26h21.49c5.11,0,9.26-4.14,9.26-9.26V9.26c0-5.11-4.14-9.26-9.26-9.26h0Z"/>
  </g>
  <polygon class="cls-3" points="25.18 23.26 7.34 23.26 16.26 8.64 25.18 23.26"/>
  <path class="cls-3" d="m22,17.47c1-.51,2.13-.79,3.32-.79,4.05,0,7.34,3.29,7.34,7.34s-3.29,7.34-7.34,7.34-7.34-3.29-7.34-7.34c0-.27.01-.54.04-.8"/>
</svg>