<?xml version="1.0" encoding="UTF-8"?>
<svg id="_레이어_1" data-name="레이어 1" xmlns="http://www.w3.org/2000/svg" viewBox="0 0 40 40">
  <defs>
    <style>
      .cls-1 {
        fill: #666;
        stroke-width: 0px;
      }
    </style>
  </defs>
  <path class="cls-1" d="m30.49,12.01H9.51c-.79,0-1.44-.6-1.44-1.34s.64-1.34,1.44-1.34h20.98c.79,0,1.44.6,1.44,1.34s-.64,1.34-1.44,1.34Z"/>
  <g>
    <path class="cls-1" d="m27.46,35h-14.89c-1.27,0-2.3-.96-2.3-2.13V15.01c0-.74.64-1.34,1.44-1.34s1.44.6,1.44,1.34v17.3h13.7V15.01c0-.74.64-1.34,1.44-1.34s1.44.6,1.44,1.34v17.85c0,1.18-1.02,2.13-2.27,2.13Z"/>
    <path class="cls-1" d="m17.12,29.89c-.64,0-1.15-.6-1.15-1.34v-13.54c0-.74.52-1.34,1.15-1.34s1.15.6,1.15,1.34v13.54c0,.74-.52,1.34-1.15,1.34Z"/>
    <path class="cls-1" d="m22.68,29.89c-.64,0-1.13-.6-1.13-1.34v-13.54c0-.74.52-1.34,1.15-1.34s1.15.6,1.15,1.34v13.54c0,.74-.54,1.34-1.17,1.34Z"/>
  </g>
  <path class="cls-1" d="m17.08,11.22c-.12-.33-.19-.67-.19-1.04,0-1.72,1.4-3.11,3.11-3.11s3.11,1.4,3.11,3.11c0,.37-.07.71-.19,1.04h2.16c.07-.34.1-.68.1-1.04,0-2.86-2.33-5.19-5.19-5.19s-5.19,2.33-5.19,5.19c0,.36.04.7.1,1.04h2.16Z"/>
</svg>