<?xml version="1.0" encoding="UTF-8"?>
<svg id="_레이어_1" data-name="레이어 1" xmlns="http://www.w3.org/2000/svg" viewBox="0 0 40 40">
  <defs>
    <style>
      .cls-1 {
        fill: #666;
        stroke-width: 0px;
      }
    </style>
  </defs>
  <path class="cls-1" d="m34.41,31.54l-5.3-5.3c3.84-5.22,3.4-12.61-1.32-17.34-5.21-5.21-13.66-5.21-18.88,0-5.21,5.21-5.21,13.66,0,18.88,4.73,4.73,12.11,5.17,17.34,1.32l5.3,5.3c.79.79,2.07.79,2.86,0,.79-.79.79-2.07,0-2.86Zm-9.48-6.62c-3.63,3.63-9.52,3.63-13.15,0-3.63-3.63-3.63-9.52,0-13.15,3.63-3.63,9.52-3.63,13.15,0,3.63,3.63,3.63,9.52,0,13.15Z"/>
  <rect class="cls-1" x="12.39" y="16.84" width="11.91" height="3.02"/>
</svg>