<?xml version="1.0" encoding="UTF-8"?>
<svg id="_레이어_1" data-name="레이어 1" xmlns="http://www.w3.org/2000/svg" viewBox="0 0 40 40">
  <defs>
    <style>
      .cls-1 {
        fill: #666;
        stroke-width: 0px;
      }
    </style>
  </defs>
  <path class="cls-1" d="m5,24.71c0-.16,0-.32.03-.49.13-1.2.72-2.29,1.66-3.05.94-.76,2.13-1.11,3.33-.98,1.2.13,2.28.72,3.04,1.66.76.94,1.11,2.13.98,3.33-.13,1.2-.72,2.29-1.66,3.05-.94.76-2.13,1.11-3.33.98h0c-2.32-.25-4.05-2.22-4.05-4.5Zm6.62,0c0-.47-.16-.93-.46-1.31-.35-.43-.85-.71-1.4-.77-.55-.06-1.1.1-1.53.45-.43.35-.71.85-.77,1.4-.12,1.16.71,2.18,1.85,2.3h0c.55.06,1.1-.1,1.53-.45.43-.35.71-.85.77-1.4,0-.08.01-.15.01-.23Zm-2.44,3.3h0s0,0,0,0Z"/>
  <path class="cls-1" d="m5,11.47c0-.16,0-.32.03-.49.13-1.2.72-2.29,1.66-3.05.94-.76,2.13-1.11,3.33-.98,1.2.13,2.28.72,3.04,1.66.76.94,1.11,2.13.98,3.33-.13,1.2-.72,2.29-1.66,3.05-.94.76-2.13,1.11-3.33.98h0c-2.32-.25-4.05-2.22-4.05-4.5Zm6.62,0c0-.47-.16-.93-.46-1.31-.35-.43-.85-.71-1.4-.77-.55-.06-1.1.1-1.53.45-.43.35-.71.85-.77,1.4-.12,1.16.71,2.18,1.85,2.3h0c.55.06,1.1-.1,1.53-.45.43-.35.71-.85.77-1.4,0-.08.01-.15.01-.23Zm-2.44,3.3h0s0,0,0,0Z"/>
  <path class="cls-1" d="m5.25,31.84c0-3.14,2.34-4.65,3.58-5.01.65-.19,1.33.18,1.51.83.19.65-.18,1.32-.82,1.51-.2.06-1.83.64-1.83,2.67,0,.67-.55,1.22-1.22,1.22s-1.22-.55-1.22-1.22Z"/>
  <path class="cls-1" d="m35,26.2L12.82,10.56l-1.19,2.36,18.27,13.28s3.06,2.04,5.09,0Z"/>
  <g>
    <path class="cls-1" d="m24.67,16.71l10.33-7.28c-2.04-2.04-5.09,0-5.09,0l-7.59,5.51,2.36,1.77Z"/>
    <polygon class="cls-1" points="22.74 18.07 19.94 16.67 11.64 22.71 12.82 25.07 22.74 18.07"/>
  </g>
</svg>