<?xml version="1.0" encoding="UTF-8"?>
<svg id="_레이어_1" data-name="레이어 1" xmlns="http://www.w3.org/2000/svg" viewBox="0 0 40 40">
  <defs>
    <style>
      .cls-1 {
        fill: #666;
        stroke-width: 0px;
      }
    </style>
  </defs>
  <path class="cls-1" d="m7.94,10.92l7.11,7.11c.49-1.23,1.43-2.23,2.61-2.81l-7.01-7.01-2.71,2.71Z"/>
  <path class="cls-1" d="m24.95,18.03l7.11-7.11,2.07,2.07c.08.08.23.02.23-.09l.64-7.5c0-.07-.06-.13-.13-.13l-7.5.64c-.12,0-.18.14-.09.23l2.07,2.07-7.01,7.01c1.18.58,2.12,1.58,2.61,2.81Z"/>
  <path class="cls-1" d="m34.13,27.01l-2.07,2.07-7.11-7.11c-.49,1.23-1.43,2.23-2.61,2.81l7.01,7.01-2.07,2.07c-.08.08-.02.23.09.23l7.5.64c.07,0,.13-.06.13-.13l-.64-7.5c0-.12-.14-.18-.23-.09Z"/>
  <path class="cls-1" d="m10.65,8.2h0s2.07-2.07,2.07-2.07c.08-.08.02-.23-.09-.23l-7.5-.64c-.07,0-.13.06-.13.13l.64,7.5c0,.12.14.18.23.09l2.07-2.07h0s2.71-2.71,2.71-2.71Z"/>
  <path class="cls-1" d="m15.05,21.97l-7.11,7.11-2.07-2.07c-.08-.08-.23-.02-.23.09l-.64,7.5c0,.07.06.13.13.13l7.5-.64c.12,0,.18-.14.09-.23l-2.07-2.07,7.01-7.01c-1.18-.58-2.12-1.58-2.61-2.81Z"/>
</svg>