<?xml version="1.0" encoding="UTF-8"?>
<svg id="_레이어_1" data-name="레이어 1" xmlns="http://www.w3.org/2000/svg" viewBox="0 0 40 40">
  <defs>
    <style>
      .cls-1 {
        fill: #666;
        stroke-width: 0px;
      }
    </style>
  </defs>
  <g>
    <path class="cls-1" d="m27.28,17.03l5.3-1.06c-2.68-4.13-7.31-6.87-12.59-6.87-8.27,0-15,6.73-15,15,0,2.36.56,4.72,1.63,6.81l4.31-2.2c-.73-1.43-1.1-2.99-1.1-4.61,0-5.6,4.56-10.16,10.16-10.16,2.86,0,5.44,1.19,7.28,3.09Z"/>
    <path class="cls-1" d="m30.15,24.26c-.02,1.31-.28,2.59-.79,3.79l4.46,1.88c.78-1.85,1.18-3.82,1.18-5.84,0-.98-.1-1.94-.28-2.88l-4.56,3.04Z"/>
  </g>
  <g>
    <path class="cls-1" d="m34.03,17.81l-14.13,3.31,2.08,4.8,12.05-7.14s1.67-.88,0-.97Z"/>
    <path class="cls-1" d="m21.38,26.16c-1.38.43-2.85-.34-3.28-1.72-.43-1.38.34-2.85,1.72-3.28,1.38-.43,2.85.34,3.28,1.72.43,1.38-.34,2.85-1.72,3.28Z"/>
  </g>
</svg>