<?xml version="1.0" encoding="UTF-8"?>
<svg id="_레이어_1" data-name="레이어 1" xmlns="http://www.w3.org/2000/svg" viewBox="0 0 40 40">
  <defs>
    <style>
      .cls-1 {
        fill: #fff;
        stroke-width: 0px;
      }
    </style>
  </defs>
  <path class="cls-1" d="m30.86,14.35c0-.06,0-.12-.02-.17,0-.02-.02-.04-.03-.06-.03-.08-.07-.15-.12-.22-.04-.06-.07-.13-.12-.18-.05-.06-.11-.1-.18-.14-.06-.05-.12-.1-.19-.13-.07-.03-.14-.05-.21-.07-.08-.02-.16-.05-.25-.05-.02,0-.04-.01-.06-.01-.06,0-.11.03-.17.03-.06,0-.12,0-.18.02l-10.55,3.16v-3.47l11.24-3.37c.64-.19,1-.87.81-1.51-.19-.64-.87-1-1.51-.81l-8.32,2.49c-.07,0-.13,0-.2.02l-2.72.81c-.15.04-.29.11-.43.18l-.44.13c-.64.19-1,.87-.81,1.51,0,0,0,0,0,.01-.03.16-.06.32-.06.49v10.67c-.18-.1-.35-.21-.54-.29-.6-.25-1.23-.38-1.89-.38s-1.29.13-1.89.38c-.58.24-1.09.59-1.54,1.04s-.79.96-1.04,1.54c-.25.6-.38,1.23-.38,1.88s.13,1.29.38,1.88c.24.58.59,1.09,1.04,1.54.44.44.96.79,1.54,1.04.6.25,1.23.38,1.89.38s1.29-.13,1.89-.38c.58-.24,1.09-.59,1.54-1.04s.79-.96,1.04-1.54c.25-.6.38-1.23.38-1.88v-8.78l9.68-2.91v7.52c-.18-.1-.35-.21-.54-.29-.6-.25-1.23-.38-1.89-.38s-1.29.13-1.89.38c-.58.24-1.09.59-1.54,1.04-.44.44-.79.96-1.04,1.54-.25.6-.38,1.23-.38,1.88s.13,1.29.38,1.88c.24.58.59,1.09,1.04,1.54.44.44.96.79,1.54,1.04.6.25,1.23.38,1.89.38s1.29-.13,1.89-.38c.58-.24,1.09-.59,1.54-1.04.44-.44.79-.96,1.04-1.54.25-.6.38-1.23.38-1.88v-13.31c0-.06-.03-.11-.03-.17Zm-15.2,15.2c-.46.46-1.07.71-1.71.71s-1.25-.25-1.71-.71c-.46-.46-.71-1.07-.71-1.71s.25-1.25.71-1.71,1.07-.71,1.71-.71,1.25.25,1.71.71c.46.46.71,1.07.71,1.71s-.25,1.25-.71,1.71Zm12.1,0c-.46.46-1.07.71-1.71.71s-1.25-.25-1.71-.71c-.46-.46-.71-1.07-.71-1.71s.25-1.25.71-1.71c.46-.46,1.07-.71,1.71-.71s1.25.25,1.71.71.71,1.07.71,1.71-.25,1.25-.71,1.71Z"/>
</svg>