<?xml version="1.0" encoding="UTF-8"?>
<svg id="_레이어_1" data-name="레이어 1" xmlns="http://www.w3.org/2000/svg" viewBox="0 0 40 40">
  <defs>
    <style>
      .cls-1 {
        fill: #666;
        stroke-width: 0px;
      }
    </style>
  </defs>
  <path class="cls-1" d="m25.87,16.1h-11.75c-2.83,0-5.13,2.23-5.13,4.99v5.6c0,3.82,4.21,7.91,8.13,7.91h5.75c3.92,0,8.13-4.1,8.13-7.91v-5.6c0-2.76-2.3-4.99-5.13-4.99Zm-3.37,10c-.3.3-.64.52-1,.69v2.31c0,.83-.67,1.5-1.5,1.5s-1.5-.67-1.5-1.5v-2.31c-.36-.17-.7-.39-1-.69-1.38-1.38-1.38-3.62,0-5,1.38-1.38,3.62-1.38,5,0,1.38,1.38,1.38,3.62,0,5Z"/>
  <path class="cls-1" d="m14.7,17.6v-4.5c0-2.92,2.38-5.3,5.3-5.3s5.3,2.38,5.3,5.3v4.5h2.4v-4.5c0-4.25-3.45-7.7-7.7-7.7s-7.7,3.45-7.7,7.7v4.5h2.4Z"/>
</svg>