<?xml version="1.0" encoding="UTF-8"?>
<svg id="_레이어_1" data-name="레이어 1" xmlns="http://www.w3.org/2000/svg" viewBox="0 0 40 40">
  <defs>
    <style>
      .cls-1 {
        fill: #666;
        stroke-width: 0px;
      }
    </style>
  </defs>
  <polygon class="cls-1" points="24.1 8.34 32 17.53 24.14 17.53 24.1 8.34"/>
  <path class="cls-1" d="m18.63,12.38v5.5c0,1.52-.12,2.75-1.51,2.75s-1.51-1.23-1.51-2.75v-9c0-1.52,1.12-2.75,2.51-2.75s2.51,1.23,2.51,2.75v.5h1.37v-.5c0-2.34-1.74-4.25-3.88-4.25s-3.88,1.91-3.88,4.25v9c0,2.34.74,4.25,2.88,4.25s2.88-1.91,2.88-4.25v-5.5h-1.37Z"/>
  <path class="cls-1" d="m30,16.99v14.02c0,1.3-1.06,2.36-2.36,2.36h-15.28c-1.3,0-2.36-1.06-2.36-2.36V12.74c0-1.3,1.06-2.36,2.36-2.36h13.35l-1.61-2h-11.74c-2.4,0-4.36,1.96-4.36,4.36v18.28c0,2.4,1.96,4.36,4.36,4.36h15.28c2.4,0,4.36-1.96,4.36-4.36v-13.48l-2-.55Z"/>
</svg>