<?xml version="1.0" encoding="UTF-8"?>
<svg id="_레이어_1" data-name="레이어 1" xmlns="http://www.w3.org/2000/svg" viewBox="0 0 40 40">
  <defs>
    <style>
      .cls-1 {
        fill: none;
        stroke: #666;
        stroke-linecap: round;
        stroke-linejoin: round;
        stroke-width: 2px;
      }

      .cls-2 {
        fill: #cacaca;
      }

      .cls-2, .cls-3 {
        stroke-width: 0px;
      }

      .cls-3 {
        fill: #666;
      }
    </style>
  </defs>
  <path class="cls-2" d="m18.47,19.35c.08-.12.18-.24.29-.35-.11.11-.2.22-.29.35Z"/>
  <g>
    <path class="cls-3" d="m17.82,23.57c-.44-.08-.85-.29-1.19-.62-.9-.9-.9-2.36,0-3.26l2.9-2.9c.9-.9,2.36-.9,3.26,0,.9.9.9,2.36,0,3.26l-1.09,1.09,1.09,1.09,1.09-1.09c1.5-1.5,1.5-3.93,0-5.43s-3.93-1.5-5.43,0l-2.9,2.9c-1.5,1.5-1.5,3.93,0,5.43.32.32.68.57,1.06.75l1.21-1.21Z"/>
    <path class="cls-3" d="m20.07,19.87c-.39-.39-.84-.67-1.31-.86l-1.04,1.04-.24.24c.55.03,1.09.24,1.51.66.9.9.9,2.36,0,3.26l-2.9,2.9c-.9.9-2.36.9-3.26,0s-.9-2.36,0-3.26l1.09-1.09-1.09-1.09-1.09,1.09c-1.5,1.5-1.5,3.93,0,5.43,1.5,1.5,3.93,1.5,5.43,0l2.9-2.9c1.5-1.5,1.5-3.93,0-5.43Z"/>
    <path class="cls-3" d="m21.7,21.13s-.26.47.18.91c.47.47.91.18.91.18l-.04-1.05-1.05-.04Z"/>
    <path class="cls-3" d="m13.92,22.76s.26-.47-.18-.91c-.47-.47-.91-.18-.91-.18l.04,1.05,1.05.04Z"/>
    <path class="cls-3" d="m16.6,24.79s.59.28,1.07-.2c.52-.52.16-1.03.16-1.03l-1.14.05-.09,1.18Z"/>
    <path class="cls-3" d="m18.81,19.03s-.56-.24-1.09.22c-.54.47-.25,1.05-.25,1.05l1.23-.07.11-1.2Z"/>
  </g>
  <rect class="cls-1" x="6.54" y="9.36" width="22.56" height="25.64" rx="4.6" ry="4.6"/>
  <path class="cls-3" d="m27.98,5h-13.13c-2.64,0-4.84,1.87-5.37,4.36h1.6c.49-1.63,1.98-2.82,3.76-2.82h13.13c2.18,0,3.95,1.77,3.95,3.95v16.21c0,1.78-1.2,3.28-2.82,3.76v1.6c2.49-.52,4.36-2.73,4.36-5.37V10.48c0-3.02-2.46-5.48-5.48-5.48Z"/>
</svg>