<svg width="44" height="40" viewBox="0 0 44 40" fill="none" xmlns="http://www.w3.org/2000/svg">
<g clip-path="url(#clip0_10_389)">
<path d="M9.4115 14.7595C8.59267 14.7595 7.92737 15.4248 7.92737 16.2437C7.92737 17.0625 8.59267 17.7278 9.4115 17.7278C10.2303 17.7278 10.8956 17.0625 10.8956 16.2437C10.8956 15.4248 10.2303 14.7595 9.4115 14.7595Z" fill="#999999"/>
<path d="M24.0788 14.606C23.1934 14.606 22.4821 15.3224 22.4821 16.2027C22.4821 17.0829 23.1985 17.7994 24.0788 17.7994C24.959 17.7994 25.6755 17.0829 25.6755 16.2027C25.6755 15.3224 24.959 14.606 24.0788 14.606Z" fill="#999999"/>
<path d="M37.3541 0H5.76766C2.58444 0 0 2.58444 0 5.76766V24.5138C0 27.7022 2.58444 30.2815 5.76766 30.2815H16.9243L20.7165 39.2221C20.7165 39.2221 20.9775 39.9949 21.6121 39.9949C22.2467 39.9949 22.5077 39.2221 22.5077 39.2221L26.2999 30.2815H37.3541C40.5425 30.2815 43.1218 27.697 43.1218 24.5138V5.76766C43.1218 2.57932 40.5374 0 37.3541 0ZM13.5466 16.5711C13.5312 19.9949 9.98465 20.0972 9.98465 20.0972C8.6131 20.0972 7.84033 19.1863 7.84033 19.1863V19.8055H5.261V9.16581C5.261 9.16581 5.25077 9.16581 5.261 9.1607C5.41965 9.1914 7.84033 9.1607 7.84033 9.1607V13.2293C8.44933 12.1955 10.2047 12.2108 10.2047 12.2108C14.0276 12.5691 13.5466 16.5711 13.5466 16.5711ZM18.0911 12.5384V19.826H15.5629V12.61C15.5629 11.6274 14.3449 11.3562 14.3449 11.3562V8.81269C18.3777 8.97646 18.086 12.5384 18.086 12.5384H18.0911ZM24.0788 20.1024C21.74 20.1024 19.8465 18.3572 19.8465 16.2027C19.8465 14.0481 21.74 12.303 24.0788 12.303C26.4176 12.303 28.3112 14.0481 28.3112 16.2027C28.3112 18.3572 26.4176 20.1024 24.0788 20.1024ZM37.9171 20.1024C37.9171 20.1024 37.9529 23.8025 34.1914 23.8025H33.045V21.4023H33.7359C33.7359 21.4023 35.3173 21.5455 35.2968 19.1146C35.2968 19.1146 34.9898 20.1024 32.7687 20.1024C32.7687 20.1024 29.6264 19.8772 29.6264 16.8066V15.6448C29.6264 15.6448 29.6981 12.4667 33.1525 12.2108C33.1525 12.2108 34.5138 12.0676 35.3531 13.1934V12.4104H37.9171V20.1024Z" fill="#999999"/>
<path d="M33.8996 14.6417C33.0348 14.6417 32.3387 15.3428 32.3387 16.2026C32.3387 17.0624 33.0399 17.7635 33.8996 17.7635C34.7594 17.7635 35.4605 17.0624 35.4605 16.2026C35.4605 15.3428 34.7594 14.6417 33.8996 14.6417Z" fill="#999999"/>
</g>
<defs>
<clipPath id="clip0_10_389">
<rect width="43.1218" height="40" fill="white"/>
</clipPath>
</defs>
</svg>
