<svg width="40" height="40" viewBox="0 0 40 40" fill="none" xmlns="http://www.w3.org/2000/svg">
<g clip-path="url(#clip0_10_398)">
<path d="M29.8742 0H10.1258C4.53359 0 0 4.53359 0 10.1258V29.8789C0 35.4712 4.53359 40.0047 10.1258 40.0047H16.9143V25.7156H11.8965V20.0047H16.9143V15.6516C16.9143 10.7002 19.8671 7.96582 24.3769 7.96582C26.5369 7.96582 28.8013 8.35034 28.8013 8.35034V13.2115H26.309C23.8547 13.2115 23.0904 14.7353 23.0904 16.2972V20.0047H28.5687L27.6905 25.7156H23.0857V40.0047H23.0904H29.8695C35.4617 40.0047 39.9953 35.4712 39.9953 29.8789V10.1258C39.9953 4.53359 35.4617 0 29.8695 0H29.8742Z" fill="#999999"/>
</g>
<defs>
<clipPath id="clip0_10_398">
<rect width="40" height="40" fill="white"/>
</clipPath>
</defs>
</svg>
