<svg width="275" height="68" viewBox="0 0 275 68" fill="none" xmlns="http://www.w3.org/2000/svg">
<path d="M138.791 33.8835V36.8235H120.647V24.1115H138.595V27.1075H124.343V33.8835H138.791ZM117.931 41.6675H141.283V44.6915H117.931V41.6675ZM164.604 22.0115V36.8795H161.076V22.0115H164.604ZM152.34 33.7715H156.176V22.4315H159.62V36.7395H156.176V36.0955H152.34V33.7715ZM148.812 25.0915C147.356 25.0915 146.46 25.5115 146.46 26.3235C146.46 27.1635 147.356 27.5835 148.812 27.5835C150.268 27.5835 151.164 27.1635 151.164 26.3235C151.164 25.5115 150.268 25.0915 148.812 25.0915ZM148.812 30.0195C145.396 30.0195 143.184 28.6195 143.184 26.3235C143.184 24.0275 145.396 22.6275 148.812 22.6275C152.228 22.6275 154.44 24.0275 154.44 26.3235C154.44 28.6195 152.228 30.0195 148.812 30.0195ZM147.188 36.8515V33.4635C145.424 33.5475 143.772 33.5755 142.428 33.5755L142.12 30.9715C145.452 30.9715 150.996 30.9155 155.112 30.2435L155.336 32.5395C153.88 32.8755 152.284 33.0995 150.688 33.2115V36.8515H147.188ZM149.848 45.0555H165.276V47.5755H146.208V41.3875H160.936V40.1555H146.152V37.6355H164.604V43.7115H149.848V45.0555ZM176.642 23.9715V27.7235C176.642 32.5115 178.686 37.2155 183.054 39.0915L180.954 42.0875C177.986 40.7435 175.998 38.1955 174.85 35.0315C173.702 38.4755 171.602 41.2475 168.522 42.7035L166.31 39.6515C170.818 37.7195 172.946 32.7355 172.946 27.7235V23.9715H176.642ZM184.314 21.9555H188.01V47.8275H184.314V21.9555ZM196.072 34.1915V38.9795C199.908 38.9515 203.016 38.8115 206.544 38.2795L206.88 41.2195C202.848 41.8355 199.236 41.9475 194.616 41.9475H192.376V24.1115H205.424V27.1075H196.072V31.3075H204.36V34.1915H196.072ZM208.756 21.9835H212.48V47.7995H208.756V21.9835ZM216.342 25.1755H226.506C226.506 32.3995 224.378 38.3075 217.182 42.5075L215.026 39.9315C220.206 36.9075 222.39 33.1835 222.866 28.1155H216.342V25.1755ZM233.926 21.9835H237.454V47.7715H233.926V34.6675H231.63V46.6795H228.186V22.6555H231.63V31.6995H233.926V21.9835ZM249.184 31.5315V28.9555H244.116V31.5315H249.184ZM252.824 23.1035V34.4155H240.476V23.1035H244.116V26.1835H249.184V23.1035H252.824ZM246.692 43.0955V44.7195H260.748V47.5755H243.024V40.4635H256.38V38.8955H242.996V36.0955H260.02V43.0955H246.692ZM260.02 26.9675H263.408V29.9635H260.02V35.0875H256.324V21.9835H260.02V26.9675Z" fill="#999999"/>
<rect x="1.5" y="1.5" width="97" height="65" stroke="#999999" stroke-width="3"/>
<path d="M16.3393 58.7272V51.5222H13.8973V50.6642H19.8043V51.5222H17.3623V58.7272H16.3393ZM21.0213 58.7272V50.6642H22.0443V54.0412H25.8063V50.6642H26.8183V58.7272H25.8063V54.9212H22.0443V58.7272H21.0213ZM28.8042 58.7272V50.6642H33.4572V51.5222H29.8272V54.0522H32.8852V54.9212H29.8272V57.8582H33.5782V58.7272H28.8042ZM38.182 58.7272L36.466 50.6642H37.522L38.369 55.0532C38.523 55.9222 38.688 56.7912 38.842 57.6602H38.886C39.073 56.7912 39.271 55.9222 39.469 55.0532L40.58 50.6642H41.504L42.637 55.0532C42.835 55.9112 43.022 56.7802 43.209 57.6602H43.264C43.418 56.7802 43.572 55.9112 43.726 55.0532L44.573 50.6642H45.552L43.88 58.7272H42.659L41.438 53.8652C41.295 53.2272 41.174 52.6442 41.042 52.0282H40.998C40.866 52.6442 40.723 53.2272 40.591 53.8652L39.392 58.7272H38.182ZM46.7282 58.7272V50.6642H51.3812V51.5222H47.7512V54.0522H50.8092V54.9212H47.7512V57.8582H51.5022V58.7272H46.7282ZM52.975 58.7272V50.6642H53.998V57.8582H57.518V58.7272H52.975ZM58.7169 58.7272V50.6642H59.7399V57.8582H63.2599V58.7272H58.7169ZM69.7458 58.8702C67.7438 58.8702 66.2368 57.3192 66.2368 54.7012C66.2368 52.0942 67.7658 50.5102 69.8118 50.5102C70.7908 50.5102 71.5608 50.9942 72.0228 51.5112L71.4728 52.1712C71.0548 51.7202 70.5158 51.4012 69.8228 51.4012C68.2938 51.4012 67.2818 52.6552 67.2818 54.6682C67.2818 56.7032 68.2498 57.9792 69.7898 57.9792C70.5598 57.9792 71.1428 57.6382 71.6598 57.0772L72.2208 57.7152C71.5828 58.4522 70.7908 58.8702 69.7458 58.8702ZM73.4934 58.7272V50.6642H74.5164V58.7272H73.4934ZM78.1791 58.7272V51.5222H75.7371V50.6642H81.6441V51.5222H79.2021V58.7272H78.1791ZM84.0089 58.7272V55.5922L81.5889 50.6642H82.6779L83.7119 52.9412C83.9759 53.5352 84.2179 54.0962 84.5039 54.7012H84.5479C84.8339 54.0962 85.1089 53.5352 85.3509 52.9412L86.3959 50.6642H87.4519L85.0319 55.5922V58.7272H84.0089Z" fill="#999999"/>
<line x1="8" y1="43.3181" x2="92" y2="43.3181" stroke="#999999"/>
<path d="M18.4887 15.5364L20.8687 17.1604C20.1967 18.7564 19.2727 20.1844 18.6847 21.3044V32.3644C19.0487 31.3004 19.6367 28.6964 19.8607 27.5204L22.5207 28.3884C22.1287 30.1244 21.6527 32.2244 21.1767 33.7924L18.6847 32.8684V34.8284H15.6887V25.2524C15.4087 25.8124 14.9327 26.2324 14.4847 26.7084C13.9807 25.9244 13.3647 24.6924 12.6927 23.9644C15.1847 21.5564 17.0047 19.4844 18.4887 15.5364ZM35.9327 14.4164H29.5487V15.7324H35.1487V22.8724H21.0647V15.7324H26.3847V14.4164H20.7007V11.8404H26.3847C26.3847 11.2524 26.3007 10.5244 26.1607 9.68435H29.6887C29.5767 10.4964 29.5487 11.1684 29.5487 11.8404H35.9327V14.4164ZM36.2127 32.5044L33.5527 33.9324C33.3287 33.2604 32.9367 32.1964 32.7127 31.5244C32.3207 33.7084 31.8447 34.1844 29.6887 34.1844H25.3487C23.3327 34.1844 22.8847 33.2324 22.8847 31.2164V30.6004C22.8847 29.4524 22.8007 28.1924 22.6887 27.0164H25.9087L26.7767 26.2044H20.1127V23.7684H36.0727V26.2044H28.0927C28.5967 26.9604 29.2127 27.7724 29.9687 29.0044L27.8687 30.7404C27.3367 29.7324 26.5807 28.3604 25.9927 27.4924C25.9367 28.1924 25.9087 29.4804 25.9087 30.5724C25.9087 31.3284 26.1327 31.6364 26.6647 31.6364H28.7647C29.8567 31.6364 29.8847 31.1604 29.8007 29.7044C30.8927 30.2924 31.7327 30.7964 32.4327 31.0764C32.0967 30.3204 31.5367 29.3964 31.0607 28.6964L33.4687 27.3524C34.4207 28.8924 35.5407 31.0764 36.2127 32.5044ZM32.1527 20.5764V18.0564H31.0887V20.5764H32.1527ZM28.6527 20.5764V18.0564H27.5047V20.5764H28.6527ZM25.1247 20.5764V18.0564H23.9207V20.5764H25.1247ZM17.9007 9.54435L20.1687 11.1964C18.2367 13.6604 16.6407 15.6204 14.5407 17.2724L12.8047 14.9204C14.8207 13.4364 16.5287 11.5604 17.9007 9.54435ZM56.5016 12.0644C57.0896 12.3164 58.1536 12.7644 58.7136 12.9884C58.1816 14.3044 57.5656 15.3404 56.8096 15.9844L54.8776 14.9764C55.5216 14.3044 56.2216 13.0444 56.5016 12.0644ZM57.5656 9.04035C57.7056 9.54435 58.3496 10.6364 58.8256 11.2244C55.5216 11.9244 44.6296 12.5684 41.2136 12.5684L40.7656 10.4124C42.3896 10.5524 55.2696 9.76835 57.5656 9.04035ZM50.3416 12.2604C50.5096 12.6524 51.6296 14.8644 51.9096 15.0324C51.2376 15.2564 50.1176 15.6764 49.5856 15.9564C49.0816 14.9764 48.4936 13.9124 48.2696 13.1284C48.5776 13.0724 49.7536 12.5124 50.3416 12.2604ZM44.9096 15.3404L42.8096 16.2924C42.0536 14.9484 41.9416 15.1724 41.3536 13.6044C41.9416 13.4084 42.8936 12.9324 43.4816 12.6524C43.8456 13.5764 44.0416 14.0244 44.9096 15.3404ZM57.4536 29.7884L55.0456 30.8804C54.7096 29.7044 54.4576 28.4724 53.7576 27.4084L56.0816 26.6524C56.5576 27.6604 57.0056 28.4444 57.4536 29.7884ZM61.1776 23.9644V28.9484C61.1776 31.3844 60.5896 33.5684 58.2096 34.5204C57.3696 34.8564 56.3056 35.0524 54.8776 35.0524C54.6816 34.1564 54.4576 32.7284 53.9536 31.9724C55.1576 32.1124 55.9976 32.1124 56.5856 32.0004C57.7336 31.8044 58.0416 31.0764 58.1816 29.6204C58.2656 28.8084 58.2096 27.6324 58.1536 26.2604H44.6856L44.3776 27.2404L46.3376 27.2684C46.4216 29.1724 46.3096 31.0204 45.8616 32.9244L42.8376 32.5604C43.5936 31.0204 43.8456 29.8444 43.8456 28.1364C43.6216 30.0964 40.8216 33.5124 40.1776 34.0724C39.6176 33.6804 38.3856 32.1964 37.7416 31.7764C42.1656 28.8084 42.5856 21.2764 42.5856 20.3244V16.3204L57.0896 16.3484L56.5016 20.1844H58.6576L58.0976 23.9644H61.1776ZM53.6456 18.7844H45.5256L45.4696 20.1844H53.5056L53.6456 18.7844ZM55.2696 22.4244H45.2176L45.0216 23.9644H55.0736L55.2696 22.4244ZM54.0376 30.9924L51.4056 31.7764C51.1536 30.3484 50.8456 29.0044 50.2856 27.6604L52.5536 26.8484C53.1136 27.9124 53.7016 29.5644 54.0376 30.9924ZM50.2296 31.8884L47.5136 32.4764C47.5136 30.8244 47.3176 29.1724 46.9816 27.5764L49.3336 27.1564C49.6976 28.2204 50.0336 29.9284 50.2296 31.8884ZM71.0784 18.2244L71.4144 19.4564C71.4144 14.7804 71.4144 15.3964 71.4144 15.3964C71.4144 15.3964 68.6144 19.5964 67.7464 20.8284C68.0264 20.8284 68.5584 20.6884 69.1184 20.5204L68.7544 19.4844L71.0784 18.2244ZM74.1024 16.2364H75.5864V14.1364H74.1024V16.2364ZM74.1024 20.4084H75.5864V18.4204H74.1024V20.4084ZM78.3024 21.0524L78.6104 21.0804C79.1984 20.2124 79.7864 19.1484 80.3184 18.0564C79.6464 17.4404 78.9464 16.7124 78.3024 16.0684V21.0524ZM78.0784 22.6204H72.3384C71.6664 23.0124 70.2384 23.9084 70.2384 23.9084L69.7904 22.5644L64.2744 23.6564L63.7424 20.8844L65.1144 20.8564L66.7664 18.0004C66.7664 18.0004 64.7224 16.5164 63.6304 15.8444L64.8624 13.5204L65.5624 13.9684L67.2424 10.1044L69.8464 11.5044L67.5504 15.2284L68.1664 15.8164L69.5944 13.2684L71.4144 14.2204V12.0084H72.9824L73.3744 9.34835L76.4544 9.93635L75.7824 12.0084H78.3024V13.7444L78.5824 13.1004L79.2824 13.6604L80.4864 10.2164L83.0904 11.2524L81.1864 15.0324L81.8864 15.6484C81.9704 13.7724 81.9144 14.2764 83.1464 12.8484L85.6664 14.1924L81.4384 21.0524L83.3704 20.8004L82.7824 19.2604L84.9384 18.1124C85.6384 19.4844 86.1704 20.7444 86.7584 22.2004L84.4064 23.5724L84.1824 22.7604L78.2744 23.6564L78.0784 22.6204ZM76.7344 22.8164C76.6224 23.4604 76.5384 23.9644 76.5384 24.4404H86.2824V27.0444H77.3504C79.8424 29.5084 83.0904 30.6284 86.5624 31.2724C86.1704 31.9724 85.3304 33.5964 85.0224 34.2684C81.5784 33.1764 78.8904 31.8324 76.5384 29.8444V34.9404H73.3464V29.8444C71.1904 32.2524 68.1384 33.6524 65.0584 34.5484C64.7504 33.7924 63.8824 32.0564 63.3504 31.4404C67.2984 30.9644 69.8744 29.7324 72.5344 27.0444H63.5744V24.4404H73.3464C73.3464 23.9364 73.3464 23.4604 73.2624 22.8164H76.7344Z" fill="#999999"/>
</svg>
