<svg width="286" height="109" viewBox="0 0 286 109" fill="none" xmlns="http://www.w3.org/2000/svg">
<path d="M142.404 72.88V76.24H121.668V61.712H142.18V65.136H125.892V72.88H142.404ZM118.564 81.776H145.252V85.232H118.564V81.776ZM171.905 59.312V76.304H167.873V59.312H171.905ZM157.889 72.752H162.273V59.792H166.209V76.144H162.273V75.408H157.889V72.752ZM153.857 62.832C152.193 62.832 151.169 63.312 151.169 64.24C151.169 65.2 152.193 65.68 153.857 65.68C155.521 65.68 156.545 65.2 156.545 64.24C156.545 63.312 155.521 62.832 153.857 62.832ZM153.857 68.464C149.953 68.464 147.425 66.864 147.425 64.24C147.425 61.616 149.953 60.016 153.857 60.016C157.761 60.016 160.289 61.616 160.289 64.24C160.289 66.864 157.761 68.464 153.857 68.464ZM152.001 76.272V72.4C149.985 72.496 148.097 72.528 146.561 72.528L146.209 69.552C150.017 69.552 156.353 69.488 161.057 68.72L161.313 71.344C159.649 71.728 157.825 71.984 156.001 72.112V76.272H152.001ZM155.041 85.648H172.673V88.528H150.881V81.456H167.713V80.048H150.817V77.168H171.905V84.112H155.041V85.648ZM185.662 61.552V65.84C185.662 71.312 187.998 76.688 192.99 78.832L190.59 82.256C187.198 80.72 184.926 77.808 183.615 74.192C182.302 78.128 179.902 81.296 176.382 82.96L173.854 79.472C179.006 77.264 181.438 71.568 181.438 65.84V61.552H185.662ZM194.431 59.248H198.655V88.816H194.431V59.248ZM207.868 73.232V78.704C212.252 78.672 215.804 78.512 219.836 77.904L220.22 81.264C215.612 81.968 211.484 82.096 206.204 82.096H203.644V61.712H218.556V65.136H207.868V69.936H217.34V73.232H207.868ZM222.364 59.28H226.62V88.784H222.364V59.28ZM231.033 62.928H242.649C242.649 71.184 240.217 77.936 231.993 82.736L229.529 79.792C235.449 76.336 237.945 72.08 238.489 66.288H231.033V62.928ZM251.129 59.28H255.161V88.752H251.129V73.776H248.505V87.504H244.569V60.048H248.505V70.384H251.129V59.28ZM268.567 70.192V67.248H262.775V70.192H268.567ZM272.727 60.56V73.488H258.615V60.56H262.775V64.08H268.567V60.56H272.727ZM265.719 83.408V85.264H281.783V88.528H261.527V80.4H276.791V78.608H261.495V75.408H280.951V83.408H265.719ZM280.951 64.976H284.823V68.4H280.951V74.256H276.727V59.28H280.951V64.976Z" fill="black"/>
<path d="M2 2H102V97C102 102.523 97.5229 107 92 107H12C6.47715 107 2 102.523 2 97V2Z" fill="#E5001C" stroke="#E5001C" stroke-width="4"/>
<path d="M15.2338 99V91.14H12.5698V90.204H19.0138V91.14H16.3498V99H15.2338ZM20.3414 99V90.204H21.4574V93.888H25.5614V90.204H26.6654V99H25.5614V94.848H21.4574V99H20.3414ZM28.8319 99V90.204H33.9079V91.14H29.9479V93.9H33.2839V94.848H29.9479V98.052H34.0399V99H28.8319ZM39.0622 99L37.1902 90.204H38.3422L39.2662 94.992C39.4342 95.94 39.6142 96.888 39.7822 97.836H39.8302C40.0342 96.888 40.2502 95.94 40.4662 94.992L41.6782 90.204H42.6862L43.9222 94.992C44.1382 95.928 44.3422 96.876 44.5462 97.836H44.6062C44.7742 96.876 44.9422 95.928 45.1102 94.992L46.0342 90.204H47.1022L45.2782 99H43.9462L42.6142 93.696C42.4582 93 42.3262 92.364 42.1822 91.692H42.1342C41.9902 92.364 41.8342 93 41.6902 93.696L40.3822 99H39.0622ZM48.3853 99V90.204H53.4613V91.14H49.5013V93.9H52.8373V94.848H49.5013V98.052H53.5933V99H48.3853ZM55.2 99V90.204H56.316V98.052H60.156V99H55.2ZM61.4639 99V90.204H62.5799V98.052H66.4199V99H61.4639ZM73.4954 99.156C71.3114 99.156 69.6674 97.464 69.6674 94.608C69.6674 91.764 71.3354 90.036 73.5674 90.036C74.6354 90.036 75.4754 90.564 75.9794 91.128L75.3794 91.848C74.9234 91.356 74.3354 91.008 73.5794 91.008C71.9114 91.008 70.8074 92.376 70.8074 94.572C70.8074 96.792 71.8634 98.184 73.5434 98.184C74.3834 98.184 75.0194 97.812 75.5834 97.2L76.1954 97.896C75.4994 98.7 74.6354 99.156 73.4954 99.156ZM77.5837 99V90.204H78.6997V99H77.5837ZM82.6954 99V91.14H80.0314V90.204H86.4754V91.14H83.8114V99H82.6954ZM89.0552 99V95.58L86.4152 90.204H87.6032L88.7312 92.688C89.0192 93.336 89.2832 93.948 89.5952 94.608H89.6432C89.9552 93.948 90.2552 93.336 90.5192 92.688L91.6592 90.204H92.8112L90.1712 95.58V99H89.0552Z" fill="white"/>
<line x1="9" y1="82.5" x2="95" y2="82.5" stroke="white"/>
<path d="M15.9871 51.6L18.7071 53.456C17.9391 55.28 16.8831 56.912 16.2111 58.192V70.832C16.6271 69.616 17.2991 66.64 17.5551 65.296L20.5951 66.288C20.1471 68.272 19.6031 70.672 19.0591 72.464L16.2111 71.408V73.648H12.7871V62.704C12.4671 63.344 11.9231 63.824 11.4111 64.368C10.8351 63.472 10.1311 62.064 9.36313 61.232C12.2111 58.48 14.2911 56.112 15.9871 51.6ZM35.9231 50.32H28.6271V51.824H35.0271V59.984H18.9311V51.824H25.0111V50.32H18.5151V47.376H25.0111C25.0111 46.704 24.9151 45.872 24.7551 44.912H28.7871C28.6591 45.84 28.6271 46.608 28.6271 47.376H35.9231V50.32ZM36.2431 70.992L33.2031 72.624C32.9471 71.856 32.4991 70.64 32.2431 69.872C31.7951 72.368 31.2511 72.912 28.7871 72.912H23.8271C21.5231 72.912 21.0111 71.824 21.0111 69.52V68.816C21.0111 67.504 20.9151 66.064 20.7871 64.72H24.4671L25.4591 63.792H17.8431V61.008H36.0831V63.792H26.9631C27.5391 64.656 28.2431 65.584 29.1071 66.992L26.7071 68.976C26.0991 67.824 25.2351 66.256 24.5631 65.264C24.4991 66.064 24.4671 67.536 24.4671 68.784C24.4671 69.648 24.7231 70 25.3311 70H27.7311C28.9791 70 29.0111 69.456 28.9151 67.792C30.1631 68.464 31.1231 69.04 31.9231 69.36C31.5391 68.496 30.8991 67.44 30.3551 66.64L33.1071 65.104C34.1951 66.864 35.4751 69.36 36.2431 70.992ZM31.6031 57.36V54.48H30.3871V57.36H31.6031ZM27.6031 57.36V54.48H26.2911V57.36H27.6031ZM23.5711 57.36V54.48H22.1951V57.36H23.5711ZM15.3151 44.752L17.9071 46.64C15.6991 49.456 13.8751 51.696 11.4751 53.584L9.49113 50.896C11.7951 49.2 13.7471 47.056 15.3151 44.752ZM59.4304 47.632C60.1024 47.92 61.3184 48.432 61.9584 48.688C61.3504 50.192 60.6464 51.376 59.7824 52.112L57.5744 50.96C58.3104 50.192 59.1104 48.752 59.4304 47.632ZM60.6464 44.176C60.8064 44.752 61.5424 46 62.0864 46.672C58.3104 47.472 45.8624 48.208 41.9584 48.208L41.4464 45.744C43.3024 45.904 58.0224 45.008 60.6464 44.176ZM52.3904 47.856C52.5824 48.304 53.8624 50.832 54.1824 51.024C53.4144 51.28 52.1344 51.76 51.5264 52.08C50.9504 50.96 50.2784 49.744 50.0224 48.848C50.3744 48.784 51.7184 48.144 52.3904 47.856ZM46.1824 51.376L43.7824 52.464C42.9184 50.928 42.7904 51.184 42.1184 49.392C42.7904 49.168 43.8784 48.624 44.5504 48.304C44.9664 49.36 45.1904 49.872 46.1824 51.376ZM60.5184 67.888L57.7664 69.136C57.3824 67.792 57.0944 66.384 56.2944 65.168L58.9504 64.304C59.4944 65.456 60.0064 66.352 60.5184 67.888ZM64.7744 61.232V66.928C64.7744 69.712 64.1024 72.208 61.3824 73.296C60.4224 73.68 59.2064 73.904 57.5744 73.904C57.3504 72.88 57.0944 71.248 56.5184 70.384C57.8944 70.544 58.8544 70.544 59.5264 70.416C60.8384 70.192 61.1904 69.36 61.3504 67.696C61.4464 66.768 61.3824 65.424 61.3184 63.856H45.9264L45.5744 64.976L47.8144 65.008C47.9104 67.184 47.7824 69.296 47.2704 71.472L43.8144 71.056C44.6784 69.296 44.9664 67.952 44.9664 66C44.7104 68.24 41.5104 72.144 40.7744 72.784C40.1344 72.336 38.7264 70.64 37.9904 70.16C43.0464 66.768 43.5264 58.16 43.5264 57.072V52.496L60.1024 52.528L59.4304 56.912H61.8944L61.2544 61.232H64.7744ZM56.1664 55.312H46.8864L46.8224 56.912H56.0064L56.1664 55.312ZM58.0224 59.472H46.5344L46.3104 61.232H57.7984L58.0224 59.472ZM56.6144 69.264L53.6064 70.16C53.3184 68.528 52.9664 66.992 52.3264 65.456L54.9184 64.528C55.5584 65.744 56.2304 67.632 56.6144 69.264ZM52.2624 70.288L49.1584 70.96C49.1584 69.072 48.9344 67.184 48.5504 65.36L51.2384 64.88C51.6544 66.096 52.0384 68.048 52.2624 70.288ZM76.0896 54.672L76.4736 56.08C76.4736 50.736 76.4736 51.44 76.4736 51.44C76.4736 51.44 73.2736 56.24 72.2816 57.648C72.6016 57.648 73.2096 57.488 73.8496 57.296L73.4336 56.112L76.0896 54.672ZM79.5456 52.4H81.2416V50H79.5456V52.4ZM79.5456 57.168H81.2416V54.896H79.5456V57.168ZM84.3456 57.904L84.6976 57.936C85.3696 56.944 86.0416 55.728 86.6496 54.48C85.8816 53.776 85.0816 52.944 84.3456 52.208V57.904ZM84.0896 59.696H77.5296C76.7616 60.144 75.1296 61.168 75.1296 61.168L74.6176 59.632L68.3136 60.88L67.7056 57.712L69.2736 57.68L71.1616 54.416C71.1616 54.416 68.8256 52.72 67.5776 51.952L68.9856 49.296L69.7856 49.808L71.7056 45.392L74.6816 46.992L72.0576 51.248L72.7616 51.92L74.3936 49.008L76.4736 50.096V47.568H78.2656L78.7136 44.528L82.2336 45.2L81.4656 47.568H84.3456V49.552L84.6656 48.816L85.4656 49.456L86.8416 45.52L89.8176 46.704L87.6416 51.024L88.4416 51.728C88.5376 49.584 88.4736 50.16 89.8816 48.528L92.7616 50.064L87.9296 57.904L90.1376 57.616L89.4656 55.856L91.9296 54.544C92.7296 56.112 93.3376 57.552 94.0096 59.216L91.3216 60.784L91.0656 59.856L84.3136 60.88L84.0896 59.696ZM82.5536 59.92C82.4256 60.656 82.3296 61.232 82.3296 61.776H93.4656V64.752H83.2576C86.1056 67.568 89.8176 68.848 93.7856 69.584C93.3376 70.384 92.3776 72.24 92.0256 73.008C88.0896 71.76 85.0176 70.224 82.3296 67.952V73.776H78.6816V67.952C76.2176 70.704 72.7296 72.304 69.2096 73.328C68.8576 72.464 67.8656 70.48 67.2576 69.776C71.7696 69.232 74.7136 67.824 77.7536 64.752H67.5136V61.776H78.6816C78.6816 61.2 78.6816 60.656 78.5856 59.92H82.5536Z" fill="white"/>
</svg>
